<svg xmlns="http://www.w3.org/2000/svg" width="94" height="50"><g class="layer"><path fill="#fff" d="m73.9 1.11-6.72 27.95-6.75-27.95H40.95v10.32C38.58 2.4 29.89.13 22.13 0 12.67-.12 2.18 4.07 1.82 16.85h13.09c0-3.86 3.46-6.07 6.72-6.01 4.01-.04 5.86 1.71 5.95 4.43-.14 2.37-1.5 4.01-5.91 4.01h-4.41v9.28h4c2.27 0 5.43 1.26 5.55 4.56.15 3.94-2.52 5.67-5.82 5.7-5.89-.22-7.41-4.84-7.41-8.81H0C.06 32.68-.03 50.13 21.26 50c10.2.09 17.62-4.29 19.72-10.33v9.26h13.1V18.77l7.25 30.16h11.7L80.3 18.8v30.16h13.37V1.11H73.9zM40.99 29c-1.67-3.53-4.02-5.07-5.34-5.56 2.77-1.26 4.23-2.97 5.34-6.37V29z"/></g></svg>