<svg xmlns="http://www.w3.org/2000/svg" xml:space="preserve" style="enable-background:new 0 0 750 500" viewBox="0 0 750 500"><style>.st0{fill:#ebebeb}.st1{fill:#f5f5f5}.st2{fill:#e0e0e0}.st3{fill:#ffbe9d}.st4{fill:#eb996e}.st5{fill:#263238}.st6{fill:#455a64}.st7{fill:#fff}.st9{fill:#28110e}.st10{fill:#9b6e65}.st11{fill:#704c45}.st12{fill:#012e40}.st13{opacity:.2}.st14{fill:#024959}.st15{fill:#c78976}.st16{fill:#925b4c}.st17{opacity:.3}</style><g id="Background_Complete"><path d="M367.53 51.46c1.85-.78 3.17-2.69 3.18-4.94.01-2.95-2.22-5.36-4.99-5.37-2.77-.01-5.02 2.37-5.03 5.32-.01 2.27 1.32 4.21 3.19 4.99-7.71 1.16-7.36 9.54-7.36 9.54l18.24.08c0 .01.42-8.47-7.23-9.62zM653.04 155.47c4.1-1.72 7.01-5.94 7.03-10.92.03-6.52-4.91-11.83-11.02-11.86-6.11-.03-11.09 5.23-11.12 11.75-.02 5.02 2.91 9.3 7.05 11.02-17.03 2.57-16.26 21.08-16.26 21.08l40.28.19c.01.01.93-18.71-15.96-21.26z" class="st0"/><path d="M648.87 200.46c-24.45 0-44.33-19.89-44.33-44.33s19.89-44.33 44.33-44.33c24.45 0 44.33 19.89 44.33 44.33s-19.89 44.33-44.33 44.33zm0-87.41c-23.75 0-43.07 19.32-43.07 43.07s19.32 43.07 43.07 43.07 43.07-19.32 43.07-43.07-19.32-43.07-43.07-43.07zM169.88 98.54c3.74-1.57 6.39-5.42 6.42-9.96.02-5.95-4.48-10.79-10.06-10.82-5.58-.03-10.12 4.78-10.14 10.72-.02 4.58 2.66 8.48 6.44 10.06-15.54 2.34-14.84 19.23-14.84 19.23l36.75.17s.84-17.07-14.57-19.4z" class="st0"/><path d="M166.08 139.64c-22.33 0-40.51-18.17-40.51-40.51 0-22.34 18.17-40.51 40.51-40.51 22.34 0 40.51 18.17 40.51 40.51-.01 22.34-18.18 40.51-40.51 40.51zm0-79.75c-21.64 0-39.24 17.6-39.24 39.24s17.6 39.24 39.24 39.24 39.24-17.6 39.24-39.24c0-21.63-17.6-39.24-39.24-39.24zM526.55 88.79c2.92-1.23 5-4.24 5.02-7.8.02-4.66-3.5-8.45-7.87-8.47-4.36-.02-7.92 3.74-7.94 8.39-.01 3.59 2.08 6.64 5.04 7.87-12.16 1.83-11.61 15.05-11.61 15.05l28.76.13c0 .02.66-13.34-11.4-15.17z" class="st0"/><path d="M523.57 121.04c-17.56 0-31.84-14.28-31.84-31.84 0-17.56 14.28-31.84 31.84-31.84 17.56 0 31.84 14.28 31.84 31.84 0 17.56-14.28 31.84-31.84 31.84zm0-62.41C506.71 58.63 493 72.34 493 89.2s13.72 30.58 30.58 30.58 30.58-13.72 30.58-30.58c-.01-16.86-13.73-30.57-30.59-30.57zM411.04 156.63c2.06-.87 3.53-3 3.55-5.5.01-3.29-2.47-5.96-5.56-5.98-3.08-.01-5.59 2.64-5.6 5.93-.01 2.53 1.47 4.69 3.56 5.56-8.59 1.29-8.2 10.63-8.2 10.63l20.31.09c-.01-.01.45-9.45-8.06-10.73z" class="st0"/><path d="M408.94 179.49c-12.43 0-22.54-10.11-22.54-22.54s10.11-22.54 22.54-22.54 22.54 10.11 22.54 22.54-10.11 22.54-22.54 22.54zm0-44.06c-11.87 0-21.53 9.66-21.53 21.53s9.66 21.53 21.53 21.53c11.87 0 21.53-9.66 21.53-21.53s-9.66-21.53-21.53-21.53zM64.87 254.64c1.88-.79 3.22-2.73 3.23-5.01.01-2.99-2.25-5.43-5.06-5.44-2.8-.01-5.09 2.4-5.1 5.39-.01 2.31 1.34 4.27 3.24 5.06-7.82 1.18-7.46 9.67-7.46 9.67l18.48.09s.42-8.59-7.33-9.76z" class="st0"/><path d="M62.96 275.62c-11.41 0-20.69-9.28-20.69-20.68 0-11.41 9.28-20.69 20.69-20.69 11.41 0 20.69 9.28 20.69 20.69-.01 11.4-9.29 20.68-20.69 20.68zm0-40.11c-10.71 0-19.42 8.71-19.42 19.42s8.71 19.42 19.42 19.42 19.42-8.71 19.42-19.42c0-10.7-8.71-19.42-19.42-19.42z" class="st0"/><path d="M76.83 239.22c-.15-.1 15.78-24.39 35.57-54.24 19.8-29.86 35.97-53.98 36.13-53.88.15.1-15.77 24.38-35.58 54.24-19.8 29.86-35.97 53.98-36.12 53.88zM429.84 151.81c-.08-.12 15.39-10.01 34.53-22.08 19.15-12.08 34.74-21.76 34.82-21.64.08.12-15.38 10.01-34.54 22.08-19.15 12.07-34.73 21.76-34.81 21.64zM387.41 156.96c-.02.14-41.96-7-93.66-15.94-51.71-8.95-93.6-16.32-93.58-16.46.02-.14 41.95 7 93.66 15.94 51.71 8.95 93.61 16.32 93.58 16.46zM610.11 136.81c-.07.12-13.02-7.59-28.92-17.23-15.9-9.64-28.72-17.56-28.65-17.68.07-.12 13.02 7.59 28.92 17.24 15.9 9.63 28.72 17.55 28.65 17.67zM125.46 105.58c0 .14-12.05.41-26.92.58-14.87.18-26.93.21-26.93.06 0-.14 12.05-.41 26.93-.58 14.86-.18 26.92-.21 26.92-.06zM57.96 105.49c1.18-.5 2.02-1.71 2.03-3.15.01-1.88-1.41-3.41-3.18-3.42-1.76-.01-3.2 1.51-3.2 3.39-.01 1.45.84 2.68 2.03 3.18-4.91.74-4.69 6.08-4.69 6.08l11.61.05c.01 0 .27-5.4-4.6-6.13z" class="st0"/><path d="M56.76 118.91c-7.29 0-13.23-5.93-13.23-13.23 0-7.29 5.93-13.23 13.23-13.23 7.29 0 13.23 5.93 13.23 13.23 0 7.29-5.93 13.23-13.23 13.23zm0-25.2c-6.6 0-11.97 5.37-11.97 11.97 0 6.6 5.37 11.97 11.97 11.97s11.97-5.37 11.97-11.97c0-6.6-5.37-11.97-11.97-11.97zM365.65 72.53c-11.46 0-20.78-9.32-20.78-20.78s9.32-20.78 20.78-20.78 20.78 9.32 20.78 20.78c-.01 11.46-9.33 20.78-20.78 20.78zm0-39.57c-10.36 0-18.79 8.43-18.79 18.79s8.43 18.79 18.79 18.79 18.79-8.43 18.79-18.79-8.43-18.79-18.79-18.79zM397.33 138.68c-.02.01-.11-.23-.27-.67-.17-.5-.4-1.15-.68-1.96-.6-1.76-1.43-4.21-2.45-7.21-2.09-6.08-5.09-14.44-8.69-23.57-3.6-9.13-7.11-17.29-9.73-23.16-1.3-2.89-2.36-5.25-3.12-6.95-.35-.78-.63-1.41-.84-1.89-.19-.44-.28-.67-.26-.68.02-.01.14.21.36.63.24.47.55 1.08.93 1.85.8 1.61 1.92 3.96 3.28 6.88 2.71 5.84 6.28 13.98 9.88 23.12 3.6 9.14 6.55 17.53 8.55 23.64 1 3.06 1.79 5.54 2.3 7.27.24.82.43 1.48.58 1.99.12.46.18.7.16.71z" class="st0"/><path d="M26.11 398.21v35.05h-5.85v3.8h5.85v23.46H135.5v-21.35h-8.1v-4.65h8.1v-6.97h3.6v-3.17h-4.28v-26.17H26.11z" class="st1"/><path d="M106.45 398.31v61.82h29.05v-21.34h-8.1v-4.26l8.1.14v-6.97h3.68l-.08-3.6-4.27-.1v-25.79z" class="st2"/><path d="M108.52 436.56c0 .21-19.79.39-44.21.39s-44.21-.17-44.21-.39c0-.21 19.79-.39 44.21-.39s44.21.18 44.21.39zM108.52 433c0 .21-19.79.39-44.21.39s-44.21-.17-44.21-.39c0-.21 19.79-.39 44.21-.39s44.21.18 44.21.39zM114.2 423.42c0 .21-19.79.39-44.21.39s-44.21-.17-44.21-.39c0-.21 19.79-.39 44.21-.39s44.21.18 44.21.39zM114.75 449.53c0 .21-19.79.39-44.21.39s-44.21-.17-44.21-.39c0-.21 19.79-.39 44.21-.39 24.41 0 44.21.18 44.21.39z" class="st2"/><path d="M38.3 336.51v35.05h-5.85v3.8h5.85v23.46h109.39v-21.35h-8.1v-4.65h8.1v-6.97h3.6v-3.17h-4.28v-26.17H38.3z" class="st1"/><path d="M118.64 336.61v61.82h29.05v-21.34h-8.11v-4.26l8.11.14V366h3.67l-.07-3.6-4.28-.11v-25.78z" class="st2"/><path d="M120.71 374.86c0 .21-19.79.39-44.21.39s-44.21-.17-44.21-.39c0-.21 19.79-.39 44.21-.39 24.41 0 44.21.18 44.21.39zM120.71 371.3c0 .21-19.79.39-44.21.39s-44.21-.17-44.21-.39c0-.21 19.79-.39 44.21-.39 24.41 0 44.21.18 44.21.39zM126.39 361.72c0 .21-19.79.39-44.21.39s-44.21-.17-44.21-.39c0-.21 19.79-.39 44.21-.39 24.41 0 44.21.17 44.21.39zM126.93 387.83c0 .21-19.79.39-44.21.39s-44.21-.17-44.21-.39c0-.21 19.79-.39 44.21-.39s44.21.18 44.21.39z" class="st2"/><path d="M684.12 337.17c6.42-3.31 13.98-3.74 21.11-2.57 3.83.63 7.82 1.78 10.43 4.66 2.61 2.88 3.1 7.94.11 10.41-1.78 1.47-4.27 1.69-6.58 1.67-5.58-.07-11.77-1.05-16.23 2.31-2.54 1.92-4.24 5.1-7.28 6.04-2.97.92-6.33-.83-7.91-3.52s-1.63-6.04-.89-9.07c-.01 0 .77-6.6 7.24-9.93zM669.41 308.77c3.93 5.61 11.56 3.75 15.1.33 3.54-3.42 5.03-8.38 6.39-13.11 3.11-10.81 6.25-22.15 3.93-33.15-.69-3.29-1.92-6.57-4.23-9.01-2.31-2.44-5.87-3.89-9.12-3.03-3.85 1.02-6.24 4.78-7.97 8.37a79.058 79.058 0 0 0-7.81 33.92c-.02 5.44.62 11.17 3.71 15.68M658.63 316.81c4.26-5.06 5.07-12.44 3.18-18.78-1.9-6.34-6.18-11.73-11.12-16.13a59.888 59.888 0 0 0-19.91-11.75c-2.88-1.01-5.92-1.81-8.96-1.52-3.04.29-6.1 1.84-7.52 4.55-2.1 4-.09 8.85 2.09 12.8 3.83 6.97 8.21 13.64 13.08 19.92 3.92 5.05 8.41 10.04 14.39 12.32 5.97 2.28 12.18 2.02 15.35-2.13" class="st0"/><path d="M669.14 393.36c.07 0 .19-.9.36-2.55.18-1.85.41-4.18.68-6.95.32-2.93.75-6.41 1.56-10.2.81-3.78 2.08-7.88 3.71-12.04 1.69-4.13 3.74-7.89 6.15-10.89 2.39-3.02 5.16-5.2 7.77-6.46a21.79 21.79 0 0 1 6.55-2.04c1.63-.17 2.54-.3 2.54-.37s-.91-.08-2.58-.04c-1.65.11-4.08.53-6.82 1.78-2.75 1.22-5.69 3.44-8.2 6.52-2.52 3.07-4.66 6.91-6.37 11.11-1.66 4.23-2.91 8.37-3.68 12.24-.77 3.86-1.12 7.38-1.36 10.33-.22 2.95-.3 5.34-.34 7-.06 1.64-.04 2.55.03 2.56z" class="st2"/><path d="M669.62 388.01c.04 0 .06-.41.07-1.18 0-.89-.01-2.01-.01-3.38-.01-2.93-.01-7.18.15-12.42.26-10.49 1.16-21.77 2.91-37.68 1.65-14.96 3.87-32.37 6.21-43.69.5-2.57 1.01-4.89 1.48-6.92.45-2.03.84-3.79 1.21-5.2.32-1.34.58-2.42.79-3.29.17-.75.24-1.16.21-1.17-.03-.01-.18.37-.41 1.11-.26.85-.58 1.92-.98 3.24-.44 1.41-.88 3.15-1.39 5.17-.53 2.02-1.09 4.33-1.64 6.9-2.31 10.26-4.77 24.59-6.53 40.54-1.75 15.94-2.53 30.46-2.6 40.98-.06 5.26.05 9.51.18 12.45.08 1.37.15 2.49.21 3.38.06.75.1 1.16.14 1.16z" class="st2"/><path d="M669.69 360.01c.07 0 .06-1.26-.02-3.53-.13-2.27-.44-5.55-1.08-9.57-.68-4.01-1.62-8.77-3.11-13.94-.64-2.36-2.16-8.03-5.83-16.5-4.84-11.47-11.41-20.85-17.12-26.66-1.34-1.54-2.83-2.65-4.03-3.74-.62-.52-1.16-1.04-1.72-1.46-.56-.39-1.08-.74-1.56-1.08-1.88-1.29-2.93-1.96-2.97-1.9-.17.23 4.21 2.81 9.75 8.69 5.51 5.87 11.9 15.19 16.69 26.56 2.67 6.17 4.54 11.67 5.86 16.34 1.53 5.12 2.54 9.83 3.31 13.8.73 3.98 1.15 7.23 1.41 9.47.2 2.27.35 3.52.42 3.52zM642.63 409.4l2.8 38.44h49.38l2.81-38.44zM637.86 394.25h65.66v15.15h-65.66z" class="st2"/><path d="M637.86 446.37v4.2H702.43v-4.2z" class="st0"/><path d="m643.96 457.96-3.02-7.39h59.13l-3.52 7.39z" class="st2"/><path d="M696.7 421.96c.01.01-.07.13-.23.35-.2.26-.44.58-.74.98-.7.9-1.66 2.13-2.88 3.68l-.13.16-.12-.17c-1.81-2.5-4.22-5.84-7.07-9.77h.41c-2.1 2.98-4.44 6.29-6.96 9.85l-.22.31-.24-.29c-2.57-3.06-5.36-6.37-8.25-9.82l.48-.01c-.14.18-.3.38-.45.57-2.56 3.21-5.04 6.31-7.38 9.25l-.25.31-.23-.32c-2.51-3.54-4.85-6.86-6.96-9.85l.4.02c-3.43 3.91-6.34 7.22-8.57 9.77l-.15.17-.12-.2c-1.13-1.9-2.03-3.41-2.68-4.51-.28-.49-.51-.89-.69-1.2-.15-.27-.22-.42-.21-.43.01-.01.11.12.29.38.2.3.45.68.76 1.16.69 1.08 1.63 2.56 2.82 4.43l-.27-.02c2.2-2.58 5.06-5.93 8.44-9.89l.21-.25.19.27c2.14 2.98 4.5 6.28 7.02 9.81l-.47-.01c2.34-2.94 4.81-6.05 7.36-9.26.16-.2.31-.39.45-.57l.23-.29.24.29c2.89 3.45 5.67 6.78 8.23 9.84l-.46.02c2.54-3.54 4.9-6.84 7.03-9.8l.21-.29.2.29c2.78 3.98 5.15 7.35 6.92 9.88l-.25-.01c1.26-1.51 2.26-2.71 2.99-3.59.33-.38.59-.68.8-.93.19-.21.29-.32.3-.31zM698.31 409.15c0 .17-12.37.31-27.63.31-15.27 0-27.64-.14-27.64-.31 0-.17 12.37-.31 27.64-.31 15.25 0 27.63.14 27.63.31zM700.8 450.98c0 .17-13.45.31-30.03.31-16.59 0-30.04-.14-30.04-.31 0-.17 13.44-.31 30.04-.31 16.58 0 30.03.14 30.03.31z" class="st1"/></g><g id="Character_2"><path d="M426.04 361.75s10.56-6.58 14.55-6.14l22.87 5.33s1.96 2.14-2.01 4.11c-3.91 1.94-9-.86-9-.86l-5.57.78 3.84 3.21 15.17 4.66s10.99 3.11 9.66 4.73c-1.33 1.62-4.64 1.81-9.38.47L455.41 375s-1.88-.41 1.14 1.7c3.03 2.11 16.35 5.37 18.1 6.24 1.75.87 6.54 1.6 6.02 4.33-.52 2.73-6.52.53-6.52.53l-19.7-4.57s7.78 3.36 9.1 3.98c1.32.62 5.63 1.81 7.93 2.96s3.4 2.67 3.14 3.88c-.48 2.18-2.49 1.94-2.49 1.94l-16.67-5.72s-7.56-3.01-8.07-2.91c-.51.11 2.95 3.33 2.95 3.33l5.32 2.72s7.68 2.57 7.7 4.7c.02 2.13-1.58 2.05-1.58 2.05l-14-4.83-15.63-7.92-11.71-7.18s2.11-8.26 1.71-8.62c-.38-.35 3.89-9.86 3.89-9.86z" class="st3"/><path d="M431.52 377.27c-.04-.16 1.46-.55 3.77-1.38 2.24-.84 5.53-2.31 7.22-5.58.75-1.43 1.03-3.01.76-4.37l-.1-.5.55-.07c2.42-.31 4.69-.84 6.22-1.05 1.55-.25 2.51-.27 2.51-.14 0 .09-.87.3-2.39.71-1.55.37-3.59 1.01-6.31 1.43l.45-.57c.36 1.58.06 3.43-.79 5.02-.92 1.78-2.35 3.14-3.8 4.02-1.45.9-2.89 1.41-4.09 1.77-2.43.69-3.97.83-4 .71z" class="st4"/><path d="m216.6 462.58-1.85-69.02 121.04 2.34 16.47 64.08-135.66 2.6" class="st5"/><path d="m276.84 200.69-9.1 8.62s-34.03 8.46-39.97 14.4c-5.95 5.95-9.05 97.63-8.65 103.97.4 6.34-.02 61.44-.02 61.44s-2 21.01 0 22.2c2 1.19 40.16 1.7 59.19 2.1 19.03.4 59.38 1.51 61.76-.47s-5.91-43.08-5.91-43.08l-3.3-18.95 1.02-33.14 6.96-45.59 5.15-47.17s-13.87-8.32-20.61-9.91c-6.74-1.59-46.52-14.42-46.52-14.42z" class="st6"/><path d="M377.19 333.05 358.7 255.4a87.055 87.055 0 0 0-6.36-17.85c-2.87-5.89-6.42-12.32-8.37-12.54-11.47-1.32-17.44 33.69-17.44 33.69v44.39l10.83 48.08a21.275 21.275 0 0 0 14.32 15.61l73.39 23.36 8.5-36.43-56.38-20.66zM246.09 216.77s-27.89 3.94-36.89 25.22c0 0-27.87 108.48-23.21 122.77 4.66 14.29 40.69 69.43 40.69 69.43l31.59-16.68s-30.87-64.07-30.87-71.13c-.01-7.07 18.69-129.61 18.69-129.61z" class="st6"/><path d="M258.26 417.51c-.01 0-.07-.11-.18-.35-.12-.26-.27-.6-.47-1.04-.41-.94-1-2.29-1.76-4-1.52-3.51-3.69-8.55-6.38-14.77-5.35-12.51-12.72-29.75-20.86-48.8-.37-.88-.75-1.75-1.09-2.56l-.02-.05v-.04c.08-1.31.34-2.53.58-3.75.27-1.21.53-2.42.82-3.61.56-2.38 1.16-4.71 1.75-7 1.2-4.57 2.35-8.97 3.45-13.16 2.21-8.37 4.18-15.9 5.79-22.22a900.05 900.05 0 0 0 3.67-14.98c.41-1.75.72-3.11.95-4.07.11-.44.19-.79.26-1.06.06-.24.1-.36.1-.36.01 0-.01.13-.05.37-.05.26-.12.62-.21 1.07-.2.96-.49 2.34-.85 4.1-.79 3.55-1.94 8.69-3.51 15.02-1.56 6.33-3.49 13.87-5.68 22.25-1.09 4.19-2.23 8.6-3.41 13.17-.58 2.29-1.18 4.62-1.74 6.99-.54 2.36-1.18 4.82-1.39 7.23l-.02-.1c.35.81.72 1.68 1.09 2.56 8.09 19.07 15.41 36.33 20.72 48.86 2.62 6.24 4.74 11.3 6.22 14.83.72 1.73 1.28 3.09 1.67 4.04.18.45.32.79.42 1.06.09.24.13.37.13.37zM338.67 264.01c.02 0 .02.22 0 .63-.02.47-.05 1.06-.09 1.8-.11 1.63-.25 3.87-.43 6.62-.4 5.59-.88 13.31-1.77 21.82-.9 8.51-2.15 16.16-3.11 21.68-.48 2.76-.89 4.99-1.19 6.53-.15.72-.26 1.31-.36 1.77-.09.4-.14.61-.16.61-.02 0 0-.22.06-.63.07-.46.15-1.05.26-1.79.25-1.61.6-3.83 1.03-6.55.86-5.53 2.06-13.18 2.95-21.67.88-8.49 1.42-16.22 1.92-21.8.25-2.74.45-4.98.6-6.61.08-.73.14-1.33.19-1.79.05-.4.08-.62.1-.62z" class="st5"/><path d="m230.83 431.99 3.13 5.77s15.51-5.91 22.89-15.87l-2.04-1.96-23.98 12.06z" class="st3"/><path d="M261.43 416.25c.03.02-.29.54-.89 1.47-.3.47-.67 1.03-1.15 1.66-.48.62-.98 1.37-1.64 2.11-.64.76-1.33 1.6-2.14 2.43-.78.87-1.69 1.72-2.64 2.62a58.298 58.298 0 0 1-6.7 5.26 61.767 61.767 0 0 1-7.43 4.18c-2.38 1.1-4.57 1.98-6.45 2.6-.93.34-1.79.58-2.55.81-.75.23-1.41.4-1.95.53-1.07.26-1.67.39-1.68.36-.01-.03.57-.23 1.63-.55.53-.16 1.17-.35 1.91-.61.74-.25 1.59-.51 2.51-.87 1.85-.66 4.02-1.57 6.37-2.69 2.33-1.15 4.84-2.53 7.34-4.18 2.5-1.66 4.73-3.45 6.67-5.18.95-.88 1.86-1.72 2.65-2.57.82-.81 1.52-1.63 2.17-2.37.67-.72 1.19-1.45 1.69-2.05.5-.6.89-1.15 1.21-1.6.66-.9 1.04-1.38 1.07-1.36z" class="st6"/><path d="M245.67 255.5c-.12-.02.3-1.83.21-4.79-.03-.74-.07-1.54-.21-2.4-.08-.86-.31-1.77-.51-2.72-.49-1.88-1.22-3.91-2.25-5.91a28.879 28.879 0 0 0-3.61-5.2c-.67-.7-1.29-1.4-1.96-1.95-.63-.6-1.27-1.09-1.87-1.53-2.39-1.74-4.12-2.42-4.07-2.53.01-.03.44.14 1.21.47.39.16.85.38 1.36.69.51.3 1.12.61 1.72 1.07.62.43 1.29.91 1.94 1.5.69.55 1.33 1.25 2.03 1.96a27.81 27.81 0 0 1 3.71 5.27 27.53 27.53 0 0 1 2.26 6.04c.19.97.4 1.9.47 2.78.12.88.14 1.7.15 2.45.04.75-.05 1.43-.09 2.02-.03.59-.11 1.1-.2 1.51-.16.82-.26 1.27-.29 1.27z" class="st5"/><path d="M241.47 285.38c-.03.14-9.24-1.96-20.55-4.68-11.32-2.73-20.47-5.05-20.43-5.19.03-.14 9.23 1.96 20.55 4.68 11.31 2.72 20.46 5.05 20.43 5.19zM336.69 279.64c0 .14-20.72.61-46.27 1.05-25.56.44-46.28.67-46.29.53 0-.14 20.71-.61 46.28-1.05 25.56-.43 46.28-.67 46.28-.53zM366.33 284.84c0 .04-.4.12-1.12.24-.73.12-1.78.28-3.09.46a293.332 293.332 0 0 1-20.52 2.02c-1.32.08-2.38.13-3.12.15-.74.02-1.15.02-1.15-.02s.4-.1 1.14-.18c.84-.09 1.88-.19 3.11-.32 2.75-.26 6.31-.6 10.26-.98 3.94-.4 7.51-.76 10.25-1.04 1.23-.12 2.27-.21 3.11-.29.71-.06 1.12-.08 1.13-.04zM228.26 341.81c-.02.14-8.9-1.02-19.84-2.59-10.94-1.57-19.79-2.96-19.77-3.1.02-.14 8.9 1.02 19.84 2.59 10.94 1.57 19.79 2.96 19.77 3.1zM329.22 349.9c.01.14-21.47 1.74-47.97 3.57-26.51 1.83-48 3.19-48.01 3.05-.01-.14 21.46-1.74 47.97-3.57 26.51-1.83 48-3.19 48.01-3.05zM375.22 334.3c.02.03-.41.42-1.22 1.09-.88.73-2.04 1.68-3.43 2.84-2.9 2.39-6.9 5.71-11.26 9.45-4.36 3.74-8.24 7.19-11.05 9.69-1.35 1.21-2.47 2.2-3.33 2.96-.79.7-1.24 1.07-1.26 1.04-.02-.03.38-.45 1.12-1.19.75-.74 1.84-1.8 3.22-3.09 2.74-2.58 6.6-6.07 10.96-9.82a332.4 332.4 0 0 1 11.37-9.34c1.48-1.16 2.69-2.09 3.54-2.71.84-.62 1.32-.95 1.34-.92zM249.78 404.65c.01.03-.44.24-1.27.6-.93.38-2.11.87-3.53 1.46-3.07 1.26-7.14 2.93-11.64 4.77-4.49 1.88-8.54 3.58-11.61 4.87-1.42.59-2.6 1.08-3.52 1.47-.84.34-1.3.51-1.32.48-.01-.03.43-.27 1.24-.66.81-.4 1.99-.95 3.46-1.62 2.93-1.34 7.01-3.13 11.56-5.01 4.54-1.88 8.69-3.51 11.71-4.64 1.51-.57 2.74-1.01 3.59-1.3.84-.31 1.32-.46 1.33-.42zM417.17 349.35c.04.01-.04.52-.2 1.44-.16.92-.42 2.24-.78 3.87-.72 3.26-1.86 7.73-3.41 12.57-1.56 4.85-3.22 9.15-4.53 12.22-.65 1.53-1.21 2.76-1.61 3.6-.4.84-.64 1.3-.67 1.28-.03-.01.14-.5.49-1.37.38-.96.87-2.19 1.46-3.66 1.22-3.1 2.82-7.4 4.38-12.24 1.55-4.83 2.74-9.27 3.55-12.5.38-1.54.7-2.83.94-3.83.21-.89.35-1.39.38-1.38zM276.4 219.55c0 .04-.57.15-1.6.32-1.12.19-2.6.45-4.39.75-3.7.65-8.79 1.64-14.36 2.98-5.57 1.35-10.55 2.8-14.14 3.91-1.73.54-3.16.99-4.24 1.34-1 .32-1.56.48-1.57.44-.01-.03.52-.26 1.51-.64.98-.38 2.42-.89 4.2-1.5 3.56-1.21 8.55-2.71 14.13-4.07 5.58-1.35 10.7-2.28 14.43-2.84 1.86-.28 3.37-.48 4.42-.59 1.03-.09 1.61-.14 1.61-.1z" class="st7"/><path d="M352.12 124.71c7.41 6.39 3.26 16.41 1.77 26.08-1.49 9.67.25 20.28.64 30.06.21 5.17 1.48 10.51-.2 15.41-1.76 5.12-6.35 8.62-9.91 12.69-3.57 4.07-6.24 10.13-3.43 14.76-1.53.6-3.35.34-4.66-.65-1.21 2.15-4.16 2.79-6.53 2.1s-4.29-2.39-6.13-4.05c-.28 1.77-2.43 2.73-4.18 2.37-1.76-.36-3.16-1.64-4.42-2.92-1.26-1.27-2.55-2.63-4.24-3.23-3.75-1.33-8.13 1.52-11.77-.1-4.99-2.22-4.52-10.85-9.68-12.63-2.43-.83-5.04.31-7.6.59-2.56.28-5.29-1.97-4.94-4.52-4.39 1.83-10.04 2.71-14.5 1.07 1.45-1.14 2.18-3.13 1.82-4.94-3.24.57-6.64.15-9.65-1.18 2.73-.66 5.13-2.57 6.39-5.07-2.75.45-5.69-.6-7.54-2.68 5.56.05 9.45-5.7 10.61-11.14 1.17-5.44.76-11.26 2.98-16.36 2.41-5.55 7.57-9.42 10.7-14.6 4.37-7.22 4.49-16.43 9.01-23.56 2.96-4.67 5.79-8.65 10.26-11.89 5.66-4.1 8.9-6.22 15.89-6.13 5.86.08 15.88 1.71 20.88 4.77 8.88 5.44 18.31 11.51 22.26 21.15" class="st5"/><path d="M286.4 167.55c-.42-7.73-.79-15.5.12-23.18.92-7.68 3.2-15.34 7.67-21.66.68-.96 5.94-7.19 7.04-6.78.79.29-3.06 6.39-2.84 7.2 2.11 7.72 1.03 16.03-1.64 23.58-2.67 7.54-6.12 14.05-10.35 20.84" class="st5"/><path d="M304.88 246.11c-11.53-3.33-33.23-25.9-30.15-37.5l18.52-69.78c4.38-18.91 19.03-32.11 37.81-27.21l1.71.55c17.2 5.58 27.23 23.43 23.05 41.03-3.89 16.36-8.39 34.39-11.27 42.91-5.96 17.64-24.57 14.65-24.57 14.65-.04-.01-1.21 4.14-2.67 9.41-3.28 11.82-10.19 23.42-12.43 25.94z" class="st3"/><path d="M319.99 210.75s-11.38-2.97-20.85-14.3c0 0 1.23 15.12 19.42 19.25l1.43-4.95z" class="st4"/><path d="M344.89 167.68c-.39 1.35-1.85 2.14-3.27 1.76-1.42-.38-2.25-1.78-1.87-3.13.39-1.35 1.85-2.14 3.26-1.76 1.42.38 2.26 1.78 1.88 3.13zM349.53 159.78c-.42.23-1.88-1.81-4.6-2.69-2.71-.91-5.16-.16-5.35-.59-.1-.19.42-.69 1.49-1.04 1.06-.35 2.72-.49 4.41.06 1.69.56 2.92 1.65 3.53 2.55.63.93.72 1.61.52 1.71zM320.03 160.48c-.39 1.35-1.85 2.14-3.27 1.76-1.42-.38-2.25-1.77-1.87-3.13.39-1.35 1.85-2.14 3.27-1.76 1.42.38 2.25 1.78 1.87 3.13zM322.64 151.76c-.42.23-1.88-1.81-4.6-2.69-2.71-.91-5.16-.16-5.35-.59-.1-.19.41-.69 1.49-1.04 1.06-.35 2.72-.49 4.41.06 1.69.56 2.92 1.65 3.53 2.55.63.92.72 1.61.52 1.71zM325.62 175.84c.04-.16 1.82.1 4.68.64.72.15 1.42.23 1.69-.21.33-.45.28-1.29.2-2.21-.11-1.89-.22-3.88-.34-5.96-.41-8.46-.47-15.33-.13-15.34.34-.01.95 6.83 1.36 15.3.08 2.08.17 4.07.24 5.96.01.88.17 1.92-.52 2.84-.36.46-.99.67-1.47.65-.49-.01-.88-.13-1.23-.22-2.8-.75-4.52-1.29-4.48-1.45zM325.7 141.51c-.6.57-3-1.01-6.19-2.12-3.17-1.18-6.04-1.48-6.13-2.31-.03-.39.71-.84 2.03-1.03 1.3-.2 3.17-.08 5.08.6 1.91.69 3.42 1.79 4.3 2.77.89.99 1.18 1.81.91 2.09zM350.95 153.21c-.76.45-2.79-.88-5.46-1.74-2.64-.93-5.07-1.11-5.39-1.92-.13-.39.42-.9 1.59-1.18 1.16-.29 2.94-.26 4.76.35 1.82.62 3.25 1.67 3.98 2.59.75.94.86 1.67.52 1.9z" class="st5"/><path d="M290.45 152.41c-.26-.23-11-7.55-14.54 4.69-3.54 12.23 9.47 13.27 9.6 12.92.11-.34 4.94-17.61 4.94-17.61z" class="st3"/><path d="M283.1 164.3c-.04-.05-.26.09-.66.15s-1.03 0-1.6-.43c-1.16-.85-1.65-3.22-1.07-5.44.29-1.12.83-2.12 1.48-2.88.63-.79 1.39-1.24 2.08-1.17.69.04 1.04.56 1.09.95.06.39-.08.61-.02.65.03.04.32-.13.37-.66.02-.26-.04-.59-.26-.91-.22-.32-.62-.57-1.09-.65-.96-.21-2.06.41-2.78 1.25-.77.83-1.4 1.94-1.73 3.2-.64 2.49-.04 5.16 1.58 6.18.8.47 1.59.42 2.04.24.47-.19.61-.44.57-.48z" class="st4"/><path d="M353.58 130.64c2.29-.54-1.87-8.64-6.12-12.21-6.44-5.41-17.12-10.62-24.46-10.59-8.83.03-16.77 2.2-22.97 8.5-6.19 6.3-10.17 14.55-12.31 23.12-.65 2.61-1.14 5.39-.37 7.98.95 3.19 3.76 5.82 2.57 9.52-.44 1.35-.43 2.84.23 4.1 1.58 3.02 4.95 1.54 6.84-.35 4.04-4.05 5.95-9.7 7.72-15.14 1.26-3.86 2.54-7.82 2.49-11.88-.03-2.21-.45-4.41-.36-6.62.09-2.21.82-4.55 2.58-5.88.29-.22.73-.47 1.28-.73 4.33-2.07 9.44-1.62 13.37 1.14 6.22 4.38 17 11.33 20.73 9.85 5.38-2.13 7.05-4.03 7.05-4.03l1.73 3.22zM317.64 175.2c-.17-.02-.46.62-.52 1.74-.08 1.11.23 2.77 1.21 4.22.95 1.46 2.13 2.44 3 3.07.88.63 1.49.92 1.61.78.12-.14-.28-.69-.98-1.48-.69-.79-1.69-1.83-2.51-3.1-1.71-2.5-1.39-5.2-1.81-5.23z" class="st5"/><path d="M290.2 154.09c.01.24.02.5.01.78 0 0-.01-.28-.01-.78z" style="fill:#ff725e"/><path d="M286.94 150.63s3.04-1.77 3.26 3.46c-.05-6.74 1.16-55.41 47.83-42.43 0 0-15.06-8.99-28.05-5.03 0 .01-24.54 3.6-23.04 44z" class="st6"/><path d="M317.47 201.89c.1.19 1.41-.37 2.62-1.6 1.22-1.22 1.77-2.53 1.58-2.63-.2-.12-1.01.94-2.14 2.07-1.13 1.15-2.18 1.97-2.06 2.16zM314.94 200.67c.16.15 1.24-.8 2.39-2.1 1.16-1.31 1.96-2.49 1.8-2.63-.16-.15-1.24.8-2.39 2.1-1.16 1.31-1.97 2.49-1.8 2.63zM313.4 199.07c.21.07.79-1.08 1.31-2.56.51-1.49.76-2.75.56-2.82-.21-.07-.79 1.07-1.31 2.56-.52 1.48-.77 2.74-.56 2.82zM311.07 198.61c.23-.05.01-1.52.31-3.27.28-1.76.95-3.08.75-3.2-.16-.13-1.23 1.13-1.54 3.07-.32 1.94.28 3.48.48 3.4zM307.79 196.66c.23-.04.13-1.47.35-3.19.2-1.72.63-3.09.42-3.18-.19-.09-.99 1.23-1.21 3.08-.22 1.86.24 3.33.44 3.29zM323.41 355.59c.01.01-.12.12-.38.31l-1.14.81c-1 .7-2.46 1.68-4.28 2.88a315.96 315.96 0 0 1-14.47 8.92c-5.75 3.34-11.05 6.18-14.92 8.15-1.94.99-3.52 1.77-4.62 2.29-.51.23-.93.43-1.27.59-.29.13-.45.19-.46.17-.01-.02.13-.11.41-.27.33-.18.74-.41 1.23-.68 1.14-.61 2.68-1.44 4.54-2.44 3.83-2.06 9.1-4.95 14.83-8.28a550.93 550.93 0 0 0 14.54-8.78c1.79-1.12 3.26-2.05 4.36-2.74.48-.29.87-.53 1.2-.73.27-.14.42-.21.43-.2zM377.15 332.93c.09.15-3.45 1.85-6.91 5.13-3.49 3.26-5.4 6.69-5.54 6.59-.05-.03.35-.92 1.21-2.25s2.21-3.06 3.97-4.72c1.76-1.66 3.58-2.9 4.95-3.68 1.38-.78 2.3-1.13 2.32-1.07z" class="st5"/></g><g id="Character_3"><path d="M376.13 319.94s-35.53 4.21-48.67 14.71c-2.06 1.65-3.99 3.57-5.77 5.62-8.29 9.53-13.15 21.57-14.3 34.15l-4.76 52.25.38 8.63c.6 13.47 11.67 24.1 25.16 24.15L475 460.47s19.29-21.53 14.24-54.9c-1.19-7.86-3.09-34.78-10.53-51.34-3.93-8.76-9.95-19.58-25.85-23.81l-37.08-10.49h-39.65z" class="st5"/><path d="M342.83 362.44c-.04.01-.14-.41-.3-1.17-.16-.76-.4-1.85-.74-3.19a68.65 68.65 0 0 0-3.44-10.2 67.755 67.755 0 0 0-5.06-9.5c-.74-1.16-1.37-2.09-1.81-2.72-.44-.64-.67-1-.64-1.02.03-.02.31.3.8.9.5.6 1.17 1.5 1.96 2.64 1.58 2.28 3.55 5.6 5.23 9.49 1.68 3.9 2.74 7.6 3.32 10.32.29 1.36.49 2.46.58 3.23.1.79.14 1.22.1 1.22zM349 422.04c-.14.02-1.71-11.4-3.51-25.51-1.79-14.11-3.13-25.56-2.99-25.58.14-.02 1.71 11.4 3.51 25.51 1.79 14.11 3.13 25.56 2.99 25.58zM342.5 366.93c-.03.06-1-.31-2.5-1.06s-3.52-1.9-5.62-3.38-3.86-2.99-5.07-4.15c-1.21-1.16-1.89-1.95-1.84-2 .06-.06.82.64 2.09 1.72s3.05 2.54 5.13 4 4.05 2.65 5.49 3.48c1.44.83 2.35 1.32 2.32 1.39zM437.64 376.6c-.04 0-.04-.63 0-1.78.01-.58.04-1.28.14-2.09.09-.81.15-1.74.35-2.75.17-1.02.36-2.13.67-3.3.25-1.19.66-2.42 1.06-3.72.89-2.58 2.06-5.34 3.59-8.09a51.55 51.55 0 0 1 5.06-7.27c.91-1.02 1.75-2 2.63-2.83.84-.87 1.69-1.61 2.47-2.28.76-.7 1.53-1.23 2.17-1.73.64-.51 1.23-.9 1.72-1.2.97-.62 1.51-.95 1.53-.92.02.03-.49.42-1.41 1.09-.47.33-1.03.74-1.65 1.26-.63.52-1.37 1.07-2.11 1.78-.76.68-1.59 1.43-2.41 2.31-.86.84-1.68 1.82-2.57 2.84-1.7 2.09-3.43 4.51-4.97 7.21a53.016 53.016 0 0 0-3.59 7.99c-.41 1.28-.83 2.5-1.09 3.67-.33 1.16-.54 2.25-.72 3.26-.22 1-.31 1.92-.42 2.72-.13.8-.19 1.5-.22 2.07-.13 1.13-.2 1.76-.23 1.76zM423.01 436.61s-.2-.64-.11-1.84c.08-1.16.67-3.07 2.63-4.3l-.04.03c3.08-3.29 8.18-7.55 15.05-10.47l-.15.21c.2-1.88.41-3.83.56-5.84.68-8.58.59-16.38.3-22.01-.13-2.82-.33-5.09-.44-6.66-.06-.74-.11-1.34-.15-1.81-.03-.41-.03-.63-.02-.64.02 0 .06.21.12.62.06.47.14 1.06.25 1.8.18 1.57.43 3.84.61 6.66.38 5.64.53 13.47-.15 22.07-.15 2.01-.36 3.97-.57 5.86l-.02.15-.14.06c-6.8 2.87-11.89 7.03-15.01 10.23l-.02.02-.03.02c-.9.51-1.55 1.29-1.95 2.01-.41.73-.58 1.44-.66 2.02-.14 1.15 0 1.8-.06 1.81z" class="st6"/><path d="M464.9 432.38c-.08.05-.85-1.39-2.52-3.39-1.66-1.99-4.31-4.5-7.84-6.32-1.76-.9-3.52-1.61-5.18-2.02-1.66-.43-3.2-.58-4.5-.59-2.6-.02-4.2.3-4.22.2-.01-.03.39-.14 1.11-.27.72-.13 1.78-.27 3.1-.3 1.32-.03 2.91.09 4.61.5 1.71.4 3.51 1.1 5.31 2.02 3.61 1.86 6.28 4.47 7.89 6.55.81 1.04 1.38 1.95 1.74 2.59.36.64.52 1.01.5 1.03zM464.18 418.71c-.04.09-1.22-.47-3.25-.97-1.01-.27-2.24-.46-3.61-.62-1.37-.12-2.89-.18-4.48-.11-3.19.14-6.04.71-8.06 1.23-2.03.52-3.25.97-3.28.89-.01-.03.28-.18.82-.41.54-.24 1.35-.53 2.36-.84 2.02-.62 4.9-1.25 8.14-1.4 1.62-.06 3.16 0 4.56.16 1.39.19 2.64.42 3.65.74.51.13.96.31 1.36.46.4.14.73.28.99.42.53.26.82.42.8.45z" class="st6"/><path d="M436.35 260.7c-2.93-12.44-8.17-25.15-18.48-32.71-9.19-6.73-22.58-9.3-33.94-8.45-5.59.42-11.83 3.21-16.62 6.13-6.57 4-9.15 11.77-12.15 18.85-6.01 14.18-4.58 33.08-.03 38.2l59.4 28.94c10.16-5.72 21.17-13.41 23.54-24.83 1.62-7.78.1-18.4-1.72-26.13z" class="st5"/><path d="m413.86 238.63-37.1-9.65c-11.89-1.34-19.91 13.26-20.74 25.2-.93 13.27-1.53 29.5-.03 39.41 3.03 19.93 18.28 24.67 18.28 24.67.01-.07.04 17.31.11 23.23l17.3 52.72 24.62-52.72 3.79-95.71a7.033 7.033 0 0 0-6.23-7.15z" class="st3"/><path d="M362.64 270.26c-.06 1.35 1.04 2.51 2.45 2.59 1.4.09 2.59-.94 2.65-2.28.06-1.35-1.04-2.51-2.44-2.59-1.41-.09-2.6.93-2.66 2.28zM359.48 262.66c.31.34 2.26-1.08 5.01-1.06 2.75-.01 4.75 1.41 5.05 1.08.15-.15-.17-.75-1.04-1.4-.86-.64-2.33-1.27-4.04-1.28-1.71 0-3.16.62-3.99 1.26-.86.65-1.15 1.25-.99 1.4zM387.58 270.26c-.06 1.35 1.04 2.51 2.44 2.59 1.4.08 2.59-.94 2.65-2.28.06-1.35-1.04-2.51-2.44-2.59-1.41-.09-2.6.93-2.65 2.28zM386.49 263.35c.32.33 2.26-1.08 5.01-1.06 2.74-.01 4.75 1.41 5.05 1.08.15-.15-.17-.75-1.05-1.4-.86-.64-2.33-1.27-4.04-1.28-1.71 0-3.16.62-3.99 1.26-.85.65-1.14 1.25-.98 1.4zM376.37 283.67c.01-.16-1.69-.46-4.46-.84-.7-.08-1.36-.22-1.48-.7-.16-.51.14-1.26.48-2.08.67-1.69 1.37-3.47 2.11-5.33 2.93-7.59 5.06-13.83 4.76-13.94-.31-.12-2.93 5.94-5.87 13.53-.71 1.87-1.38 3.65-2.02 5.36-.27.8-.73 1.7-.38 2.75.19.53.7.91 1.15 1.03.45.14.84.15 1.19.17 2.78.18 4.51.2 4.52.05z" class="st5"/><path d="m374.22 318.41.11 4.96c19.92 2 26.6-11.89 26.6-11.89-13.32 7.89-26.71 6.93-26.71 6.93zM385.42 288.86c-.78-1.29-2.2-1.97-3.66-2.02-2.1-.08-3.87.63-5.25 2.56-.47.56-.44 2.14-.25 2.58.19.44.04.22.38.53 1.22 1.09 2.51 2.19 4.09 2.57 1.58.39 3.52-.11 4.56-1.64.93-1.38.91-3.3.13-4.58z" class="st4"/><path d="M384.45 285.62c-.45-.03-.47 2.95-3.04 5.05-2.56 2.11-5.74 1.75-5.77 2.17-.04.19.7.58 2.05.63 1.32.05 3.24-.36 4.81-1.64 1.57-1.29 2.25-3.02 2.36-4.24.12-1.24-.21-1.98-.41-1.97z" class="st5"/><path d="M385.25 254.55c.27.75 3.01.41 6.23.82 3.23.35 5.82 1.31 6.26.64.19-.32-.26-1.03-1.3-1.76s-2.7-1.43-4.63-1.66c-1.93-.22-3.71.07-4.89.54-1.18.48-1.78 1.06-1.67 1.42zM360.54 253.17c.48.63 2.38-.01 4.65-.02 2.28-.09 4.2.45 4.65-.2.2-.32-.1-.94-.94-1.54-.83-.59-2.21-1.09-3.78-1.05-1.56.04-2.92.6-3.72 1.23-.8.63-1.07 1.27-.86 1.58z" class="st9"/><path d="M414.72 270.01c.27-.13 11.09-3.56 10.99 7.56-.1 11.11-11.24 8.72-11.25 8.4-.02-.32.26-15.96.26-15.96z" class="st3"/><path d="M417.89 281.79c.05-.03.19.14.52.29.32.15.87.25 1.45.04 1.18-.42 2.18-2.28 2.26-4.28a6.39 6.39 0 0 0-.52-2.78c-.33-.82-.85-1.39-1.44-1.5a.991.991 0 0 0-1.15.52c-.15.31-.08.53-.14.55-.03.03-.24-.19-.14-.65.05-.22.18-.48.44-.69.27-.21.66-.32 1.07-.27.86.07 1.62.86 2.01 1.74.43.88.69 1.97.64 3.1-.09 2.24-1.26 4.32-2.87 4.77-.78.2-1.43-.04-1.77-.31-.35-.26-.4-.51-.36-.53z" class="st4"/><path d="M421.56 285.49c.05-.05.48.47.42 1.46-.04.47-.2 1.12-.79 1.56-.6.43-1.43.42-2.13.15-.7-.26-1.34-.83-1.48-1.54-.15-.68.05-1.29.3-1.71.55-.86 1.25-.94 1.24-.88.05.08-.52.3-.9 1.07-.18.37-.29.89-.15 1.39.12.5.59.92 1.17 1.14.58.23 1.23.22 1.64-.05.42-.27.61-.77.69-1.18.16-.84-.09-1.37-.01-1.41zM355.12 257.34c1.5-3.22 4.41-5.57 7.5-7.33 3.09-1.76 6.43-3.04 9.5-4.82 7.05-4.1 12.49-10.9 14.93-18.68-5.47-2.82-12.28-2.5-17.8.23-5.52 2.73-9.76 7.68-12.3 13.29-2.54 5.61-3.46 11.85-3.39 18" class="st5"/><path d="M417.27 235.66c-8.22-7.81-23.75-12.12-34.46-8.46 1.59 9.36 8.65 19.86 14.86 27.04 6.25 7.22 10.02 19.87 23.62 15.57.94-.3 2.01.56 2.85.06.72-.42 1.06-1.27 1.31-2.06 3.59-11.1.28-24.12-8.18-32.15zM355.74 270.85s-.71.2-1.95-.11c-1.23-.29-2.96-1.25-4.27-3.14-1.35-1.88-1.95-4.7-1.69-7.68.12-1.5.39-3.04.78-4.62.36-1.58.85-3.19 1.4-4.81 2.27-6.51 5.75-11.79 8.66-15.21 1.44-1.73 2.75-2.99 3.65-3.87.43-.38.79-.69 1.09-.95.25-.21.39-.32.4-.3.03.03-.45.53-1.34 1.41-.85.92-2.12 2.21-3.5 3.96-2.8 3.46-6.19 8.71-8.43 15.14-.54 1.61-1.04 3.19-1.4 4.76-.39 1.55-.67 3.07-.8 4.53-.28 2.9.25 5.6 1.5 7.42 1.22 1.84 2.83 2.81 4 3.15 1.19.36 1.9.25 1.9.32z" class="st5"/><path d="M449.96 236.91c-.04-5.21-1.47-10.62-5.02-14.44-4.93-5.3-13.55-6.49-19.96-3.13-6.41 3.37-10.28 10.81-9.85 18.03.43 7.23 4.93 13.96 11.2 17.58l4.58-.52c4.6 2.42 10.63.71 14.18-3.1 3.55-3.8 4.91-9.22 4.87-14.42z" class="st5"/><path d="M421.95 233.85c.01.01-.07.14-.23.37-.17.23-.4.59-.77 1-.69.85-1.81 1.99-3.37 3.18-1.56 1.19-3.61 2.38-6.07 3.24-2.45.87-5.33 1.37-8.34 1.22-3.01-.18-5.82-.99-8.16-2.13-2.35-1.13-4.26-2.53-5.68-3.89-1.43-1.35-2.41-2.61-3.01-3.53-.32-.45-.51-.83-.65-1.08-.14-.25-.21-.39-.19-.4.11-.08 1.22 2.13 4.1 4.74 1.43 1.3 3.33 2.64 5.64 3.73 2.31 1.08 5.05 1.86 7.98 2.04 2.94.14 5.75-.33 8.16-1.15 2.42-.82 4.45-1.95 6.01-3.09 3.13-2.27 4.48-4.34 4.58-4.25z" class="st7"/><path d="M427.28 248.98c.01.01-.12.14-.37.38-.27.22-.62.61-1.16.98-1.04.82-2.71 1.82-4.96 2.6-2.24.8-5.08 1.25-8.23 1.11-3.14-.15-6.57-.94-9.84-2.53-3.25-1.62-6.01-3.76-8.24-5.96-2.23-2.2-3.96-4.44-5.29-6.4a50.431 50.431 0 0 1-2.89-4.78c-.32-.58-.53-1.04-.68-1.36-.15-.31-.22-.48-.2-.49.02-.01.12.14.3.44.21.35.46.78.77 1.31.67 1.13 1.66 2.76 3.01 4.67 1.35 1.91 3.1 4.11 5.32 6.26 2.21 2.16 4.94 4.24 8.13 5.84 3.2 1.56 6.56 2.35 9.63 2.52 3.08.16 5.87-.24 8.09-.98 2.22-.72 3.89-1.65 4.95-2.41 1.08-.76 1.62-1.24 1.66-1.2zM445.51 232.01c.03.02-.14.26-.48.68-.32.42-.86.99-1.57 1.63-.7.65-1.62 1.34-2.7 2.01-1.09.65-2.34 1.27-3.72 1.76-1.39.47-2.76.77-4.01.93-1.26.14-2.4.17-3.36.1-.95-.06-1.72-.18-2.24-.31-.52-.12-.8-.2-.79-.24.02-.09 1.17.14 3.05.18 1.87.04 4.48-.22 7.19-1.16 2.7-.95 4.91-2.36 6.35-3.55 1.45-1.19 2.21-2.09 2.28-2.03zM449.65 238.98c.02-.01.16.3.14.9-.01.59-.23 1.47-.86 2.33-.62.88-1.67 1.65-2.93 2.23-1.26.57-2.69 1.06-4.24 1.41-3.11.71-6.03.64-8.07.34-1.03-.14-1.84-.34-2.4-.49-.55-.17-.86-.28-.85-.31.02-.09 1.26.25 3.29.44 2.03.2 4.88.2 7.92-.49 3-.71 5.77-1.75 6.99-3.35.62-.78.88-1.58.95-2.13.08-.55.02-.87.06-.88z" class="st7"/><path d="M424.52 442.18c0 .02-.19.04-.55.05-.36.01-.9.05-1.58.02-1.38-.01-3.37-.14-5.8-.56-4.83-.81-11.49-3.08-17.44-7.75-5.96-4.68-9.75-10.6-11.68-15.1-.98-2.26-1.59-4.16-1.92-5.5-.19-.66-.27-1.19-.35-1.54-.07-.35-.1-.54-.08-.55.04-.01.23.73.63 2.03.39 1.31 1.05 3.18 2.06 5.4 2 4.43 5.79 10.23 11.67 14.84 5.88 4.61 12.41 6.91 17.19 7.8 2.4.46 4.37.65 5.74.72 1.35.09 2.11.1 2.11.14zM377.7 438.95c-.01.01-.16-.07-.44-.24-.33-.21-.72-.47-1.2-.78-1.1-.73-2.59-1.72-4.39-2.92-3.72-2.44-8.87-5.82-14.97-8.76-6.1-2.95-12.05-4.64-16.44-5.25-2.19-.32-3.99-.45-5.23-.48-1.24-.04-1.93-.04-1.93-.08 0-.02.17-.04.5-.06.33-.02.81-.06 1.44-.06 1.25-.03 3.06.04 5.28.32 4.44.53 10.47 2.18 16.62 5.15 6.15 2.96 11.28 6.41 14.95 8.93 1.83 1.27 3.3 2.32 4.3 3.05.46.34.84.63 1.15.86.24.19.37.3.36.32z" class="st6"/><path d="m427.98 436.36-68.26 3.45 5.28 20.11 90.98.42z" class="st3"/><path d="M362.88 439.65s-22.06-11.02-24.79-11.11c-2.09-.07-14.21 1.98-19.79 2.95-2.14.37-3.77 2.35-3.42 4.49.02.14.05.27.1.39.78 2.2 3.08 2.36 3.08 2.36s-2.77 1.27-2.34 4.43c.43 3.16 4.36 3.25 4.36 3.25s-.2.2-.47.57c-1.77 2.4-.16 5.82 2.81 6.04l1.78.13s-2.18 1.32-1.82 3.48c.7 4.14 10.16 3.52 10.16 3.52l32.46-.23-2.12-20.27z" class="st3"/><path d="M319.7 426.25c.31 1.35 1.08 4.22 3.61 5.18l12.79-2.46s-10.08-1.85-11.7-3.27c-.56-.5-1.33-1.11-2.11-1.52-1.35-.71-2.93.58-2.59 2.07z" class="st3"/><path d="M330.03 429.77c.04.22-2.55.88-5.81 1.31-3.24.43-5.88.71-5.93.48-.04-.22 2.55-.88 5.81-1.31 3.24-.44 5.88-.72 5.93-.48zM328.23 437.39c.06.22-2.15.96-4.99 1.29-2.84.33-5.16.11-5.16-.11 0-.24 2.28-.4 5.06-.72 2.78-.33 5.03-.69 5.09-.46zM334.64 435.47c.21.09.07.83-.59 1.41-.65.58-1.4.63-1.47.41-.08-.22.4-.58.91-1.04.52-.45.93-.88 1.15-.78zM330.89 445.32c.02.23-2.45.71-5.51 1.08-3.06.36-5.57.47-5.61.24-.04-.23 2.43-.71 5.51-1.08 3.08-.36 5.59-.47 5.61-.24zM337.71 440.76c.1-.05.34.18.48.68.14.49.13 1.25-.27 1.96s-1.06 1.11-1.55 1.24c-.5.14-.82.05-.83-.06-.04-.23 1.05-.54 1.64-1.6.61-1.04.32-2.13.53-2.22zM334.04 453.01c.01.23-2.25.48-5.03.56-2.79.08-5.05-.05-5.06-.28-.01-.23 2.25-.48 5.03-.56 2.79-.08 5.06.05 5.06.28zM340.61 447.86c.1-.03.31.23.37.73.07.5-.06 1.2-.42 1.85-.77 1.28-1.76 1.86-1.9 1.72-.2-.17.54-1.06 1.17-2.13.63-1.08.57-2.1.78-2.17z" class="st4"/></g><g id="Character_1"><path d="M275.75 448.98c-4.48-2.13-19.43-7.95-19.43-7.95l-7.31-50.01-29.78 4.47s17.33 63.73 21.95 64.17c4.62.43 31.23.04 31.23.04l8.66-.13c.01-.01-2.18-9.09-5.32-10.59z" class="st10"/><path d="M255.04 458.08c.02.05-.52.35-1.49.55-.97.2-2.37.24-3.84-.14-1.47-.4-2.67-1.13-3.4-1.79-.74-.66-1.06-1.19-1.02-1.22.06-.06.48.38 1.25.93a10.042 10.042 0 0 0 6.96 1.85c.93-.09 1.51-.26 1.54-.18zM272.22 459.49c-.07.05-.69-.98-1.83-2.51-.58-.75-1.31-1.63-2.3-2.38-.98-.76-2.26-1.28-3.63-1.77-2.8-.94-5.17-2.24-6.82-3.23-1.65-.99-2.64-1.66-2.6-1.72.04-.07 1.09.5 2.78 1.4 1.7.9 4.04 2.13 6.82 3.06 1.38.49 2.73 1.05 3.75 1.88 1.03.81 1.75 1.75 2.3 2.54.55.8.93 1.49 1.18 1.96.26.48.38.75.35.77z" class="st11"/><path d="m185.14 225.9-11.03 7.59s-13.7-.83-23.64 2.56c-5.51 1.88-12.19 4.15-19.42 11.47a54.501 54.501 0 0 0-13.84 24.07l-13.27 110.86-20.21 78.23H218.2v-98.99l12.87-45.41s-3.34-5.23-3.24-7.33c.11-2.09 7.61-50.48 7.61-50.48l-15.33-18.34-34.97-14.23z" class="st12"/><path d="M233.64 256.16s7.61 3.55 9.47 16.84c1.86 13.29 15.34 115.86 15.34 115.86s-14.89 3.43-28.48 5.02l-17.11 2.91-.43-68.58 21.21-72.05z" class="st12"/><path d="M131.37 457.56c22.85-27.4 26.45-67.14 49.59-94.3l-14.16 7.95c2.51-23.61 4.92-48.16-2.98-70.55a619.411 619.411 0 0 1-33.12 156.79" class="st13"/><path d="M168.04 258.3c-.52 42.29-2.46 84.55-5.81 126.71-.16 2.06-1.05 6.13-2.16 9.67a7.009 7.009 0 0 1-7.74 4.83l-27.59-4.16c-4.8-.81-6.62-1.45-8.06-4.55-.99-2.13-1.39-4.49-1.33-6.84 1.07-37.75-2.23-57.75.04-93.44" class="st12"/><path d="M115.39 290.53s0 .25-.01.74l-.09 2.16c-.1 1.89-.23 4.69-.34 8.29-.12 3.6-.2 8.01-.22 13.13.01 5.12.09 10.95.27 17.39.35 12.88 1.03 28.22.74 45.27-.05 2.13-.09 4.29-.14 6.47-.06 2.15.28 4.34 1.14 6.36.44 1 .98 1.98 1.79 2.68.8.72 1.85 1.12 2.93 1.41 2.17.58 4.46.84 6.75 1.2 4.58.69 9.25 1.39 13.98 2.11 2.37.36 4.75.72 7.15 1.08 1.19.17 2.42.39 3.59.52 1.17.07 2.37-.16 3.43-.69a6.897 6.897 0 0 0 2.63-2.31c.67-.97.96-2.14 1.3-3.31.66-2.33 1.21-4.67 1.56-7.02.44-4.74.76-9.47 1.11-14.08.67-9.25 1.26-18.17 1.77-26.68 1-17.01 1.69-32.34 2.15-45.22.47-12.88.72-23.3.88-30.51.08-3.59.14-6.38.18-8.3.02-.94.04-1.66.06-2.16.02-.49.04-.73.04-.73s.01.25.02.74c0 .5 0 1.22-.01 2.16-.02 1.91-.05 4.71-.08 8.3-.1 7.21-.3 17.64-.72 30.52-.42 12.88-1.06 28.22-2.04 45.23-.49 8.51-1.07 17.44-1.74 26.69-.35 4.63-.66 9.32-1.11 14.12-.35 2.39-.91 4.75-1.57 7.09-.34 1.15-.64 2.39-1.37 3.46a7.284 7.284 0 0 1-6.53 3.23c-1.26-.13-2.43-.35-3.64-.52-2.4-.36-4.78-.72-7.15-1.08-4.73-.72-9.4-1.42-13.98-2.11-2.29-.36-4.57-.62-6.81-1.22-1.1-.3-2.24-.73-3.13-1.52-.9-.78-1.47-1.83-1.92-2.86-.89-2.09-1.24-4.36-1.17-6.57l.15-6.46c.31-17.03-.33-32.37-.63-45.25-.16-6.44-.21-12.27-.19-17.4.05-5.12.16-9.53.31-13.13.14-3.6.3-6.4.44-8.29.06-.94.11-1.65.15-2.15.04-.53.07-.78.07-.78zM218.2 399.24c-.01 0-.01-.11-.01-.32 0-.24.01-.55.02-.94.03-.86.07-2.06.12-3.6.06-3.13.45-7.64 1.1-13.19.41-2.77.75-5.81 1.4-9.04.31-1.62.57-3.3.94-5.01l1.14-5.28c1.62-7.21 3.69-15.07 5.62-23.37 4.02-16.57 5.43-32.03 5.12-43.19l-.27-7.53c-.12-2.21-.34-4.11-.46-5.67-.12-1.53-.22-2.73-.29-3.58-.03-.39-.05-.7-.06-.93-.01-.21-.01-.32 0-.32s.03.11.06.31c.03.24.07.54.11.93.09.85.22 2.05.39 3.58.15 1.56.4 3.45.54 5.67.1 2.22.22 4.75.35 7.54.4 11.18-.95 26.71-4.98 43.31-1.93 8.31-4.02 16.16-5.66 23.35-.39 1.8-.78 3.56-1.15 5.27-.37 1.71-.65 3.38-.96 4.99-.66 3.22-1.02 6.25-1.45 9.01-.7 5.54-1.14 10.04-1.26 13.16-.09 1.53-.17 2.73-.22 3.59-.03.39-.05.7-.07.93-.05.22-.06.33-.07.33zM217.25 331.89c.01.01-.12.17-.39.46-.31.32-.7.74-1.19 1.24-1.03 1.07-2.57 2.59-4.5 4.43-3.86 3.68-9.36 8.59-15.76 13.62-6.4 5.03-12.48 9.21-16.97 12.09-2.24 1.44-4.08 2.57-5.37 3.32-.61.35-1.1.63-1.49.86-.34.19-.53.28-.54.27-.01-.02.16-.14.48-.36.38-.25.85-.56 1.43-.94 1.25-.8 3.06-1.98 5.27-3.46 4.43-2.95 10.46-7.18 16.85-12.19 6.38-5.02 11.91-9.87 15.83-13.48 1.96-1.8 3.53-3.28 4.61-4.31.51-.48.93-.86 1.25-1.17.31-.26.47-.39.49-.38z" class="st5"/><path d="M233.28 310.44c-3.28 30.45-14.13 63.72-15.08 82.93 4.3-13.69 9.74-26.77 13.74-40.55s5.8-28.74 1.34-42.38z" class="st13"/><path d="M253.1 133.35c2.25-.79 4.09-2.66 4.84-4.93.75-2.26.39-4.86-.95-6.84-1.04-1.54-2.61-2.68-3.55-4.29-.78-1.33-1.06-2.89-1.58-4.34-1.67-4.66-5.88-8.21-10.65-9.53-4.77-1.32-10-.54-14.42 1.69-1.76.89-3.48 2.01-5.44 2.18-1.9.16-3.74-.6-5.61-.95-4.45-.82-9.27.88-12.21 4.32-2.94 3.44-3.87 8.47-2.36 12.74-5.13.86-9.28 5.73-9.31 10.93-.03 5.2 4.06 10.12 9.18 11.04 3.16.57 6.39-.25 9.52-.97a169.8 169.8 0 0 1 38.71-4.33" class="st5"/><path d="M187.44 201.89c-4.79-7.93-6.66-17.59-5.18-26.73 1.48-9.15 5.2-20.19 12.25-26.2-3.07-5.03-.5-9.43 3.32-13.91 3.82-4.49 9.51-6.96 15.2-8.48a63.495 63.495 0 0 1 26.1-1.38c7.07 1.11 16.18 4.16 16.12 9.4-.06 5.46-3.96 7.14-3.96 7.14s6.56 3.36 11.48 10.42c7.08 10.15 8.8 19.31 5.74 28.54-3.06 9.23-6.57 16.19-13.44 21.05" class="st14"/><path d="M247.25 211.74c1.1-.74 2.58-1.33 3.97-1.45l-.26-.08c.26-.01.51.02.77.05 1 0 1.93.27 2.61.97l-.03-.01c1.34.89 2.39 2.27 2.76 3.85.66 2.74-.54 5.76-2.72 7.54-1.89 1.55-4.67 2.21-6.85 1.1-2.01-1.02-3.13-3.32-3.23-5.57-.12-2.45.93-5.03 2.98-6.4z" class="st6"/><path d="m184.63 233.25 11.12-73.36a7.203 7.203 0 0 1 7.79-5.85l39.41-1.72c12.26 1.21 17.18 17.63 15.45 29.82-1.92 13.55-4.8 30.01-8.45 39.66-7.33 19.41-23.24 18.78-23.24 18.78.01-.07-2.98 13.9-4.57 21.17l-8.13 28.78-29.38-57.28z" class="st10"/><path d="M250.65 197.99c-.23 1.37-1.58 2.3-3.02 2.08-1.43-.22-2.41-1.5-2.17-2.87.23-1.37 1.58-2.3 3.02-2.09 1.43.23 2.4 1.51 2.17 2.88zM253.09 189.91c-.39.27-2.04-1.58-4.81-2.14-2.76-.6-5.09.4-5.32 0-.12-.18.33-.72 1.35-1.18 1-.46 2.62-.78 4.34-.41 1.72.37 3.04 1.3 3.74 2.12.73.83.89 1.49.7 1.61zM224.6 193.23c-.23 1.37-1.58 2.3-3.02 2.08-1.43-.22-2.41-1.5-2.17-2.87.23-1.37 1.58-2.3 3.02-2.09 1.43.23 2.4 1.51 2.17 2.88zM225.77 184.8c-.39.27-2.04-1.58-4.81-2.14-2.76-.6-5.09.4-5.32 0-.12-.18.33-.72 1.35-1.18 1-.46 2.62-.78 4.34-.41 1.72.37 3.04 1.3 3.74 2.12.72.83.88 1.49.7 1.61zM231.57 207.41c.02-.16 1.8-.1 4.67.12.72.07 1.42.07 1.64-.39.27-.48.13-1.3-.04-2.19-.31-1.85-.64-3.79-.98-5.82-1.32-8.27-2.12-15-1.79-15.05.33-.05 1.67 6.61 2.99 14.87.31 2.03.6 3.97.88 5.83.1.86.37 1.87-.21 2.85-.3.49-.9.76-1.38.79-.48.04-.88-.03-1.24-.08-2.82-.42-4.56-.77-4.54-.93z" class="st5"/><path d="M226.71 240.58s-13.68-1.92-25.39-12.72c0 0 3.67 15.13 24.14 17.4l1.25-4.68zM229.8 213.91c-.95-2.17-2.9-3.78-4.99-4.13-1.46-.24-3.01.13-4.05 1.23-1.05 1.1-1.48 2.96-.86 4.49.7 1.72 2.52 2.6 4.16 2.55 1.64-.06 3.15-.86 4.6-1.68.4-.23.81-.47 1.09-.86s.41-.97.18-1.43" class="st11"/><path d="M223.03 207.65c.46.07-.16 3.07 1.97 5.74 2.13 2.67 5.4 3 5.34 3.42 0 .2-.83.44-2.19.19-1.34-.23-3.18-1.06-4.49-2.69-1.3-1.63-1.61-3.52-1.46-4.77.14-1.28.62-1.95.83-1.89zM228.43 177.52c-.43.7-3.12-.23-6.45-.51-3.32-.35-6.14.06-6.43-.7-.13-.36.48-.98 1.69-1.49 1.2-.51 3.02-.86 5.01-.67 1.99.19 3.72.87 4.8 1.59 1.1.73 1.57 1.45 1.38 1.78zM253.73 181.69c-.62.53-2.39-.52-4.68-1.02-2.27-.58-4.32-.45-4.63-1.2-.13-.36.31-.93 1.28-1.35.96-.42 2.46-.62 4.02-.24 1.57.38 2.81 1.23 3.48 2.04.68.8.81 1.5.53 1.77z" class="st5"/><path d="M244.45 158.6s-18.74-4.3-37.51 13.88c-12.37 11.98-18.1 29.12-18.1 29.12l-.11-34.98 8.7-14.07 14.56-4.57 24.95 3.88 8.32 6.6" class="st14"/><path d="M207.24 152.46c31.49-.81 53.31 14.23 52.68 38.65l9.4-14.15-11.57-22.1-16.1-8.08-35.46-2.12 1.05 7.8z" class="st14"/><path d="M184.73 198.45c1.19-.8 2.77-1.43 4.27-1.56l-.28-.08c.28-.01.55.02.82.05 1.08 0 2.08.29 2.81 1.04l-.03-.01c1.45.96 2.57 2.45 2.97 4.14.71 2.95-.58 6.2-2.93 8.12-2.04 1.67-5.03 2.38-7.38 1.18-2.16-1.1-3.36-3.58-3.48-5.99-.11-2.64 1.02-5.41 3.23-6.89z" class="st6"/><path d="M194.1 189.27c-.02.04-.51-.16-1.23-.77-.7-.62-1.61-1.71-2.16-3.33-.55-1.59-.67-3.81.34-5.88.47-1.02 1.1-1.98 1.5-3.03.43-1.03.46-2.19-.16-3.15-.61-.97-1.61-1.67-2.53-2.45-.94-.75-1.76-1.7-2.28-2.71a9.69 9.69 0 0 1-1.02-5.81c.22-1.69.87-2.94 1.4-3.71.53-.78.97-1.08.99-1.06.17.09-1.48 1.6-1.8 4.84-.15 1.58.09 3.54 1.11 5.37.51.92 1.21 1.73 2.13 2.45.89.75 1.96 1.46 2.71 2.64.79 1.18.71 2.76.21 3.88-.47 1.16-1.11 2.12-1.57 3.07-.95 1.86-.91 3.86-.47 5.37a8.248 8.248 0 0 0 1.82 3.27c.62.66 1.05.95 1.01 1.01zM197.59 147.39c.16.09-1.36 1.49-1.9 4.49-.27 1.47-.22 3.32.49 5.15.66 1.87 2.3 3.37 3.88 5.19.77.92 1.48 1.93 1.82 3.09.35 1.16.24 2.37-.06 3.38-.61 2.03-1.6 3.61-1.79 5.08-.24 1.47.07 2.7.53 3.37.46.69.95.86.9.93-.01.03-.13 0-.35-.09-.21-.1-.52-.29-.81-.64-.61-.69-1.05-2.04-.86-3.64.14-1.65 1.12-3.31 1.63-5.21.26-.95.33-1.96.02-2.95-.29-.99-.93-1.91-1.67-2.79-1.49-1.72-3.26-3.38-3.96-5.45a9.852 9.852 0 0 1-.35-5.54c.33-1.56 1-2.7 1.52-3.4.53-.71.93-1 .96-.97zM215.61 166.14c.03.03-.3.26-.86.02a1.68 1.68 0 0 1-.75-.73c-.21-.37-.27-.89-.17-1.38.16-1.03.95-1.96 1.22-3 .3-1.03-.43-2.15-1.48-2.99-1.07-.83-2.22-1.86-2.74-3.06a7.085 7.085 0 0 1-.7-3.31c.09-1.96.88-2.96.93-2.9.14.05-.41 1.11-.34 2.9.04.88.26 1.94.8 2.96.52 1.06 1.44 1.87 2.59 2.77.55.46 1.09 1.01 1.43 1.68.36.65.46 1.48.25 2.15-.42 1.32-1.21 2.1-1.39 2.93-.25.81.13 1.44.51 1.71.39.25.69.18.7.25zM224.81 151.06c.03-.04.21-.01.39.25.18.25.28.72.11 1.24-.16.52-.56.98-.82 1.45-.26.47-.39 1.06-.38 1.69.03 1.29.64 2.39 1.06 3.18.44.79.72 1.31.62 1.38-.09.06-.52-.31-1.11-1.05-.56-.73-1.36-1.92-1.41-3.49-.02-.77.17-1.53.55-2.11.38-.56.76-.92.93-1.27.39-.74 0-1.2.06-1.27zM257.1 146.53c.04.04-.12.31-.5.74-.37.43-.98.98-1.58 1.73-.62.74-1 1.78-.91 3.07.04 1.26.41 2.77.06 4.39-.32 1.59-1.13 2.98-2.13 3.95-1 .99-2.17 1.54-3.17 1.82-2.04.54-3.34.08-3.3.01.01-.15 1.28.08 3.12-.57.9-.33 1.93-.89 2.8-1.8a7.21 7.21 0 0 0 1.86-3.57c.31-1.41 0-2.83-.01-4.21-.07-1.39.48-2.73 1.23-3.46.72-.77 1.38-1.23 1.81-1.59.43-.36.68-.55.72-.51zM268.37 163.59c.09.16-1.02.41-1.7 1.81-.34.72-.91 1.56-1.39 2.47-.5.93-.98 2.03-1.8 3.06-1.72 2.12-4.37 2.55-6 2.29-1.7-.26-2.51-1.03-2.45-1.09.07-.13.95.41 2.51.5 1.51.1 3.82-.4 5.29-2.23.73-.91 1.23-1.97 1.78-2.91.57-.97 1.14-1.69 1.56-2.4.44-.72 1.06-1.18 1.5-1.34.42-.19.68-.21.7-.16zM266.79 184.22c.09.06-.08.52-.64 1.05-.55.53-1.54 1.09-2.75 1.15-1.21.06-2.26-.41-2.85-.88-.61-.48-.82-.92-.74-.99.15-.18 1.5 1.13 3.55 1.03 2.05-.09 3.27-1.53 3.43-1.36zM239.93 139.73c.05.14-.97.43-2.08 1.56-1.09 1.09-2.24 3.22-1.73 5.56.25 1.14.74 2.44.41 3.66-.3 1.19-1.06 2-1.7 2.55-1.34 1.08-2.37 1.35-2.41 1.27-.07-.12.86-.6 2.01-1.71.55-.56 1.15-1.32 1.35-2.28.24-.96-.18-2.03-.47-3.32-.29-1.32-.08-2.66.37-3.71.46-1.06 1.11-1.9 1.77-2.45 1.34-1.13 2.48-1.21 2.48-1.13zM217.98 150.14c-.2-.14.79-1.79 1.29-4.06.52-2.26.33-4.18.58-4.22.21-.06.8 1.95.24 4.4-.55 2.47-1.95 4.03-2.11 3.88zM204.48 145.25c-.03-.06.22-.17.48-.54.26-.35.53-.97.53-1.76.05-1.62-1.14-3.7-1.98-6.22-.41-1.28-.6-2.59-.48-3.78.1-1.19.55-2.24 1.12-2.94.56-.72 1.25-1.1 1.75-1.22.51-.11.79 0 .78.05 0 .07-.27.08-.68.26-.4.19-.93.58-1.37 1.26-.96 1.32-1.13 3.72-.32 6.11.78 2.4 1.97 4.61 1.78 6.51-.09.93-.5 1.61-.88 1.95-.41.36-.73.36-.73.32zM225.47 140.3c-.03-.05.17-.23.56-.52.35-.29 1.02-.69 1.21-1.37.15-.65-.3-1.67-.85-2.57-.57-.94-1.4-1.86-2.19-2.95-.75-1.09-1.53-2.26-1.45-3.63.13-1.3.84-2.2 1.39-2.88 1.18-1.33 2.07-1.93 2.14-1.86.1.09-.66.87-1.67 2.23-.47.68-1.03 1.56-1.09 2.56-.05.96.63 2.07 1.36 3.09 1.52 2.02 3.33 4.06 2.93 6.19-.42 1-1.21 1.24-1.6 1.47-.45.2-.71.29-.74.24zM244.74 140.97c-.05-.12.93-.32 1.47-1.57.27-.61.37-1.39.2-2.27-.15-.88-.54-1.83-.93-2.87s-.69-2.13-.63-3.17c.06-1.1.63-1.9 1.12-2.46 1.02-1.19 2.17-1.21 2.13-1.07.01.1-.87.29-1.67 1.44-.39.55-.81 1.28-.81 2.12-.02.87.26 1.84.64 2.85s.78 2.03.9 3.04c.15 1-.04 1.99-.44 2.66-.39.69-.93 1.09-1.33 1.24-.4.14-.65.11-.65.06z" class="st7"/><path d="M251.3 141.73c-.01.06-.84-.09-2.31-.39-1.46-.34-3.61-.7-6.26-1.09-5.3-.72-12.76-1.08-20.83.31-8.06 1.38-15.07 3.91-20.08 5.84-2.38.95-4.37 1.74-5.91 2.36-1.39.56-2.18.85-2.2.8-.02-.05.71-.44 2.07-1.1 1.35-.66 3.34-1.56 5.82-2.61 4.96-2.07 12-4.72 20.16-6.12 8.16-1.41 15.73-.95 21.05-.07 2.66.47 4.8.93 6.25 1.36 1.46.41 2.25.65 2.24.71zM200.08 150.11c0 .01.07 0 .21-.02.17-.03.37-.07.61-.12.28-.06.61-.13.99-.2.4-.06.85-.13 1.36-.21 2.04-.29 5.05-.55 8.73-.22 3.68.29 8.02 1.18 12.65 2.77 2.31.79 4.69 1.76 7.13 2.83 2.43 1.08 4.92 2.26 7.38 3.64 9.97 5.35 16.74 13.8 19.11 20.76 1.23 3.48 1.51 6.5 1.61 8.56.06 1.03.05 1.84.04 2.38v.62c0 .14.01.21.02.21s.02-.07.03-.21c.01-.17.03-.37.04-.62.04-.55.08-1.35.05-2.39-.05-2.07-.27-5.12-1.48-8.66-2.32-7.09-9.13-15.68-19.19-21.07-2.48-1.39-4.98-2.58-7.43-3.65-2.45-1.07-4.84-2.04-7.18-2.82-4.66-1.57-9.05-2.43-12.76-2.69-3.72-.29-6.74.03-8.79.38-.5.1-.96.18-1.36.26-.38.1-.7.18-.98.25-.24.07-.44.12-.6.16-.13.03-.19.05-.19.06z" class="st5"/><path d="M239.26 158.53c0-.02-.22-.06-.66-.11-.43-.07-1.08-.12-1.91-.15-1.66-.05-4.09.09-6.98.78-5.78 1.37-13.41 4.99-20.18 11.07-3.41 3.01-6.18 6.35-8.64 9.4-2.44 3.07-4.49 5.95-6.06 8.48-1.58 2.51-2.66 4.67-3.32 6.19-.33.76-.57 1.36-.7 1.78-.14.41-.21.63-.2.64.02.01.11-.2.29-.6.16-.4.43-.99.78-1.73.71-1.49 1.83-3.6 3.44-6.08 1.59-2.49 3.66-5.34 6.11-8.38 2.47-3.03 5.23-6.33 8.61-9.32 6.7-6.03 14.24-9.66 19.94-11.1 2.86-.73 5.25-.92 6.9-.93.82.01 1.47.02 1.9.06.44.01.67.02.68 0z" class="st5"/><path d="M69.22 457.2s6.12-2.01 10.05-3.14c2.17-.62 11.15-4.6 16.61-5.62 4.56-.86 17.19-7.31 19.15-8.63 1.96-1.32 9.7-44.45 9.7-44.45l29.2 4.4s-15.57 41.59-16.55 45.57c-.98 3.98-4.68 14.24-4.68 14.24H69.22v-2.37z" class="st10"/><path d="M120.35 458.6c-.01-.09.96-.17 2.37-.77 1.4-.58 3.23-1.79 4.46-3.76 1.23-1.97 1.51-4.15 1.42-5.66-.08-1.53-.44-2.44-.35-2.47.03-.01.15.2.3.61.16.41.32 1.03.41 1.82.2 1.56-.04 3.87-1.34 5.96-1.31 2.09-3.28 3.32-4.77 3.82-.75.26-1.38.39-1.82.43-.43.07-.67.05-.68.02zM116.52 456.47c.01.02-.2.11-.59.26-.4.15-1.01.32-1.8.47-1.6.29-3.96.2-6.83.15-1.43.01-3.01.07-4.61.56-1.6.47-3.2 1.36-5.04 1.97-3.68 1.23-8.25 1.04-12.3-.93l-.62-.3.67-.18c.19-.05.39-.11.59-.16 2.13-.62 4.12-1.54 5.88-2.67 1.78-1.11 3.25-2.52 4.73-3.8 2.93-2.64 6.26-4.1 9.07-4.98 2.82-.89 5.18-1.32 6.8-1.62.77-.13 1.39-.23 1.87-.31.43-.06.66-.09.66-.07 0 .02-.22.08-.64.17-.48.1-1.09.24-1.85.41-1.6.36-3.94.84-6.72 1.77-2.77.92-6 2.38-8.87 4.99-1.45 1.28-2.95 2.72-4.76 3.87a23.19 23.19 0 0 1-6.01 2.75c-.21.06-.41.11-.6.17l.05-.49c3.92 1.92 8.36 2.12 11.92.95 1.79-.58 3.4-1.46 5.07-1.93 1.67-.49 3.29-.52 4.73-.51 2.89.1 5.21.25 6.8.02 1.56-.25 2.38-.62 2.4-.56z" class="st11"/></g><g id="Character_4"><path d="m547.64 383.24-16.97 39.27-15.74 50.58 152.51.72-2.6-95.8-74.96-7.64z" class="st5"/><path d="M466.11 389.27s-12.29 4.67-21.89 7.5c-9.6 2.83-26.77 13.41-26.77 13.41s-17.43 15.73-16.83 17.79c.61 2.06 2.7 3.08 5.35.96 2.65-2.13 15.73-9.86 15.73-9.86s.84 4.37 3.68 4.88c2.83.51 4.31-.2 4.31-.2s1.16 4.11 3.2 5.45c2.04 1.34 3.92 1.68 3.92 1.68s-.08 2.26 2.7 3.08c2.78.82 5.41.64 5.41.64s9.11-5.52 10.56-8.19c1.45-2.66 3.22-6.25 3.22-6.25l3.76-1.88 11.55-1.96-7.9-27.05z" class="st15"/><path d="M453.44 410.05s-.31.56-1.13 1.39c-.8.85-2.16 1.91-4.06 2.86-1.9.96-4.37 1.78-7.27 2.05-1.44.12-3 .13-4.58-.19-1.58-.31-3.21-.89-4.65-1.91l.3-.41c1.1.81 2.19 1.71 3.22 2.73.52.52 1.02 1.06 1.45 1.69.44.64.72 1.38.87 2.15.36 1.87-.15 3.82-1.25 5.23l-.12.15-.18-.07c-1.82-.72-3.43-1.72-4.91-2.74-1.48-1.02-2.84-2.08-4.11-3.1-1.27-1.03-2.47-1.95-3.6-2.9a4.523 4.523 0 0 1-1.34-3.77c.08-.63.31-1.18.52-1.68a22.738 22.738 0 0 1 1.85-3.53c.36-.56.67-.98.89-1.26.22-.28.34-.41.35-.4.01.01-.09.16-.28.46a26.753 26.753 0 0 0-1.94 3.45c-.2.43-.4.9-.6 1.4-.19.51-.41 1.03-.46 1.61-.13 1.15.27 2.5 1.28 3.44 1.08.88 2.33 1.83 3.6 2.83 1.28 1 2.64 2.05 4.11 3.05 1.47 1 3.05 1.97 4.81 2.66l-.29.08c1-1.29 1.48-3.1 1.15-4.82-.14-.7-.4-1.38-.79-1.95-.4-.58-.89-1.12-1.39-1.62-1.01-1-2.09-1.89-3.16-2.69l.29-.41c1.37.98 2.92 1.54 4.44 1.85 1.53.33 3.04.33 4.46.23 2.83-.24 5.28-1 7.16-1.91 1.89-.9 3.26-1.9 4.08-2.69.87-.77 1.23-1.3 1.28-1.26z" class="st16"/><path d="M437.01 422.92c-.02-.08.58-.23 1.5-.6.9-.37 2.18-.94 3.26-1.93.53-.5.9-1.09 1.03-1.68.12-.58-.02-1.15-.23-1.55-.45-.85-1.15-.91-1.12-.99 0-.03.17-.06.46.02.28.08.69.33.98.78.29.45.51 1.1.38 1.83-.12.72-.56 1.41-1.14 1.96-1.19 1.08-2.53 1.59-3.5 1.9-.98.3-1.61.32-1.62.26z" class="st16"/><path d="M439.57 429.89c-.04-.07.85-.56 2.22-1.44.68-.44 1.48-.98 2.34-1.63.84-.66 1.83-1.35 2.6-2.25.38-.45.68-.96.79-1.48.11-.52.03-1.04-.18-1.49-.43-.91-1.26-1.45-2-1.67-.75-.23-1.41-.23-1.86-.23-.45.01-.7.04-.71 0-.01-.03.23-.13.69-.2.46-.07 1.15-.13 1.98.07.82.19 1.8.76 2.33 1.82.27.52.38 1.17.25 1.81-.13.64-.47 1.21-.89 1.71-.86.99-1.85 1.66-2.72 2.31-.89.63-1.72 1.15-2.43 1.55-1.44.81-2.38 1.18-2.41 1.12z" class="st16"/><path d="M451.69 429.09c-.07-.05.31-.5.43-1.35.14-.82-.08-2.14-1.08-2.93-1.03-.77-2.36-.64-3.11-.29-.79.34-1.12.82-1.19.76-.05-.01.18-.62 1.03-1.1.8-.47 2.34-.72 3.59.21 1.22.98 1.38 2.53 1.13 3.42-.25.94-.77 1.32-.8 1.28z" class="st16"/><path d="m527.35 442.27-3.2 4.74-23.94-.05-30.47 12.28h78.72c.67-.83 2.72-3.97 2.72-3.97-5.54-3.02-23.83-13-23.83-13z" class="st15"/><path d="M636.43 296.61c-17.18-27.81-54.12-61.8-57.26-63.36-3.14-1.57-53.63-4.74-53.63-4.74l-39.88 28.29-13.24 19.79c-1.81 5.63-4.99 14.31-3.54 20.04l1.23 9.76 41.6 26.85 20.69 12.07 11.52 16.34-.92 27.3 16.3-3.1s25.1 2.48 49.16 3.07c24.06.59 57.15-7.05 57.15-7.05s-10.01-54.23-29.18-85.26z" class="st6"/><path d="m540.47 276.4 14.12 78.34-29.29 86.42 29.29 15.98s20.92-36.81 30.33-59.08c9.41-22.27 12.85-34.71 12.85-34.71s-.04-84.67-3.05-94.43-12.94-29.11-23.4-28.06c-10.45 1.03-35.13 11.78-30.85 35.54z" class="st6"/><path d="m470.11 306.4 25.23 61.79s-2.11 3.26-3.04 7.27l-31.43 15.57 9.24 29.75s39.26-13.04 44.82-16.04c5.56-3 21.6-14.43 24.38-23.69 2.78-9.26-12.63-42.11-12.63-42.11l-56.57-32.54z" class="st6"/><path d="M532.4 345.33c-.01.02-.19-.08-.54-.26-.39-.22-.89-.5-1.49-.84-1.29-.74-3.15-1.82-5.42-3.2-2.27-1.38-4.96-3.05-7.87-5.04-1.45-1-2.95-2.08-4.45-3.28-1.47-1.22-3-2.48-4.56-3.78-6.19-5.19-11.8-9.88-15.92-13.34-1.98-1.69-3.6-3.08-4.79-4.09l-1.28-1.13c-.29-.26-.44-.41-.43-.42.01-.01.18.1.49.34.35.28.8.63 1.35 1.06 1.21.98 2.87 2.32 4.89 3.96 4.15 3.42 9.78 8.07 16.02 13.22 1.56 1.3 3.08 2.56 4.55 3.78 1.48 1.2 2.97 2.28 4.4 3.29 2.88 2 5.54 3.71 7.79 5.13 2.21 1.38 4.02 2.51 5.33 3.34.59.37 1.07.68 1.44.92.33.2.5.32.49.34zM535.32 232.13s.87.91 1.93 2.91c1.05 1.98 2.16 5.15 2.24 9.2.03 2.02-.2 4.24-.79 6.54-.62 2.3-1.6 4.66-2.97 6.95-2.73 4.6-6.98 8.85-12.16 12.17-5.17 3.32-10.93 5.29-16.29 5.41-5.38.21-10.13-1.65-13.36-4.03-3.3-2.38-5.12-5.25-6-7.31-.25-.51-.39-.99-.52-1.4-.15-.41-.23-.77-.29-1.06-.05-.26-.1-.48-.14-.66-.03-.15-.04-.23-.03-.23.07-.02.24 1.23 1.16 3.26.92 2 2.76 4.79 6.03 7.09 3.21 2.3 7.86 4.09 13.13 3.85 5.26-.15 10.92-2.09 16.02-5.37 5.11-3.28 9.32-7.47 12.02-11.98a27.66 27.66 0 0 0 2.97-6.82c.6-2.26.85-4.44.84-6.43-.04-3.99-1.08-7.13-2.06-9.12-.24-.5-.47-.94-.7-1.31-.21-.37-.4-.69-.57-.93-.15-.22-.27-.41-.37-.56-.06-.09-.1-.16-.09-.17z" class="st5"/><path d="M524.46 268.24c-.14.06-.87-1.56-2.1-3.35-1.22-1.79-2.48-3.05-2.37-3.16.08-.1 1.54 1.01 2.8 2.86 1.27 1.85 1.8 3.61 1.67 3.65zM533.98 259.34c-.12.1-1.31-1.4-3.35-2.45-2.02-1.08-3.94-1.2-3.92-1.36-.02-.13 2.01-.24 4.16.9 2.16 1.12 3.23 2.86 3.11 2.91zM539.19 248.72c-.05.14-1.52-.31-3.37-.56-1.85-.27-3.39-.24-3.4-.39-.02-.13 1.55-.4 3.47-.13 1.92.27 3.36.96 3.3 1.08zM538.29 236.36c.01.15-1.37.36-3.02.83-1.65.46-2.94 1.01-3.01.88-.07-.12 1.16-.9 2.87-1.38 1.7-.48 3.16-.46 3.16-.33zM508.33 274.23c-.12.06-.79-1.34-.77-3.21 0-1.87.69-3.26.81-3.2.15.05-.29 1.44-.29 3.2-.02 1.77.4 3.16.25 3.21zM492.21 271.07c-.11-.09.53-1.03 1.44-2.08.9-1.06 1.72-1.84 1.83-1.74.11.09-.53 1.02-1.44 2.08-.9 1.05-1.72 1.83-1.83 1.74zM594.73 268.91s.05.14.12.42c.07.28.2.7.28 1.26.22 1.12.42 2.8.64 5 .42 4.4.79 10.87 1.11 19.13.62 16.51 1.03 40.15 1.12 68.62v.03l-.01.03c-2.11 7.17-4.78 14.52-7.71 22.09-2.96 7.56-6.14 15.38-9.91 23.22-7.5 15.69-16.22 31.93-25.55 48.55l-.13.22-.23-.12c-.85-.47-1.78-.97-2.71-1.48-9.05-4.94-17.94-9.79-26.58-14.51l-.19-.1.07-.21c10.98-32.34 21.02-61.92 29.34-86.4l-.01.1c-4.27-23.91-7.77-43.49-10.2-57.11-1.2-6.8-2.14-12.11-2.78-15.73-.31-1.8-.55-3.18-.71-4.12-.16-.93-.22-1.41-.22-1.41s.11.47.28 1.4c.18.94.43 2.31.77 4.11.67 3.62 1.64 8.92 2.89 15.71 2.48 13.61 6.04 33.19 10.38 57.08l.01.05-.02.05c-8.28 24.49-18.29 54.08-29.24 86.43l-.12-.31c8.65 4.72 17.53 9.57 26.58 14.5.93.51 1.85 1.01 2.71 1.48l-.35.1c9.33-16.61 18.05-32.84 25.55-48.51 3.77-7.82 6.95-15.63 9.92-23.18 2.94-7.56 5.62-14.91 7.72-22.04l-.01.06c-.04-28.47-.39-52.1-.93-68.61-.27-8.25-.61-14.72-.99-19.12-.2-2.2-.38-3.88-.58-5-.07-.57-.19-.98-.25-1.26-.04-.27-.06-.42-.06-.42zM575.68 247.62c-.05.1-1.72-1.02-4.74-2.01-2.99-1-7.47-1.7-12.22-.73-4.76.98-8.59 3.38-10.95 5.48-2.39 2.1-3.48 3.78-3.57 3.72-.02-.02.23-.45.76-1.17s1.38-1.72 2.56-2.82c2.33-2.2 6.22-4.71 11.09-5.71s9.44-.21 12.44.89c1.52.55 2.69 1.13 3.46 1.59.79.44 1.19.73 1.17.76z" class="st5"/><g class="st17"><path d="M587.57 391.87c.16-.42.31-.83.47-1.25-.09.06-.17.12-.26.18l-.21 1.07zM603.37 336.78c-1.26-12.84-2.92-25.68-6.26-38.14-2.82 21.64 2.73 43.82-.98 65.32-1.58 9.16-4.8 17.95-8.09 26.65 8.18-5.35 13.11-14.71 15.06-24.29 1.97-9.69 1.24-19.7.27-29.54z"/></g><path d="m529.02 343.3-34.73-26.21c.39 9.77 7.82 17.79 15.55 23.79s18.23 12.9 25.56 19.38c-2.42-5.4-3.97-11.56-6.38-16.96z" class="st17"/><path d="M544.32 295.37c.01.01-.18.24-.56.66-.38.42-.95 1.04-1.71 1.81-1.52 1.52-3.73 3.78-6.99 5.91-1.63 1.05-3.55 2.04-5.78 2.62-2.22.56-4.77.65-7.28-.02-2.52-.65-4.94-1.92-7.3-3.38-2.38-1.45-4.71-3.14-7.3-4.49-2.58-1.35-5.32-2.34-8.05-2.41-2.74-.12-5.28.93-7.32 2.39-2.07 1.45-3.77 3.18-5.47 4.7-1.69 1.52-3.38 2.86-5.15 3.71-1.75.88-3.56 1.22-5.12 1.07-1.56-.12-2.84-.64-3.75-1.25-.92-.61-1.45-1.31-1.72-1.8-.28-.5-.35-.79-.35-.79.03-.01.14.27.44.74s.84 1.13 1.75 1.69c.89.57 2.15 1.04 3.66 1.13 1.51.12 3.24-.23 4.93-1.11 1.71-.85 3.36-2.17 5.02-3.7 1.67-1.52 3.37-3.28 5.48-4.77 1.05-.74 2.22-1.42 3.51-1.87 1.28-.46 2.69-.68 4.11-.64 2.85.07 5.66 1.09 8.28 2.46 2.64 1.37 4.97 3.07 7.33 4.52 2.35 1.45 4.72 2.71 7.16 3.35 1.22.32 2.44.5 3.63.47 1.19.02 2.34-.16 3.43-.41 2.17-.55 4.07-1.5 5.69-2.51 3.24-2.06 5.49-4.27 7.05-5.74.74-.73 1.34-1.31 1.77-1.74.38-.41.6-.62.61-.6zM595.05 289.3c.01.01-.13.15-.42.4-.3.23-.76.56-1.44.83-1.32.58-3.52.87-6.03.18-5.2-1.2-9.83-7.57-17.62-9.01-1.87-.47-3.76-.62-5.58-.71-1.82.01-3.58.1-5.23.4-3.31.55-6.16 1.64-8.4 2.82-4.52 2.38-6.5 5-6.6 4.86-.01-.01.11-.16.37-.44.3-.32.68-.71 1.14-1.2.54-.46 1.19-1.06 2.01-1.68.42-.29.87-.61 1.34-.94.47-.34 1.02-.61 1.58-.93 2.25-1.24 5.14-2.38 8.49-2.97 1.67-.32 3.47-.43 5.32-.44 1.85.08 3.78.23 5.69.71 1.93.4 3.72 1.13 5.41 1.89.81.46 1.63.87 2.38 1.34.75.48 1.46.98 2.15 1.47 2.72 1.99 5.21 3.77 7.66 4.45 2.43.71 4.55.49 5.86-.02 1.33-.45 1.88-1.07 1.92-1.01zM621.03 275.27c.02.05-.46.26-1.2.83-.73.57-1.69 1.56-2.48 3.03-.81 1.46-1.44 3.36-1.89 5.54-.49 2.17-.86 4.63-1.91 7.05-1.05 2.42-2.86 4.34-4.82 5.5-1.94 1.21-3.97 1.73-5.67 1.91-1.71.15-3.11-.05-4.02-.32-.47-.1-.81-.26-1.04-.34-.23-.09-.35-.15-.35-.16.02-.05.51.13 1.43.31.91.2 2.28.34 3.94.15 1.64-.22 3.6-.76 5.46-1.95 1.88-1.14 3.58-2.98 4.59-5.3 1.01-2.33 1.4-4.77 1.92-6.95.49-2.19 1.17-4.14 2.04-5.62.86-1.49 1.89-2.48 2.68-3.01.4-.27.72-.45.96-.54.23-.1.35-.15.36-.13zM503.97 324.79c.04.01-.04.38-.2 1.06-.08.34-.18.75-.36 1.22-.17.46-.33 1.01-.61 1.57-.26.57-.54 1.2-.92 1.82-.34.65-.8 1.3-1.27 1.98-.99 1.32-2.2 2.7-3.67 3.92a23.356 23.356 0 0 1-4.52 2.9c-1.51.68-2.92 1.18-4.15 1.43-.6.16-1.17.22-1.66.29-.49.08-.92.1-1.26.11-.7.02-1.08.01-1.08-.02-.01-.11 1.54-.12 3.92-.73 1.19-.29 2.56-.81 4.03-1.5 1.44-.74 2.96-1.68 4.4-2.87 1.44-1.2 2.63-2.53 3.62-3.81.47-.66.93-1.28 1.28-1.91.39-.61.69-1.21.96-1.76 1.06-2.22 1.39-3.73 1.49-3.7z" class="st7"/><path d="M661.05 407.53c.01.04-.58.14-1.64.29-.53.09-1.18.17-1.94.2-.76.04-1.63.13-2.59.08-.96-.01-2.01-.03-3.14-.15-1.13-.07-2.32-.28-3.58-.48-2.49-.49-5.2-1.24-7.92-2.35-2.71-1.14-5.15-2.53-7.26-3.95-1.03-.75-2.02-1.44-2.87-2.19-.88-.71-1.64-1.44-2.32-2.11-.71-.65-1.26-1.33-1.77-1.89-.52-.56-.92-1.08-1.23-1.52-.64-.86-.98-1.34-.95-1.37.03-.02.42.42 1.11 1.24.34.41.76.91 1.29 1.45.53.54 1.09 1.2 1.81 1.82.69.65 1.46 1.36 2.34 2.04.85.73 1.84 1.4 2.86 2.13 2.1 1.38 4.52 2.74 7.19 3.86a44.57 44.57 0 0 0 7.81 2.36c1.24.21 2.41.44 3.53.53 1.11.15 2.15.19 3.1.22.95.07 1.81 0 2.57-.01.76 0 1.41-.05 1.94-.11 1.06-.09 1.65-.12 1.66-.09zM580.88 458.03c-.14-.03 2-9.95 4.79-22.14 2.78-12.2 5.15-22.06 5.29-22.03.14.03-2 9.94-4.79 22.14-2.78 12.2-5.15 22.07-5.29 22.03z" class="st6"/><path d="M533.14 243.75c.14-1.93-.21-3.86-1.01-5.62l-30.34-66.43c-7.07-19.08-24.07-30.86-42.95-23.26l-1.7.8c-17.14 8.09-25.2 27.99-18.51 45.73 6.22 16.5 13.31 34.64 17.44 43.12 8.55 17.55 27.51 11.96 27.51 11.96l3.53 6.76s3.7 12.74 19.52 10.95c12.16-1.37 21.17-13.18 24.69-18.58a11.48 11.48 0 0 0 1.82-5.43z" class="st15"/><path d="M483.42 250.09s11.59-4.65 19.93-17.69c0 0 .56 15.27-17.81 22l-2.12-4.31z" class="st16"/><path d="M449.95 208.27c.58 1.35 2.21 1.98 3.63 1.4 1.42-.58 2.11-2.15 1.53-3.5-.58-1.35-2.21-1.98-3.63-1.4-1.43.58-2.11 2.15-1.53 3.5zM446.5 201.81c.47.18 1.71-2.13 4.43-3.41 2.69-1.31 5.35-.86 5.48-1.33.08-.22-.52-.66-1.69-.88-1.15-.23-2.89-.15-4.58.66s-2.81 2.1-3.33 3.12c-.53 1.04-.53 1.77-.31 1.84zM474.87 196.72c.58 1.35 2.21 1.98 3.63 1.4 1.42-.58 2.11-2.15 1.53-3.5-.58-1.35-2.21-1.98-3.63-1.4-1.42.58-2.11 2.15-1.53 3.5zM473.41 189.73c.47.18 1.71-2.14 4.43-3.41 2.69-1.31 5.34-.86 5.48-1.33.07-.22-.52-.66-1.69-.88-1.15-.23-2.89-.15-4.58.66s-2.81 2.1-3.33 3.12c-.53 1.04-.54 1.76-.31 1.84zM473.06 214.5c-.06-.16-1.88.34-4.78 1.29-.73.26-1.45.43-1.79.01-.4-.42-.46-1.31-.51-2.27-.14-1.98-.29-4.06-.44-6.24-.7-8.85-1.56-16-1.91-15.97-.36.03-.08 7.23.62 16.09.19 2.18.37 4.25.54 6.23.11.91.08 2.02.92 2.89.43.43 1.12.57 1.62.48.51-.07.9-.25 1.25-.39 2.83-1.17 4.54-1.96 4.48-2.12zM481.93 212.6c-.45.18.93 3.13-.6 6.41-1.53 3.29-4.82 4.44-4.65 4.86.05.2.97.24 2.31-.35 1.32-.57 3.02-1.88 3.96-3.89.93-2.01.79-4.03.32-5.29-.47-1.27-1.15-1.85-1.34-1.74zM467.69 179.43c.62.61 3.16-1.02 6.52-2.14 3.34-1.19 6.35-1.47 6.46-2.33.04-.41-.74-.89-2.11-1.11-1.36-.23-3.33-.13-5.34.56-2.01.69-3.62 1.82-4.55 2.84-.95 1.03-1.26 1.88-.98 2.18zM443.79 193.49c.77.39 2.33-1.13 4.57-2.22 2.19-1.17 4.35-1.55 4.48-2.4.04-.4-.55-.88-1.65-1.07-1.09-.19-2.69-.02-4.21.75-1.52.78-2.6 1.97-3.08 2.97-.5 1.01-.46 1.77-.11 1.97z" class="st5"/><path d="M436.5 186.07s-.56-13.25 3.55-18.35c4.98-6.17 11.1-.4 16.44-5.02 5.34-4.62 10.08-10.53 18.61-8.74 9.34 1.96 7.84 7.13 11.96 14.76 16.72 30.94 26.76 37.19 21.34 21.45-.59-1.72 3.34-5.17.74-12.42-3.37-9.39-8.17-20.46-13.18-25.88-4.22-4.57-9.04-6.84-16.46-8.34-11.72-2.36-23.69 3.12-31.39 7.75-7.68 4.63-18.88 21.3-11.61 34.79z" class="st5"/><path d="M507.06 190.22c-1.18-2.78.16-6.04 2.99-7.06 3.44-1.24 7.99-1.1 10.98 5.8 5.31 12.25-8.08 15.06-8.26 14.72-.11-.24-3.53-8.32-5.71-13.46z" class="st15"/><path d="M513.45 197.91c.04-.06.28.06.71.07.42.01 1.07-.14 1.61-.66 1.09-1.04 1.29-3.56.39-5.8a7.746 7.746 0 0 0-1.92-2.8c-.76-.73-1.61-1.11-2.32-.94-.71.13-1.01.72-1.01 1.13-.02.41.17.62.11.67-.02.05-.35-.09-.47-.64-.05-.27-.04-.62.15-.98.19-.37.57-.68 1.04-.82.97-.34 2.2.16 3.05.93.91.76 1.71 1.83 2.22 3.09.99 2.5.73 5.36-.82 6.64-.76.6-1.6.65-2.09.52-.5-.12-.69-.37-.65-.41z" class="st16"/><path d="M495.78 166.94c-1.06 1.81-2.2 3.7-4 4.77-1.8 1.08-4.47 1.01-5.67-.71-.54-.77-.79-1.84-1.65-2.23-1.02-.46-2.13.35-3.09.94-3.33 2.03-8.1 1.24-10.6-1.75-.26 1.76-2.38 2.69-4.14 2.46-1.77-.23-3.31-1.25-4.95-1.96-1.63-.71-3.63-1.1-5.12-.12-.83.55-1.42 1.47-2.35 1.82-1.65.61-3.3-.88-4.28-2.34-.98-1.46-2.04-3.21-3.78-3.43-1.62-.21-3.01 1.01-4.37 1.92-1.36.9-3.4 1.45-4.45.2-.55-.66-.6-1.59-.49-2.44.48-3.85 3.96-7.1 7.83-7.32-.7-4.55 1.56-9.41 5.49-11.8 3.93-2.39 9.29-2.16 13 .56 1.46-3.52 4.71-6.24 8.43-7.06 3.72-.82 7.81.28 10.61 2.86 2.57-2.16 6.45-2.6 9.45-1.08 2.99 1.52 4.92 4.92 4.69 8.27 2.75.21 5.63 1.49 6.85 3.97 1.22 2.48-.03 6.11-2.75 6.6 1.89 1.49 2.35 4.5.97 6.48-1.37 1.98-4.35 2.61-6.41 1.35" class="st5"/><path d="M445.43 160.72c-.01.01.03.08.11.22s.2.35.38.61c.37.5.99 1.22 1.97 1.91.98.67 2.33 1.35 4.02 1.59 1.67.27 3.71.1 5.61-.92l-.33-.17c.11 1.21.8 2.4 1.82 3.22 1 .85 2.22 1.44 3.47 1.99.63.25 1.24.61 2 .75.74.13 1.52.04 2.25-.19 1.44-.47 2.78-1.61 3.23-3.23l-.51.08c1.44 2.25 3.94 4.01 6.8 4.45 1.54.29 3.2.12 4.58-.57 1.39-.67 2.5-1.7 3.5-2.7l-.39.01c1.36 1.19 2.96 2 4.62 2.38 1.63.38 3.48.19 4.75-.84 2.56-1.95 3.34-5.21 2.66-7.62l-.21.26c1.78.1 3.33-.54 4.43-1.35 1.13-.81 1.84-1.8 2.28-2.66.44-.87.59-1.61.65-2.11.04-.5.03-.77.01-.77-.08-.02.03 1.11-.86 2.78-.46.81-1.17 1.75-2.27 2.5-1.08.75-2.56 1.33-4.22 1.21l-.29-.02.07.28c.6 2.26-.18 5.33-2.57 7.11-1.15.92-2.78 1.08-4.33.72a10.03 10.03 0 0 1-4.35-2.27l-.2-.18-.19.19c-.99.99-2.06 1.96-3.35 2.58-1.28.64-2.77.79-4.23.52-2.7-.42-5.04-2.06-6.42-4.19l-.35-.54-.17.62c-.37 1.37-1.55 2.42-2.85 2.85-.65.22-1.34.3-1.99.19-.63-.1-1.25-.44-1.89-.7-1.24-.53-2.42-1.1-3.36-1.89-.96-.76-1.57-1.81-1.69-2.89l-.04-.33-.29.16c-1.78.99-3.73 1.19-5.34.96-1.63-.2-2.96-.82-3.93-1.44-1.95-1.33-2.52-2.62-2.59-2.56z" class="st6"/><path d="M462.45 205.46c-.08.01-.08-1.17-.74-3.15-.65-1.94-2.18-4.75-5.31-6.78-1.55-.99-3.47-1.79-5.63-2.01-2.15-.21-4.53.03-6.74 1.07a11.93 11.93 0 0 0-3.14 2c-.97.82-1.84 1.81-2.53 2.94-1.44 2.22-2.13 5-1.96 7.8.23 2.8 1.31 5.45 3.05 7.44.84 1.02 1.84 1.88 2.92 2.55 1.07.69 2.22 1.21 3.39 1.53 2.34.71 4.73.6 6.83.09 2.11-.53 3.89-1.59 5.29-2.79 2.81-2.46 3.92-5.45 4.29-7.46.36-2.06.2-3.23.28-3.23.02 0 .04.29.07.84.02.28.03.62-.01 1.02-.02.4-.04.87-.15 1.39-.31 2.05-1.39 5.14-4.24 7.7-1.42 1.25-3.25 2.37-5.42 2.93-2.16.55-4.64.67-7.07-.05-1.22-.32-2.41-.86-3.53-1.57-1.12-.69-2.16-1.58-3.04-2.64-1.81-2.07-2.95-4.83-3.18-7.74-.18-2.91.55-5.8 2.05-8.11.72-1.17 1.62-2.2 2.64-3.04 1-.86 2.1-1.56 3.27-2.06 2.3-1.06 4.77-1.29 6.99-1.06 2.23.25 4.2 1.09 5.78 2.13 3.19 2.13 4.7 5.04 5.3 7.02.18.5.26.96.34 1.36.09.4.13.74.15 1.01.05.58.06.87.05.87zM493.52 190.68c-.08.01-.08-1.17-.74-3.15-.65-1.94-2.18-4.75-5.31-6.78-1.55-.99-3.47-1.79-5.63-2.01-2.15-.21-4.53.03-6.74 1.07a11.93 11.93 0 0 0-3.14 2c-.97.82-1.84 1.81-2.53 2.94-1.44 2.23-2.13 5-1.96 7.8.23 2.8 1.31 5.45 3.05 7.44.84 1.02 1.84 1.88 2.92 2.55 1.07.69 2.22 1.21 3.39 1.53 2.34.71 4.73.6 6.83.09 2.11-.53 3.89-1.59 5.29-2.79 2.81-2.46 3.92-5.45 4.29-7.46.37-2.06.21-3.23.28-3.23.02 0 .04.29.07.84.02.28.03.62-.01 1.02-.02.4-.04.87-.15 1.39-.31 2.05-1.39 5.14-4.24 7.7-1.42 1.25-3.25 2.37-5.42 2.93-2.16.55-4.64.67-7.07-.05-1.22-.32-2.41-.86-3.53-1.57-1.12-.69-2.16-1.58-3.04-2.64-1.81-2.07-2.95-4.83-3.18-7.74-.18-2.91.55-5.8 2.05-8.11.72-1.17 1.62-2.2 2.64-3.04 1-.86 2.1-1.56 3.27-2.06 2.3-1.06 4.77-1.29 6.99-1.06 2.23.25 4.2 1.09 5.78 2.13 3.19 2.13 4.7 5.04 5.3 7.02.18.5.26.96.34 1.36.09.4.13.74.15 1.01.05.58.07.87.05.87z" class="st5"/><path d="M467.49 195.42c0 .16-1.99-.14-4.09.9-2.13 1-3.12 2.75-3.25 2.66-.05-.03.11-.5.59-1.15.48-.65 1.32-1.43 2.43-1.97 1.12-.54 2.25-.71 3.05-.69.81.02 1.29.19 1.27.25zM506.43 186.55c0 .14-3.06.34-6.83.43-3.78.1-6.84.06-6.84-.09 0-.14 3.05-.34 6.83-.43 3.77-.09 6.84-.05 6.84.09z" class="st5"/></g><g id="Device"><path d="M401.48 453.21h60.44c1.66 0 3.01 1.35 3.01 3.01 0 1.66-1.35 3.01-3.01 3.01h-60.44c-1.66 0-3.01-1.35-3.01-3.01 0-1.66 1.35-3.01 3.01-3.01z" class="st2"/><path d="M411.12 459.24H296.8l-11.29-77.21c-.6-3.98 2.48-7.57 6.51-7.57l100.37.82c3.26 0 6.37 1.56 6.86 4.78l11.87 79.18z" class="st2"/><path d="M352.75 415.92c0 3.47-2.81 6.28-6.28 6.28s-6.28-2.81-6.28-6.28 2.81-6.28 6.28-6.28 6.28 2.81 6.28 6.28z" class="st7"/><path d="M406.15 458.57c-.14.02-3.34-18.6-7.14-41.6-3.8-23.01-6.76-41.67-6.62-41.69.14-.02 3.34 18.6 7.14 41.61 3.8 22.99 6.76 41.65 6.62 41.68z" class="st5"/></g><g id="Table"><path d="M28.24 459.24h673.51v16.56H28.24z" class="st6"/><path d="M170.92 459.49c.01 0-.06.07-.21.18-.16.11-.38.29-.7.5-.68.41-1.74.99-3.39 1.52-1.64.53-3.85 1-6.51 1.23-2.65.25-5.72.29-9.07.22-3.37-.06-7.03-.35-10.93-.71-3.89-.34-8.04-.76-12.44-.83-8.83-.18-18.42 1.12-28 3.05-9.61 1.93-18.59 4.13-27.18 5.46-4.29.67-8.45 1.15-12.39 1.38-3.95.23-7.66.19-11.01-.01-6.73-.41-11.89-1.63-15.1-2.72-3.23-1.1-4.67-1.96-4.67-1.96.01-.01.12.03.33.12.24.1.54.23.9.38.79.33 1.98.8 3.61 1.31 3.23 1.03 8.35 2.18 15 2.55 3.31.18 6.98.2 10.88-.04 3.9-.24 8.01-.73 12.26-1.41 8.51-1.35 17.45-3.55 27.11-5.49 9.62-1.94 19.33-3.25 28.3-3.04 4.47.09 8.64.52 12.53.88 3.88.37 7.51.68 10.84.76 3.34.09 6.37.07 8.98-.15 2.62-.2 4.79-.64 6.42-1.13 3.25-1.03 4.34-2.12 4.44-2.05z" class="st5"/><path d="M97.25 459.74c.04.03-.69.37-2.04.98-1.36.59-3.43 1.39-6.14 2.22-2.74.8-6.11 1.66-10.05 2.3-3.94.63-8.4 1.07-13.13 1.15-9.49.19-17.95-1.17-23.48-2.72-2.78-.79-4.71-1.78-5.66-2.6-.5-.4-.76-.76-.93-1-.14-.25-.2-.38-.17-.38.09-.02.32.51 1.36 1.27 1.01.76 2.92 1.68 5.67 2.41 5.5 1.45 13.85 2.74 23.19 2.55 4.65-.08 9.06-.5 12.95-1.1 3.9-.6 7.25-1.42 9.99-2.18 2.72-.79 4.82-1.53 6.23-2.08 1.38-.55 2.17-.85 2.21-.82zM255.28 470.23c.01-.01.36.07 1.04.21.69.13 1.72.33 3.11.46 2.72.26 7.12.35 11.79-1.04l-.03.21c-3.54-1.55-8.56-2.89-14.62-3.2-5.98-.32-13.04.39-19.01 2.78-.71.29-1.4.64-1.47 1.08-.1.43.49.82 1.26 1.07.78.25 1.66.4 2.61.51.95.12 1.9.24 2.87.37 3.85.48 7.84.96 11.96 1.3 4.12.34 8.38.57 12.72.49 2.17-.03 4.35-.15 6.53-.35 1.09-.1 2.17-.22 3.25-.38 1.09-.13 2.13-.32 3.15-.57 1.58-.39 3.06-.92 4.08-1.66 1.03-.72 1.36-1.7.78-2.54-.55-.85-1.84-1.5-3.2-2.01-1.38-.51-2.93-.88-4.47-1.23-6.19-1.37-12.61-1.97-18.71-2.18-12.25-.4-23.3.92-31.93 2.78-8.67 1.86-15.08 4.15-19.22 5.9-2.05.89-3.64 1.6-4.65 2.12-.49.24-.89.42-1.19.57-.27.13-.41.19-.42.18-.01-.01.11-.08.37-.22.29-.15.66-.35 1.13-.6.98-.54 2.53-1.27 4.56-2.19 4.1-1.8 10.5-4.15 19.21-6.07 8.67-1.91 19.8-3.28 32.19-2.9 6.16.2 12.66.8 18.96 2.19 1.56.35 3.15.73 4.62 1.27 1.44.54 2.87 1.24 3.53 2.24.69.99.27 2.17-.9 2.99-1.15.83-2.74 1.39-4.4 1.8-1.06.26-2.18.46-3.28.6-1.1.16-2.21.28-3.31.39-2.22.2-4.44.33-6.64.35-4.41.08-8.71-.15-12.86-.5-4.15-.35-8.15-.83-12.01-1.32-.96-.12-1.92-.25-2.87-.37-.95-.12-1.94-.28-2.82-.57-.44-.15-.86-.33-1.18-.58-.32-.25-.5-.58-.43-.89.15-.66 1.05-1.06 1.78-1.36 6.17-2.44 13.4-3.14 19.49-2.79 6.17.34 11.27 1.74 14.84 3.34l.27.12-.31.09c-4.82 1.39-9.3 1.25-12.04.95-2.82-.37-4.13-.84-4.13-.84zM341.95 459.92c.03-.01.35.27.66.83.33.56.61 1.42.44 2.48-.22 2.13-2.55 4.94-6.56 7.23a35.107 35.107 0 0 1-6.13 2.93c-2.09.75-4.14 1.27-5.91 1.61-1.77.34-3.26.5-4.28.6-1.03.08-1.61.11-1.61.08-.03-.09 2.26-.26 5.7-.99 1.71-.37 3.68-.91 5.69-1.66 2-.76 4.04-1.73 5.94-2.89 3.93-2.25 6.22-4.9 6.58-6.94.46-2.05-.72-3.26-.52-3.28zM462.9 474.93c-.08.04-.95-.7-3.09-1.69-2.11-.98-5.64-2.23-10.53-2.67-2.44-.24-5.14-.16-8.02.13-2.87.26-6 .69-9.4.49-3.46-.18-6.55-1.35-9.36-2.58-2.81-1.26-5.83-2.45-9.4-3.14-7.11-1.43-14.64-1.19-20.88-.18-6.31 1.01-11.44 2.77-15.45 4.4-4.01 1.65-6.95 3.21-8.96 4.3-.94.52-1.7.95-2.29 1.27-.52.29-.81.44-.83.43-.02-.01.22-.18.7-.49s1.21-.76 2.18-1.33a75.82 75.82 0 0 1 8.84-4.44c4-1.68 9.17-3.5 15.59-4.55 6.35-1.05 14.05-1.31 21.37.16 3.67.7 6.84 1.96 9.62 3.21 2.8 1.23 5.72 2.34 8.95 2.52 3.21.21 6.3-.2 9.2-.44 2.9-.27 5.73-.34 8.22-.07 5.02.49 8.57 1.82 10.65 2.86 2.12 1.03 2.89 1.81 2.89 1.81zM570.88 459.4c.02.01-.23.2-.74.57-.52.35-1.21.91-2.3 1.54-2.05 1.32-5.35 3.06-9.83 4.91s-10.23 3.76-17.06 5.32c-3.41.78-7.08 1.48-11 1.97-3.91.5-8.04.88-12.31.89-8.56.03-16.56-1.16-23.35-2.73-6.81-1.59-12.53-3.53-16.97-5.41-4.45-1.88-7.71-3.64-9.76-4.95-1.08-.63-1.78-1.19-2.31-1.54-.51-.36-.76-.55-.74-.56.02-.01.32.16.87.5.57.33 1.3.87 2.41 1.47 2.11 1.27 5.42 2.98 9.87 4.81 4.45 1.84 10.15 3.73 16.91 5.28 6.74 1.53 14.64 2.69 23.05 2.66 4.2-.01 8.27-.38 12.13-.87 3.87-.48 7.51-1.17 10.9-1.93 6.78-1.52 12.51-3.38 17-5.19 4.49-1.81 7.83-3.5 9.94-4.77 1.12-.6 1.84-1.14 2.41-1.48.56-.32.86-.5.88-.49z" class="st5"/><path d="M555.45 459.24c.02.01-.18.1-.57.26-.39.15-.97.39-1.74.66-1.53.56-3.82 1.32-6.75 2.15-2.93.82-6.51 1.71-10.66 2.44-4.13.72-8.85 1.33-13.91 1.34-10.12-.03-18.86-1.89-24.69-3.51-2.93-.83-5.19-1.62-6.69-2.21-.76-.28-1.32-.54-1.7-.7-.38-.17-.57-.26-.55-.27.04-.03.88.28 2.43.82 1.54.54 3.83 1.28 6.77 2.06 5.84 1.53 14.51 3.31 24.43 3.34 4.93 0 9.59-.59 13.68-1.28 4.11-.7 7.69-1.55 10.63-2.33 2.94-.78 5.26-1.49 6.83-2.01 1.59-.5 2.46-.79 2.49-.76zM673.24 460.94c-.01.02-.47.02-1.34 0-1.03-.02-2.29-.05-3.8-.08-.84-.02-1.76-.04-2.74-.07-1.02 0-2.11-.01-3.27-.01-2.34-.01-5.01-.03-7.95.04-1.48.03-3.02.05-4.62.08-1.6.06-3.26.12-4.98.19-3.45.1-7.08.36-10.91.57-7.61.54-15.87 1.3-24.26 2.36-8.36 1.09-16 2.36-22.72 3.65-3.27.69-6.48 1.3-9.24 1.98l-4.07.96c-1.25.33-2.45.65-3.6.95-2.34.59-4.27 1.19-6.01 1.7-.86.25-1.67.49-2.42.72-.69.23-1.32.44-1.91.64-1.07.35-1.95.64-2.69.88-.63.2-.97.3-1.01.29-.04-.01.24-.13.8-.35.68-.26 1.5-.57 2.5-.94.57-.21 1.18-.43 1.83-.67.73-.23 1.52-.48 2.35-.75 1.69-.54 3.59-1.16 5.91-1.77 1.14-.31 2.33-.64 3.57-.98 1.3-.32 2.66-.65 4.06-.99 2.76-.7 5.97-1.33 9.25-2.04 6.74-1.32 14.44-2.62 22.88-3.71 8.47-1.07 16.82-1.83 24.52-2.35 3.88-.2 7.54-.45 11.04-.54 1.73-.06 3.41-.11 5.03-.16 1.62-.02 3.17-.04 4.66-.05 2.97-.06 5.66-.01 8.02.03 1.17.02 2.26.03 3.28.05.99.04 1.9.08 2.75.11 1.51.07 2.76.12 3.79.17.86.04 1.31.07 1.3.09zM475 474.6c-.09.04-1.03-1.03-3.71-2.48-2.64-1.45-7.23-3.15-13.57-4.26-3.16-.56-6.73-.97-10.59-1.31-3.86-.35-8.02-.62-12.38-1.04-4.37-.4-8.87-1.11-13.45-1.9-4.59-.77-9.34-1.6-14.35-1.95-10.06-.72-19.76.48-27.95 2.17-4.12.85-7.88 1.87-11.37 2.87-3.48 1-6.68 1.99-9.58 2.91a544.88 544.88 0 0 0-13.59 4.51l-3.66 1.26c-.39.13-.7.24-.96.32-.22.07-.33.1-.34.1-.01-.01.09-.05.3-.14.25-.1.55-.22.91-.36.81-.31 2.01-.77 3.58-1.34 3.13-1.14 7.7-2.75 13.47-4.64 2.89-.94 6.07-1.95 9.55-2.97 3.48-1.02 7.26-2.06 11.42-2.93 8.25-1.73 18.08-2.96 28.32-2.23 5.1.36 9.89 1.2 14.48 1.97 4.58.8 9.01 1.5 13.35 1.91 4.32.43 8.48.72 12.36 1.08 3.88.36 7.47.8 10.66 1.38 6.4 1.16 11.01 2.94 13.62 4.45 2.64 1.52 3.48 2.62 3.48 2.62zM323.3 459.49c.04 0 .06.38-.1 1.06-.14.68-.55 1.65-1.32 2.79-1.55 2.26-4.74 5.32-10.35 7.45-5.6 2.02-11.27 3.19-15.34 3.97-2.05.38-3.73.66-4.9.83-1.17.17-1.82.24-1.84.21-.02-.03.61-.16 1.75-.39 1.3-.26 2.9-.58 4.8-.97 4.01-.86 9.59-2.07 15.08-4.05 5.39-2.04 8.61-5 10.26-7.18 1.67-2.21 1.79-3.74 1.96-3.72zM166.94 475.8c-.04-.02.55-.34 1.64-.89 1.08-.55 2.72-1.31 4.79-2.21 4.14-1.8 10.18-4.06 17.18-6.22s13.54-3.89 18.28-5.12c2.37-.61 4.31-1.09 5.65-1.42 1.34-.32 2.1-.49 2.12-.46.02.03-.68.25-1.98.63-1.45.41-3.31.93-5.53 1.55-4.68 1.3-11.16 3.07-18.13 5.23-6.97 2.16-13.01 4.36-17.23 6.08-2.11.86-3.8 1.57-4.94 2.08-1.15.51-1.81.78-1.85.75zM198.67 460.17c-.01.05-1.56-.11-4.35.01-2.78.12-6.78.64-11.24 1.92-4.5 1.23-9.25 3.28-14.6 5.51-2.69 1.1-5.57 2.24-8.79 3.2-3.22.97-6.78 1.72-10.51 2.28-7.5 1.09-14.88 1.34-21.52 1.45-6.66.11-12.64.03-17.65.15-5.01.1-9.05.37-11.81.65-1.38.14-2.45.26-3.17.36-.72.09-1.11.13-1.11.11-.01-.02.36-.09 1.07-.2.71-.13 1.77-.27 3.15-.44 2.76-.33 6.81-.66 11.84-.8 5.03-.16 11.03-.12 17.65-.25 6.62-.14 13.94-.4 21.33-1.48 3.68-.55 7.18-1.28 10.34-2.23 3.17-.94 6.03-2.06 8.72-3.15 5.35-2.2 10.19-4.24 14.79-5.45 4.55-1.26 8.65-1.74 11.47-1.81 1.41-.03 2.51.01 3.25.06.76.05 1.15.09 1.14.11z" class="st5"/></g></svg>