<svg xmlns="http://www.w3.org/2000/svg" width="165" height="50"><g class="layer"><path fill="#fff" d="M48.04 25.64v2.01l-1.18-1.62-1.88.62 1.18-1.63-1.18-1.62 1.88.62 1.18-1.62v2l1.88.62-1.88.62zm-.94 5.97-.52 1.96-.7-1.86-1.98.1 1.55-1.29-.7-1.91 1.69 1.09 1.55-1.29-.51 1.96 1.64 1.1-2.02.14zm-2.45 5.5-.98 1.76-.19-2-1.93-.43 1.79-.81-.19-2.01 1.32 1.48 1.78-.81-.99 1.77 1.32 1.48-1.93-.43zm-1.97 5.58-1.79-.9-1.41 1.43.33-2.01-1.79-.9 1.98-.34.33-2 .89 1.76 1.97-.33-1.41 1.43.9 1.86zm-5.08 3.97-1.46-1.34-1.74 1 .8-1.81-1.46-1.34 1.98.19.8-1.81.42 1.96 1.97.19-1.74 1 .43 1.96zm-5.84.47-.09 2.01-1.08-1.72-1.93.53 1.22-1.58-1.08-1.67 1.84.72 1.27-1.58-.1 2.01 1.88.71-1.93.57zm-5.88.96L25.27 50l-.61-1.91h-1.97l1.6-1.19-.62-1.91 1.6 1.19 1.6-1.19-.61 1.91 1.6 1.19h-1.98zm-5.92-.62-1.08 1.67-.1-2.01-1.93-.52 1.84-.72-.1-2 1.27 1.57 1.84-.71-1.08 1.67 1.27 1.57-1.93-.52zm-3.81-1.19-1.74-1.01-1.46 1.34.42-1.96-1.74-1 1.98-.19.42-1.96.8 1.81 1.98-.19-1.46 1.34.8 1.82zm-6.54-4.54-1.79.91.9-1.82L7.3 39.4l1.98.33.89-1.81.33 2 1.98.34-1.79.91.33 2-1.41-1.43zm-2.73-2.91-.99-1.77-1.93.43 1.32-1.48-.99-1.77 1.79.81 1.32-1.48-.19 2.01 1.79.81-1.93.38-.19 2.06zm-5.36-7.36 1.64-1.1-.51-1.96 1.55 1.25 1.65-1.1-.71 1.91 1.55 1.29-1.97-.1-.71 1.86-.52-1.95-1.97-.1zm1.03-7.11v-2.01l1.18 1.62 1.88-.62-1.18 1.63 1.18 1.62-1.88-.62-1.18 1.62v-2l-1.88-.62 1.88-.62zm.94-5.97.52-1.96.71 1.86 1.97-.1-1.55 1.29.71 1.87-1.65-1.1-1.55 1.29.51-1.96-1.64-1.1 1.97-.09zm2.4-5.5.99-1.76.19 2 1.93.43-1.79.81.19 2.01-1.32-1.48-1.79.81.99-1.77-1.36-1.48 1.97.43zm1.98-5.58 1.79.9 1.41-1.43-.33 2.01 1.79.9-1.98.34-.33 2-.89-1.81-1.98.33 1.41-1.43-.89-1.81zM13 3.34l1.45 1.34 1.74-1-.8 1.81 1.46 1.34-1.97-.19-.8 1.86-.43-1.96-1.97-.19 1.74-1L13 3.34zm5.83-.47.09-2.01L20 2.53l1.93-.52-1.27 1.57 1.09 1.67-1.84-.71-1.27 1.57.09-2-1.83-.72 1.93-.52zm5.88-.96L25.32 0l.61 1.91h1.98l-1.6 1.19.61 1.91-1.6-1.19-1.6 1.19.61-1.91-1.6-1.19h1.98zm5.88.62L31.67.86l.09 2.01 1.93.52-1.83.72.09 2-1.27-1.57-1.83.71 1.08-1.67-1.22-1.57 1.88.52zm3.81 1.2 1.74 1 1.46-1.34-.43 1.96 1.74 1-1.97.24-.42 1.96-.8-1.86-1.98.19 1.46-1.34-.8-1.81zm6.54 4.53 1.78-.91-.89 1.82 1.41 1.43-1.97-.33-.9 1.81-.33-2.05-1.97-.34 1.74-.9-.33-2.01 1.46 1.48zm2.77 2.96.99 1.77 1.93-.43-1.32 1.48.99 1.77-1.79-.81-1.32 1.48.19-2.01-1.78-.86 1.92-.43.19-1.96zm5.36 7.36-1.64 1.1.52 1.95-1.56-1.29-1.64 1.1.7-1.86-1.55-1.29 1.98.1.7-1.87.52 1.96 1.97.1zM27.05 29.36l-.38-2.4c.81-.09 1.67-.14 2.48-.14 1.85 0 2.95.29 3.28.48-.48.43-1.05.72-1.62.96-1.19.47-2.47.86-3.76 1.1zm-1.99-13.01c.99-.19 1.99-.48 2.99-.82l3.81 9.66c-.9-.19-1.81-.23-2.71-.23-.95 0-1.86.04-2.76.14l-1.33-8.75zm-4.76-.77c-2.43 0-4.33-.57-4.86-1.53.81.62 2.48.96 4.48.96 1.28 0 2.52-.1 3.8-.34 3.33-.62 6.09-1.81 7.24-3.11-.57 1.44-3.53 3.02-7.24 3.69-1.14.24-2.28.33-3.42.33zm-1.19 1.34c1.04 0 2.09-.05 3.14-.19l1.33 8.75c-.81.19-1.62.38-2.38.62-.95.29-1.9.67-2.76 1.15l.67-10.33zm-.62 12.48c.43-.38.95-.71 1.52-.91 1.19-.52 2.48-.9 3.81-1.14l.38 2.44c-.76.09-1.57.14-2.43.14-1.85 0-2.9-.29-3.28-.53zm17.32 5.89c.14.33.38.57.71.71.15.05.34.1.48.1.19 0 .38-.05.57-.1.38-.14.71-.38.9-.76.15-.29.19-.62.05-.96l-7.8-19.94c.33-.19.62-.38.9-.62 1.14-.96.91-3.06-.43-3.69-.8-.38-2.14-.57-3.8-.57-1.57 0-3.14.14-4.76.33-3.71.67-6.76 1.82-7.99 2.97-1.1 1.05-.77 3.16.61 3.68.29.15.57.24.91.29l-1.38 21.23c-.05.34.09.67.33.91.29.29.67.48 1.1.48.38.05.66-.09.95-.29.23-.19.43-.52.43-.86l.47-6.88c1.14.33 2.38.52 3.62.47.38 0 .81 0 1.19-.04l1.57-.15 1.33 8.56c.05.34.24.63.52.82.29.14.57.24.86.24.14 0 .24-.05.33-.05.34-.05.67-.24.91-.53.19-.29.28-.62.23-.95l-1.33-8.57c.86-.14 1.67-.33 2.38-.57 1.29-.33 2.48-.91 3.57-1.62l2.57 6.36zM161.73 3.16c-1.22 0-2.2 1-2.2 2.25 0 1.24.98 2.24 2.2 2.24 1.23 0 2.21-1 2.21-2.24 0-1.25-.98-2.25-2.21-2.25zm0 4.95c-1.47 0-2.66-1.21-2.66-2.7 0-1.5 1.19-2.71 2.66-2.71 1.47 0 2.66 1.21 2.66 2.71 0 1.49-1.19 2.7-2.66 2.7zm1.12-3.1c.04-.24-.03-.49-.24-.6-.25-.18-.56-.25-.84-.21h-.95v2.59h.42V5.9h.56l.63.89h.56l-.7-.96c.35-.1.6-.46.56-.82zm-.56.36c-.14.11-.31.14-.52.11h-.53v-.93h.56c.18 0 .35.04.49.11.11.07.18.21.14.35 0 .15-.03.25-.14.36zM55.91 22.61v-3.14h1.42V6.52h-1.42V3.38h9.51l1.91 1.9v5.18l-1.37 1.39 1.37 1.44v7.33l-1.94 1.99h-9.48zm4.48-16.09v4h3.86v-4h-3.86zm3.86 7.17h-3.86v5.78h3.86v-5.78zm4.62 5.78h1.28l4.23-16.09h2.79l4.2 16.09h1.54v3.14h-6.05v-3.14h1.53l-.35-1.28h-4.57l-.33 1.28h1.62v3.14h-5.89v-3.14zm6.94-10.2-1.55 5.81h3l-1.45-5.81zm8.65-5.89h9.81l1.6 1.57v8.28l-1.6 1.7h-1.02l2.25 4.54h1.3v3.14h-3.11l-3.68-7.68h-1.07v4.54h1.41v3.14h-5.89v-3.14h1.41V6.52h-1.41V3.38zm8.34 3.14h-3.86v5.27h3.86V6.52zm5.55-1.47 1.67-1.67h6.86l1.73 1.73v3.66h-3.07V6.52h-4.11v4.59h5.43l1.75 1.8v7.33l-2.25 2.37h-5.97l-2.04-2.06v-3.4h3.08v2.32h4.11v-5.25h-5.43l-1.76-1.79V5.05zm11.82 5.19V3.38h12.82v6.86h-2.97V6.52h-1.9v12.95h1.41v3.14h-5.89v-3.14h1.41V6.52h-1.91v3.72h-2.97zm14.37 10.29V5.45l2-2.07h6.03l1.98 2.07v15.08l-2.02 2.08h-6.1l-1.89-2.08zm6.93-14.01h-3.85v12.95h3.85V6.52zm4.63 14.01V5.45l1.99-2.07h6.04l1.98 2.07v15.08l-2.02 2.08h-6.1l-1.89-2.08zm6.93-14.01h-3.86v12.95h3.86V6.52zm4.62-3.14h5.89v3.14h-1.4v12.95h3.85v-4.49h3.08v7.63h-11.42v-3.14h1.42V6.52h-1.42V3.38zM55.91 27.72l1.67-1.68h6.86l1.73 1.73v3.67H63.1v-2.25h-4.11v4.58h5.43l1.75 1.8v7.33l-2.25 2.37h-5.97l-2.04-2.05v-3.41h3.08v2.33h4.11v-5.26h-5.43l-1.76-1.79v-7.37zm11.82 5.19v-6.87h12.82v6.87h-2.97v-3.72h-1.9v12.95h1.41v3.13H71.2v-3.13h1.41V29.19H70.7v3.72h-2.97zM82.1 43.2V28.12l2-2.08h6.03l1.98 2.08V43.2l-2.02 2.07h-6.1L82.1 43.2zm6.93-14.01h-3.85v12.95h3.85V29.19zm4.63-3.15h9.81l1.6 1.57v8.28l-1.6 1.71h-1.02l2.25 4.54h1.3v3.13h-3.11l-3.68-7.67h-1.07v4.54h1.41v3.13h-5.89v-3.13h1.41V29.19h-1.41v-3.15zm8.34 3.15h-3.86v5.26H102v-5.26zm5.55 12.95h1.42V29.19h-1.42v-3.15h11.42v5.77h-3.08v-2.62h-3.86v3.93h3.86v3.17h-3.86v5.85h3.86v-3.99h3.08v7.12h-11.42v-3.13z"/></g></svg>