<?xml version="1.0"?>
<svg width="165" height="50" xmlns="http://www.w3.org/2000/svg" xmlns:svg="http://www.w3.org/2000/svg">
 <g class="layer">
  <title>Layer 1</title>
  <path d="m48.04,25.64l0,2.01l-1.18,-1.62l-1.88,0.62l1.18,-1.63l-1.18,-1.62l1.88,0.62l1.18,-1.62l0,2l1.88,0.62l-1.88,0.62zm-0.94,5.97l-0.52,1.96l-0.7,-1.86l-1.98,0.1l1.55,-1.29l-0.7,-1.91l1.69,1.09l1.55,-1.29l-0.51,1.96l1.64,1.1l-2.02,0.14zm-2.45,5.5l-0.98,1.76l-0.19,-2l-1.93,-0.43l1.79,-0.81l-0.19,-2.01l1.32,1.48l1.78,-0.81l-0.99,1.77l1.32,1.48l-1.93,-0.43zm-1.97,5.58l-1.79,-0.9l-1.41,1.43l0.33,-2.01l-1.79,-0.9l1.98,-0.34l0.33,-2l0.89,1.76l1.97,-0.33l-1.41,1.43l0.9,1.86zm-5.08,3.97l-1.46,-1.34l-1.74,1l0.8,-1.81l-1.46,-1.34l1.98,0.19l0.8,-1.81l0.42,1.96l1.97,0.19l-1.74,1l0.43,1.96zm-5.84,0.47l-0.09,2.01l-1.08,-1.72l-1.93,0.53l1.22,-1.58l-1.08,-1.67l1.84,0.72l1.27,-1.58l-0.1,2.01l1.88,0.71l-1.93,0.57zm-5.88,0.96l-0.61,1.91l-0.61,-1.91l-1.97,0l1.6,-1.19l-0.62,-1.91l1.6,1.19l1.6,-1.19l-0.61,1.91l1.6,1.19l-1.98,0zm-5.92,-0.62l-1.08,1.67l-0.1,-2.01l-1.93,-0.52l1.84,-0.72l-0.1,-2l1.27,1.57l1.84,-0.71l-1.08,1.67l1.27,1.57l-1.93,-0.52zm-3.81,-1.19l-1.74,-1.01l-1.46,1.34l0.42,-1.96l-1.74,-1l1.98,-0.19l0.42,-1.96l0.8,1.81l1.98,-0.19l-1.46,1.34l0.8,1.82zm-6.54,-4.54l-1.79,0.91l0.9,-1.82l-1.42,-1.43l1.98,0.33l0.89,-1.81l0.33,2l1.98,0.34l-1.79,0.91l0.33,2l-1.41,-1.43zm-2.73,-2.91l-0.99,-1.77l-1.93,0.43l1.32,-1.48l-0.99,-1.77l1.79,0.81l1.32,-1.48l-0.19,2.01l1.79,0.81l-1.93,0.38l-0.19,2.06zm-5.36,-7.36l1.64,-1.1l-0.51,-1.96l1.55,1.25l1.65,-1.1l-0.71,1.91l1.55,1.29l-1.97,-0.1l-0.71,1.86l-0.52,-1.95l-1.97,-0.1zm1.03,-7.11l0,-2.01l1.18,1.62l1.88,-0.62l-1.18,1.63l1.18,1.62l-1.88,-0.62l-1.18,1.62l0,-2l-1.88,-0.62l1.88,-0.62zm0.94,-5.97l0.52,-1.96l0.71,1.86l1.97,-0.1l-1.55,1.29l0.71,1.87l-1.65,-1.1l-1.55,1.29l0.51,-1.96l-1.64,-1.1l1.97,-0.09zm2.4,-5.5l0.99,-1.76l0.19,2l1.93,0.43l-1.79,0.81l0.19,2.01l-1.32,-1.48l-1.79,0.81l0.99,-1.77l-1.36,-1.48l1.97,0.43zm1.98,-5.58l1.79,0.9l1.41,-1.43l-0.33,2.01l1.79,0.9l-1.98,0.34l-0.33,2l-0.89,-1.81l-1.98,0.33l1.41,-1.43l-0.89,-1.81zm5.13,-3.97l1.45,1.34l1.74,-1l-0.8,1.81l1.46,1.34l-1.97,-0.19l-0.8,1.86l-0.43,-1.96l-1.97,-0.19l1.74,-1l-0.42,-2.01zm5.83,-0.47l0.09,-2.01l1.08,1.67l1.93,-0.52l-1.27,1.57l1.09,1.67l-1.84,-0.71l-1.27,1.57l0.09,-2l-1.83,-0.72l1.93,-0.52zm5.88,-0.96l0.61,-1.91l0.61,1.91l1.98,0l-1.6,1.19l0.61,1.91l-1.6,-1.19l-1.6,1.19l0.61,-1.91l-1.6,-1.19l1.98,0zm5.88,0.62l1.08,-1.67l0.09,2.01l1.93,0.52l-1.83,0.72l0.09,2l-1.27,-1.57l-1.83,0.71l1.08,-1.67l-1.22,-1.57l1.88,0.52zm3.81,1.2l1.74,1l1.46,-1.34l-0.43,1.96l1.74,1l-1.97,0.24l-0.42,1.96l-0.8,-1.86l-1.98,0.19l1.46,-1.34l-0.8,-1.81zm6.54,4.53l1.78,-0.91l-0.89,1.82l1.41,1.43l-1.97,-0.33l-0.9,1.81l-0.33,-2.05l-1.97,-0.34l1.74,-0.9l-0.33,-2.01l1.46,1.48zm2.77,2.96l0.99,1.77l1.93,-0.43l-1.32,1.48l0.99,1.77l-1.79,-0.81l-1.32,1.48l0.19,-2.01l-1.78,-0.86l1.92,-0.43l0.19,-1.96zm5.36,7.36l-1.64,1.1l0.52,1.95l-1.56,-1.29l-1.64,1.1l0.7,-1.86l-1.55,-1.29l1.98,0.1l0.7,-1.87l0.52,1.96l1.97,0.1zm-22.02,10.78l-0.38,-2.4c0.81,-0.09 1.67,-0.14 2.48,-0.14c1.85,0 2.95,0.29 3.28,0.48c-0.48,0.43 -1.05,0.72 -1.62,0.96c-1.19,0.47 -2.47,0.86 -3.76,1.1zm-1.99,-13.01c0.99,-0.19 1.99,-0.48 2.99,-0.82l3.81,9.66c-0.9,-0.19 -1.81,-0.23 -2.71,-0.23c-0.95,0 -1.86,0.04 -2.76,0.14l-1.33,-8.75zm-4.76,-0.77c-2.43,0 -4.33,-0.57 -4.86,-1.53c0.81,0.62 2.48,0.96 4.48,0.96c1.28,0 2.52,-0.1 3.8,-0.34c3.33,-0.62 6.09,-1.81 7.24,-3.11c-0.57,1.44 -3.53,3.02 -7.24,3.69c-1.14,0.24 -2.28,0.33 -3.42,0.33zm-1.19,1.34c1.04,0 2.09,-0.05 3.14,-0.19l1.33,8.75c-0.81,0.19 -1.62,0.38 -2.38,0.62c-0.95,0.29 -1.9,0.67 -2.76,1.15l0.67,-10.33zm-0.62,12.48c0.43,-0.38 0.95,-0.71 1.52,-0.91c1.19,-0.52 2.48,-0.9 3.81,-1.14l0.38,2.44c-0.76,0.09 -1.57,0.14 -2.43,0.14c-1.85,0 -2.9,-0.29 -3.28,-0.53zm17.32,5.89c0.14,0.33 0.38,0.57 0.71,0.71c0.15,0.05 0.34,0.1 0.48,0.1c0.19,0 0.38,-0.05 0.57,-0.1c0.38,-0.14 0.71,-0.38 0.9,-0.76c0.15,-0.29 0.19,-0.62 0.05,-0.96l-7.8,-19.94c0.33,-0.19 0.62,-0.38 0.9,-0.62c1.14,-0.96 0.91,-3.06 -0.43,-3.69c-0.8,-0.38 -2.14,-0.57 -3.8,-0.57c-1.57,0 -3.14,0.14 -4.76,0.33c-3.71,0.67 -6.76,1.82 -7.99,2.97c-1.1,1.05 -0.77,3.16 0.61,3.68c0.29,0.15 0.57,0.24 0.91,0.29l-1.38,21.23c-0.05,0.34 0.09,0.67 0.33,0.91c0.29,0.29 0.67,0.48 1.1,0.48c0.38,0.05 0.66,-0.09 0.95,-0.29c0.23,-0.19 0.43,-0.52 0.43,-0.86l0.47,-6.88c1.14,0.33 2.38,0.52 3.62,0.47c0.38,0 0.81,0 1.19,-0.04c0.52,-0.05 1.04,-0.1 1.57,-0.15l1.33,8.56c0.05,0.34 0.24,0.63 0.52,0.82c0.29,0.14 0.57,0.24 0.86,0.24c0.14,0 0.24,-0.05 0.33,-0.05c0.34,-0.05 0.67,-0.24 0.91,-0.53c0.19,-0.29 0.28,-0.62 0.23,-0.95l-1.33,-8.57c0.86,-0.14 1.67,-0.33 2.38,-0.57c1.29,-0.33 2.48,-0.91 3.57,-1.62l2.57,6.36zm125.92,-32.13c-1.22,0 -2.2,1 -2.2,2.25c0,1.24 0.98,2.24 2.2,2.24c1.23,0 2.21,-1 2.21,-2.24c0,-1.25 -0.98,-2.25 -2.21,-2.25zm0,4.95c-1.47,0 -2.66,-1.21 -2.66,-2.7c0,-1.5 1.19,-2.71 2.66,-2.71c1.47,0 2.66,1.21 2.66,2.71c0,1.49 -1.19,2.7 -2.66,2.7zm1.12,-3.1c0.04,-0.24 -0.03,-0.49 -0.24,-0.6c-0.25,-0.18 -0.56,-0.25 -0.84,-0.21l-0.95,0l0,2.59l0.42,0l0,-0.89l0.56,0l0.63,0.89l0.56,0l-0.7,-0.96c0.35,-0.1 0.6,-0.46 0.56,-0.82zm-0.56,0.36c-0.14,0.11 -0.31,0.14 -0.52,0.11l-0.53,0l0,-0.93l0.56,0c0.18,0 0.35,0.04 0.49,0.11c0.11,0.07 0.18,0.21 0.14,0.35c0,0.15 -0.03,0.25 -0.14,0.36zm-106.38,17.24l0,-3.14l1.42,0l0,-12.95l-1.42,0l0,-3.14l9.51,0l1.91,1.9l0,5.18l-1.37,1.39l1.37,1.44l0,7.33l-1.94,1.99l-9.48,0zm4.48,-16.09l0,4l3.86,0l0,-4l-3.86,0zm3.86,7.17l-3.86,0l0,5.78l3.86,0l0,-5.78zm4.62,5.78l1.28,0l4.23,-16.09l2.79,0l4.2,16.09l1.54,0l0,3.14l-6.05,0l0,-3.14l1.53,0l-0.35,-1.28l-4.57,0l-0.33,1.28l1.62,0l0,3.14l-5.89,0l0,-3.14zm6.94,-10.2l-1.55,5.81l3,0l-1.45,-5.81zm8.65,-5.89l9.81,0l1.6,1.57l0,8.28l-1.6,1.7l-1.02,0l2.25,4.54l1.3,0l0,3.14l-3.11,0l-3.68,-7.68l-1.07,0l0,4.54l1.41,0l0,3.14l-5.89,0l0,-3.14l1.41,0l0,-12.95l-1.41,0l0,-3.14zm8.34,3.14l-3.86,0l0,5.27l3.86,0l0,-5.27zm5.55,-1.47l1.67,-1.67l6.86,0l1.73,1.73l0,3.66l-3.07,0l0,-2.25l-4.11,0l0,4.59l5.43,0l1.75,1.8l0,7.33l-2.25,2.37l-5.97,0l-2.04,-2.06l0,-3.4l3.08,0l0,2.32l4.11,0l0,-5.25l-5.43,0l-1.76,-1.79l0,-7.38zm11.82,5.19l0,-6.86l12.82,0l0,6.86l-2.97,0l0,-3.72l-1.9,0l0,12.95l1.41,0l0,3.14l-5.89,0l0,-3.14l1.41,0l0,-12.95l-1.91,0l0,3.72l-2.97,0zm14.37,10.29l0,-15.08l2,-2.07l6.03,0l1.98,2.07l0,15.08l-2.02,2.08l-6.1,0l-1.89,-2.08zm6.93,-14.01l-3.85,0l0,12.95l3.85,0l0,-12.95zm4.63,14.01l0,-15.08l1.99,-2.07l6.04,0l1.98,2.07l0,15.08l-2.02,2.08l-6.1,0l-1.89,-2.08zm6.93,-14.01l-3.86,0l0,12.95l3.86,0l0,-12.95zm4.62,-3.14l5.89,0l0,3.14l-1.4,0l0,12.95l3.85,0l0,-4.49l3.08,0l0,7.63l-11.42,0l0,-3.14l1.42,0l0,-12.95l-1.42,0l0,-3.14zm-91.74,24.34l1.67,-1.68l6.86,0l1.73,1.73l0,3.67l-3.07,0l0,-2.25l-4.11,0l0,4.58l5.43,0l1.75,1.8l0,7.33l-2.25,2.37l-5.97,0l-2.04,-2.05l0,-3.41l3.08,0l0,2.33l4.11,0l0,-5.26l-5.43,0l-1.76,-1.79l0,-7.37zm11.82,5.19l0,-6.87l12.82,0l0,6.87l-2.97,0l0,-3.72l-1.9,0l0,12.95l1.41,0l0,3.13l-5.89,0l0,-3.13l1.41,0l0,-12.95l-1.91,0l0,3.72l-2.97,0zm14.37,10.29l0,-15.08l2,-2.08l6.03,0l1.98,2.08l0,15.08l-2.02,2.07l-6.1,0l-1.89,-2.07zm6.93,-14.01l-3.85,0l0,12.95l3.85,0l0,-12.95zm4.63,-3.15l9.81,0l1.6,1.57l0,8.28l-1.6,1.71l-1.02,0l2.25,4.54l1.3,0l0,3.13l-3.11,0l-3.68,-7.67l-1.07,0l0,4.54l1.41,0l0,3.13l-5.89,0l0,-3.13l1.41,0l0,-12.95l-1.41,0l0,-3.15zm8.34,3.15l-3.86,0l0,5.26l3.86,0l0,-5.26zm5.55,12.95l1.42,0l0,-12.95l-1.42,0l0,-3.15l11.42,0l0,5.77l-3.08,0l0,-2.62l-3.86,0l0,3.93l3.86,0l0,3.17l-3.86,0l0,5.85l3.86,0l0,-3.99l3.08,0l0,7.12l-11.42,0l0,-3.13z" fill="#ffffff" id="svg_1"/>
 </g>
</svg>