<svg xmlns="http://www.w3.org/2000/svg" width="154" height="50"><g class="layer"><path fill="#fff" d="m153.4 0-31.96 49.9-60.05-11.98-61 9.77 16.45-25.63c.52.31 1.14.52 1.87.63L4.45 45.06l57.04-9.14 59.01 11.77 12.39-19.33h.11c1.03 0 1.87-.42 2.28-.73l-.41-.84-.73-.53 14.99-23.42-75.15 14.7c.52-.94 1.04-1.78 1.35-2.31L153.4 0zm-48.92 19.43c.93 0 1.66-.94 1.66-1.89 0-.84-.52-1.15-1.14-1.15-1.05 0-1.77 1.05-1.77 1.89 0 .63.41 1.15 1.25 1.15zm-82.23-6.61h.52L30.68.63l40.18 15.55c.1-.11.1-.21.21-.32.52-.94.93-1.57.93-1.57l3.02-.21c-2.19 3.67-6.35 10.5-6.66 11.03-1.77 3.04-2.6 4.51-2.6 5.35 0 .32.1.53.41.53.94 0 2.92-1.47 6.87-6.52.31-.42 1.25-1.78 1.67-2.31l2.81-.1c-1.56 2.41-3.75 5.67-4.69 7.35-.41.63-.62 1.05-.62 1.26 0 .32.21.42.42.42 1.04 0 3.12-1.68 6.03-5.88.73-1.05 1.25-1.89 1.98-2.94l2.81-.11c-.83 1.26-2.39 3.89-2.6 4.21-1.35 2.2-2.08 3.57-2.08 4.2 0 .31.1.52.52.52 2.08 0 4.89-3.78 5.62-5.77 0-1.37.21-2.53.73-3.16.2-.31.52-.63 1.14-.63.42 0 .73.21.73.53 0 .52-.62 1.99-1.67 3.78.32.74.94 1.16 1.67 1.37 1.15-2.1 3.75-5.57 7.18-5.57 1.25 0 1.77.42 1.77 1.36 0 1.79-2.7 4.31-6.45 4.84-.31.63-.63 1.36-.63 2.1 0 .63.32 1.15 1.25 1.15 3.02 0 6.66-4.62 8.64-7.25.11-.21.94-1.26 1.15-1.57l2.81-.21c-2.4 3.78-3.13 5.04-3.13 5.04-.72 1.26-1.66 2.84-1.66 3.36 0 .32.21.53.52.53 1.14 0 3.23-1.89 6.14-4.94 1.25-1.26 2.6-2.73 3.54-3.78.31-1.16.94-1.68 1.66-1.68.63 0 .84.31.84.84 0 .63-.52 1.05-1.04 1.15v.53c0 1.15.1 2 .1 3.26 0 1.15-.21 2.2-.83 3.25 1.46-1.15 4.37-3.99 6.14-5.57 1.77-1.68 3.54-2.31 4.89-2.31 1.15 0 1.77.42 1.77 1.37 0 2.31-3.85 4.52-6.45 4.83-.31.53-.63 1.47-.63 2.21 0 .63.42 1.05 1.04 1.05 2.09 0 4.17-2.21 5.83-4.2 2.6-3.26 3.75-5.05 5.73-5.05 1.04 0 1.56.53 1.56 1.26 0 .95-.42 1.79-1.36 3.47 3.02-3.89 4.48-4.73 5.52-4.73.73 0 1.25.42 1.25.95-1.04.31-2.08 1.78-2.08 2.84 0 .31.1.52.21.73.1.11.31.21.62.21s.62-.1 1.04-.31l.21.52c-.52.32-1.04.42-1.77.42-1.35 0-2.08-.63-2.08-1.68 0-.63.31-1.37.73-2-1.77 1.58-5.41 6.31-6.66 8.41l-2.81.1c.41-.63 2.81-4.2 4.47-7.14.52-.95.83-1.37.83-1.79 0-.21-.1-.31-.31-.31-.93 0-2.39 1.89-4.37 4.41-1.46 1.89-4.06 5.04-7.49 5.04-1.77 0-2.61-.94-2.61-2.2 0-1.16.42-2.21 1.05-3.15-.84.73-1.67 1.47-2.5 2.2-1.56 1.47-3.65 3.15-6.46 3.15-1.45 0-2.29-.63-2.29-1.36 0-.42.32-.74.63-.74.93 0 .62 1.37 1.87 1.37 1.46 0 2.6-1.37 3.33-5.57.11-.52.31-1.68.52-2.42-2.18 2.32-3.74 3.89-4.37 4.63-1.87 1.89-4.06 3.99-6.14 3.99-1.14 0-1.87-.63-1.87-1.58 0-.63.31-1.47 1.04-2.94-1.67 1.79-4.27 4.52-7.5 4.52-1.87 0-2.7-.95-2.7-2.31 0-.63.21-1.37.52-2.1.31-.73-1.35-.63-1.77-1.26-.83 1.36-1.87 2.73-3.33 3.99-1.46 1.36-2.81 1.78-3.96 1.78-1.14 0-1.87-.52-1.87-1.57 0-.74.42-1.58.73-2.31-1.56 1.89-3.54 3.88-5.73 3.88-.93 0-1.77-.42-1.77-1.57 0-.74.42-1.47 1.05-2.63-1.36 1.47-3.54 4.2-6.04 4.2-1.15 0-1.77-.63-1.77-1.57 0-.84.42-1.68.73-2.31-.31.42-.63.73-.84 1.05-1.76 1.99-3.22 2.83-4.78 2.83-1.15 0-1.88-.63-1.88-1.78 0-.53.21-1.26.42-1.79-1.67 1.79-3.54 3.57-5.62 3.57-1.15 0-1.67-.63-1.67-1.47 0-.52.21-1.15.63-1.99l-.63.63c-1.45 1.47-3.22 2.73-4.89 2.73-1.04 0-1.77-.53-1.77-1.58 0-.73.52-1.99 1.88-3.88l-.84.84c-4.16 3.99-8.32 6.4-12.8 6.4-3.33 0-4.37-1.47-4.37-3.25 0-.42.1-.84.1-.84l-.62.73c-1.67 2.1-2.92 3.26-4.58 3.26-1.35 0-2.5-.63-2.5-1.89 0-.74.42-1.47.94-2.42 1.14-1.89 4.27-6.51 6.56-9.87-1.46.94-3.54 1.68-6.25 1.68-3.85 0-5.72-1.58-5.72-3.89-.11-2.62 2.7-4.62 7.49-4.72zm93.67 14.39c2.19-.32 4.9-2.63 4.9-4.31 0-.32-.11-.53-.42-.53-1.25.11-2.81 1.79-4.48 4.84zm-25.5 0c2.19-.32 4.9-2.53 4.9-4.31 0-.32-.21-.53-.52-.53-1.36.11-3.02 2.42-4.38 4.84zm-61.51-2c2.08-3.05 4.16-6.3 5.52-8.3-.63-.31-1.25-.63-1.77-.94-.73.94-9.37 13.86-9.99 14.91-.52.84-.63 1.26-.63 1.47 0 .21.11.42.42.42s.73-.21 1.25-.63c1.25-1.05 2.91-3.46 5.2-6.93zm4.16-2.84.63-1.05c1.98 0 3.54 0 4.58-.52 2.5-1.16 3.75-3.99 3.75-5.36 0-.94-.42-1.78-1.67-1.78-1.87 0-3.64 1.89-4.68 3.25.93.53 1.66 1.05 2.08 1.47l-.31.53c-.63-.53-1.36-.95-2.09-1.47-1.24 1.57-3.95 5.88-5.82 8.61 1.24-.84 2.81-1.05 3.85-1.05v.74c-3.65.1-5.83 2.52-5.83 5.04 0 1.36.73 2.31 2.7 2.31 4.58 0 7.6-4.94 7.6-8.09 0-1.47-.52-2.73-2.81-2.73h-1.04c-.41 0-.73.1-.94.1zm33.1 1.16c0-.53-.41-.95-1.04-.95-1.14 0-2.18.74-3.74 2.63-1.25 1.68-2.61 4.1-2.61 5.15 0 .31.11.63.63.63s1.45-.42 2.81-1.89c1.25-1.37 2.7-3.26 3.75-5.15.2-.11.2-.32.2-.42zm-41.11-10.5c.42 0 .94.1 1.35.21 1.67.31 3.02.73 4.27 1.15.21-.31.42-.63.63-.94l3.33-.11c-.32.42-.84 1.26-1.57 2.1.63.32 1.25.63 1.88.95 2.08-2.63 4.06-3.89 6.56-3.89 2.7 0 3.74 1.58 3.74 3.15 0 1.47-.83 3.15-1.87 4.1-1.35 1.36-3.23 1.99-4.68 2.31.83.42 2.28 1.15 2.28 3.57 0 2-1.14 3.89-2.39 5.36 2.5-1.47 6.04-4.83 7.6-6.83.31-.42 1.04-1.37 1.35-1.89l2.92-.21s-3.75 5.67-4.58 7.14c-.42.84-.63 1.16-.63 1.37 0 .21.11.42.42.42 1.14 0 4.06-3.04 4.79-3.99.73-.95 3.22-4.73 3.22-4.73l3.02-.21c-2.39 3.78-3.22 5.04-3.22 5.04-.84 1.26-1.46 2.42-1.57 3.05-.1.21-.1.31-.1.42 0 .31.1.42.42.42 1.77 0 4.89-4.1 5.82-5.36 1.77-2.31 4.06-3.89 6.46-3.89 2.4 0 1.77.42 2.08 1.16.62-1.05 1.77-2.84 2.71-4.52.1-.21.2-.31.31-.42L31.41 3.05l-6.35 9.98zm-9.16 4.83c0 .73.21 1.36.73 1.89.31.31.73.63 1.25.73l3.75-5.77c.41 0 .93-.11 1.45-.11h.94l-3.96 6.2H21.63c3.74-.32 6.03-2.31 6.87-3.36 0 0 1.76-2.52 1.87-2.63-1.77-.63-4.27-1.36-7.29-1.36-4.58.21-7.18 1.99-7.18 4.41zm111.06 30.98c0 .32-.11.63-.31.84-.21.22-.52.32-.84.32-.31 0-.62-.1-.83-.32-.21-.21-.31-.52-.31-.84 0-.31.1-.63.31-.84.21-.21.52-.31.83-.31.32 0 .63.1.84.31.2.21.31.42.31.84zm-.21 0c0-.31-.1-.52-.31-.73-.21-.21-.42-.32-.73-.32s-.52.11-.73.32c-.21.21-.31.42-.31.73 0 .32.1.53.31.74.21.21.42.32.73.32s.52-.11.73-.32c.21-.21.31-.53.31-.74zm-.42.63h-.31l-.21-.52h-.31v.52h-.31V48h.62c.21 0 .32 0 .42.11.1.1.1.21.1.31 0 .21-.1.32-.31.42l.31.63zm-.83-.73h.31c.21 0 .32-.11.32-.21 0-.11-.11-.21-.21-.21h-.31v.42h-.11z"/></g></svg>