<?xml version="1.0"?>
<svg width="154" height="50" xmlns="http://www.w3.org/2000/svg" xmlns:svg="http://www.w3.org/2000/svg">
 <g class="layer">
  <title>Layer 1</title>
  <path d="m153.4,0l-31.96,49.9l-60.05,-11.98l-61,9.77l16.45,-25.63c0.52,0.31 1.14,0.52 1.87,0.63l-14.26,22.37l57.04,-9.14l59.01,11.77l12.39,-19.33l0.11,0c1.03,0 1.87,-0.42 2.28,-0.73l-0.41,-0.84l-0.73,-0.53l14.99,-23.42l-75.15,14.7c0.52,-0.94 1.04,-1.78 1.35,-2.31l78.07,-15.23zm-48.92,19.43c0.93,0 1.66,-0.94 1.66,-1.89c0,-0.84 -0.52,-1.15 -1.14,-1.15c-1.05,0 -1.77,1.05 -1.77,1.89c0,0.63 0.41,1.15 1.25,1.15zm-82.23,-6.61c0.1,0 0.31,0 0.42,0l0.1,0l7.91,-12.19l40.18,15.55c0.1,-0.11 0.1,-0.21 0.21,-0.32c0.52,-0.94 0.93,-1.57 0.93,-1.57l3.02,-0.21c-2.19,3.67 -6.35,10.5 -6.66,11.03c-1.77,3.04 -2.6,4.51 -2.6,5.35c0,0.32 0.1,0.53 0.41,0.53c0.94,0 2.92,-1.47 6.87,-6.52c0.31,-0.42 1.25,-1.78 1.67,-2.31l2.81,-0.1c-1.56,2.41 -3.75,5.67 -4.69,7.35c-0.41,0.63 -0.62,1.05 -0.62,1.26c0,0.32 0.21,0.42 0.42,0.42c1.04,0 3.12,-1.68 6.03,-5.88c0.73,-1.05 1.25,-1.89 1.98,-2.94l2.81,-0.11c-0.83,1.26 -2.39,3.89 -2.6,4.21c-1.35,2.2 -2.08,3.57 -2.08,4.2c0,0.31 0.1,0.52 0.52,0.52c2.08,0 4.89,-3.78 5.62,-5.77c0,-1.37 0.21,-2.53 0.73,-3.16c0.2,-0.31 0.52,-0.63 1.14,-0.63c0.42,0 0.73,0.21 0.73,0.53c0,0.52 -0.62,1.99 -1.67,3.78c0.32,0.74 0.94,1.16 1.67,1.37c1.15,-2.1 3.75,-5.57 7.18,-5.57c1.25,0 1.77,0.42 1.77,1.36c0,1.79 -2.7,4.31 -6.45,4.84c-0.31,0.63 -0.63,1.36 -0.63,2.1c0,0.63 0.32,1.15 1.25,1.15c3.02,0 6.66,-4.62 8.64,-7.25c0.11,-0.21 0.94,-1.26 1.15,-1.57l2.81,-0.21c-2.4,3.78 -3.13,5.04 -3.13,5.04c-0.72,1.26 -1.66,2.84 -1.66,3.36c0,0.32 0.21,0.53 0.52,0.53c1.14,0 3.23,-1.89 6.14,-4.94c1.25,-1.26 2.6,-2.73 3.54,-3.78c0.31,-1.16 0.94,-1.68 1.66,-1.68c0.63,0 0.84,0.31 0.84,0.84c0,0.63 -0.52,1.05 -1.04,1.15c0,0.11 0,0.32 0,0.53c0,1.15 0.1,2 0.1,3.26c0,1.15 -0.21,2.2 -0.83,3.25c1.46,-1.15 4.37,-3.99 6.14,-5.57c1.77,-1.68 3.54,-2.31 4.89,-2.31c1.15,0 1.77,0.42 1.77,1.37c0,2.31 -3.85,4.52 -6.45,4.83c-0.31,0.53 -0.63,1.47 -0.63,2.21c0,0.63 0.42,1.05 1.04,1.05c2.09,0 4.17,-2.21 5.83,-4.2c2.6,-3.26 3.75,-5.05 5.73,-5.05c1.04,0 1.56,0.53 1.56,1.26c0,0.95 -0.42,1.79 -1.36,3.47c3.02,-3.89 4.48,-4.73 5.52,-4.73c0.73,0 1.25,0.42 1.25,0.95c-1.04,0.31 -2.08,1.78 -2.08,2.84c0,0.31 0.1,0.52 0.21,0.73c0.1,0.11 0.31,0.21 0.62,0.21c0.31,0 0.62,-0.1 1.04,-0.31l0.21,0.52c-0.52,0.32 -1.04,0.42 -1.77,0.42c-1.35,0 -2.08,-0.63 -2.08,-1.68c0,-0.63 0.31,-1.37 0.73,-2c-1.77,1.58 -5.41,6.31 -6.66,8.41l-2.81,0.1c0.41,-0.63 2.81,-4.2 4.47,-7.14c0.52,-0.95 0.83,-1.37 0.83,-1.79c0,-0.21 -0.1,-0.31 -0.31,-0.31c-0.93,0 -2.39,1.89 -4.37,4.41c-1.46,1.89 -4.06,5.04 -7.49,5.04c-1.77,0 -2.61,-0.94 -2.61,-2.2c0,-1.16 0.42,-2.21 1.05,-3.15c-0.84,0.73 -1.67,1.47 -2.5,2.2c-1.56,1.47 -3.65,3.15 -6.46,3.15c-1.45,0 -2.29,-0.63 -2.29,-1.36c0,-0.42 0.32,-0.74 0.63,-0.74c0.93,0 0.62,1.37 1.87,1.37c1.46,0 2.6,-1.37 3.33,-5.57c0.11,-0.52 0.31,-1.68 0.52,-2.42c-2.18,2.32 -3.74,3.89 -4.37,4.63c-1.87,1.89 -4.06,3.99 -6.14,3.99c-1.14,0 -1.87,-0.63 -1.87,-1.58c0,-0.63 0.31,-1.47 1.04,-2.94c-1.67,1.79 -4.27,4.52 -7.5,4.52c-1.87,0 -2.7,-0.95 -2.7,-2.31c0,-0.63 0.21,-1.37 0.52,-2.1c0.31,-0.73 -1.35,-0.63 -1.77,-1.26c-0.83,1.36 -1.87,2.73 -3.33,3.99c-1.46,1.36 -2.81,1.78 -3.96,1.78c-1.14,0 -1.87,-0.52 -1.87,-1.57c0,-0.74 0.42,-1.58 0.73,-2.31c-1.56,1.89 -3.54,3.88 -5.73,3.88c-0.93,0 -1.77,-0.42 -1.77,-1.57c0,-0.74 0.42,-1.47 1.05,-2.63c-1.36,1.47 -3.54,4.2 -6.04,4.2c-1.15,0 -1.77,-0.63 -1.77,-1.57c0,-0.84 0.42,-1.68 0.73,-2.31c-0.31,0.42 -0.63,0.73 -0.84,1.05c-1.76,1.99 -3.22,2.83 -4.78,2.83c-1.15,0 -1.88,-0.63 -1.88,-1.78c0,-0.53 0.21,-1.26 0.42,-1.79c-1.67,1.79 -3.54,3.57 -5.62,3.57c-1.15,0 -1.67,-0.63 -1.67,-1.47c0,-0.52 0.21,-1.15 0.63,-1.99l-0.63,0.63c-1.45,1.47 -3.22,2.73 -4.89,2.73c-1.04,0 -1.77,-0.53 -1.77,-1.58c0,-0.73 0.52,-1.99 1.88,-3.88l-0.84,0.84c-4.16,3.99 -8.32,6.4 -12.8,6.4c-3.33,0 -4.37,-1.47 -4.37,-3.25c0,-0.42 0.1,-0.84 0.1,-0.84l-0.62,0.73c-1.67,2.1 -2.92,3.26 -4.58,3.26c-1.35,0 -2.5,-0.63 -2.5,-1.89c0,-0.74 0.42,-1.47 0.94,-2.42c1.14,-1.89 4.27,-6.51 6.56,-9.87c-1.46,0.94 -3.54,1.68 -6.25,1.68c-3.85,0 -5.72,-1.58 -5.72,-3.89c-0.11,-2.62 2.7,-4.62 7.49,-4.72zm93.67,14.39c2.19,-0.32 4.9,-2.63 4.9,-4.31c0,-0.32 -0.11,-0.53 -0.42,-0.53c-1.25,0.11 -2.81,1.79 -4.48,4.84zm-25.5,0c2.19,-0.32 4.9,-2.53 4.9,-4.31c0,-0.32 -0.21,-0.53 -0.52,-0.53c-1.36,0.11 -3.02,2.42 -4.38,4.84zm-61.51,-2c2.08,-3.05 4.16,-6.3 5.52,-8.3c-0.63,-0.31 -1.25,-0.63 -1.77,-0.94c-0.73,0.94 -9.37,13.86 -9.99,14.91c-0.52,0.84 -0.63,1.26 -0.63,1.47c0,0.21 0.11,0.42 0.42,0.42c0.31,0 0.73,-0.21 1.25,-0.63c1.25,-1.05 2.91,-3.46 5.2,-6.93zm4.16,-2.84l0.63,-1.05c1.98,0 3.54,0 4.58,-0.52c2.5,-1.16 3.75,-3.99 3.75,-5.36c0,-0.94 -0.42,-1.78 -1.67,-1.78c-1.87,0 -3.64,1.89 -4.68,3.25c0.93,0.53 1.66,1.05 2.08,1.47l-0.31,0.53c-0.63,-0.53 -1.36,-0.95 -2.09,-1.47c-1.24,1.57 -3.95,5.88 -5.82,8.61c1.24,-0.84 2.81,-1.05 3.85,-1.05l0,0.74c-3.65,0.1 -5.83,2.52 -5.83,5.04c0,1.36 0.73,2.31 2.7,2.31c4.58,0 7.6,-4.94 7.6,-8.09c0,-1.47 -0.52,-2.73 -2.81,-2.73l-1.04,0c-0.41,0 -0.73,0.1 -0.94,0.1zm33.1,1.16c0,-0.53 -0.41,-0.95 -1.04,-0.95c-1.14,0 -2.18,0.74 -3.74,2.63c-1.25,1.68 -2.61,4.1 -2.61,5.15c0,0.31 0.11,0.63 0.63,0.63c0.52,0 1.45,-0.42 2.81,-1.89c1.25,-1.37 2.7,-3.26 3.75,-5.15c0.2,-0.11 0.2,-0.32 0.2,-0.42zm-41.11,-10.5c0.42,0 0.94,0.1 1.35,0.21c1.67,0.31 3.02,0.73 4.27,1.15c0.21,-0.31 0.42,-0.63 0.63,-0.94l3.33,-0.11c-0.32,0.42 -0.84,1.26 -1.57,2.1c0.63,0.32 1.25,0.63 1.88,0.95c2.08,-2.63 4.06,-3.89 6.56,-3.89c2.7,0 3.74,1.58 3.74,3.15c0,1.47 -0.83,3.15 -1.87,4.1c-1.35,1.36 -3.23,1.99 -4.68,2.31c0.83,0.42 2.28,1.15 2.28,3.57c0,2 -1.14,3.89 -2.39,5.36c2.5,-1.47 6.04,-4.83 7.6,-6.83c0.31,-0.42 1.04,-1.37 1.35,-1.89l2.92,-0.21c0,0 -3.75,5.67 -4.58,7.14c-0.42,0.84 -0.63,1.16 -0.63,1.37c0,0.21 0.11,0.42 0.42,0.42c1.14,0 4.06,-3.04 4.79,-3.99c0.73,-0.95 3.22,-4.73 3.22,-4.73l3.02,-0.21c-2.39,3.78 -3.22,5.04 -3.22,5.04c-0.84,1.26 -1.46,2.42 -1.57,3.05c-0.1,0.21 -0.1,0.31 -0.1,0.42c0,0.31 0.1,0.42 0.42,0.42c1.77,0 4.89,-4.1 5.82,-5.36c1.77,-2.31 4.06,-3.89 6.46,-3.89c2.4,0 1.77,0.42 2.08,1.16c0.62,-1.05 1.77,-2.84 2.71,-4.52c0.1,-0.21 0.2,-0.31 0.31,-0.42l-38.2,-14.91l-6.35,9.98zm-9.16,4.83c0,0.73 0.21,1.36 0.73,1.89c0.31,0.31 0.73,0.63 1.25,0.73l3.75,-5.77c0.41,0 0.93,-0.11 1.45,-0.11c0.31,0 0.63,0 0.94,0l-3.96,6.2c0.21,0 0.42,0 0.63,0c0.31,0 0.62,0 0.94,0c3.74,-0.32 6.03,-2.31 6.87,-3.36c0,0 1.76,-2.52 1.87,-2.63c-1.77,-0.63 -4.27,-1.36 -7.29,-1.36c-4.58,0.21 -7.18,1.99 -7.18,4.41zm111.06,30.98c0,0.32 -0.11,0.63 -0.31,0.84c-0.21,0.22 -0.52,0.32 -0.84,0.32c-0.31,0 -0.62,-0.1 -0.83,-0.32c-0.21,-0.21 -0.31,-0.52 -0.31,-0.84c0,-0.31 0.1,-0.63 0.31,-0.84c0.21,-0.21 0.52,-0.31 0.83,-0.31c0.32,0 0.63,0.1 0.84,0.31c0.2,0.21 0.31,0.42 0.31,0.84zm-0.21,0c0,-0.31 -0.1,-0.52 -0.31,-0.73c-0.21,-0.21 -0.42,-0.32 -0.73,-0.32c-0.31,0 -0.52,0.11 -0.73,0.32c-0.21,0.21 -0.31,0.42 -0.31,0.73c0,0.32 0.1,0.53 0.31,0.74c0.21,0.21 0.42,0.32 0.73,0.32c0.31,0 0.52,-0.11 0.73,-0.32c0.21,-0.21 0.31,-0.53 0.31,-0.74zm-0.42,0.63l-0.31,0l-0.21,-0.52l-0.31,0l0,0.52l-0.31,0l0,-1.47l0.62,0c0.21,0 0.32,0 0.42,0.11c0.1,0.1 0.1,0.21 0.1,0.31c0,0.21 -0.1,0.32 -0.31,0.42l0.31,0.63zm-0.83,-0.73l0.31,0c0.21,0 0.32,-0.11 0.32,-0.21c0,-0.11 -0.11,-0.21 -0.21,-0.21l-0.31,0l0,0.42l-0.11,0z" fill="#ffffff" id="svg_1"/>
 </g>
</svg>