<svg xmlns="http://www.w3.org/2000/svg" width="220" height="40"><g class="layer"><path fill="#fff" d="M.39 39.05V0h16.66c7.1 0 10.75 4.75 10.75 9.94 0 4.85-2.91 8.19-6.44 8.96 4.03.64 7.18 4.69 7.18 9.54 0 5.92-3.7 10.61-10.85 10.61H.39zm19.3-27.62c0-2.42-1.67-4.11-4.36-4.11H8.36v8.19h6.97c2.69 0 4.36-1.57 4.36-4.08zm.73 15.85c0-2.47-1.67-4.46-4.76-4.46h-7.3v8.91h7.32c2.94 0 4.74-1.64 4.74-4.45zm10.93-.1v-16.7h7.29v16.46c0 3.31 1.99 5.71 5.87 5.71 3.83 0 5.84-2.4 5.84-5.71V10.48h7.27v16.67c0 6.99-4.16 11.9-13.08 11.9s-13.19-4.96-13.19-11.87zM59.49 39.05v-5.63l12.42-16.38H59.49v-6.56h22.29v5.38L69.12 32.49h12.89v6.56H59.49zM84.82 39.05v-5.63l12.42-16.38H84.82v-6.56h22.28v5.38L94.45 32.49h12.89v6.56H84.82zM109.21 39.05V0h26.27v7.32h-18.2v8.19h13.7v7.31h-13.7v16.23h-8.07zM133.6 25.21c0-8.14 5.96-14.73 14.31-14.73 8.29 0 13.84 6.3 13.84 15.42v1.74H141.2c.51 3.42 3.26 6.3 7.95 6.3 2.36 0 5.55-1 7.34-2.74l3.26 4.9c-2.75 2.56-7.1 3.9-11.38 3.9-8.42 0-14.77-5.77-14.77-14.79zm14.31-8.67c-4.51 0-6.48 3.19-6.77 5.98h13.64c-.24-2.69-2.08-5.98-6.87-5.98zm14.77 8.67c0-8.14 5.96-14.73 14.31-14.73 8.29 0 13.84 6.3 13.84 15.42v1.74h-20.55c.51 3.42 3.26 6.3 7.95 6.3 2.36 0 5.55-1 7.34-2.74l3.26 4.9c-2.75 2.56-7.1 3.9-11.37 3.9-8.43 0-14.78-5.77-14.78-14.79zm14.31-9.62c-4.51 0-6.48 3.19-6.77 5.98h13.64c-.24-2.69-2.08-5.98-6.87-5.98zm16.65 23.46V11.43h11.18c8.77 0 15.09 5.21 15.09 13.8 0 8.56-6.3 13.82-15.03 13.82h-11.24zm19.17-13.82c0-4.29-2.6-7.84-7.7-7.84h-4.52v15.7h4.52c4.86 0 7.7-3.76 7.7-7.86z"/></g></svg>