<?xml version="1.0"?>
<svg width="220" height="40" xmlns="http://www.w3.org/2000/svg" xmlns:svg="http://www.w3.org/2000/svg">
 <g class="layer">
  <title>Layer 1</title>
  <path d="m0.39,39.05l0,-39.05l16.66,0c7.1,0 10.75,4.75 10.75,9.94c0,4.85 -2.91,8.19 -6.44,8.96c4.03,0.64 7.18,4.69 7.18,9.54c0,5.92 -3.7,10.61 -10.85,10.61l-17.3,0zm19.3,-27.62c0,-2.42 -1.67,-4.11 -4.36,-4.11l-6.97,0l0,8.19l6.97,0c2.69,0 4.36,-1.57 4.36,-4.08zm0.73,15.85c0,-2.47 -1.67,-4.46 -4.76,-4.46l-7.3,0l0,8.91l7.32,0c2.94,0 4.74,-1.64 4.74,-4.45zm10.93,-0.1l0,-16.7l7.29,0l0,16.46c0,3.31 1.99,5.71 5.87,5.71c3.83,0 5.84,-2.4 5.84,-5.71l0,-16.46l7.27,0l0,16.67c0,6.99 -4.16,11.9 -13.08,11.9c-8.92,0 -13.19,-4.96 -13.19,-11.87z" fill="#ffffff" id="svg_1"/>
  <path d="m59.49,39.05l0,-5.63l12.42,-16.38l-12.42,0l0,-6.56l22.29,0l0,5.38l-12.66,16.63l12.89,0l0,6.56l-22.52,0z" fill="#ffffff" id="svg_2"/>
  <path d="m84.82,39.05l0,-5.63l12.42,-16.38l-12.42,0l0,-6.56l22.28,0l0,5.38l-12.65,16.63l12.89,0l0,6.56l-22.52,0z" fill="#ffffff" id="svg_3"/>
  <path d="m109.21,39.05l0,-39.05l26.27,0l0,7.32l-18.2,0l0,8.19l13.7,0l0,7.31l-13.7,0l0,16.23l-8.07,0z" fill="#ffffff" id="svg_4"/>
  <path d="m133.6,25.21c0,-8.14 5.96,-14.73 14.31,-14.73c8.29,0 13.84,6.3 13.84,15.42l0,1.74l-20.55,0c0.51,3.42 3.26,6.3 7.95,6.3c2.36,0 5.55,-1 7.34,-2.74l3.26,4.9c-2.75,2.56 -7.1,3.9 -11.38,3.9c-8.42,0 -14.77,-5.77 -14.77,-14.79zm14.31,-8.67c-4.51,0 -6.48,3.19 -6.77,5.98l13.64,0c-0.24,-2.69 -2.08,-5.98 -6.87,-5.98zm14.77,8.67c0,-8.14 5.96,-14.73 14.31,-14.73c8.29,0 13.84,6.3 13.84,15.42l0,1.74l-20.55,0c0.51,3.42 3.26,6.3 7.95,6.3c2.36,0 5.55,-1 7.34,-2.74l3.26,4.9c-2.75,2.56 -7.1,3.9 -11.37,3.9c-8.43,0 -14.78,-5.77 -14.78,-14.79zm14.31,-9.62c-4.51,0 -6.48,3.19 -6.77,5.98l13.64,0c-0.24,-2.69 -2.08,-5.98 -6.87,-5.98zm16.65,23.46l0,-27.62l11.18,0c8.77,0 15.09,5.21 15.09,13.8c0,8.56 -6.3,13.82 -15.03,13.82l-11.24,0zm19.17,-13.82c0,-4.29 -2.6,-7.84 -7.7,-7.84l-4.52,0l0,15.7l4.52,0c4.86,0 7.7,-3.76 7.7,-7.86z" fill="#ffffff" id="svg_5"/>
 </g>
</svg>