<?xml version="1.0"?>
<svg width="200" height="54" xmlns="http://www.w3.org/2000/svg" xmlns:svg="http://www.w3.org/2000/svg" class="fs-icon fs-icon--forbes-logo">
 <g class="layer">
  <title>Layer 1</title>
  <path d="m113.3,18.2c0,-5.8 0.1,-11.2 0.4,-16.2l-15.3,2.9l0,1.4l1.5,0.2c1.1,0.1 1.8,0.5 2.2,1.1c0.4,0.7 0.7,1.7 0.9,3.2c0.2,2.9 0.4,9.5 0.3,19.9c0,10.3 -0.1,16.8 -0.3,19.3c5.5,1.2 9.8,1.7 13,1.7c6,0 10.7,-1.7 14.1,-5.2c3.4,-3.4 5.2,-8.2 5.2,-14.1c0,-4.7 -1.3,-8.6 -3.9,-11.7c-2.6,-3.1 -5.9,-4.6 -9.8,-4.6c-2.6,0 -5.3,0.7 -8.3,2.1zm0.3,30.8c-0.2,-3.2 -0.4,-12.8 -0.4,-28.5c0.9,-0.3 2.1,-0.5 3.6,-0.5c2.4,0 4.3,1.2 5.7,3.7c1.4,2.5 2.1,5.5 2.1,9.3c0,4.7 -0.8,8.5 -2.4,11.7c-1.6,3.1 -3.6,4.7 -6.1,4.7c-0.8,-0.2 -1.6,-0.3 -2.5,-0.4zm-72.6,-46l-40,0l0,2l2.1,0.2c1.6,0.3 2.7,0.9 3.4,1.8c0.7,1 1.1,2.6 1.2,4.8c0.8,10.8 0.8,20.9 0,30.2c-0.2,2.2 -0.6,3.8 -1.2,4.8c-0.7,1 -1.8,1.6 -3.4,1.8l-2.1,0.3l0,2l25.8,0l0,-2l-2.7,-0.2c-1.6,-0.2 -2.7,-0.9 -3.4,-1.8c-0.7,-1 -1.1,-2.6 -1.2,-4.8c-0.3,-4 -0.5,-8.6 -0.5,-13.7l5.4,0.1c2.9,0.1 4.9,2.3 5.9,6.7l2,0l0,-16.3l-2,0c-1,4.3 -2.9,6.5 -5.9,6.6l-5.4,0.1c0,-9 0.2,-15.4 0.5,-19.3l7.9,0c5.6,0 9.4,3.6 11.6,10.8l2.4,-0.7l-0.4,-13.4zm-4.7,30.8c0,5.2 1.5,9.5 4.4,12.9c2.9,3.4 7.2,5 12.6,5s9.8,-1.7 13,-5.2c3.2,-3.4 4.7,-7.7 4.7,-12.9s-1.5,-9.5 -4.4,-12.9c-2.9,-3.4 -7.2,-5 -12.6,-5s-9.8,1.7 -13,5.2c-3.2,3.4 -4.7,7.7 -4.7,12.9zm22.3,-11.4c1.2,2.9 1.7,6.7 1.7,11.3c0,10.6 -2.2,15.8 -6.5,15.8c-2.2,0 -3.9,-1.5 -5.1,-4.5c-1.2,-3 -1.7,-6.8 -1.7,-11.3c0,-10.5 2.2,-15.7 6.5,-15.7c4.3,0 3.9,1.4 5.1,4.4zm84.5,24.3c3.3,3.3 7.5,5 12.5,5c3.1,0 5.8,-0.6 8.2,-1.9c2.4,-1.2 4.3,-2.7 5.6,-4.5l-1,-1.2c-2.2,1.7 -4.7,2.5 -7.6,2.5c-4,0 -7.1,-1.3 -9.2,-4c-2.2,-2.7 -3.2,-6.1 -3,-10.5l21.4,0c0,-4.8 -1.2,-8.7 -3.7,-11.8c-2.5,-3 -6,-4.5 -10.5,-4.5c-5.6,0 -9.9,1.8 -13,5.3c-3.1,3.5 -4.6,7.8 -4.6,12.9c0,5.2 1.6,9.4 4.9,12.7zm7.4,-25.1c1.1,-2.4 2.5,-3.6 4.4,-3.6c3,0 4.5,3.8 4.5,11.5l-10.6,0.2c0.1,-3 0.6,-5.7 1.7,-8.1zm46.4,-4c-2.7,-1.2 -6.1,-1.9 -10.2,-1.9c-4.2,0 -7.5,1.1 -10,3.2s-3.8,4.7 -3.8,7.8c0,2.7 0.8,4.8 2.3,6.3c1.5,1.5 3.9,2.8 7,3.9c2.8,1 4.8,2 5.8,2.9c1,1 1.6,2.1 1.6,3.6c0,1.4 -0.5,2.7 -1.6,3.7c-1,1.1 -2.4,1.6 -4.2,1.6c-4.4,0 -7.7,-3.2 -10,-9.6l-1.7,0.5l0.4,10c3.6,1.4 7.6,2.1 12,2.1c4.6,0 8.1,-1 10.7,-3.1c2.6,-2 3.9,-4.9 3.9,-8.5c0,-2.4 -0.6,-4.4 -1.9,-5.9c-1.3,-1.5 -3.4,-2.8 -6.4,-4c-3.3,-1.2 -5.6,-2.3 -6.8,-3.3c-1.2,-1 -1.8,-2.2 -1.8,-3.7s0.4,-2.7 1.3,-3.7s2,-1.4 3.4,-1.4c4,0 6.9,2.9 8.7,8.6l1.7,-0.5l-0.4,-8.6zm-96.2,-0.9c-1.4,-0.7 -2.9,-1 -4.6,-1c-1.7,0 -3.4,0.7 -5.3,2.1c-1.9,1.4 -3.3,3.3 -4.4,5.9l0.1,-8l-15.2,3l0,1.4l1.5,0.1c1.9,0.2 3,1.7 3.2,4.4c0.6,6.2 0.6,12.8 0,19.8c-0.2,2.7 -1.3,4.1 -3.2,4.4l-1.5,0.2l0,1.9l21.2,0l0,-1.9l-2.7,-0.2c-1.9,-0.2 -3,-1.7 -3.2,-4.4c-0.6,-5.8 -0.7,-12 -0.2,-18.4c0.6,-1 1.9,-1.6 3.9,-1.8c2,-0.2 4.3,0.4 6.7,1.8l3.7,-9.3z" fill="#ffffff" id="svg_1"/>
 </g>
</svg>