<?xml version="1.0"?>
<svg width="1000" height="272" xmlns="http://www.w3.org/2000/svg" xmlns:svg="http://www.w3.org/2000/svg">
 <g class="layer">
  <title>Layer 1</title>
  <path d="m111.2,0l-26.1,80.2l-85.1,0l68.7,49.6l-25.8,80.6l68.3,-49.6l68.6,49.6l-26.1,-80.6l68.3,-49.6l-84.7,0l-26.1,-80.2z" fill="#ffffff" id="svg_1"/>
  <path d="m460.8,73.1c-5.2,-5.2 -10.8,-9 -17.9,-11.2c-6.7,-2.6 -14.6,-3.7 -23.1,-3.7c-8.6,0 -16.4,1.5 -24.3,4.9c-7.8,3.4 -14.2,8.2 -19.4,13.4l-0.4,0.4c-2.6,3 -4.9,6 -6.7,9.3c-1.5,3 -3,5.6 -3.7,7.8c-0.7,-1.5 -1.9,-4.1 -3.4,-6.7c-2.6,-4.9 -4.9,-8.6 -6.7,-10.1c-5.2,-6 -11.2,-10.1 -19,-13.4c-7.8,-3.4 -16,-4.9 -25.4,-4.9c-6,0 -14.6,0.7 -23.9,5.2c-10.8,5.2 -19.8,13.4 -26.1,25.4l0,-26.8l-8.6,0l0,149.6l8.6,0l0,-85.1c0,-9.7 1.1,-17.9 3.4,-25.4c2.2,-7.5 5.6,-13.1 10.1,-18.7c3.7,-5.2 9.3,-9.3 15.7,-11.9c6.3,-3 13.1,-4.5 20.1,-4.1c8.6,0.4 16,1.9 22.8,4.9c6.3,3 11.6,7.5 16,12.7c3.7,5.2 6.3,9.7 7.8,14.9c2.2,6.3 3,13.8 3,24.3l0,88.1l8.6,0l0,-84.3c0,-10.4 0.4,-19 2.2,-26.1c1.9,-6.7 4.5,-11.9 9.7,-18.7c4.5,-6 10.1,-10.1 17.9,-13.1c6.3,-2.2 13.4,-3.7 20.1,-3.7c7.5,0 13.8,1.1 19.8,3.4c6,2.3 10.4,5.6 14.6,9.7c5.2,5.2 9,11.6 11.2,19.8c2.6,8.2 3.7,17.5 3.7,29.1l0,83.9l8.6,0l1.5,-84.3c0,-12.3 -1.5,-23.1 -4.5,-32.1c-2.6,-9 -6.4,-16.9 -12.3,-22.5z" fill="#ffffff" id="svg_2"/>
  <path d="m630.5,100.7c-4.5,-10.4 -13.1,-20.9 -24.3,-28.4c-13.1,-9 -28.7,-13.4 -45.1,-13.4c-29.8,0 -48.1,13.4 -58.6,25c-12.7,14.2 -20.1,33.6 -20.1,53.4c0,19.8 7.5,39.2 20.1,53.4c10.1,11.2 28.7,25 58.6,25c15.3,0 29.1,-3.7 41.4,-10.8c11.6,-7.5 20.9,-17.2 28,-30.2l0,37.7l8.6,0l0,-149.3l-8.6,0l0,37.6zm-4.8,8.6c1.5,4.1 3,8.2 3.7,12.3c1.1,4.5 1.5,9.3 1.5,13.4c0.4,4.9 0,9.3 -0.7,13.4c-0.7,4.9 -1.9,9 -3.4,12.7c-4.9,13.8 -13.4,25.7 -25,33.6c-11.2,8.2 -25.4,12.3 -39.9,12.3c-21.6,0 -39.5,-7.8 -52.6,-22c-11.2,-12.7 -18.3,-30.2 -18.3,-48.5c0,-19.8 7.5,-37.3 20.1,-50.4c13.1,-12.7 30.6,-20.1 50,-20.1c14.2,0 28,4.1 39.2,11.2c11.6,8.6 20.5,19.4 25.4,32.1z" fill="#ffffff" id="svg_3"/>
  <path d="m672,85.4c7.8,-7.1 15.7,-11.6 23.5,-14.9c7.8,-3 16.4,-4.9 26.9,-4.9l0.7,0c12.7,0 25.7,3.7 36.6,10.1c12.7,8.2 22.4,19.4 27.6,33.6l0.4,0.7l9.7,0l-0.7,-1.5c-6,-16.8 -17.2,-30.6 -32.1,-39.5c-12.3,-7.5 -27.2,-11.2 -41.8,-11.2c-21.6,0 -41.4,8.2 -56,22.8c-14.6,14.6 -22.8,34.7 -22.8,56.3c0,20.1 7.8,39.5 20.5,53.7c14.6,16 35.1,24.6 59.7,24.6c16,0 31.7,-4.9 44.4,-13.8c12.7,-8.9 22.4,-21.3 28,-36.2l0.7,-1.5l-9.7,0l-0.4,0.7c-3.7,10.8 -11.6,21.3 -22,28.7c-11.9,9.3 -27.2,13.8 -42.9,13.8c-9.3,0 -18.3,-1.9 -26.9,-5.2c-8.6,-3.7 -15.7,-8.6 -22.4,-14.6c-6.7,-6.7 -11.6,-14.2 -15.3,-23.1c-3.7,-8.6 -5.6,-18.3 -5.6,-28c0,-9.7 2.2,-19.8 5.6,-28.7c3.1,-8.4 8.3,-15.9 14.3,-21.9zm100.7,-0.7c6.7,6.3 12.3,14.6 16,24.3c-3.7,-9.4 -9.3,-17.2 -16,-24.3z" fill="#ffffff" id="svg_4"/>
  <path d="m918.2,62.3l-9.7,0l-0.4,0.7c0,0.7 -14.6,34.7 -29.1,69l-28.7,67.5l-27.2,-67.5c-17.5,-44.8 -27.6,-68.7 -27.6,-69l-0.4,-0.7l-9.7,0l59.7,148.9l-26.9,60.4l9.7,0l0.4,-0.7c0,0 0.7,-1.9 1.9,-4.9c4.5,-10.4 16.8,-39.2 31,-71.6c3.7,-8.6 7.5,-17.5 11.6,-26.5l35.1,-81c6,-13.8 9.7,-22.8 9.7,-23.1l0.6,-1.5z" fill="#ffffff" id="svg_5"/>
  <path d="m985.4,139.5c-8.2,-6 -18.3,-9 -28.4,-11.2l-1.1,-0.4c-11.6,-3.4 -19,-6.7 -23.9,-10.4c-5.6,-4.9 -8.6,-10.8 -9,-19.8c0,-4.1 0.4,-8.2 1.9,-11.6c1.1,-3.7 3.4,-6.7 6,-9.7c3,-3.4 6.7,-5.6 10.4,-7.5c4.5,-1.9 9,-2.6 13.8,-2.6l0.7,0c4.5,0 8.6,0.7 11.9,2.2c3.7,1.5 7.1,3.7 9.7,6.3c2.6,2.6 4.9,6 6.3,9.7c1.5,3.7 2.2,7.8 2.2,12.3l0,1.1l8.6,0l0,-0.9c0,-10.8 -4.1,-20.5 -10.8,-27.6c-7.1,-7.1 -16.8,-10.4 -28.7,-10.4c-10.4,0 -20.5,3.4 -28,9.3c-8.6,7.1 -12.7,17.2 -12.7,29.5c0.4,11.6 4.5,20.1 11.9,26.5c7.8,6.3 18.3,9.7 28.7,12.3c12.7,3 21.6,7.1 27.2,12.3c6,6 8.6,13.1 9,23.1l0,1.1c0,4.9 -0.7,9.7 -2.6,13.4c-1.9,4.1 -4.1,7.8 -7.5,10.8c-3,3.4 -7.1,6 -11.2,7.8c-4.5,1.9 -9.3,2.6 -14.2,2.6c-10.8,0 -20.5,-3.4 -27.2,-9.7c-6.7,-6.7 -10.1,-15.7 -10.4,-26.5l0,-1.1l-8.6,0.4l0,1.9c0,0.4 0,0.7 0,1.1c0,5.2 1.1,10.1 3,14.9c1.9,4.9 4.5,9.3 8.2,12.7c4.5,4.5 9.7,8.2 15.7,10.4c6,2.2 12.3,3.7 19.4,3.7c6.3,0 12.3,-1.5 17.9,-3.7c5.6,-2.6 10.4,-6 14.6,-10.1c3.7,-4.1 7.1,-9 9,-14.2c2.2,-5.2 3,-10.8 2.6,-16.8c-0.6,-14.4 -5.5,-24.4 -14.4,-31.2z" fill="#ffffff" id="svg_6"/>
  <path d="m913.3,51.1l10.1,-7.1l10.1,7.1l-4.1,-11.9l10.4,-7.5l-12.3,0l-4.1,-11.6l-3.7,11.6l-12.3,0l9.7,7.5l-3.8,11.9z" fill="#ffffff" id="svg_7"/>
 </g>
</svg>