<?xml version="1.0"?>
<svg width="608" height="125" xmlns="http://www.w3.org/2000/svg" xmlns:svg="http://www.w3.org/2000/svg">&gt;
 <g class="layer">
  <title>Layer 1</title>
  <path d="m207.2,20.72l5.4,0l0,15.67l6.76,0l6.21,-24.85l0,-10l-18.37,0l0,19.18zm-82.12,21.34c4.05,0 5.94,3.25 5.94,28.64l-13.24,0c0.54,-25.39 2.7,-28.64 7.3,-28.64zm24.58,51.06l-8.64,0l0,2.97c0,12.43 -3.52,18.37 -10.81,18.37c-8.37,0 -12.43,-5.4 -12.43,-33.77l0,-2.16l32.96,0c0,-33.22 -7.29,-46.19 -25.66,-46.19c-18.37,0 -30.26,18.91 -30.26,48.09c0,28.9 11.35,44.57 30.8,44.57c16.75,0 24.04,-9.45 24.04,-29.44l0,-2.44l0,0zm229.42,-51.06c4.05,0 5.94,3.25 5.94,28.64l-12.49,0c0.54,-25.39 1.96,-28.64 6.55,-28.64zm24.58,51.06l-8.64,0l0,2.97c0,12.43 -3.51,18.37 -10.81,18.37c-8.37,0 -11.68,-5.4 -11.68,-33.77l0,-2.16l32.21,0c0,-33.22 -7.29,-46.19 -25.66,-46.19s-30.26,18.91 -30.26,48.09c0,28.9 11.35,44.57 30.8,44.57c16.75,0 24.04,-9.45 24.04,-29.44l0,-2.44zm119.41,31.88c12.15,0 17.29,-7.56 17.29,-18.37l0,-13.51l-8.11,0l0,13.51c0,5.67 -0.81,7.56 -3.51,7.56c-2.43,0 -3.24,-1.62 -3.24,-6.75l0,-64.84l14.86,0l0,-8.37l-14.59,0l0,-25.12l-8.38,0l-12.42,26.2l-7.3,0l0,7.02l6.49,0l0,59.98c0,15.67 2.7,22.69 18.91,22.69zm-62.68,-68.62c0,-16.75 -7.56,-23.77 -23.77,-23.77s-27.28,11.62 -27.28,25.39l0,5.41l18.64,0l0,-12.7c0,-7.29 1.62,-10 5.67,-10c4.05,0 5.67,2.44 5.67,10l0,14.86c-24.58,8.37 -32.14,14.59 -32.14,35.39c0,16.21 6.48,24.04 17.56,24.04c9.45,0 13.77,-6.48 16.21,-10.53l0,8.91l24.04,0l0,-7.3l-4.59,0l0,-59.7l-0.01,0zm140.75,59.7l0,-64.02c0,-13.24 -5.94,-19.45 -16.48,-19.45c-12.7,0 -17.83,9.45 -17.83,9.45l0,-41.6l-26.74,2.97l0,7.03l6.21,0l0,105.62l-4.32,0l0,7.3l29.71,0l0,-7.3l-4.32,0l0,-55.92c0,-9.72 2.7,-13.77 7.56,-13.77c3.52,0 4.87,2.16 4.87,7.56l0,62.13l-4.87,0l0,7.3l32.15,0l0,-7.3l-5.94,0zm-161.82,-42.95l0,27.56c0,8.1 -1.62,11.34 -6.21,11.34c-3.51,0 -5.13,-2.97 -5.13,-12.69c0,-16.48 1.35,-20.53 11.34,-26.21zm-94.61,42.95l0,-107.24l6.21,0l0,-7.03l-37.01,0l0,7.03l7.56,0l0,50.24l-23.77,0l0,-50.24l7.84,0l0,-7.03l-37.56,0l0,7.03l6.49,0l0,107.24l-6.49,0l0,7.3l37.56,0l0,-7.3l-7.84,0l0,-48.62l23.77,0l0,48.62l-7.56,0l0,7.3l37.01,0l0,-7.3l-6.21,0zm148.64,0l0,-115.62l-27.82,2.97l0,7.03l6.75,0l0,105.62l-4.32,0l0,7.3l31.88,0l0,-7.3l-6.49,0zm-226.72,-16.74c0,-28.64 -30.79,-30.53 -30.79,-49.44c0,-6.49 3.24,-9.73 8.37,-9.73c7.84,0 11.89,7.84 12.43,24.31l7.02,0l0,-27.01s-7.83,-4.86 -19.72,-4.86c-14.32,0 -25.93,8.1 -25.93,24.58c0,27.02 29.98,30.8 29.98,49.17c0,7.29 -3.51,10.81 -9.18,10.81c-8.65,0 -12.97,-7.57 -13.51,-26.21l-7.02,0l0,29.18s8.64,4.86 21.34,4.86c15.67,0 27.01,-8.92 27.01,-25.66zm-175.86,16.74l0,-107.24l5.67,0l0,-7.03l-31.61,0l-15.66,68.35l-16.75,-68.35l-32.42,0l0,7.03l6.75,0l0,107.24l-6.75,0l0,7.3l24.85,0l0,-7.3l-7.83,0l0,-75.37l19.72,82.67l11.35,0l19.45,-83.21l0,75.91l-7.3,0l0,7.3l36.2,0l0,-7.3l-5.67,0l0,0zm119.67,0l0,-64.02c0,-13.24 -5.94,-19.45 -16.2,-19.45c-12.7,0 -17.83,9.45 -17.83,9.45l0,-9.45l-27.02,2.97l0,7.3l6.21,0l0,73.2l-6.48,0l0,7.3l32.15,0l0,-7.3l-4.32,0l0,-55.92c0,-9.72 2.7,-13.77 7.56,-13.77c3.51,0 4.86,2.16 4.86,7.56l0,62.13l-4.86,0l0,7.3l30.26,0l0,-7.3l-4.33,0z" fill="#ffffff" id="svg_1"/>
 </g></svg>