<svg xmlns="http://www.w3.org/2000/svg" width="608" height="125">&gt;<g class="layer"><path fill="#fff" d="M207.2 20.72h5.4v15.67h6.76l6.21-24.85v-10H207.2v19.18zm-82.12 21.34c4.05 0 5.94 3.25 5.94 28.64h-13.24c.54-25.39 2.7-28.64 7.3-28.64zm24.58 51.06h-8.64v2.97c0 12.43-3.52 18.37-10.81 18.37-8.37 0-12.43-5.4-12.43-33.77v-2.16h32.96c0-33.22-7.29-46.19-25.66-46.19S94.82 51.25 94.82 80.43c0 28.9 11.35 44.57 30.8 44.57 16.75 0 24.04-9.45 24.04-29.44v-2.44zm229.42-51.06c4.05 0 5.94 3.25 5.94 28.64h-12.49c.54-25.39 1.96-28.64 6.55-28.64zm24.58 51.06h-8.64v2.97c0 12.43-3.51 18.37-10.81 18.37-8.37 0-11.68-5.4-11.68-33.77v-2.16h32.21c0-33.22-7.29-46.19-25.66-46.19s-30.26 18.91-30.26 48.09c0 28.9 11.35 44.57 30.8 44.57 16.75 0 24.04-9.45 24.04-29.44v-2.44zM523.07 125c12.15 0 17.29-7.56 17.29-18.37V93.12h-8.11v13.51c0 5.67-.81 7.56-3.51 7.56-2.43 0-3.24-1.62-3.24-6.75V42.6h14.86v-8.37h-14.59V9.11h-8.38l-12.42 26.2h-7.3v7.02h6.49v59.98c0 15.67 2.7 22.69 18.91 22.69zm-62.68-68.62c0-16.75-7.56-23.77-23.77-23.77S409.34 44.23 409.34 58v5.41h18.64v-12.7c0-7.29 1.62-10 5.67-10s5.67 2.44 5.67 10v14.86c-24.58 8.37-32.14 14.59-32.14 35.39 0 16.21 6.48 24.04 17.56 24.04 9.45 0 13.77-6.48 16.21-10.53v8.91h24.04v-7.3h-4.59v-59.7h-.01zm140.75 59.7V52.06c0-13.24-5.94-19.45-16.48-19.45-12.7 0-17.83 9.45-17.83 9.45V.46l-26.74 2.97v7.03h6.21v105.62h-4.32v7.3h29.71v-7.3h-4.32V60.16c0-9.72 2.7-13.77 7.56-13.77 3.52 0 4.87 2.16 4.87 7.56v62.13h-4.87v7.3h32.15v-7.3h-5.94zM439.32 73.13v27.56c0 8.1-1.62 11.34-6.21 11.34-3.51 0-5.13-2.97-5.13-12.69 0-16.48 1.35-20.53 11.34-26.21zm-94.61 42.95V8.84h6.21V1.81h-37.01v7.03h7.56v50.24H297.7V8.84h7.84V1.81h-37.56v7.03h6.49v107.24h-6.49v7.3h37.56v-7.3h-7.84V67.46h23.77v48.62h-7.56v7.3h37.01v-7.3h-6.21zm148.64 0V.46l-27.82 2.97v7.03h6.75v105.62h-4.32v7.3h31.88v-7.3h-6.49zM266.63 99.34c0-28.64-30.79-30.53-30.79-49.44 0-6.49 3.24-9.73 8.37-9.73 7.84 0 11.89 7.84 12.43 24.31h7.02V37.47s-7.83-4.86-19.72-4.86c-14.32 0-25.93 8.1-25.93 24.58 0 27.02 29.98 30.8 29.98 49.17 0 7.29-3.51 10.81-9.18 10.81-8.65 0-12.97-7.57-13.51-26.21h-7.02v29.18s8.64 4.86 21.34 4.86c15.67 0 27.01-8.92 27.01-25.66zM90.77 116.08V8.84h5.67V1.81H64.83L49.17 70.16 32.42 1.81H0v7.03h6.75v107.24H0v7.3h24.85v-7.3h-7.83V40.71l19.72 82.67h11.35l19.45-83.21v75.91h-7.3v7.3h36.2v-7.3h-5.67zm119.67 0V52.06c0-13.24-5.94-19.45-16.2-19.45-12.7 0-17.83 9.45-17.83 9.45v-9.45l-27.02 2.97v7.3h6.21v73.2h-6.48v7.3h32.15v-7.3h-4.32V60.16c0-9.72 2.7-13.77 7.56-13.77 3.51 0 4.86 2.16 4.86 7.56v62.13h-4.86v7.3h30.26v-7.3h-4.33z"/></g></svg>