<?xml version="1.0"?>
<svg width="225" height="45" xmlns="http://www.w3.org/2000/svg" xmlns:svg="http://www.w3.org/2000/svg">
 <g class="layer">
  <title>Layer 1</title>
  <path d="m92.25,43.29c-0.67,0.15 -1.34,0.33 -1.91,0.73c-0.18,0.14 -0.38,0.16 -0.58,0.19c-0.77,0.14 -1.5,0.38 -2.23,0.65c-0.37,0.13 -0.11,-0.28 -0.26,-0.34c-0.17,-0.07 -0.31,0.03 -0.39,0.11c-0.34,0.35 -0.75,0.29 -1.16,0.31c-0.22,0 -0.41,-0.03 -0.55,-0.22c-0.22,-0.29 -0.53,-0.36 -0.88,-0.38c-0.54,-0.03 -0.67,-0.19 -0.85,-0.69c-0.23,-0.67 -0.27,-1.38 -0.43,-2.06c-0.08,-0.3 0.08,-0.61 0.2,-0.89c0.22,-0.55 0.53,-1.01 1.09,-1.3c0.4,-0.21 0.76,-0.49 1.18,-0.64c-0.05,-0.2 -0.22,-0.23 -0.32,-0.34c-0.24,-0.27 -0.35,-0.51 -0.29,-0.93c0.14,-0.87 0.34,-1.73 0.48,-2.59c0.02,-0.08 0.01,-0.17 0.06,-0.23c0.54,-0.73 0.6,-1.63 0.93,-2.43c0.45,-1.11 0.86,-2.23 1.37,-3.32c0.95,-2.04 1.89,-4.09 2.93,-6.09c0.55,-1.06 1.09,-2.11 1.6,-3.19c0.43,-0.92 0.81,-1.87 1.21,-2.82c0.3,-0.73 0.64,-1.44 0.97,-2.16c0.41,-0.86 0.78,-1.74 1.13,-2.65c-0.34,-0.1 -0.63,-0.21 -0.93,-0.25c-1.07,-0.17 -1.8,-0.85 -2.43,-1.63c-0.25,-0.32 -0.58,-0.6 -0.78,-0.97c-0.29,-0.55 -0.63,-1.07 -0.8,-1.66c-0.12,-0.46 -0.03,-0.83 0.26,-1.23c0.6,-0.82 1.36,-1.34 2.38,-1.42c0.42,-0.03 0.72,-0.32 1.08,-0.48c0.51,-0.22 1.05,-0.36 1.6,-0.46c0.33,-0.06 0.66,-0.16 0.93,-0.35c0.38,-0.24 0.79,-0.36 1.21,-0.47c0.86,-0.22 1.74,-0.42 2.6,-0.67c0.37,-0.1 0.76,-0.18 1.07,-0.48c0.13,-0.12 0.38,-0.15 0.58,-0.2c1.86,-0.5 3.74,-0.86 5.64,-1.16c0.86,-0.14 1.74,-0.18 2.59,-0.3c1.81,-0.27 3.63,-0.2 5.44,-0.22c1,0 1.98,0.19 2.95,0.4c0.77,0.17 1.54,0.33 2.24,0.75c0.9,0.55 1.59,1.25 1.95,2.27c0.07,0.21 0.08,0.4 0.09,0.61c0,1.01 -0.11,2.01 -0.2,3.02c-0.05,0.55 -0.04,1.1 -0.17,1.64c-0.18,0.73 -0.55,1.34 -1.11,1.85c-0.6,0.55 -1.26,0.96 -1.96,1.38c-0.66,0.39 -1.25,0.95 -1.71,1.6c-0.07,0.11 -0.12,0.22 -0.24,0.27c-1.03,0.51 -1.9,1.3 -2.97,1.73c-0.43,0.17 -0.68,0.55 -0.99,0.85c-0.26,0.26 -0.54,0.47 -0.93,0.44c-0.2,-0.02 -0.39,0.06 -0.52,0.18c-0.36,0.31 -0.77,0.48 -1.21,0.6c-0.39,0.1 -0.59,0.44 -0.83,0.72c-0.17,0.12 -0.38,0.13 -0.58,0.18c0.14,0.26 0.38,0.24 0.6,0.29c0.77,0.37 1.54,0.74 2.31,1.12c1.28,0.64 2.47,1.41 3.42,2.49c0.96,1.08 1.7,2.3 2.01,3.73c0.13,0.62 0.17,1.27 0.29,1.9c0.01,0.06 0.01,0.12 0.15,0.12c0.19,-0.43 0.4,-0.87 0.58,-1.32c0.66,-1.67 1.56,-3.23 2.32,-4.85c0.6,-1.26 1.35,-2.43 2.04,-3.63c0.68,-1.21 1.45,-2.38 2.17,-3.58c0.72,-1.19 1.43,-2.39 2.14,-3.6c0.35,-0.59 0.67,-1.19 1.01,-1.8c0.02,-0.04 0.05,-0.07 0.06,-0.11c0.25,-0.76 0.65,-1.41 1.18,-2.02c0.49,-0.56 1.43,-0.9 2.07,-0.27c0.32,0.32 0.68,0.6 0.93,1c0.28,0.44 0.49,0.5 1.01,0.39c1.93,-0.39 3.85,-0.82 5.79,-1.15c1.41,-0.24 2.82,-0.48 4.24,-0.63c1.47,-0.17 2.94,-0.34 4.42,-0.35c0.36,0 0.7,0.1 1.01,0.27c0.31,0.17 0.36,0.32 0.16,0.64c-0.17,0.27 0.03,0.61 -0.26,0.87c-0.13,0.12 -0.14,0.4 -0.41,0.45c-0.07,0.01 -0.13,0.11 -0.13,0.19c0.02,0.5 -0.24,0.91 -0.39,1.36c-0.1,0.31 -0.28,0.57 -0.6,0.75c-0.64,0.35 -1.27,0.78 -2,0.83c-0.89,0.07 -1.73,0.42 -2.63,0.43c-0.68,0.01 -1.34,0.25 -2.02,0.36c-0.99,0.17 -1.97,0.42 -2.96,0.65c-1.15,0.29 -2.29,0.63 -3.41,1c-0.32,0.1 -0.64,0.19 -0.97,0.23c-0.41,0.06 -0.66,0.31 -0.88,0.63c-0.39,0.54 -0.58,1.19 -0.99,1.73c-0.23,0.32 -0.47,0.62 -0.76,0.91c-1.17,1.13 -2.04,2.47 -2.74,3.93c-0.05,0.1 -0.08,0.19 -0.15,0.35c0.7,-0.07 1.34,-0.15 1.99,-0.22c0.64,-0.07 1.3,-0.04 1.89,-0.34c-0.09,-0.26 -0.26,-0.24 -0.38,-0.3c-0.53,-0.28 -0.58,-0.94 -0.11,-1.28c0.2,-0.15 0.44,-0.27 0.67,-0.34c1.22,-0.35 2.45,-0.71 3.73,-0.88c0.98,-0.14 1.97,-0.29 2.95,-0.43c0.49,-0.08 1,-0.06 1.49,-0.13c0.39,-0.05 0.8,0.02 1.13,-0.28c0.11,-0.1 0.27,-0.08 0.42,-0.03c0.55,0.22 1.13,0.28 1.71,0.31c0.39,0.02 0.73,0.18 1.06,0.36c0.2,0.11 0.48,0.96 0.44,1.19c-0.04,0.17 -0.16,0.25 -0.32,0.25c-0.54,0 -1.08,-0.02 -1.61,0.02c-0.45,0.03 -0.9,0.12 -1.36,0.1c-0.13,0 -0.25,0.08 -0.27,0.22c-0.04,0.29 -0.24,0.32 -0.49,0.39c-0.92,0.23 -1.86,0.32 -2.81,0.44c-0.65,0.08 -0.96,0.15 -1.57,0.49c0.26,0.37 0.73,0.48 1.02,0.8c0.31,0.36 0.3,0.68 -0.07,0.96c-0.27,0.2 -0.55,0.39 -0.86,0.5c-1.71,0.58 -3.43,1.09 -5.22,1.36c-1.37,0.21 -2.65,0.71 -3.93,1.23c-0.55,0.23 -1.13,0.4 -1.71,0.55c-0.31,0.09 -0.52,0.23 -0.68,0.5c-0.44,0.69 -0.67,1.47 -0.99,2.22c-0.29,0.66 -0.48,1.37 -0.76,2.04c-0.13,0.3 0.07,0.51 0.09,0.76c0.82,0.14 1.56,-0.17 2.26,-0.44c2.29,-0.87 4.62,-1.65 6.95,-2.42c1.22,-0.41 2.44,-0.84 3.67,-1.22c0.83,-0.26 1.67,-0.54 2.53,-0.66c0.66,-0.1 1.3,-0.32 1.97,-0.28c0.23,0.01 0.39,-0.11 0.53,-0.27c0.31,-0.36 0.69,-0.46 1.16,-0.48c1.04,-0.06 2.05,-0.31 3.03,-0.69c0.07,-0.03 0.15,-0.09 0.22,-0.1c0.93,-0.05 1.32,-0.73 1.75,-1.41c0.73,-1.14 1.52,-2.23 2.27,-3.36c1.3,-1.97 2.7,-3.88 4.11,-5.78c1.24,-1.67 2.44,-3.35 3.66,-5.03c0.15,-0.21 0.31,-0.39 0.5,-0.57c0.61,-0.6 1.14,-1.26 1.5,-2.05c0.1,-0.23 0.31,-0.39 0.54,-0.5c0.27,-0.12 0.56,-0.23 0.78,-0.41c0.46,-0.37 0.97,-0.46 1.55,-0.54c0.61,-0.09 1.22,0.01 1.83,-0.06c0.47,-0.05 0.98,0.07 1.46,0.21c0.18,0.05 0.31,0.15 0.39,0.3c0.18,0.34 0.43,0.48 0.82,0.34c0.09,-0.04 0.2,-0.03 0.3,-0.03c0.93,-0.03 1.44,0.37 1.55,1.31c0.13,1.19 0.33,2.39 0.23,3.6c-0.13,1.65 -0.08,3.31 -0.12,4.95c-0.02,0.66 -0.13,1.32 -0.28,1.97c-0.09,0.42 -0.04,0.83 -0.07,1.24c-0.02,0.24 0.14,0.3 0.32,0.27c1.07,-0.18 2.16,-0.25 3.24,-0.24c0.27,0.01 0.41,-0.17 0.53,-0.38c0.45,-0.81 1.16,-1.46 1.48,-2.36c0.01,-0.06 0.07,-0.11 0.12,-0.15c0.8,-0.85 1.61,-1.7 2.42,-2.54c0.57,-0.59 1.12,-1.18 1.72,-1.72c0.82,-0.74 1.65,-1.47 2.61,-2.04c0.29,-0.17 0.48,-0.45 0.75,-0.67c0.83,-0.66 1.82,-1.12 2.64,-1.78c0.55,-0.43 1.14,-0.74 1.74,-1.07c0.6,-0.32 1.1,-0.82 1.73,-1.11c0.5,-0.24 0.99,-0.39 1.56,-0.37c0.96,0.03 1.93,-0.07 2.85,0.25c0.61,0.21 1.31,0.19 1.81,0.69c0.03,0.02 0.08,0.03 0.12,0.03c0.87,0.11 1.54,0.61 2.16,1.14c0.37,0.33 0.71,0.71 0.69,1.39c-0.04,1.35 -0.63,2.53 -0.93,3.79c-0.04,0.14 -0.08,0.25 -0.02,0.41c0.12,0.36 0.18,0.71 -0.22,1.01c-0.18,0.14 -0.13,0.48 -0.05,0.71c0.18,0.54 0.05,1.01 -0.27,1.44c-0.02,0.03 -0.06,0.06 -0.07,0.1c-0.43,1.03 -1.39,1.19 -2.31,1.39c-0.22,0.05 -0.46,-0.04 -0.67,0.1c-0.03,0.02 -0.09,0.03 -0.12,0.02c-0.74,-0.38 -1.72,-0.37 -2.13,-1.28c-0.13,-0.29 -0.15,-0.63 -0.2,-0.96c-0.05,-0.28 0.01,-0.55 -0.13,-0.85c-0.08,-0.18 0.09,-0.5 0.18,-0.74c0.17,-0.47 0.37,-0.93 0.56,-1.39c0.05,-0.11 0.15,-0.23 0.04,-0.34c-0.11,-0.1 -0.23,-0.01 -0.35,0.02c-1.36,0.33 -2.48,1.12 -3.64,1.85c-1.04,0.66 -1.97,1.45 -2.98,2.14c-0.9,0.6 -1.83,1.16 -2.69,1.8c-0.6,0.45 -1.23,0.87 -1.74,1.43c-0.11,0.12 -0.26,0.23 -0.16,0.43c0.07,0.15 0.22,0.16 0.37,0.18c0.96,0.2 1.9,-0.02 2.84,-0.09c0.74,-0.04 1.45,-0.14 2.17,-0.26c0.87,-0.14 1.77,0 2.62,-0.14c0.97,-0.17 1.91,0.03 2.86,0.05c1.15,0.02 2.19,0.49 3.17,1.07c0.27,0.17 0.53,0.45 0.65,0.74c0.32,0.84 0.88,1.51 1.33,2.26c0.21,0.36 0.31,0.72 0.13,1.11c-0.24,0.5 -0.27,1.05 -0.31,1.58c-0.07,1.09 -0.54,1.88 -1.38,2.59c-1.02,0.87 -2.18,1.43 -3.4,1.91c-0.54,0.22 -1.09,0.44 -1.59,0.71c-0.48,0.27 -0.97,0.56 -1.47,0.79c-0.74,0.34 -1.41,0.75 -2.07,1.21c-0.21,0.14 -0.34,0.53 -0.72,0.43c-0.32,-0.09 -0.52,0.23 -0.82,0.23c-0.25,0 -0.4,0.21 -0.6,0.33c-0.09,0.05 -0.18,0.13 -0.14,0.25c0.17,0.45 -0.19,0.51 -0.46,0.56c-0.24,0.04 -0.47,0.09 -0.75,0.05c-0.36,-0.05 -0.8,-0.13 -1.16,0.07c-0.18,0.1 -0.52,0.09 -0.44,0.47c0.01,0.07 -0.2,0.22 -0.32,0.26c-0.32,0.09 -0.62,0.23 -0.95,0.29c-0.35,0.07 -0.77,0.01 -0.97,0.43c-0.01,0.01 -0.04,0.02 -0.06,0.03c-0.8,0.13 -1.39,0.69 -2.09,1.02c-0.12,0.06 -0.19,0.15 -0.28,0.24c-0.37,0.38 -0.9,0.27 -1.35,0.4c-0.04,0.01 -0.1,-0.05 -0.14,-0.1c-0.25,-0.24 -0.52,-0.39 -0.89,-0.35c-0.36,0.04 -0.48,-0.26 -0.51,-0.52c-0.04,-0.25 -0.12,-0.33 -0.35,-0.31c-0.25,0.02 -0.43,-0.05 -0.56,-0.3c-0.08,-0.14 -0.24,-0.27 -0.41,-0.36c-0.46,-0.27 -0.69,-0.77 -0.85,-1.21c-0.17,-0.45 0.07,-1.01 0.51,-1.24c0.7,-0.36 1.23,-1 1.99,-1.26c0.93,-0.33 1.74,-0.89 2.64,-1.29c0.76,-0.34 1.42,-0.87 2.13,-1.31c1.51,-0.92 3.01,-1.87 4.55,-2.74c0.41,-0.23 0.72,-0.64 1.18,-0.82c1.05,-0.41 1.97,-1.08 2.95,-1.62c0.25,-0.14 0.61,-0.22 0.64,-0.62c-0.21,-0.08 -0.44,-0.13 -0.64,-0.23c-0.24,-0.12 -0.48,-0.1 -0.72,-0.02c-0.27,0.09 -0.53,0.22 -0.81,0.01c-0.08,-0.06 -0.16,-0.01 -0.24,0.02c-0.59,0.31 -1.25,0.25 -1.88,0.4c-0.44,0.11 -0.87,0.17 -1.34,0.14c-0.48,-0.04 -0.98,0.15 -1.47,0.25c-0.08,0.01 -0.17,0.07 -0.24,0.05c-0.58,-0.1 -1.14,0.05 -1.7,0.08c-0.66,0.04 -1.28,0.19 -1.89,0.36c-0.89,0.24 -1.63,0 -2.33,-0.48c-0.24,-0.17 -0.4,-0.47 -0.56,-0.74c-0.37,-0.66 -0.83,-1.27 -1,-2.03c-0.05,-0.21 -0.17,-0.27 -0.35,-0.28c-0.67,-0.02 -1.35,-0.07 -1.9,0.42c-0.26,0.22 -0.61,0.17 -0.89,0.41c-0.52,0.47 -0.56,1.05 -0.5,1.63c0.03,0.31 0.09,0.58 -0.16,0.8c-0.16,0.15 -0.14,0.34 -0.14,0.53c0,0.44 -0.04,0.89 0.02,1.32c0.09,0.73 -0.19,1.39 -0.27,2.09c-0.01,0.14 -0.13,0.21 -0.24,0.27c-0.2,-0.21 -0.26,-0.47 -0.24,-0.75c0.04,-0.45 -0.03,-0.91 -0.11,-1.36c-0.02,-0.1 -0.01,-0.25 -0.14,-0.22c-0.12,0.03 -0.35,0.02 -0.32,0.23c0.06,0.4 -0.09,0.8 -0.05,1.22c0.07,0.81 0.03,1.63 0.03,2.45c0,0.25 -0.32,0.44 -0.21,0.69c0.09,0.21 0.05,0.44 0.17,0.68c0.26,-0.13 0.26,-0.49 0.61,-0.51c0.02,0.41 0.27,0.78 0.08,1.23c-0.06,0.14 0.06,0.35 0.09,0.54c0.09,0.56 -0.15,1.06 -0.26,1.58c-0.07,0.3 -0.11,0.61 -0.11,0.92c0,0.26 -0.06,0.55 -0.29,0.65c-0.47,0.21 -0.27,0.84 -0.71,1.03c0.27,0.3 0.05,0.62 0.04,0.94c0,0.21 -0.07,0.13 -0.22,0.12c-0.13,-0.01 -0.31,0.11 -0.4,0.22c-0.28,0.33 -0.59,0.27 -0.91,0.13c-0.46,-0.19 -0.7,-0.55 -0.75,-1.05c-0.02,-0.23 -0.03,-0.46 -0.03,-0.69c-0.01,-0.32 0.12,-0.66 -0.14,-0.95c0.02,-0.92 -0.24,-1.81 -0.19,-2.72c0.04,-0.69 -0.16,-1.35 -0.14,-2.04c0.05,-1.91 0,-3.84 0.04,-5.76c0.01,-0.58 -0.27,-1.12 -0.15,-1.71c0.03,-0.17 -0.14,-0.17 -0.26,-0.17c-0.38,-0.01 -0.74,0.12 -1.1,0.19c-0.97,0.17 -1.89,0.48 -2.84,0.73c-0.16,0.05 -0.35,0.18 -0.48,-0.08c-0.06,-0.14 -0.19,-0.04 -0.27,0.01c-0.81,0.47 -1.78,0.52 -2.64,0.89c-0.31,0.13 -0.68,0.12 -0.96,0.37c-0.04,0.04 -0.11,0.1 -0.16,0.02c-0.1,-0.21 -0.22,-0.19 -0.4,-0.1c-0.21,0.11 -0.4,0.2 -0.51,0.44c-0.34,0.74 -0.91,1.37 -1.22,2.14c-0.19,0.5 -0.48,0.96 -0.94,1.3c-0.14,0.1 -0.23,0.31 -0.28,0.48c-0.08,0.37 -0.25,0.66 -0.57,0.88c-0.21,0.15 -0.33,0.34 -0.36,0.65c-0.05,0.58 -0.49,0.99 -0.85,1.42c-0.21,0.26 -0.46,0.44 -0.46,0.85c0.01,0.36 -0.37,0.58 -0.56,0.88c-0.26,0.41 -0.5,0.87 -0.97,1.11c-0.2,0.1 -0.27,0.32 -0.35,0.51c-0.12,0.26 -0.33,0.39 -0.6,0.32c-0.25,-0.06 -0.39,0.07 -0.54,0.22c-0.24,0.26 -0.5,0.5 -0.91,0.46c-0.05,0 -0.15,0.01 -0.17,0.05c-0.24,0.49 -0.61,0.23 -0.96,0.21c-0.69,-0.06 -1.39,-0.02 -2.08,-0.03c-0.36,0 -0.71,0.01 -1.07,-0.01c-0.38,-0.02 -0.5,-0.22 -0.47,-0.6c0.1,-1.15 0.51,-2.22 0.97,-3.25c0.29,-0.65 0.69,-1.24 1.03,-1.85c0.44,-0.79 0.89,-1.55 1.29,-2.35c0.23,-0.46 0.55,-0.87 0.84,-1.38c-0.57,-0.15 -1.04,0.14 -1.52,0.08c-0.52,-0.06 -0.83,0.42 -1.23,0.67c0.03,0.09 0.05,0.2 0.08,0.31c0.04,0.15 0.25,0.31 0.13,0.44c-0.13,0.14 -0.35,0.26 -0.54,0.27c-0.93,0.1 -1.74,0.56 -2.62,0.78c-0.33,0.09 -0.37,0.5 -0.72,0.52c-0.29,0.02 -0.59,-0.05 -0.88,0.05c-0.13,0.04 -0.26,0.1 -0.43,0.16c0.13,0.28 0.44,0.04 0.61,0.27c-0.57,0.31 -1.1,0.62 -1.74,0.72c-0.65,0.1 -1.24,0.43 -1.88,0.58c-0.54,0.61 -1.3,0.61 -2.02,0.78c-0.35,0.08 -0.66,0.32 -0.98,0.49c-0.82,0.41 -1.71,0.65 -2.51,1.12c-0.77,0.45 -1.6,0.8 -2.46,1.03c-0.92,0.24 -1.76,0.64 -2.62,1.03c-0.94,0.43 -1.95,0.56 -2.93,0.25c-0.96,-0.31 -1.9,-0.66 -2.86,-0.95c-0.28,-0.08 -0.53,-0.27 -0.72,-0.49c-0.32,-0.4 -0.49,-0.89 -0.86,-1.27c-0.26,-0.26 -0.04,-0.63 0.03,-0.97c-0.49,0.09 -0.74,0.45 -1.06,0.71c-1.54,1.24 -3.21,2.24 -5.03,3c-0.55,0.24 -1.08,0.53 -1.69,0.61c-0.11,0.01 -0.24,0.09 -0.33,0.18c-0.4,0.35 -0.92,0.44 -1.4,0.62c-0.1,0.04 -0.23,0.03 -0.3,0.09c-0.44,0.47 -1.03,0.51 -1.6,0.65c-0.46,0.11 -0.9,0.35 -1.25,0.67c-0.22,0.22 -0.48,0.36 -0.77,0.37c-0.56,0.03 -1.09,0.14 -1.57,0.46c-0.04,0.03 -0.12,0.02 -0.18,0.02c-0.35,0 -0.72,0.15 -1.02,0.13c-0.42,-0.04 -0.7,0.18 -1.05,0.25c-0.34,0.08 -0.67,0.22 -1,0.34c-0.18,0.06 -0.36,0.13 -0.53,0.2c-0.1,0.03 -0.19,0.08 -0.3,0.05c-0.09,-0.02 -0.17,-0.06 -0.19,-0.14c-0.03,-0.09 0.03,-0.16 0.12,-0.19c0.17,-0.07 0.34,-0.15 0.52,-0.21c0.4,-0.13 0.74,-0.36 1.07,-0.61c0.41,-0.14 0.82,-0.28 1.23,-0.41c0.13,-0.04 0.14,-0.13 0.12,-0.24c-0.04,-0.14 -0.13,-0.12 -0.24,-0.08c-0.38,0.16 -0.77,0.3 -1.15,0.45c-0.77,0.07 -1.48,0.46 -2.3,0.33c-0.41,-0.07 -0.81,0.27 -1.22,0.43c-0.81,0.32 -1.62,0.62 -2.49,0.71c-0.01,-0.06 -0.04,-0.17 -0.03,-0.17c0.26,-0.1 0.43,-0.33 0.74,-0.37c0.3,-0.04 0.66,-0.11 0.83,-0.46c0,0 0.03,0.01 0.03,0.01c0.04,0.08 0.03,-0.09 0.07,-0.13c-0.73,0.35 -1.33,0.62 -1.93,0.89zm18.94,-26.91c-0.35,-0.01 -0.56,0.2 -0.82,0.46c0.42,0.06 0.6,-0.24 0.85,-0.39c0.22,-0.06 0.45,-0.11 0.57,-0.45c-0.29,0.09 -0.48,0.19 -0.6,0.38zm0.87,-0.49c0.52,-0.17 0.88,-0.62 1.41,-0.77c-0.64,0.01 -1,0.19 -1.47,0.73c-0.05,0.02 -0.11,0.05 -0.06,0.1c0.05,0.05 0.1,0 0.12,-0.06zm-10.79,0.06c0.26,0.13 0.44,-0.06 0.64,-0.15c1.53,-0.68 2.92,-1.62 4.4,-2.4c1.64,-0.86 3.25,-1.79 4.87,-2.7c0.91,-0.51 1.85,-0.97 2.7,-1.56c0.94,-0.65 1.8,-1.41 2.67,-2.15c0.25,-0.21 0.62,-0.29 0.69,-0.65c-0.08,-0.15 -0.21,-0.17 -0.33,-0.16c-0.74,0.04 -1.47,-0.12 -2.23,-0.04c-1.21,0.13 -2.42,0.27 -3.62,0.49c-0.3,0.06 -0.56,0.31 -0.81,0.24c-0.3,-0.08 -0.52,0.03 -0.77,0.1c-0.23,0.07 -0.47,0.19 -0.7,0.2c-1.52,0.07 -2.81,0.82 -4.17,1.36c-0.16,0.07 -0.38,0.28 -0.22,0.44c0.35,0.39 0.14,0.74 0,1.11c-0.21,0.56 -0.31,1.2 -0.65,1.66c-0.99,1.33 -1.76,2.77 -2.48,4.25c0.03,-0.03 0.04,0 0.02,0c-0.07,0 0.04,0.03 -0.01,-0.04zm-12.94,21.93c0.86,-0.32 1.71,-0.67 2.58,-0.95c1.83,-0.58 3.66,-1.11 5.49,-1.69c2,-0.64 3.99,-1.3 5.99,-1.94c2.43,-0.77 4.8,-1.71 7.06,-2.86c0.69,-0.35 1.35,-0.75 2.04,-1.09c0.51,-0.25 0.98,-0.62 1.21,-1.2c0.06,-0.17 0.14,-0.34 0.31,-0.46c0.16,-0.12 0.31,-0.34 0.22,-0.55c-0.15,-0.32 -0.3,-0.66 -0.64,-0.82c-0.42,-0.2 -0.77,-0.5 -1.13,-0.77c-0.21,-0.15 -0.42,-0.24 -0.67,-0.31c-0.62,-0.16 -1.23,-0.36 -1.83,-0.58c-0.46,-0.17 -0.87,-0.5 -1.41,-0.27c-0.04,0.02 -0.14,0 -0.18,-0.03c-0.45,-0.41 -1.06,-0.34 -1.59,-0.4c-0.91,-0.09 -1.8,-0.33 -2.7,-0.42c-0.26,-0.02 -0.51,-0.12 -0.77,-0.01c-0.41,-0.36 -0.93,-0.23 -1.41,-0.33c-0.67,-0.13 -1.36,-0.08 -2.04,-0.2c-0.42,-0.08 -0.57,0 -0.71,0.42c-0.12,0.38 -0.32,0.72 -0.51,1.07c-0.2,0.36 -0.44,0.72 -0.57,1.11c-0.33,1.02 -0.73,1.99 -1.29,2.9c-0.31,0.48 -0.6,0.96 -1.17,1.17c-0.28,0.1 -0.47,0.34 -0.65,0.56c-0.07,0.08 -0.09,0.22 -0.19,0.24c-0.51,0.08 -0.51,0.55 -0.69,0.87c-0.1,0.18 -0.14,0.39 -0.2,0.59c-0.11,0.36 -0.26,0.67 -0.72,0.61c-0.14,-0.02 -0.22,0.11 -0.19,0.19c0.11,0.33 -0.05,0.47 -0.3,0.65c-0.29,0.2 -0.29,0.69 -0.74,0.78c0.12,0.34 -0.22,0.52 -0.28,0.81c-0.09,0.41 -0.29,0.78 -0.42,1.18c-0.14,0.42 -0.5,0.57 -0.86,0.66c-0.38,0.1 -0.4,0.05 -0.5,0.22c-0.16,0.25 -0.39,0.43 -0.6,0.63c-0.16,0.11 -0.41,0.14 -0.49,0.45c0.23,-0.02 0.39,-0.12 0.55,-0.23zm75.67,-23.42c-0.27,0.05 -0.37,0.2 -0.47,0.36c-0.74,1.09 -1.66,2.05 -2.36,3.19c-0.37,0.58 -0.95,1.03 -1.19,1.71c-0.03,0.08 -0.1,0.14 -0.17,0.19c-0.95,0.72 -1.35,1.85 -2.13,2.81c1.93,-0.47 3.81,-0.78 5.6,-1.45c0.49,-0.18 0.52,-0.17 0.49,-0.68c-0.08,-1.39 0.25,-2.77 0.11,-4.17c-0.01,-0.09 0.02,-0.16 0.04,-0.24c0.19,-0.55 0.05,-1.11 0.08,-1.72zm-74.34,21.27c0.15,-0.05 0.2,-0.18 0.2,-0.33c0,-0.06 -0.04,-0.12 -0.11,-0.11c-0.17,0.04 -0.19,0.19 -0.22,0.33c-0.01,0.06 0.05,0.1 0.13,0.11zm76.97,-8.33c-0.13,0.24 -0.16,0.5 0,0.76c0,-0.25 0,-0.51 0,-0.76zm-65.22,13.91c-0.02,-0.04 -0.03,-0.09 -0.06,-0.1c-0.06,-0.02 -0.12,0.01 -0.13,0.08c0,0.03 0.03,0.09 0.06,0.1c0.06,0.02 0.11,-0.02 0.13,-0.08zm-0.49,-0.73c-0.07,0.01 -0.1,0.06 -0.08,0.12c0.01,0.03 0.06,0.06 0.1,0.05c0.06,0 0.1,-0.05 0.08,-0.12c-0.01,-0.02 -0.07,-0.04 -0.1,-0.05zm0.38,-0.12c-0.07,0.01 -0.1,0.06 -0.08,0.12c0,0.03 0.06,0.06 0.09,0.05c0.07,0 0.11,-0.05 0.08,-0.12c0,-0.03 -0.06,-0.04 -0.09,-0.05zm46.56,-4.6c0.03,-0.02 0.08,-0.02 0.1,-0.05c0.03,-0.06 0,-0.11 -0.05,-0.13c-0.03,-0.01 -0.09,0.01 -0.1,0.04c-0.04,0.05 -0.02,0.1 0.05,0.14zm1.28,-2.84c-0.06,0.03 -0.09,0.08 -0.06,0.14c0.02,0.02 0.07,0.05 0.1,0.04c0.07,-0.02 0.09,-0.08 0.06,-0.13c-0.01,-0.03 -0.07,-0.03 -0.1,-0.05zm-7.31,-2.4c-0.01,-0.04 -0.02,-0.09 -0.04,-0.11c-0.06,-0.03 -0.12,0 -0.14,0.06c-0.01,0.03 0.01,0.09 0.04,0.1c0.06,0.04 0.11,0.01 0.14,-0.05zm7.79,1.82c0.04,-0.04 0.08,-0.08 0.12,-0.13c-0.03,-0.02 -0.06,-0.05 -0.08,-0.05c-0.07,0 -0.12,0.05 -0.11,0.11c-0.01,0.02 0.04,0.04 0.07,0.07z" fill="#ffffff" id="svg_1"/>
  <path d="m37.64,40.11c-0.39,0.49 -0.5,1.15 -0.88,1.67c-0.32,-0.1 -0.44,-0.44 -0.73,-0.58c-0.15,0.17 -0.17,0.39 -0.22,0.6c-0.09,0.42 -0.23,0.53 -0.66,0.5c-0.59,-0.04 -1.19,-0.13 -1.78,-0.2c-0.55,-0.06 -0.91,-0.35 -1.15,-0.85c-0.16,-0.34 -0.19,-0.33 -0.61,-0.24c0.04,-0.75 0.04,-1.49 0.07,-2.22c0.05,-1.22 0.42,-2.36 0.55,-3.56c0.1,-0.87 0.44,-1.71 0.7,-2.56c0.62,-2.09 1.31,-4.15 2.03,-6.2c0.55,-1.55 1.05,-3.13 1.67,-4.66c0.64,-1.6 1.29,-3.2 1.9,-4.81c0.17,-0.43 0.44,-0.83 0.48,-1.31c-0.24,-0.04 -0.33,0.14 -0.43,0.25c-0.73,0.77 -1.47,1.52 -2.12,2.36c-0.79,1.02 -1.59,2.03 -2.34,3.08c-0.58,0.81 -1.18,1.61 -1.7,2.47c-0.37,0.61 -0.8,1.22 -1.33,1.72c-0.27,0.25 -0.49,0.53 -0.64,0.9c-0.18,0.46 -0.58,0.82 -0.93,1.16c-1.49,1.42 -2.7,3.06 -3.9,4.71c-0.22,0.29 -0.45,0.54 -0.76,0.74c-0.54,0.36 -1.07,0.72 -1.6,1.09c-0.13,0.09 -0.27,0.09 -0.42,0.1c-0.81,0.09 -1.61,0.21 -2.39,0.48c-0.55,0.19 -1.09,0.16 -1.65,0.02c-0.62,-0.15 -1.03,-0.55 -1.16,-1.11c-0.15,-0.63 -0.55,-1.15 -0.64,-1.79c-0.02,-0.12 -0.05,-0.23 -0.05,-0.36c0.01,-1.11 0.01,-2.22 0.01,-3.33c0,-0.62 0.16,-1.22 0.19,-1.83c0.05,-0.76 0.32,-1.48 0.28,-2.26c-0.02,-0.36 0.09,-0.77 0.15,-1.15c0.16,-1.03 0.24,-2.05 0.36,-3.08c0.04,-0.35 0.16,-0.69 0.24,-1.03c0.23,-1.06 0.06,-2.12 0.02,-3.22c-0.18,0.23 -0.37,0.46 -0.54,0.7c-0.78,1.09 -1.43,2.26 -2.07,3.42c-0.83,1.47 -1.58,2.98 -2.35,4.49c-0.87,1.68 -1.68,3.39 -2.27,5.2c-0.2,0.59 -0.53,1.12 -0.83,1.68c-0.26,0.49 -0.36,1 -0.38,1.56c-0.03,0.74 -0.17,1.46 -0.37,2.19c-0.2,0.78 -0.64,1.48 -0.73,2.3c-0.04,0.34 -0.28,0.69 -0.53,0.98c-0.46,0.55 -0.76,1.17 -0.9,1.89c-0.12,0.65 -0.28,1.32 -0.84,1.77c-0.19,0.16 -0.39,0.32 -0.69,0.25c-0.01,-0.24 -0.03,-0.47 -0.05,-0.7c-0.22,-0.03 -0.32,0.07 -0.36,0.26c-0.05,0.25 -0.22,0.45 -0.47,0.45c-0.92,-0.01 -1.81,0.36 -2.75,0.26c-0.12,-0.01 -0.24,-0.02 -0.36,-0.07c-0.71,-0.22 -0.74,-0.27 -0.76,-1c-0.01,-0.85 -0.01,-1.7 0.26,-2.53c0.05,-0.13 0.03,-0.29 0.02,-0.43c-0.03,-0.88 0.17,-1.7 0.56,-2.48c0.07,-0.15 0.06,-0.29 0.05,-0.43c-0.02,-0.64 0.06,-1.23 0.33,-1.82c0.22,-0.49 0.32,-1.03 0.41,-1.57c0.15,-0.84 0.42,-1.65 0.72,-2.45c0.99,-2.61 1.77,-5.27 2.73,-7.89c0.68,-1.89 1.36,-3.78 2.06,-5.65c0.73,-1.95 1.5,-3.87 2.36,-5.77c0.83,-1.84 1.68,-3.69 2.71,-5.44c0.3,-0.49 0.61,-1 0.98,-1.44c0.24,-0.28 0.65,-0.39 0.89,-0.67c0.36,-0.39 0.81,-0.57 1.29,-0.73c0.64,-0.22 0.9,-0.12 1.32,0.44c0.21,0.29 0.55,0.3 0.84,0.31c1.28,0.01 2.54,0.2 3.83,0.13c0.58,-0.03 1.09,0.15 1.57,0.48c0.39,0.27 0.88,0.38 1.34,0.47c0.52,0.11 0.91,0.36 1.29,0.72c0.56,0.54 1.02,1.15 1.46,1.79c0.16,0.25 0.23,0.5 0.25,0.75c0.09,0.75 0.04,1.52 -0.2,2.25c-0.17,0.56 -0.18,1.16 -0.39,1.68c-0.3,0.75 -0.36,1.53 -0.57,2.28c-0.08,0.26 -0.19,0.51 -0.28,0.76c-0.35,1.07 -0.48,2.17 -0.66,3.27c-0.29,1.79 -0.7,3.57 -1.16,5.32c-0.08,0.32 -0.03,0.6 -0.03,0.92c0.47,-0.44 0.86,-0.92 1.19,-1.43c0.66,-1.02 1.34,-2.02 2.08,-2.97c0.43,-0.56 0.67,-1.24 1.13,-1.78c0.29,-0.36 0.57,-0.72 0.9,-1.04c0.29,-0.3 0.54,-0.63 0.74,-1c0.31,-0.6 0.75,-1.09 1.2,-1.58c0.48,-0.51 0.99,-1.02 1.4,-1.59c0.04,-0.06 0.07,-0.11 0.12,-0.15c0.87,-0.74 1.48,-1.69 2.25,-2.52c0.33,-0.36 0.72,-0.69 0.89,-1.19c0.05,-0.16 0.24,-0.27 0.38,-0.41c0.4,-0.39 0.73,-0.84 1.04,-1.3c0.27,-0.38 0.64,-0.7 0.98,-1.02c0.51,-0.51 1.07,-0.95 1.47,-1.56c0.21,-0.32 0.51,-0.53 0.8,-0.76c0.59,-0.47 1.16,-0.96 1.69,-1.49c0.27,-0.27 0.61,-0.35 0.95,-0.44c0.64,-0.15 1.3,-0.25 1.78,-0.79c0.15,-0.17 0.45,-0.28 0.68,-0.28c0.79,-0.03 1.59,-0.12 2.37,0.1c0.07,0.03 0.17,0.05 0.22,0.11c0.58,0.62 1.36,0.95 2.04,1.44c0.7,0.5 1.31,1.09 1.79,1.81c0.44,0.65 0.4,1.41 0.27,2.12c-0.21,1.03 -0.53,2.05 -1.15,2.94c-0.03,0.04 -0.02,0.12 -0.04,0.19c0.42,0.09 0.78,-0.1 1.15,-0.17c1.05,-0.18 2.04,-0.54 3.07,-0.8c1.04,-0.26 2.11,-0.43 3.17,-0.56c0.43,-0.06 0.86,-0.15 1.28,-0.25c0.75,-0.18 1.51,-0.26 2.26,-0.36c1.64,-0.22 3.29,-0.19 4.94,-0.25c0.77,-0.04 1.54,-0.12 2.31,-0.09c1.98,0.1 3.93,0.32 5.78,1.07c0.94,0.39 1.65,1.06 2.26,1.84c0.17,0.21 0.22,0.43 0.22,0.69c-0.02,0.44 0.26,0.89 -0.1,1.31c-0.02,0.03 0.05,0.15 0.08,0.23c0.18,0.55 0.12,1.11 0.13,1.67c0.01,0.31 -0.06,0.6 -0.26,0.82c-0.34,0.35 -0.59,0.75 -0.87,1.14c-0.1,0.14 -0.17,0.27 -0.4,0.2c-0.25,-0.09 -0.48,0.11 -0.72,0.15c-0.09,0.02 -0.13,0.08 -0.15,0.17c-0.2,0.7 -0.77,1.1 -1.29,1.48c-1.04,0.75 -2.21,1.26 -3.46,1.61c-0.52,0.14 -0.97,0.55 -1.49,0.73c-0.71,0.26 -1.24,0.84 -1.97,1c-0.42,0.1 -0.79,0.26 -1.13,0.51c-0.11,0.07 -0.18,0.12 -0.21,0.28c-0.07,0.38 -0.28,0.73 -0.66,0.84c-0.25,0.07 -0.27,0.19 -0.23,0.34c0.16,0.63 0.08,1.28 0.27,1.91c0.19,0.63 0.23,1.3 0.33,1.95c0.11,0.7 0.22,1.39 0.32,2.09c0.09,0.68 0.18,1.36 0.26,2.04c0.11,0.79 0.26,1.59 0.32,2.4c0.04,0.5 0.09,0.98 0.26,1.45c0.07,0.2 -0.04,0.4 -0.18,0.51c-0.42,0.31 -0.51,0.73 -0.51,1.2c0,0.31 -0.06,0.53 -0.4,0.69c-0.29,0.13 -0.3,0.5 -0.31,0.82c-0.02,0.59 -0.21,0.77 -0.81,0.69c-0.51,-0.08 -1,-0.22 -1.51,-0.32c-0.27,-0.05 -0.44,-0.19 -0.59,-0.42c-0.3,-0.45 -0.5,-0.97 -0.85,-1.38c-0.19,-0.21 -0.09,-0.48 -0.18,-0.72c-0.38,-0.93 -0.5,-1.92 -0.62,-2.91c-0.22,-1.69 -0.63,-3.34 -1.01,-5c-0.11,-0.46 -0.23,-0.93 -0.2,-1.41c0.01,-0.24 -0.07,-0.45 -0.14,-0.66c-0.2,-0.6 -0.42,-1.18 -0.62,-1.76c-0.08,-0.25 -0.21,-0.33 -0.46,-0.21c-0.48,0.23 -1.02,0.1 -1.53,0.21c-0.2,0.04 -0.32,0.09 -0.22,0.3c0.1,0.22 -0.03,0.3 -0.17,0.4c-0.51,0.31 -1.02,0.63 -1.36,1.14c-0.1,0.16 -0.24,0.3 -0.3,0.48c-0.34,0.91 -0.85,1.76 -1.22,2.67c-0.35,0.89 -0.87,1.7 -1.18,2.61c-0.1,0.27 -0.25,0.52 -0.34,0.8c-0.05,0.17 -0.11,0.26 -0.29,0.33c-0.35,0.14 -0.28,0.55 -0.32,0.82c-0.05,0.39 -0.13,0.73 -0.34,1.05c-0.03,0.05 -0.04,0.16 -0.08,0.17c-0.7,0.23 -0.67,0.86 -0.79,1.41c-0.02,0.09 -0.03,0.19 -0.13,0.19c-0.53,0 -0.59,0.44 -0.72,0.78c-0.15,0.41 -0.59,0.58 -0.69,1.15c-0.16,-0.35 -0.34,-0.37 -0.59,-0.33c-0.37,0.05 -0.78,-0.08 -1.07,0.27c-0.09,0.1 -0.24,0.13 -0.36,0.08c-0.55,-0.2 -1.12,-0.1 -1.68,-0.09c-0.48,0.01 -0.7,-0.2 -0.78,-0.81c-0.13,-1.01 0.25,-1.9 0.57,-2.82c0.71,-2.06 1.34,-4.14 1.98,-6.22c0.24,-0.77 0.57,-1.52 0.87,-2.27c0.1,-0.25 0.31,-0.46 0.05,-0.78c-0.14,-0.18 0.08,-0.6 0.34,-0.7c0.45,-0.17 0.65,-0.5 0.84,-0.93c0.84,-1.96 1.87,-3.83 2.88,-5.71c0.43,-0.8 0.86,-1.62 1.2,-2.47c0.22,-0.54 0.52,-1.05 0.79,-1.6c-0.32,-0.16 -0.54,0 -0.76,0.14c-0.27,0.18 -0.54,0.39 -0.85,0.52c-0.5,0.21 -0.84,0.19 -1.17,-0.21c-0.31,-0.35 -0.74,-0.52 -1.04,-0.87c-0.16,-0.18 -0.44,-0.22 -0.69,-0.24c-0.27,-0.04 -0.43,0.07 -0.53,0.32c-0.29,0.71 -0.65,1.38 -1.11,2c-0.28,0.37 -0.47,0.82 -0.61,1.29c-0.13,0.46 -0.33,0.9 -0.54,1.33c-0.41,0.85 -0.81,1.7 -1.33,2.49c-0.07,0.11 -0.13,0.2 -0.17,0.33c-0.23,0.78 -0.59,1.51 -0.96,2.24c-0.49,0.92 -0.83,1.88 -1.16,2.87c-0.22,0.67 -0.49,1.32 -0.79,1.97c-0.21,0.42 -0.29,0.86 -0.38,1.31c-0.04,0.22 -0.05,0.51 -0.24,0.62c-0.42,0.28 -0.45,0.78 -0.75,1.13c-0.16,0.19 -0.3,0.5 -0.2,0.86c0.13,0.45 -0.16,0.89 -0.3,1.31c-0.11,0.35 -0.2,0.66 -0.14,1.03c0.1,0.59 -0.16,1.14 -0.25,1.72c0,0.03 -0.02,0.08 -0.05,0.1c-0.54,0.38 -0.45,0.97 -0.53,1.5c-0.11,0.8 -0.24,1.59 -0.35,2.39c-0.04,0.29 0,0.59 -0.01,0.88c-0.01,0.24 -0.03,0.47 -0.34,0.21c-0.06,-0.05 -0.13,-0.05 -0.16,0c-0.28,0.47 -0.31,-0.05 -0.43,-0.12c-0.06,-0.04 -0.03,-0.2 -0.05,-0.3c0,-0.11 -0.01,-0.21 -0.15,-0.23c-0.12,-0.01 -0.21,0.04 -0.27,0.14c-0.06,0.1 -0.11,0.22 -0.17,0.33c-0.04,0.08 -0.12,0.12 -0.21,0.11c-0.13,-0.02 -0.13,-0.13 -0.15,-0.24c0.02,-0.15 0.16,-0.28 -0.06,-0.43zm21.69,-20.72c0.78,-0.2 1.36,-0.58 2,-0.84c2.06,-0.86 4.14,-1.65 6.16,-2.58c0.47,-0.22 0.97,-0.38 1.44,-0.6c1.2,-0.56 2.3,-1.28 3.39,-2.01c0.44,-0.3 0.87,-0.64 1.28,-0.99c0.41,-0.36 0.34,-0.72 -0.17,-0.89c-0.05,-0.02 -0.12,-0.02 -0.18,-0.03c-0.61,-0.13 -1.22,-0.22 -1.84,-0.25c-0.61,-0.04 -1.21,0.16 -1.81,0.12c-0.61,-0.04 -1.2,0.12 -1.8,0.15c-0.83,0.05 -1.64,0.2 -2.46,0.35c-0.85,0.15 -1.69,0.39 -2.55,0.51c-0.27,0.04 -0.42,0.18 -0.36,0.53c0.09,0.54 -0.01,1.05 -0.35,1.54c-0.27,0.41 -0.61,0.84 -0.74,1.3c-0.25,0.81 -0.77,1.41 -1.26,2.05c-0.35,0.47 -0.54,1.01 -0.75,1.64zm-20.36,20.71c0.12,0.01 0.2,-0.06 0.21,-0.14c0.01,-0.52 0.01,-1.04 0.01,-1.57c0,-0.12 -0.08,-0.19 -0.2,-0.18c-0.15,0.01 -0.21,0.11 -0.21,0.25c0.01,0.56 -0.06,1.12 0.19,1.64zm1.26,-7.08c0.09,-0.03 0.14,-0.1 0.12,-0.19c-0.03,-0.07 -0.08,-0.19 -0.12,-0.19c-0.14,0 -0.1,0.13 -0.1,0.22c-0.01,0.07 0,0.15 0.1,0.16zm-1.21,-17.46c0.02,0.02 0.04,0.04 0.05,0.05c0.01,-0.03 0.03,-0.06 0.04,-0.08c0,-0.02 -0.03,-0.03 -0.04,-0.05c-0.02,0.03 -0.03,0.06 -0.05,0.08z" fill="#ffffff" id="svg_2"/>
  <path d="m201.5,9.54c1.1,0.21 2.26,-0.24 3.45,-0.42c1.17,-0.18 2.29,-0.55 3.49,-0.57c0.74,-0.01 1.47,-0.19 2.21,-0.3c0.08,-0.01 0.16,-0.04 0.24,-0.04c0.77,0.08 1.47,-0.27 2.21,-0.32c0.68,-0.05 1.36,-0.16 2.03,-0.28c0.94,-0.16 1.89,-0.23 2.84,-0.32c0.78,-0.07 1.57,-0.18 2.36,-0.16c0.89,0.03 1.77,0.01 2.65,0.01c0.26,0 0.49,0.03 0.71,0.19c0.43,0.3 0.43,0.3 0.09,0.69c-0.19,0.21 -0.16,0.5 0.09,0.67c0.1,0.06 0.22,0.16 0.15,0.22c-0.26,0.19 -0.29,0.33 0,0.52c0.05,0.04 0.04,0.26 -0.05,0.27c-0.34,0.05 -0.27,0.5 -0.61,0.56c-0.22,0.04 -0.27,0.35 -0.24,0.46c0.08,0.29 0,0.48 -0.17,0.68c-0.18,0.21 -0.38,0.41 -0.66,0.44c-0.84,0.07 -1.67,0.27 -2.5,0.38c-0.68,0.09 -1.4,0.12 -2.02,0.53c-0.26,0.17 -0.58,0.23 -0.89,0.27c-0.82,0.11 -0.97,0.25 -1,1.04c-0.01,0.39 -0.15,0.7 -0.42,1.01c-0.32,0.37 -0.54,0.83 -0.93,1.15c-0.05,0.04 -0.08,0.11 -0.09,0.17c-0.11,1.06 -0.79,1.86 -1.22,2.77c-0.06,0.14 -0.17,0.24 -0.31,0.31c-0.12,0.07 -0.19,0.17 -0.23,0.28c-0.55,1.21 -1.16,2.38 -1.64,3.62c-0.63,1.63 -1.32,3.23 -1.95,4.86c-0.32,0.85 -0.58,1.73 -0.97,2.56c-0.4,0.86 -0.76,1.75 -1.13,2.64c-0.11,0.27 -0.19,0.54 -0.29,0.82c-0.1,0.29 -0.16,0.59 -0.54,0.69c-0.19,0.05 -0.28,0.29 -0.36,0.49c-0.26,0.68 -0.5,1.36 -0.75,2.04c-0.11,0.3 -0.29,0.56 -0.43,0.84c-0.27,0.55 -1.06,0.82 -1.72,0.66c-0.79,-0.2 -1.54,0.06 -2.09,0.67c-0.28,0.31 -0.55,0.62 -1.04,0.51c-0.21,-0.05 -0.36,-0.12 -0.35,-0.36c0.01,-0.33 -0.03,-0.67 0.06,-1c0.2,-0.78 0.36,-1.56 0.58,-2.33c0.35,-1.27 0.71,-2.54 1.12,-3.79c0.46,-1.42 0.83,-2.86 1.32,-4.27c0.64,-1.83 1.38,-3.63 2.07,-5.43c0.67,-1.77 1.46,-3.48 2.15,-5.23c0.3,-0.77 0.61,-1.56 1.01,-2.29c0.07,-0.13 0.14,-0.26 0.18,-0.4c0.04,-0.17 -0.11,-0.27 -0.21,-0.19c-0.32,0.26 -0.68,0.11 -1.01,0.09c-0.84,-0.06 -1.49,0.29 -2.06,0.86c-0.06,0.06 -0.13,0.19 -0.15,0.18c-0.55,-0.21 -0.94,0.42 -1.5,0.28c-0.21,-0.06 -0.45,-0.04 -0.64,-0.19c-0.03,-0.03 -0.06,-0.06 -0.1,-0.07c-1.13,-0.18 -1.4,-1.21 -1.95,-1.98c-0.11,-0.15 -0.21,-0.3 -0.35,-0.43c-0.14,-0.12 -0.29,-0.22 -0.32,-0.43c-0.04,-0.17 -0.18,-0.28 -0.34,-0.34c-0.36,-0.12 -0.45,-0.44 -0.44,-0.75c0,-0.35 0.03,-0.74 0.26,-1.01c0.38,-0.47 0.81,-0.88 1.24,-1.31c0.28,-0.28 0.66,-0.23 1.16,-0.22z" fill="#ffffff" id="svg_3"/>
  <path d="m92.25,43.29c0.6,-0.27 1.2,-0.54 1.92,-0.86c-0.04,0.04 -0.03,0.2 -0.07,0.13c-0.01,-0.01 -0.04,-0.02 -0.04,-0.01c-0.16,0.35 -0.53,0.4 -0.83,0.45c-0.31,0.05 -0.48,0.28 -0.73,0.38c-0.01,0 0.01,0.11 0.03,0.17c-0.24,0.07 -0.25,-0.1 -0.28,-0.26z" fill="#ffffff" id="svg_4"/>
  <path d="m89.66,35.73c-0.08,0 -0.14,-0.04 -0.13,-0.11c0.03,-0.14 0.05,-0.29 0.22,-0.33c0.08,-0.01 0.11,0.05 0.11,0.11c0,0.15 -0.05,0.28 -0.2,0.33z" fill="#ffffff" id="svg_5"/>
  <path d="m101.41,41.31c-0.02,0.06 -0.07,0.1 -0.13,0.08c-0.03,-0.01 -0.06,-0.07 -0.06,-0.1c0.01,-0.07 0.07,-0.1 0.13,-0.08c0.03,0.01 0.04,0.06 0.06,0.1z" fill="#ffffff" id="svg_6"/>
  <path d="m100.92,40.58c0.03,0.01 0.08,0.03 0.1,0.05c0.02,0.07 -0.02,0.12 -0.08,0.12c-0.04,0 -0.09,-0.02 -0.1,-0.05c-0.02,-0.06 0.01,-0.11 0.08,-0.12z" fill="#ffffff" id="svg_7"/>
  <path d="m101.3,40.45c0.03,0.02 0.08,0.03 0.09,0.06c0.03,0.06 -0.01,0.12 -0.08,0.12c-0.03,0 -0.09,-0.02 -0.09,-0.05c-0.02,-0.06 0.01,-0.11 0.08,-0.13z" fill="#ffffff" id="svg_8"/>
  <path d="m101.27,15.95c0.05,0.07 -0.06,0.04 0.03,0.03c0.01,0 0,-0.03 -0.03,0c-0.01,0 0,-0.03 0,-0.03z" fill="#ffffff" id="svg_9"/>
  <path d="m39.02,15.56c0.02,-0.02 0.04,-0.05 0.05,-0.08c0.01,0.01 0.04,0.03 0.04,0.05c-0.01,0.03 -0.03,0.05 -0.04,0.08c-0.01,-0.01 -0.03,-0.03 -0.05,-0.05z" fill="#ffffff" id="svg_10"/>
 </g>
</svg>