<svg xmlns="http://www.w3.org/2000/svg" width="225" height="45"><g class="layer"><path fill="#fff" d="M92.25 43.29c-.67.15-1.34.33-1.91.73-.18.14-.38.16-.58.19-.77.14-1.5.38-2.23.65-.37.13-.11-.28-.26-.34-.17-.07-.31.03-.39.11-.34.35-.75.29-1.16.31-.22 0-.41-.03-.55-.22-.22-.29-.53-.36-.88-.38-.54-.03-.67-.19-.85-.69-.23-.67-.27-1.38-.43-2.06-.08-.3.08-.61.2-.89.22-.55.53-1.01 1.09-1.3.4-.21.76-.49 1.18-.64-.05-.2-.22-.23-.32-.34-.24-.27-.35-.51-.29-.93.14-.87.34-1.73.48-2.59.02-.08.01-.17.06-.23.54-.73.6-1.63.93-2.43.45-1.11.86-2.23 1.37-3.32.95-2.04 1.89-4.09 2.93-6.09.55-1.06 1.09-2.11 1.6-3.19.43-.92.81-1.87 1.21-2.82.3-.73.64-1.44.97-2.16.41-.86.78-1.74 1.13-2.65-.34-.1-.63-.21-.93-.25-1.07-.17-1.8-.85-2.43-1.63-.25-.32-.58-.6-.78-.97-.29-.55-.63-1.07-.8-1.66-.12-.46-.03-.83.26-1.23.6-.82 1.36-1.34 2.38-1.42.42-.03.72-.32 1.08-.48.51-.22 1.05-.36 1.6-.46.33-.06.66-.16.93-.35.38-.24.79-.36 1.21-.47.86-.22 1.74-.42 2.6-.67.37-.1.76-.18 1.07-.48.13-.12.38-.15.58-.2 1.86-.5 3.74-.86 5.64-1.16.86-.14 1.74-.18 2.59-.3 1.81-.27 3.63-.2 5.44-.22 1 0 1.98.19 2.95.4.77.17 1.54.33 2.24.75.9.55 1.59 1.25 1.95 2.27.07.21.08.4.09.61 0 1.01-.11 2.01-.2 3.02-.05.55-.04 1.1-.17 1.64-.18.73-.55 1.34-1.11 1.85-.6.55-1.26.96-1.96 1.38-.66.39-1.25.95-1.71 1.6-.07.11-.12.22-.24.27-1.03.51-1.9 1.3-2.97 1.73-.43.17-.68.55-.99.85-.26.26-.54.47-.93.44-.2-.02-.39.06-.52.18-.36.31-.77.48-1.21.6-.39.1-.59.44-.83.72-.17.12-.38.13-.58.18.14.26.38.24.6.29.77.37 1.54.74 2.31 1.12 1.28.64 2.47 1.41 3.42 2.49.96 1.08 1.7 2.3 2.01 3.73.13.62.17 1.27.29 1.9.01.06.01.12.15.12.19-.43.4-.87.58-1.32.66-1.67 1.56-3.23 2.32-4.85.6-1.26 1.35-2.43 2.04-3.63.68-1.21 1.45-2.38 2.17-3.58.72-1.19 1.43-2.39 2.14-3.6.35-.59.67-1.19 1.01-1.8.02-.04.05-.07.06-.11.25-.76.65-1.41 1.18-2.02.49-.56 1.43-.9 2.07-.27.32.32.68.6.93 1 .28.44.49.5 1.01.39 1.93-.39 3.85-.82 5.79-1.15 1.41-.24 2.82-.48 4.24-.63 1.47-.17 2.94-.34 4.42-.35.36 0 .7.1 1.01.27.31.17.36.32.16.64-.17.27.03.61-.26.87-.13.12-.14.4-.41.45-.07.01-.13.11-.13.19.02.5-.24.91-.39 1.36-.1.31-.28.57-.6.75-.64.35-1.27.78-2 .83-.89.07-1.73.42-2.63.43-.68.01-1.34.25-2.02.36-.99.17-1.97.42-2.96.65-1.15.29-2.29.63-3.41 1-.32.1-.64.19-.97.23-.41.06-.66.31-.88.63-.39.54-.58 1.19-.99 1.73-.23.32-.47.62-.76.91-1.17 1.13-2.04 2.47-2.74 3.93-.05.1-.08.19-.15.35.7-.07 1.34-.15 1.99-.22.64-.07 1.3-.04 1.89-.34-.09-.26-.26-.24-.38-.3-.53-.28-.58-.94-.11-1.28.2-.15.44-.27.67-.34 1.22-.35 2.45-.71 3.73-.88.98-.14 1.97-.29 2.95-.43.49-.08 1-.06 1.49-.13.39-.05.8.02 1.13-.28.11-.1.27-.08.42-.03.55.22 1.13.28 1.71.31.39.02.73.18 1.06.36.2.11.48.96.44 1.19-.04.17-.16.25-.32.25-.54 0-1.08-.02-1.61.02-.45.03-.9.12-1.36.1-.13 0-.25.08-.27.22-.04.29-.24.32-.49.39-.92.23-1.86.32-2.81.44-.65.08-.96.15-1.57.49.26.37.73.48 1.02.8.31.36.3.68-.07.96-.27.2-.55.39-.86.5-1.71.58-3.43 1.09-5.22 1.36-1.37.21-2.65.71-3.93 1.23-.55.23-1.13.4-1.71.55-.31.09-.52.23-.68.5-.44.69-.67 1.47-.99 2.22-.29.66-.48 1.37-.76 2.04-.13.3.07.51.09.76.82.14 1.56-.17 2.26-.44 2.29-.87 4.62-1.65 6.95-2.42 1.22-.41 2.44-.84 3.67-1.22.83-.26 1.67-.54 2.53-.66.66-.1 1.3-.32 1.97-.28.23.01.39-.11.53-.27.31-.36.69-.46 1.16-.48 1.04-.06 2.05-.31 3.03-.69.07-.03.15-.09.22-.1.93-.05 1.32-.73 1.75-1.41.73-1.14 1.52-2.23 2.27-3.36 1.3-1.97 2.7-3.88 4.11-5.78 1.24-1.67 2.44-3.35 3.66-5.03.15-.21.31-.39.5-.57.61-.6 1.14-1.26 1.5-2.05.1-.23.31-.39.54-.5.27-.12.56-.23.78-.41.46-.37.97-.46 1.55-.54.61-.09 1.22.01 1.83-.06.47-.05.98.07 1.46.21.18.05.31.15.39.3.18.34.43.48.82.34.09-.04.2-.03.3-.03.93-.03 1.44.37 1.55 1.31.13 1.19.33 2.39.23 3.6-.13 1.65-.08 3.31-.12 4.95-.02.66-.13 1.32-.28 1.97-.09.42-.04.83-.07 1.24-.02.24.14.3.32.27 1.07-.18 2.16-.25 3.24-.24.27.01.41-.17.53-.38.45-.81 1.16-1.46 1.48-2.36.01-.06.07-.11.12-.15.8-.85 1.61-1.7 2.42-2.54.57-.59 1.12-1.18 1.72-1.72.82-.74 1.65-1.47 2.61-2.04.29-.17.48-.45.75-.67.83-.66 1.82-1.12 2.64-1.78.55-.43 1.14-.74 1.74-1.07.6-.32 1.1-.82 1.73-1.11.5-.24.99-.39 1.56-.37.96.03 1.93-.07 2.85.25.61.21 1.31.19 1.81.69.03.02.08.03.12.03.87.11 1.54.61 2.16 1.14.37.33.71.71.69 1.39-.04 1.35-.63 2.53-.93 3.79-.04.14-.08.25-.02.41.12.36.18.71-.22 1.01-.18.14-.13.48-.05.71.18.54.05 1.01-.27 1.44-.02.03-.06.06-.07.1-.43 1.03-1.39 1.19-2.31 1.39-.22.05-.46-.04-.67.1-.03.02-.09.03-.12.02-.74-.38-1.72-.37-2.13-1.28-.13-.29-.15-.63-.2-.96-.05-.28.01-.55-.13-.85-.08-.18.09-.5.18-.74.17-.47.37-.93.56-1.39.05-.11.15-.23.04-.34-.11-.1-.23-.01-.35.02-1.36.33-2.48 1.12-3.64 1.85-1.04.66-1.97 1.45-2.98 2.14-.9.6-1.83 1.16-2.69 1.8-.6.45-1.23.87-1.74 1.43-.11.12-.26.23-.16.43.07.15.22.16.37.18.96.2 1.9-.02 2.84-.09.74-.04 1.45-.14 2.17-.26.87-.14 1.77 0 2.62-.14.97-.17 1.91.03 2.86.05 1.15.02 2.19.49 3.17 1.07.27.17.53.45.65.74.32.84.88 1.51 1.33 2.26.21.36.31.72.13 1.11-.24.5-.27 1.05-.31 1.58-.07 1.09-.54 1.88-1.38 2.59-1.02.87-2.18 1.43-3.4 1.91-.54.22-1.09.44-1.59.71-.48.27-.97.56-1.47.79-.74.34-1.41.75-2.07 1.21-.21.14-.34.53-.72.43-.32-.09-.52.23-.82.23-.25 0-.4.21-.6.33-.09.05-.18.13-.14.25.17.45-.19.51-.46.56-.24.04-.47.09-.75.05-.36-.05-.8-.13-1.16.07-.18.1-.52.09-.44.47.01.07-.2.22-.32.26-.32.09-.62.23-.95.29-.35.07-.77.01-.97.43-.01.01-.04.02-.06.03-.8.13-1.39.69-2.09 1.02-.12.06-.19.15-.28.24-.37.38-.9.27-1.35.4-.04.01-.1-.05-.14-.1-.25-.24-.52-.39-.89-.35-.36.04-.48-.26-.51-.52-.04-.25-.12-.33-.35-.31-.25.02-.43-.05-.56-.3-.08-.14-.24-.27-.41-.36-.46-.27-.69-.77-.85-1.21-.17-.45.07-1.01.51-1.24.7-.36 1.23-1 1.99-1.26.93-.33 1.74-.89 2.64-1.29.76-.34 1.42-.87 2.13-1.31 1.51-.92 3.01-1.87 4.55-2.74.41-.23.72-.64 1.18-.82 1.05-.41 1.97-1.08 2.95-1.62.25-.14.61-.22.64-.62-.21-.08-.44-.13-.64-.23-.24-.12-.48-.1-.72-.02-.27.09-.53.22-.81.01-.08-.06-.16-.01-.24.02-.59.31-1.25.25-1.88.4-.44.11-.87.17-1.34.14-.48-.04-.98.15-1.47.25-.08.01-.17.07-.24.05-.58-.1-1.14.05-1.7.08-.66.04-1.28.19-1.89.36-.89.24-1.63 0-2.33-.48-.24-.17-.4-.47-.56-.74-.37-.66-.83-1.27-1-2.03-.05-.21-.17-.27-.35-.28-.67-.02-1.35-.07-1.9.42-.26.22-.61.17-.89.41-.52.47-.56 1.05-.5 1.63.03.31.09.58-.16.8-.16.15-.14.34-.14.53 0 .44-.04.89.02 1.32.09.73-.19 1.39-.27 2.09-.01.14-.13.21-.24.27-.2-.21-.26-.47-.24-.75.04-.45-.03-.91-.11-1.36-.02-.1-.01-.25-.14-.22-.12.03-.35.02-.32.23.06.4-.09.8-.05 1.22.07.81.03 1.63.03 2.45 0 .25-.32.44-.21.69.09.21.05.44.17.68.26-.13.26-.49.61-.51.02.41.27.78.08 1.23-.06.14.06.35.09.54.09.56-.15 1.06-.26 1.58-.07.3-.11.61-.11.92 0 .26-.06.55-.29.65-.47.21-.27.84-.71 1.03.27.3.05.62.04.94 0 .21-.07.13-.22.12-.13-.01-.31.11-.4.22-.28.33-.59.27-.91.13-.46-.19-.7-.55-.75-1.05-.02-.23-.03-.46-.03-.69-.01-.32.12-.66-.14-.95.02-.92-.24-1.81-.19-2.72.04-.69-.16-1.35-.14-2.04.05-1.91 0-3.84.04-5.76.01-.58-.27-1.12-.15-1.71.03-.17-.14-.17-.26-.17-.38-.01-.74.12-1.1.19-.97.17-1.89.48-2.84.73-.16.05-.35.18-.48-.08-.06-.14-.19-.04-.27.01-.81.47-1.78.52-2.64.89-.31.13-.68.12-.96.37-.04.04-.11.1-.16.02-.1-.21-.22-.19-.4-.1-.21.11-.4.2-.51.44-.34.74-.91 1.37-1.22 2.14-.19.5-.48.96-.94 1.3-.14.1-.23.31-.28.48-.08.37-.25.66-.57.88-.21.15-.33.34-.36.65-.05.58-.49.99-.85 1.42-.21.26-.46.44-.46.85.01.36-.37.58-.56.88-.26.41-.5.87-.97 1.11-.2.1-.27.32-.35.51-.12.26-.33.39-.6.32-.25-.06-.39.07-.54.22-.24.26-.5.5-.91.46-.05 0-.15.01-.17.05-.24.49-.61.23-.96.21-.69-.06-1.39-.02-2.08-.03-.36 0-.71.01-1.07-.01-.38-.02-.5-.22-.47-.6.1-1.15.51-2.22.97-3.25.29-.65.69-1.24 1.03-1.85.44-.79.89-1.55 1.29-2.35.23-.46.55-.87.84-1.38-.57-.15-1.04.14-1.52.08-.52-.06-.83.42-1.23.67.03.09.05.2.08.31.04.15.25.31.13.44-.13.14-.35.26-.54.27-.93.1-1.74.56-2.62.78-.33.09-.37.5-.72.52-.29.02-.59-.05-.88.05-.13.04-.26.1-.43.16.13.28.44.04.61.27-.57.31-1.1.62-1.74.72-.65.1-1.24.43-1.88.58-.54.61-1.3.61-2.02.78-.35.08-.66.32-.98.49-.82.41-1.71.65-2.51 1.12-.77.45-1.6.8-2.46 1.03-.92.24-1.76.64-2.62 1.03-.94.43-1.95.56-2.93.25-.96-.31-1.9-.66-2.86-.95-.28-.08-.53-.27-.72-.49-.32-.4-.49-.89-.86-1.27-.26-.26-.04-.63.03-.97-.49.09-.74.45-1.06.71a20.68 20.68 0 0 1-5.03 3c-.55.24-1.08.53-1.69.61-.11.01-.24.09-.33.18-.4.35-.92.44-1.4.62-.1.04-.23.03-.3.09-.44.47-1.03.51-1.6.65-.46.11-.9.35-1.25.67-.22.22-.48.36-.77.37-.56.03-1.09.14-1.57.46-.04.03-.12.02-.18.02-.35 0-.72.15-1.02.13-.42-.04-.7.18-1.05.25-.34.08-.67.22-1 .34-.18.06-.36.13-.53.2-.1.03-.19.08-.3.05-.09-.02-.17-.06-.19-.14-.03-.09.03-.16.12-.19.17-.07.34-.15.52-.21.4-.13.74-.36 1.07-.61.41-.14.82-.28 1.23-.41.13-.04.14-.13.12-.24-.04-.14-.13-.12-.24-.08-.38.16-.77.3-1.15.45-.77.07-1.48.46-2.3.33-.41-.07-.81.27-1.22.43-.81.32-1.62.62-2.49.71-.01-.06-.04-.17-.03-.17.26-.1.43-.33.74-.37.3-.04.66-.11.83-.46l.03.01c.04.08.03-.09.07-.13-.73.35-1.33.62-1.93.89zm18.94-26.91c-.35-.01-.56.2-.82.46.42.06.6-.24.85-.39.22-.06.45-.11.57-.45-.29.09-.48.19-.6.38zm.87-.49c.52-.17.88-.62 1.41-.77-.64.01-1 .19-1.47.73-.05.02-.11.05-.06.1s.1 0 .12-.06zm-10.79.06c.26.13.44-.06.64-.15 1.53-.68 2.92-1.62 4.4-2.4 1.64-.86 3.25-1.79 4.87-2.7.91-.51 1.85-.97 2.7-1.56.94-.65 1.8-1.41 2.67-2.15.25-.21.62-.29.69-.65-.08-.15-.21-.17-.33-.16-.74.04-1.47-.12-2.23-.04-1.21.13-2.42.27-3.62.49-.3.06-.56.31-.81.24-.3-.08-.52.03-.77.1-.23.07-.47.19-.7.2-1.52.07-2.81.82-4.17 1.36-.16.07-.38.28-.22.44.35.39.14.74 0 1.11-.21.56-.31 1.2-.65 1.66-.99 1.33-1.76 2.77-2.48 4.25.03-.03.04 0 .02 0-.07 0 .04.03-.01-.04zM88.33 37.88c.86-.32 1.71-.67 2.58-.95 1.83-.58 3.66-1.11 5.49-1.69 2-.64 3.99-1.3 5.99-1.94 2.43-.77 4.8-1.71 7.06-2.86.69-.35 1.35-.75 2.04-1.09.51-.25.98-.62 1.21-1.2.06-.17.14-.34.31-.46.16-.12.31-.34.22-.55-.15-.32-.3-.66-.64-.82-.42-.2-.77-.5-1.13-.77-.21-.15-.42-.24-.67-.31-.62-.16-1.23-.36-1.83-.58-.46-.17-.87-.5-1.41-.27-.04.02-.14 0-.18-.03-.45-.41-1.06-.34-1.59-.4-.91-.09-1.8-.33-2.7-.42-.26-.02-.51-.12-.77-.01-.41-.36-.93-.23-1.41-.33-.67-.13-1.36-.08-2.04-.2-.42-.08-.57 0-.71.42-.12.38-.32.72-.51 1.07-.2.36-.44.72-.57 1.11-.33 1.02-.73 1.99-1.29 2.9-.31.48-.6.96-1.17 1.17-.28.1-.47.34-.65.56-.07.08-.09.22-.19.24-.51.08-.51.55-.69.87-.1.18-.14.39-.2.59-.11.36-.26.67-.72.61-.14-.02-.22.11-.19.19.11.33-.05.47-.3.65-.29.2-.29.69-.74.78.12.34-.22.52-.28.81-.09.41-.29.78-.42 1.18-.14.42-.5.57-.86.66-.38.1-.4.05-.5.22-.16.25-.39.43-.6.63-.16.11-.41.14-.49.45.23-.02.39-.12.55-.23zM164 14.46c-.27.05-.37.2-.47.36-.74 1.09-1.66 2.05-2.36 3.19-.37.58-.95 1.03-1.19 1.71-.03.08-.1.14-.17.19-.95.72-1.35 1.85-2.13 2.81 1.93-.47 3.81-.78 5.6-1.45.49-.18.52-.17.49-.68-.08-1.39.25-2.77.11-4.17-.01-.09.02-.16.04-.24.19-.55.05-1.11.08-1.72zM89.66 35.73c.15-.05.2-.18.2-.33 0-.06-.04-.12-.11-.11-.17.04-.19.19-.22.33-.01.06.05.1.13.11zm76.97-8.33c-.13.24-.16.5 0 .76v-.76zm-65.22 13.91c-.02-.04-.03-.09-.06-.1-.06-.02-.12.01-.13.08 0 .03.03.09.06.1.06.02.11-.02.13-.08zm-.49-.73c-.07.01-.1.06-.08.12.01.03.06.06.1.05.06 0 .1-.05.08-.12-.01-.02-.07-.04-.1-.05zm.38-.12c-.07.01-.1.06-.08.12 0 .03.06.06.09.05.07 0 .11-.05.08-.12 0-.03-.06-.04-.09-.05zm46.56-4.6c.03-.02.08-.02.1-.05.03-.06 0-.11-.05-.13-.03-.01-.09.01-.1.04-.04.05-.02.1.05.14zm1.28-2.84c-.06.03-.09.08-.06.14.02.02.07.05.1.04.07-.02.09-.08.06-.13-.01-.03-.07-.03-.1-.05zm-7.31-2.4c-.01-.04-.02-.09-.04-.11-.06-.03-.12 0-.14.06-.01.03.01.09.04.1.06.04.11.01.14-.05zm7.79 1.82c.04-.04.08-.08.12-.13-.03-.02-.06-.05-.08-.05-.07 0-.12.05-.11.11-.01.02.04.04.07.07zM37.64 40.11c-.39.49-.5 1.15-.88 1.67-.32-.1-.44-.44-.73-.58-.15.17-.17.39-.22.6-.09.42-.23.53-.66.5-.59-.04-1.19-.13-1.78-.2-.55-.06-.91-.35-1.15-.85-.16-.34-.19-.33-.61-.24.04-.75.04-1.49.07-2.22.05-1.22.42-2.36.55-3.56.1-.87.44-1.71.7-2.56.62-2.09 1.31-4.15 2.03-6.2.55-1.55 1.05-3.13 1.67-4.66.64-1.6 1.29-3.2 1.9-4.81.17-.43.44-.83.48-1.31-.24-.04-.33.14-.43.25-.73.77-1.47 1.52-2.12 2.36-.79 1.02-1.59 2.03-2.34 3.08-.58.81-1.18 1.61-1.7 2.47-.37.61-.8 1.22-1.33 1.72-.27.25-.49.53-.64.9-.18.46-.58.82-.93 1.16-1.49 1.42-2.7 3.06-3.9 4.71-.22.29-.45.54-.76.74-.54.36-1.07.72-1.6 1.09-.13.09-.27.09-.42.1-.81.09-1.61.21-2.39.48-.55.19-1.09.16-1.65.02-.62-.15-1.03-.55-1.16-1.11-.15-.63-.55-1.15-.64-1.79-.02-.12-.05-.23-.05-.36.01-1.11.01-2.22.01-3.33 0-.62.16-1.22.19-1.83.05-.76.32-1.48.28-2.26-.02-.36.09-.77.15-1.15.16-1.03.24-2.05.36-3.08.04-.35.16-.69.24-1.03.23-1.06.06-2.12.02-3.22-.18.23-.37.46-.54.7-.78 1.09-1.43 2.26-2.07 3.42-.83 1.47-1.58 2.98-2.35 4.49-.87 1.68-1.68 3.39-2.27 5.2-.2.59-.53 1.12-.83 1.68-.26.49-.36 1-.38 1.56-.03.74-.17 1.46-.37 2.19-.2.78-.64 1.48-.73 2.3-.04.34-.28.69-.53.98-.46.55-.76 1.17-.9 1.89-.12.65-.28 1.32-.84 1.77-.19.16-.39.32-.69.25-.01-.24-.03-.47-.05-.7-.22-.03-.32.07-.36.26-.05.25-.22.45-.47.45-.92-.01-1.81.36-2.75.26-.12-.01-.24-.02-.36-.07-.71-.22-.74-.27-.76-1-.01-.85-.01-1.7.26-2.53.05-.13.03-.29.02-.43-.03-.88.17-1.7.56-2.48.07-.15.06-.29.05-.43-.02-.64.06-1.23.33-1.82.22-.49.32-1.03.41-1.57.15-.84.42-1.65.72-2.45.99-2.61 1.77-5.27 2.73-7.89.68-1.89 1.36-3.78 2.06-5.65.73-1.95 1.5-3.87 2.36-5.77.83-1.84 1.68-3.69 2.71-5.44.3-.49.61-1 .98-1.44.24-.28.65-.39.89-.67.36-.39.81-.57 1.29-.73.64-.22.9-.12 1.32.44.21.29.55.3.84.31 1.28.01 2.54.2 3.83.13.58-.03 1.09.15 1.57.48.39.27.88.38 1.34.47.52.11.91.36 1.29.72.56.54 1.02 1.15 1.46 1.79.16.25.23.5.25.75.09.75.04 1.52-.2 2.25-.17.56-.18 1.16-.39 1.68-.3.75-.36 1.53-.57 2.28-.08.26-.19.51-.28.76-.35 1.07-.48 2.17-.66 3.27-.29 1.79-.7 3.57-1.16 5.32-.08.32-.03.6-.03.92.47-.44.86-.92 1.19-1.43.66-1.02 1.34-2.02 2.08-2.97.43-.56.67-1.24 1.13-1.78.29-.36.57-.72.9-1.04.29-.3.54-.63.74-1 .31-.6.75-1.09 1.2-1.58.48-.51.99-1.02 1.4-1.59.04-.06.07-.11.12-.15.87-.74 1.48-1.69 2.25-2.52.33-.36.72-.69.89-1.19.05-.16.24-.27.38-.41.4-.39.73-.84 1.04-1.3.27-.38.64-.7.98-1.02.51-.51 1.07-.95 1.47-1.56.21-.32.51-.53.8-.76.59-.47 1.16-.96 1.69-1.49.27-.27.61-.35.95-.44.64-.15 1.3-.25 1.78-.79.15-.17.45-.28.68-.28.79-.03 1.59-.12 2.37.1.07.03.17.05.22.11.58.62 1.36.95 2.04 1.44.7.5 1.31 1.09 1.79 1.81.44.65.4 1.41.27 2.12-.21 1.03-.53 2.05-1.15 2.94-.03.04-.02.12-.04.19.42.09.78-.1 1.15-.17 1.05-.18 2.04-.54 3.07-.8 1.04-.26 2.11-.43 3.17-.56.43-.06.86-.15 1.28-.25.75-.18 1.51-.26 2.26-.36 1.64-.22 3.29-.19 4.94-.25.77-.04 1.54-.12 2.31-.09 1.98.1 3.93.32 5.78 1.07.94.39 1.65 1.06 2.26 1.84.17.21.22.43.22.69-.02.44.26.89-.1 1.31-.02.03.05.15.08.23.18.55.12 1.11.13 1.67.01.31-.06.6-.26.82-.34.35-.59.75-.87 1.14-.1.14-.17.27-.4.2-.25-.09-.48.11-.72.15-.09.02-.13.08-.15.17-.2.7-.77 1.1-1.29 1.48-1.04.75-2.21 1.26-3.46 1.61-.52.14-.97.55-1.49.73-.71.26-1.24.84-1.97 1-.42.1-.79.26-1.13.51-.11.07-.18.12-.21.28-.07.38-.28.73-.66.84-.25.07-.27.19-.23.34.16.63.08 1.28.27 1.91.19.63.23 1.3.33 1.95.11.7.22 1.39.32 2.09.09.68.18 1.36.26 2.04.11.79.26 1.59.32 2.4.04.5.09.98.26 1.45.07.2-.04.4-.18.51-.42.31-.51.73-.51 1.2 0 .31-.06.53-.4.69-.29.13-.3.5-.31.82-.02.59-.21.77-.81.69-.51-.08-1-.22-1.51-.32-.27-.05-.44-.19-.59-.42-.3-.45-.5-.97-.85-1.38-.19-.21-.09-.48-.18-.72-.38-.93-.5-1.92-.62-2.91-.22-1.69-.63-3.34-1.01-5-.11-.46-.23-.93-.2-1.41.01-.24-.07-.45-.14-.66-.2-.6-.42-1.18-.62-1.76-.08-.25-.21-.33-.46-.21-.48.23-1.02.1-1.53.21-.2.04-.32.09-.22.3.1.22-.03.3-.17.4-.51.31-1.02.63-1.36 1.14-.1.16-.24.3-.3.48-.34.91-.85 1.76-1.22 2.67-.35.89-.87 1.7-1.18 2.61-.1.27-.25.52-.34.8-.05.17-.11.26-.29.33-.35.14-.28.55-.32.82-.05.39-.13.73-.34 1.05-.03.05-.04.16-.08.17-.7.23-.67.86-.79 1.41-.02.09-.03.19-.13.19-.53 0-.59.44-.72.78-.15.41-.59.58-.69 1.15-.16-.35-.34-.37-.59-.33-.37.05-.78-.08-1.07.27-.09.1-.24.13-.36.08-.55-.2-1.12-.1-1.68-.09-.48.01-.7-.2-.78-.81-.13-1.01.25-1.9.57-2.82.71-2.06 1.34-4.14 1.98-6.22.24-.77.57-1.52.87-2.27.1-.25.31-.46.05-.78-.14-.18.08-.6.34-.7.45-.17.65-.5.84-.93.84-1.96 1.87-3.83 2.88-5.71.43-.8.86-1.62 1.2-2.47.22-.54.52-1.05.79-1.6-.32-.16-.54 0-.76.14-.27.18-.54.39-.85.52-.5.21-.84.19-1.17-.21-.31-.35-.74-.52-1.04-.87-.16-.18-.44-.22-.69-.24-.27-.04-.43.07-.53.32-.29.71-.65 1.38-1.11 2-.28.37-.47.82-.61 1.29-.13.46-.33.9-.54 1.33-.41.85-.81 1.7-1.33 2.49-.07.11-.13.2-.17.33-.23.78-.59 1.51-.96 2.24-.49.92-.83 1.88-1.16 2.87-.22.67-.49 1.32-.79 1.97-.21.42-.29.86-.38 1.31-.04.22-.05.51-.24.62-.42.28-.45.78-.75 1.13-.16.19-.3.5-.2.86.13.45-.16.89-.3 1.31-.11.35-.2.66-.14 1.03.1.59-.16 1.14-.25 1.72 0 .03-.02.08-.05.1-.54.38-.45.97-.53 1.5-.11.8-.24 1.59-.35 2.39-.04.29 0 .59-.01.88-.01.24-.03.47-.34.21-.06-.05-.13-.05-.16 0-.28.47-.31-.05-.43-.12-.06-.04-.03-.2-.05-.3 0-.11-.01-.21-.15-.23a.27.27 0 0 0-.27.14c-.06.1-.11.22-.17.33-.04.08-.12.12-.21.11-.13-.02-.13-.13-.15-.24.02-.15.16-.28-.06-.43zm21.69-20.72c.78-.2 1.36-.58 2-.84 2.06-.86 4.14-1.65 6.16-2.58.47-.22.97-.38 1.44-.6 1.2-.56 2.3-1.28 3.39-2.01.44-.3.87-.64 1.28-.99.41-.36.34-.72-.17-.89-.05-.02-.12-.02-.18-.03-.61-.13-1.22-.22-1.84-.25-.61-.04-1.21.16-1.81.12-.61-.04-1.2.12-1.8.15-.83.05-1.64.2-2.46.35-.85.15-1.69.39-2.55.51-.27.04-.42.18-.36.53.09.54-.01 1.05-.35 1.54-.27.41-.61.84-.74 1.3-.25.81-.77 1.41-1.26 2.05-.35.47-.54 1.01-.75 1.64zM38.97 40.1c.12.01.2-.06.21-.14.01-.52.01-1.04.01-1.57 0-.12-.08-.19-.2-.18-.15.01-.21.11-.21.25.01.56-.06 1.12.19 1.64zm1.26-7.08c.09-.03.14-.1.12-.19-.03-.07-.08-.19-.12-.19-.14 0-.1.13-.1.22-.01.07 0 .15.1.16zm-1.21-17.46.05.05c.01-.03.03-.06.04-.08 0-.02-.03-.03-.04-.05-.02.03-.03.06-.05.08zM201.5 9.54c1.1.21 2.26-.24 3.45-.42 1.17-.18 2.29-.55 3.49-.57.74-.01 1.47-.19 2.21-.3.08-.01.16-.04.24-.04.77.08 1.47-.27 2.21-.32.68-.05 1.36-.16 2.03-.28.94-.16 1.89-.23 2.84-.32.78-.07 1.57-.18 2.36-.16.89.03 1.77.01 2.65.01.26 0 .49.03.71.19.43.3.43.3.09.69-.19.21-.16.5.09.67.1.06.22.16.15.22-.26.19-.29.33 0 .52.05.04.04.26-.05.27-.34.05-.27.5-.61.56-.22.04-.27.35-.24.46.08.29 0 .48-.17.68-.18.21-.38.41-.66.44-.84.07-1.67.27-2.5.38-.68.09-1.4.12-2.02.53-.26.17-.58.23-.89.27-.82.11-.97.25-1 1.04-.01.39-.15.7-.42 1.01-.32.37-.54.83-.93 1.15-.05.04-.08.11-.09.17-.11 1.06-.79 1.86-1.22 2.77-.06.14-.17.24-.31.31-.12.07-.19.17-.23.28-.55 1.21-1.16 2.38-1.64 3.62-.63 1.63-1.32 3.23-1.95 4.86-.32.85-.58 1.73-.97 2.56-.4.86-.76 1.75-1.13 2.64-.11.27-.19.54-.29.82-.1.29-.16.59-.54.69-.19.05-.28.29-.36.49-.26.68-.5 1.36-.75 2.04-.11.3-.29.56-.43.84-.27.55-1.06.82-1.72.66-.79-.2-1.54.06-2.09.67-.28.31-.55.62-1.04.51-.21-.05-.36-.12-.35-.36.01-.33-.03-.67.06-1 .2-.78.36-1.56.58-2.33.35-1.27.71-2.54 1.12-3.79.46-1.42.83-2.86 1.32-4.27.64-1.83 1.38-3.63 2.07-5.43.67-1.77 1.46-3.48 2.15-5.23.3-.77.61-1.56 1.01-2.29.07-.13.14-.26.18-.4.04-.17-.11-.27-.21-.19-.32.26-.68.11-1.01.09-.84-.06-1.49.29-2.06.86-.06.06-.13.19-.15.18-.55-.21-.94.42-1.5.28-.21-.06-.45-.04-.64-.19-.03-.03-.06-.06-.1-.07-1.13-.18-1.4-1.21-1.95-1.98-.11-.15-.21-.3-.35-.43-.14-.12-.29-.22-.32-.43-.04-.17-.18-.28-.34-.34-.36-.12-.45-.44-.44-.75 0-.35.03-.74.26-1.01.38-.47.81-.88 1.24-1.31.28-.28.66-.23 1.16-.22z"/><path fill="#fff" d="M92.25 43.29c.6-.27 1.2-.54 1.92-.86-.04.04-.03.2-.07.13-.01-.01-.04-.02-.04-.01-.16.35-.53.4-.83.45-.31.05-.48.28-.73.38-.01 0 .01.11.03.17-.24.07-.25-.1-.28-.26zM89.66 35.73c-.08 0-.14-.04-.13-.11.03-.14.05-.29.22-.33.08-.01.11.05.11.11 0 .15-.05.28-.2.33zM101.41 41.31c-.02.06-.07.1-.13.08-.03-.01-.06-.07-.06-.1.01-.07.07-.1.13-.08.03.01.04.06.06.1zM100.92 40.58c.03.01.08.03.1.05.02.07-.02.12-.08.12-.04 0-.09-.02-.1-.05-.02-.06.01-.11.08-.12zM101.3 40.45c.03.02.08.03.09.06.03.06-.01.12-.08.12-.03 0-.09-.02-.09-.05-.02-.06.01-.11.08-.13zM101.27 15.95c.05.07-.06.04.03.03.01 0 0-.03-.03 0-.01 0 0-.03 0-.03zM39.02 15.56c.02-.02.04-.05.05-.08.01.01.04.03.04.05-.01.03-.03.05-.04.08l-.05-.05z"/></g></svg>