<svg xmlns="http://www.w3.org/2000/svg" xml:space="preserve" style="enable-background:new 0 0 500 500" viewBox="0 0 500 500"><style>.st0{fill:#ebebeb}.st1{fill:#e0e0e0}.st2{fill:#f5f5f5}.st3{fill:#263238}.st4{fill:#455a64}.st5{fill:#fff}.st6{fill:#026773}.st7{fill:#ff725e}.st8{fill:#3ca6a6}.st9{opacity:.6}.st10{opacity:.3}.st11{fill:#ffd6bd}.st12{fill:#ffb394}.st13{fill:#c78976}.st14{fill:#8b5d54}.st15{fill:#ffbe9d}.st17{fill:#eb996e}</style><g id="Background_Complete"><path d="M53.62 365.16s-6.23 2.52.96 15.76c7.19 13.23 12.1 19.75 12.1 19.75s1.29 3.08-1.31 3.63c-2.61.55-8.4-.22-9.49 3.02-1.12 3.36 1.37 6.43 6.34 9.06 4.97 2.63 15.65 8.78 16.61 9.34.95.55 1.92 1.97.2 2.63-1.72.66-14.66 2.35-13.49 8.45 1.17 6.09 16.22 11.13 17.85 11.72 1.63.58 2.04 1.26 1.93 2.15-.11.89-4.51 1.05-8.18 1.68-3.66.63-7.8 2.01-6.83 5.47.97 3.46 9.99 10.55 31.48 12.09l10.01.06 5.22-8.59c10.06-19.06 8.81-30.46 6.39-33.12-2.42-2.65-5.78.13-8.25 2.9s-4.94 6.43-5.75 6.05c-.81-.38-1.17-1.08-.8-2.78.37-1.7 4.05-17.13-.5-21.35-4.55-4.22-12.83 5.88-14.3 6.98-1.47 1.11-2.16-.47-2.13-1.56.03-1.11.46-13.43.86-19.04.4-5.61-.89-9.35-4.33-10.17-3.32-.79-5.73 4.53-7.58 6.46-1.85 1.92-3.78-.81-3.78-.81s-2.93-7.62-10.36-20.72c-7.43-13.1-12.99-9.02-12.99-9.02" class="st0"/><path d="M112.38 472.3c-5.42-9.64-14.76-26.94-22.86-41.75-8.09-14.81-15.44-28.2-20.8-37.87-2.68-4.82-4.86-8.73-6.37-11.44-.75-1.34-1.33-2.39-1.73-3.11-.19-.35-.34-.62-.44-.81-.1-.18-.14-.28-.14-.28s.06.09.17.27c.11.19.27.46.47.8.41.72 1.01 1.75 1.78 3.08 1.54 2.68 3.75 6.57 6.46 11.4 5.42 9.64 12.79 23.03 20.89 37.83 8.1 14.81 17.41 32.13 22.78 41.8" class="st1"/><path d="M63.94 408.72c.01-.02.26.04.7.18.45.13 1.09.34 1.87.6 1.58.53 3.73 1.32 6.1 2.24l6.04 2.36c.73.28 1.34.52 1.84.7.43.16.67.27.66.29-.01.02-.26-.04-.7-.17-.45-.13-1.09-.34-1.87-.61-1.57-.55-3.72-1.37-6.08-2.28-2.33-.89-4.44-1.7-6.06-2.32-.73-.28-1.34-.51-1.84-.7-.43-.16-.67-.27-.66-.29zM81.82 414.44c-.08-.03 1.35-4.55 3.2-10.09 1.85-5.55 3.42-10.02 3.5-9.99.08.03-1.35 4.55-3.2 10.09s-3.41 10.01-3.5 9.99zM93.23 437.74c-.02-.01.12-.24.39-.63.31-.44.69-1 1.14-1.65.96-1.4 2.28-3.33 3.66-5.51 1.38-2.18 2.57-4.2 3.42-5.67.4-.69.73-1.27 1-1.74.24-.41.38-.63.4-.62.02.01-.09.25-.29.68-.21.43-.52 1.04-.92 1.79-.8 1.5-1.96 3.54-3.34 5.73a92.277 92.277 0 0 1-3.75 5.48c-.51.68-.92 1.23-1.22 1.6-.3.35-.47.55-.49.54zM75.92 436.13c0-.02.24-.02.68-.01.5.03 1.12.06 1.85.1a410.54 410.54 0 0 1 12.21.97c.73.08 1.34.14 1.85.2.44.05.68.09.67.11 0 .02-.24.02-.68.01-.5-.03-1.12-.06-1.85-.1a410.54 410.54 0 0 1-12.21-.97c-.73-.08-1.34-.14-1.85-.2-.44-.05-.68-.09-.67-.11zM83.37 457.98c0-.02.31-.02.87 0 .62.03 1.42.07 2.38.12 2.01.11 4.78.29 7.83.51 3.06.22 5.83.43 7.83.6.96.09 1.75.16 2.37.22.56.06.87.1.87.12 0 .02-.31.02-.87 0-.62-.03-1.42-.07-2.38-.12-2.01-.11-4.78-.29-7.83-.51-3.06-.22-5.82-.43-7.83-.6-.96-.09-1.75-.16-2.37-.22-.56-.05-.87-.1-.87-.12zM105 459.35c-.02-.01.15-.3.47-.81.35-.55.82-1.28 1.37-2.15 1.16-1.81 2.75-4.32 4.42-7.14 1.68-2.82 3.13-5.41 4.17-7.29.5-.9.91-1.65 1.23-2.23.29-.53.46-.81.48-.8.02.01-.12.31-.38.86-.26.54-.65 1.32-1.15 2.28a151.368 151.368 0 0 1-8.6 14.46c-.61.89-1.1 1.61-1.46 2.09-.33.48-.53.75-.55.73z" class="st1"/><circle cx="292.32" cy="98.73" r="44.86" class="st0" transform="rotate(-45.001 292.32 98.733)"/><path d="M254.98 98.73c0-20.59 16.75-37.34 37.34-37.34 20.59 0 37.34 16.75 37.34 37.34 0 20.59-16.75 37.34-37.34 37.34-20.59 0-37.34-16.75-37.34-37.34zm6.39 0c0 17.06 13.88 30.95 30.95 30.95 17.06 0 30.95-13.88 30.95-30.95 0-17.06-13.88-30.95-30.95-30.95-17.06 0-30.95 13.89-30.95 30.95z" class="st2"/><path d="M278.82 97.74c0-7.58 6.17-13.75 13.75-13.75s13.75 6.17 13.75 13.75-6.17 13.75-13.75 13.75-13.75-6.16-13.75-13.75zm6.39 0c0 4.06 3.3 7.36 7.36 7.36 4.06 0 7.36-3.3 7.36-7.36 0-4.06-3.3-7.36-7.36-7.36-4.06 0-7.36 3.3-7.36 7.36z" class="st2"/><path d="M292.57 97.74h17.38l-3.03 5.37 40.91 18.75-1.38 2.3-41.05-18.54-2.81 5.33z" class="st1"/><path d="m347.83 121.86.43-.42a8.323 8.323 0 0 1 8.12-2.03l16.32 4.75-9.09 3.99 3.65 9.71-15.31-5.46a8.317 8.317 0 0 1-5.51-8.24l1.39-2.3zM79.34 180.44c1.96-1.19 4.05-2.09 6.21-2.7l1.28-6.15 10.39-.18 1.49 6.1c2.18.54 4.3 1.36 6.3 2.48l5.25-3.44 7.47 7.22-3.25 5.37c1.19 1.96 2.09 4.06 2.7 6.21l6.15 1.28.17 10.37-6.1 1.49c-.54 2.18-1.36 4.3-2.48 6.3l3.44 5.25-7.21 7.47-5.37-3.25a25.103 25.103 0 0 1-6.21 2.7l-1.28 6.15-10.38.18-1.49-6.1c-2.18-.54-4.3-1.36-6.3-2.48l-5.25 3.44-7.47-7.21 3.25-5.37a25.103 25.103 0 0 1-2.7-6.21l-6.15-1.28-.18-10.39 6.1-1.5c.54-2.18 1.36-4.3 2.48-6.3l-3.44-5.25 7.21-7.47 5.37 3.27zm5.53 13.83c-4.27 4.43-4.15 11.48.28 15.76 4.43 4.27 11.48 4.15 15.76-.28 4.27-4.43 4.15-11.48-.28-15.76-4.43-4.27-11.48-4.14-15.76.28z" class="st1"/><path d="M60.9 240.29c1.18-.71 2.43-1.25 3.72-1.62l.77-3.68 6.22-.11.89 3.65c1.3.32 2.57.82 3.77 1.48l3.14-2.06 4.47 4.32-1.95 3.21c.71 1.18 1.25 2.43 1.62 3.72l3.68.77.11 6.22-3.65.89c-.32 1.3-.82 2.57-1.48 3.77l2.06 3.14-4.32 4.47-3.21-1.95c-1.18.71-2.43 1.25-3.72 1.62l-.77 3.68-6.22.11-.89-3.65c-1.3-.32-2.57-.82-3.77-1.48l-3.14 2.06-4.47-4.32 1.95-3.21c-.71-1.18-1.25-2.43-1.62-3.72l-3.68-.77-.11-6.22 3.65-.9c.32-1.3.82-2.57 1.48-3.77l-2.06-3.14 4.32-4.47 3.21 1.96zm3.32 8.29c-2.56 2.65-2.48 6.87.17 9.43 2.65 2.56 6.87 2.48 9.43-.17 2.56-2.65 2.48-6.87-.17-9.43-2.65-2.56-6.87-2.48-9.43.17z" class="st0"/><path d="M64.22 248.58s.35-.49 1.24-1.09a6.7 6.7 0 0 1 4.35-1.03c.96.11 2 .42 2.96 1.05.94.63 1.84 1.53 2.39 2.69.29.57.5 1.21.61 1.87.12.66.14 1.36.04 2.05-.17 1.39-.83 2.77-1.85 3.85-1.04 1.06-2.39 1.77-3.78 1.99-.69.12-1.39.13-2.05.03-.67-.09-1.31-.27-1.89-.54-1.18-.52-2.11-1.37-2.78-2.3a6.765 6.765 0 0 1-1.15-2.92c-.27-1.93.32-3.49.88-4.38.55-.91 1.03-1.27 1.03-1.27.04.03-.4.44-.92 1.35-.5.9-1.03 2.42-.74 4.27.15.91.5 1.9 1.15 2.78.64.87 1.54 1.68 2.66 2.16.55.25 1.16.42 1.8.5.63.09 1.29.08 1.94-.04 1.31-.21 2.58-.88 3.57-1.88.97-1.02 1.59-2.31 1.76-3.63.1-.66.08-1.32-.03-1.94-.1-.63-.29-1.23-.56-1.78-.52-1.11-1.36-1.97-2.25-2.58-.9-.61-1.9-.93-2.81-1.05-1.86-.23-3.36.35-4.24.89-.91.53-1.3.98-1.33.95z" class="st0"/><path d="M60.9 240.29c0 .01-.07-.03-.21-.11-.15-.09-.35-.2-.62-.36l-2.42-1.43.08-.01c-1.1 1.15-2.54 2.67-4.29 4.5l.01-.12c.63.95 1.33 2 2.07 3.13l.04.06-.03.06c-.61 1.11-1.12 2.36-1.46 3.75l-.02.07-.07.02c-1.14.28-2.37.59-3.65.91l.1-.13c.04 1.96.08 4.03.12 6.22l-.12-.14c1.14.23 2.39.49 3.68.76l.09.02.03.09c.34 1.2.88 2.48 1.6 3.68l.05.09-.05.09c-.6 1-1.27 2.1-1.94 3.21l-.03-.21c1.41 1.35 2.92 2.82 4.48 4.31l-.22-.02c.98-.64 2.05-1.35 3.14-2.06l.09-.06.1.05c1.1.61 2.38 1.13 3.73 1.46l.11.03.03.11c.28 1.14.59 2.39.9 3.65l-.19-.14c1.97-.04 4.08-.07 6.22-.11l-.18.15.76-3.68.02-.11.11-.03c1.22-.35 2.49-.88 3.67-1.59l.1-.06.1.06c1.08.65 2.15 1.3 3.21 1.95l-.24.03 4.32-4.47-.02.24c-.69-1.06-1.38-2.11-2.06-3.14l-.06-.1.06-.1c.66-1.18 1.15-2.44 1.47-3.72l.03-.11.11-.03c1.23-.3 2.45-.6 3.65-.89l-.14.18c-.03-2.12-.07-4.2-.1-6.22l.14.17c-1.25-.26-2.47-.52-3.68-.77l-.1-.02-.03-.1c-.37-1.32-.92-2.56-1.59-3.68l-.05-.09.05-.09c.67-1.1 1.32-2.17 1.95-3.21l.03.2c-1.57-1.52-3.05-2.96-4.46-4.33l.18.02c-1.11.72-2.15 1.4-3.15 2.05l-.07.05-.07-.04c-1.25-.7-2.51-1.17-3.74-1.48l-.07-.02-.02-.07c-.32-1.33-.61-2.52-.88-3.65l.11.09c-2.41.03-4.46.06-6.22.08l.08-.07c-.32 1.47-.57 2.67-.79 3.67l-.01.04-.04.01c-1.32.37-2.24.8-2.84 1.09-.29.15-.51.27-.67.35-.14.04-.22.08-.22.07 0 0 .07-.05.21-.14a14.456 14.456 0 0 1 3.5-1.54l-.04.05c.2-1.01.45-2.21.74-3.68l.01-.07h.07c1.76-.04 3.81-.08 6.22-.14h.09l.02.09c.28 1.13.58 2.32.91 3.65l-.09-.09c1.25.31 2.53.78 3.81 1.49l-.14.01c1-.66 2.03-1.34 3.14-2.07l.1-.06.08.08c1.42 1.36 2.91 2.79 4.48 4.31l.09.09-.07.11c-.63 1.04-1.28 2.11-1.94 3.21v-.17c.69 1.15 1.25 2.41 1.64 3.76l-.13-.12c1.2.25 2.43.5 3.68.76l.14.03v.14c.04 2.02.08 4.09.12 6.22v.15l-.14.03c-1.2.3-2.42.59-3.65.9l.14-.14a15.03 15.03 0 0 1-1.5 3.82l-.01-.19c.68 1.04 1.37 2.08 2.06 3.14l.08.13-.11.11a13345 13345 0 0 1-4.32 4.47l-.11.11-.13-.08c-1.06-.64-2.13-1.29-3.21-1.95h.2c-1.21.73-2.51 1.28-3.76 1.63l.13-.14c-.26 1.26-.52 2.52-.77 3.68l-.03.15h-.15c-2.14.04-4.25.07-6.22.11h-.15l-.04-.15c-.31-1.26-.61-2.51-.89-3.65l.14.14c-1.38-.34-2.69-.88-3.82-1.5l.19-.01c-1.09.71-2.16 1.42-3.14 2.06l-.12.08-.1-.1c-1.55-1.5-3.06-2.97-4.47-4.32l-.1-.09.07-.12c.68-1.12 1.35-2.21 1.95-3.21v.17a15.7 15.7 0 0 1-1.63-3.76l.12.11c-1.29-.27-2.54-.53-3.68-.77l-.12-.02v-.12c-.03-2.18-.06-4.26-.09-6.22v-.11l.11-.03c1.28-.31 2.51-.61 3.65-.88l-.09.09c.35-1.4.88-2.68 1.51-3.8v.12c-.74-1.13-1.43-2.2-2.05-3.15l-.04-.07.05-.06c1.77-1.81 3.23-3.31 4.34-4.45l.03-.04.04.03 2.37 1.47c.26.16.46.29.61.39.14.07.21.12.21.12z" class="st0"/><path d="m414.86 227.87.12-16.41 15.83 3.83z" class="st2"/><path d="m418.005 222.756 7.264-5.727 23.16 29.379-7.263 5.726z" class="st2"/><path d="m394.17 268.06 2.22-33.22 31.6 9.65z" class="st0"/><path d="m401.189 258.118 15.409-10.737 43.409 62.3-15.41 10.737z" class="st0"/></g><path id="Floor" d="M474.69 470.48c0 .14-97.7.26-218.19.26-120.54 0-218.22-.12-218.22-.26s97.68-.26 218.22-.26c120.49 0 218.19.12 218.19.26z" class="st3"/><g id="Plant"><path d="M367.17 427.17c2.09.7 3.72 2.44 4.64 4.44.92 2 1.17 4.25 1.11 6.45-.12 4.26-2.16 8.72-4.45 12.31-3.81-2.8-5.09-8.14-5.56-10.89-.75-4.34.52-12.65 4.26-12.31M373.19 456.98c-.77-2.34 0-5.03 1.69-6.82 1.69-1.78 4.19-2.69 6.65-2.71 1.14-.01 2.39.22 3.11 1.09.68.82.71 2.04.3 3.02s-1.2 1.75-2.05 2.39c-2.91 2.2-6.13 3.78-9.7 3.03" class="st4"/><path d="M369.73 470.3c-.02 0 0-.31.05-.88.06-.62.14-1.42.23-2.38.23-1.99.49-4.84 1.78-7.69 1.27-2.84 3.2-5.02 4.89-6.16.84-.58 1.58-.95 2.11-1.15.26-.11.48-.17.62-.21.14-.04.22-.06.22-.05.03.07-1.21.4-2.82 1.59-1.62 1.17-3.48 3.32-4.73 6.11-1.27 2.79-1.57 5.6-1.85 7.59-.13 1-.24 1.81-.33 2.37-.09.55-.15.86-.17.86z" class="st3"/><path d="M366.76 433.59c.01 0 .04.13.08.37.04.28.09.64.16 1.08.13.94.3 2.3.5 3.99.4 3.37.88 8.03 1.29 13.19.41 5.16.68 9.84.83 13.23.07 1.7.12 3.07.14 4.02.01.45.01.81.02 1.09 0 .25 0 .38-.01.38s-.03-.13-.05-.38c-.02-.28-.04-.64-.08-1.09l-.24-4.01c-.2-3.39-.51-8.06-.92-13.22-.41-5.16-.86-9.82-1.2-13.2-.17-1.66-.3-3.01-.4-4-.04-.45-.07-.81-.1-1.09-.03-.23-.03-.36-.02-.36z" class="st3"/><path d="M367.26 460.07c-1.24-5.03-5.07-9.36-9.92-11.2-1.23-.47-2.82-.71-3.72.26-.9.97-.55 2.54.03 3.72 2.42 4.94 8.07 8.1 13.55 7.57" class="st4"/><path d="M358.26 452.83c.01-.02.28.08.78.26.25.09.55.21.89.38.34.17.74.33 1.14.59.41.24.87.5 1.32.83.47.31.93.69 1.42 1.09.95.83 1.92 1.83 2.78 3.01.85 1.19 1.49 2.43 1.97 3.6.22.59.43 1.15.56 1.7.17.54.25 1.05.34 1.52.11.47.12.9.17 1.27.05.38.05.7.05.97.01.53 0 .82-.02.82-.07 0-.05-1.18-.41-3.02-.1-.46-.2-.97-.37-1.49-.14-.54-.36-1.08-.58-1.66a18.54 18.54 0 0 0-1.95-3.52c-.84-1.16-1.79-2.15-2.72-2.98-.47-.4-.92-.78-1.38-1.09-.44-.34-.88-.6-1.28-.85-1.63-.98-2.74-1.37-2.71-1.43z" class="st3"/></g><g id="Speech_Bubble"><path d="m377.05 188.15 11.69-6.63a31.151 31.151 0 0 0 16.38 4.63c17.27 0 31.27-14 31.27-31.27s-14-31.27-31.27-31.27-31.27 14-31.27 31.27c0 7.21 2.45 13.85 6.55 19.14l-.01-.01-3.34 14.14z" class="st5"/><path d="M377.05 188.15c.2-.9 1.19-5.24 3.2-14.18l.04-.2.16.12.01.01-.18.18c-2.77-3.54-5.48-8.63-6.35-15.02-.2-1.59-.34-3.25-.25-4.96.05-.85.07-1.72.14-2.6.13-.87.26-1.75.4-2.65.7-3.55 2.04-7.18 4.14-10.56 2.09-3.38 4.93-6.51 8.42-9.03 3.48-2.51 7.62-4.41 12.11-5.3 4.48-.88 9.29-.81 13.94.37 4.64 1.19 9.17 3.4 12.89 6.72 3.81 3.36 6.85 7.5 8.62 12.08 1.81 4.55 2.49 9.41 2.16 14.05-.34 4.64-1.67 9.08-3.81 12.89a31.943 31.943 0 0 1-8.14 9.53 32.087 32.087 0 0 1-10.16 5.34c-3.5 1.08-6.98 1.37-10.19 1.36a31.19 31.19 0 0 1-15.53-4.69h.13c-7.42 4.14-10.98 6.12-11.75 6.54l11.63-6.74.06-.04.06.04c3.73 2.28 9.01 4.39 15.41 4.54 3.18 0 6.61-.3 10.06-1.38 3.44-1.09 6.88-2.83 10.01-5.3 3.12-2.46 5.91-5.64 8-9.41 2.11-3.76 3.41-8.13 3.73-12.7.33-4.57-.36-9.34-2.14-13.82-1.74-4.5-4.74-8.57-8.48-11.88-3.66-3.26-8.12-5.44-12.68-6.61a31.54 31.54 0 0 0-13.72-.38c-4.42.87-8.49 2.74-11.93 5.2a31.473 31.473 0 0 0-8.32 8.87c-2.08 3.33-3.42 6.9-4.12 10.4-.14.88-.27 1.75-.4 2.61-.08.86-.1 1.72-.15 2.57-.09 1.69.03 3.33.23 4.9.83 6.32 3.47 11.38 6.19 14.91l.62.8-.8-.62-.01-.01.21-.07c-2.18 8.9-3.24 13.23-3.46 14.12z" class="st3"/><path d="M400.02 152.01h1.83l3.99-5.56v-3.65s2.83-.17 2.49 4.61c-.33 4.78.03 3.56.03 3.56s6 .02 6.5.54c.36.38.53 6.34.59 9.58.03 1.63-.97 3.14-2.48 3.53-.22.06-.43.09-.65.09-1.5 0-9.15-1.22-9.15-1.22h-3.16v-11.48zM394.78 151.01l1.13 12.51h3.13v-12.26z" class="st6"/></g><g id="Characters"><path d="m148.25 207.16-15.01 5.5-7.91 16.66c-.37 3.44-9.01 38.16-9.01 38.16l-8.65 30.92c16.56 7.57 38.52 18.37 60.51 17.49l2.82-26.52 15.08-57.63-11.51-22.86-3.94-.53-22.38-1.19z" class="st7"/><path d="m78.48 433.13-11.3 14.75s11.19 16.44 9.37 19.37l-29.38-20.89 16.67-23.7 14.64 10.47z" class="st8"/><g class="st9"><path d="M59 440.14c-.68-.25-1.53.11-1.8.78-.28.67.08 1.53.76 1.79.67.26 1.71-.14 1.9-.84.2-.7-.28-1.69-.99-1.78" class="st5"/></g><g class="st9"><path d="m47.17 446.36 1.77-2.32 27.5 20.89s.9 1.5.1 2.31l-29.37-20.88z" class="st5"/></g><path d="M67.76 448.06c-.11.14-.87-.3-1.9-.35-1.03-.07-1.84.3-1.93.14-.11-.12.71-.83 1.96-.76 1.25.08 1.99.86 1.87.97zM69.93 451.53c-.07.16-.86-.04-1.78.22-.93.23-1.52.8-1.65.69-.15-.07.35-.98 1.5-1.29 1.14-.3 2.03.24 1.93.38zM69.06 456.46c-.15-.06.16-.92 1.08-1.44.92-.53 1.82-.36 1.8-.2 0 .18-.74.29-1.49.73-.77.42-1.24 1-1.39.91zM69.96 444.42c-.15.09-.67-.58-1.52-1.1-.84-.54-1.66-.71-1.65-.89-.01-.16.98-.26 1.98.37.99.62 1.34 1.55 1.19 1.62z" class="st3"/><path d="m73.34 440.26-2.01 2.63-14.34-10.4 1.7-2.44z" class="st10"/><path d="M72.19 441.4c-.04.06-.67-.25-1.47-1.05-.4-.4-.82-.92-1.2-1.57-.19-.32-.37-.67-.53-1.05-.07-.18-.17-.39-.2-.66-.05-.26.13-.71.48-.81.31-.12.65-.03.86.12.22.15.37.32.5.47.27.31.5.64.69.96.38.65.61 1.3.72 1.85.23 1.12.08 1.82.02 1.81-.1 0-.11-.68-.43-1.7-.16-.51-.41-1.09-.79-1.67-.19-.29-.41-.58-.66-.86-.25-.3-.52-.49-.69-.41-.07.03-.09.05-.08.19.01.13.08.3.15.48.14.35.3.69.46 1 .33.62.7 1.14 1.03 1.56.67.83 1.19 1.26 1.14 1.34z" class="st3"/><path d="M71.85 441.47c-.07-.01.01-.73.62-1.7.3-.48.75-1 1.35-1.47.3-.23.64-.45 1.01-.63.38-.17.86-.41 1.47-.08.3.2.38.59.32.85-.04.27-.15.45-.23.65-.19.38-.44.71-.7.99-.54.56-1.16.9-1.71 1.07-1.12.35-1.84.1-1.81.04 0-.11.7-.03 1.66-.45.47-.21 1-.55 1.45-1.05.22-.25.42-.54.58-.87.18-.35.24-.68.1-.73-.14-.11-.56-.05-.86.12-.34.16-.65.34-.93.54-.56.4-1 .85-1.33 1.27-.67.84-.89 1.49-.99 1.45z" class="st3"/><path d="m167.83 443.03-6.52 16.39s18.7 6.76 18.94 10.2l-36.04.29 5.62-26.78 18-.1z" class="st8"/><g class="st9"><path d="M150.16 457.94c-.7.2-1.17.98-1 1.69.17.7.96 1.19 1.66 1.01.7-.18 1.3-1.11 1.05-1.79-.25-.68-1.21-1.21-1.85-.86" class="st5"/></g><g class="st9"><path d="m144.21 469.91.61-2.91 34 .8s1.61.69 1.44 1.82l-36.05.29z" class="st5"/></g><path d="M161.9 459.23c0 .18-.88.26-1.75.84-.88.55-1.32 1.32-1.48 1.25-.16-.03.09-1.09 1.15-1.76 1.05-.7 2.11-.5 2.08-.33zM165.69 460.76c.04.17-.72.48-1.31 1.22-.61.73-.76 1.54-.93 1.53-.17.03-.3-1 .46-1.92.74-.92 1.78-1 1.78-.83zM167.87 465.27c-.16.04-.41-.84.03-1.81.44-.97 1.26-1.36 1.34-1.21.1.14-.43.67-.78 1.47-.37.79-.41 1.53-.59 1.55zM163.29 455.88c-.07.16-.88-.08-1.88 0-1 .06-1.77.4-1.86.25-.1-.13.65-.78 1.82-.86 1.17-.08 2 .47 1.92.61zM163.63 453.73c0 .07-.69.19-1.81.01-.55-.09-1.21-.27-1.89-.57-.34-.15-.69-.33-1.04-.54-.17-.11-.36-.21-.55-.42-.2-.18-.31-.65-.09-.94.18-.28.51-.4.77-.41.27-.01.48.04.68.09a6.425 6.425 0 0 1 2.8 1.46c.84.77 1.13 1.42 1.07 1.46-.08.06-.49-.49-1.35-1.12-.43-.31-.97-.64-1.62-.89a6.32 6.32 0 0 0-1.04-.31c-.38-.1-.71-.1-.8.07-.03.07-.04.09.04.2.08.1.24.2.4.31a9.578 9.578 0 0 0 2.71 1.19c1.05.27 1.73.31 1.72.41z" class="st3"/><path d="M163.59 453.73c-.06.03-.42-.6-.49-1.74-.03-.57.02-1.25.23-1.98.11-.36.26-.73.45-1.1.21-.36.46-.84 1.14-.92.36-.02.66.26.76.5.12.24.15.45.19.66.07.42.07.83.01 1.22-.11.77-.42 1.41-.76 1.87-.7.94-1.43 1.16-1.44 1.1-.06-.09.55-.43 1.08-1.33.26-.44.49-1.03.56-1.7.03-.33.02-.69-.04-1.04-.06-.38-.21-.69-.35-.65-.18 0-.48.29-.63.6-.18.32-.33.66-.44.98a6.88 6.88 0 0 0-.34 1.8c-.03 1.04.16 1.7.07 1.73z" class="st3"/><path d="m209.99 147.67-5.54 37.68-25.39 24.33 9.4 16.21 28.82-26.91c2.18-1.65 3.71-4.01 4.33-6.67l.01-38.95-.19-12.68-11.44 6.99z" class="st11"/><path d="M108.36 295.47c-.74 1.48-14.38 72.3-14.38 72.3l-38.11 62.01 19.81 14.43 47.09-61.36 25.75-77.99-40.16-9.39z" class="st3"/><path d="M160.11 302.83c1.11.74 30.26 61.57 29.89 66.01-.37 4.44-22.35 85.65-22.35 85.65l-22.39-4.12 13.87-79.23-26.31-36.94 8.59-33.61 18.7 2.24z" class="st3"/><path d="m190.65 196.25-14.45 12-2.7.42 10.88 24.04 20.06-16.19z" class="st6"/><path d="m148.25 207.16-15.01 5.5-7.91 16.66c-.37 3.44-9.01 38.16-9.01 38.16l-8.65 30.92c16.56 7.57 38.52 18.37 60.51 17.49l2.82-26.52 15.22-58.16-11.65-22.34-3.94-.53-22.38-1.18z" class="st6"/><path d="M170.27 211.7c.36-2.77.67-5.09.72-5.37 0 0 9.5.35 11.39-8.85.92-4.44 2.06-13.75 2.99-22.18 1-9.06-5.13-17.36-14.07-19.09l-.89-.17c-9.7-1.29-16.22 6.22-17.24 15.95l-4.66 35.53s8.99 8.02 14.23 10.6c6.77 3.33 7.53-6.42 7.53-6.42z" class="st11"/><path d="M171.03 206.2s-5.92-.65-11.36-5.74c0 0 1.56 7.18 10.92 8.13l.44-2.39z" class="st12"/><path d="M183.11 179.62c-.19.16-1.44-.38-3.17-.26-1.73.11-2.98.82-3.18.68-.09-.06.1-.34.64-.66s1.46-.65 2.54-.73c1.08-.07 2 .14 2.53.39.55.26.74.51.64.58zM168.61 178.4c-.24.05-1.12-.97-2.72-1.63-1.59-.67-3.02-.6-3.13-.8-.06-.09.24-.25.86-.29.62-.04 1.59.07 2.58.48 1 .41 1.72 1.01 2.09 1.46.38.46.44.76.32.78zM167.74 180.79c-.08.54-.61.91-1.18.84-.56-.08-.96-.58-.87-1.12.08-.54.61-.91 1.18-.84.56.08.95.58.87 1.12zM181.71 183.29c-.08.54-.61.91-1.18.84-.57-.08-.96-.58-.87-1.12.08-.54.61-.91 1.18-.84.56.08.96.58.87 1.12zM171.66 188.51c.01-.08.92-.06 2.38.03.37.03.73.03.83-.21.14-.24.06-.66-.03-1.12-.17-.94-.35-1.93-.54-2.96-.73-4.21-1.18-7.64-1.01-7.67.17-.03.9 3.36 1.62 7.57.17 1.04.33 2.02.49 2.97.06.44.2.95-.09 1.46-.15.25-.45.4-.7.41-.25.03-.45-.01-.63-.03-1.44-.2-2.33-.37-2.32-.45zM169.07 171.29c-.19.33-1.41-.08-2.91-.18-1.5-.13-2.77.08-2.9-.27-.06-.17.21-.46.76-.71.54-.25 1.36-.42 2.26-.36.9.07 1.68.37 2.17.7.49.33.71.66.62.82zM183.51 175.92c-.2.26-1.37-.19-2.84-.41-1.46-.25-2.71-.18-2.83-.49-.05-.15.22-.37.76-.53.54-.16 1.34-.24 2.22-.1.88.14 1.63.47 2.1.79.48.32.68.62.59.74z" class="st3"/><path d="M152.61 178.96c-.14-.1-5.97-3.1-6.99 3.24-1.02 6.34 5.56 6.05 5.6 5.87.04-.18 1.39-9.11 1.39-9.11z" class="st11"/><path d="M149.67 185.36c-.02-.02-.12.06-.32.12-.2.05-.52.06-.83-.12-.63-.35-1.02-1.51-.87-2.66.08-.58.29-1.11.56-1.53.27-.43.62-.71.97-.71.35-.02.55.22.6.41.06.19 0 .31.03.33.02.02.15-.08.14-.35a.76.76 0 0 0-.19-.44.829.829 0 0 0-.58-.26c-.49-.04-1.01.33-1.31.8a3.89 3.89 0 0 0-.67 1.71c-.16 1.28.3 2.58 1.17 3 .43.19.82.11 1.04-.01.22-.14.28-.27.26-.29z" class="st12"/><path d="M169.63 192.74c.09-.15-1.12-.67-1.85-1.95-.37-.63-.55-1.29-.68-1.77s-.24-.79-.31-.78c-.07.01-.09.33-.05.84.05.51.18 1.25.6 1.96.41.72 1.02 1.19 1.48 1.44.46.26.79.31.81.26zM198.7 168.42c-.06-.39-.29-.73-.6-.96-.68-.52-1.52-.56-2.33-.67-2.46-.33-4.82-1.37-6.74-2.95-.81-1.52-1.74-2.96-2.78-4.33-2.47-3.24-4.56-5.49-6.84-6.74-2.95-1.62-8.08-2.74-11.41-2.27-3.33.46-6.55 2.74-7.39 6-1.63-1.75-4.35-2.06-6.67-1.43l-.05-.03c-2.56.58-4.27 3.02-5.29 5.44-1.02 2.42-1.65 5.07-3.24 7.16-.33.44-.73.96-.55 1.48.14.4.6.61 1.03.6.43-.01.82-.2 1.21-.38-.35.62-.7 1.25-1.06 1.87.87.26 1.8.3 2.7.14.24 2.41.55 5.16.96 6.82 1.03.12 1.96.3 2.53.95.77.88.98 2.38 2.48 2 .76-.2 1.61-1.64 1.94-2.36 2.2-4.73 3.36-9.94 3.39-15.16 1.15-.97 2.48-1.71 3.91-2.17l-.12.09c2.7-.59 5.75-1.13 8.07.38 1.8 1.17 2.69 3.29 3.93 5.04 2.35 3.32 5.81 5.38 9.83 6.04-.17 2.63-.83 6.3-1 8.94l2.7-3.93v.02c.22-.29.4-.58.58-.87l.06-.09v-.01c.29-.47.56-.94.91-1.4.01.01.01.02.02.03 1.27 1.42 3.58-.25 2.65-1.9a3.77 3.77 0 0 0-.7-.89c.58.69 1.51 1.09 2.39.93.88-.16 1.64-.94 1.67-1.84.02-.61-.35-1.2-.86-1.51 1.13.22 2.33.11 3.4-.34.68-.32 1.4-.85 1.27-1.7z" class="st3"/><path d="M163.41 157.91c.02.03-.42.2-1.03.74-.61.54-1.34 1.52-1.79 2.92-.23.69-.42 1.48-.52 2.33-.11.86-.15 1.78-.19 2.75-.05.97-.1 2-.29 3.06-.09.53-.22 1.06-.4 1.58-.18.52-.39 1.07-.84 1.48-.36.33-.91.43-1.36.29a2.09 2.09 0 0 1-1.1-.81c-.52-.77-.56-1.67-.62-2.47l.19.05c-.4.66-.81 1.32-1.36 1.81-.54.5-1.25.79-1.92.77-.34-.01-.67-.1-.94-.28-.28-.18-.46-.45-.58-.72-.11-.28-.15-.57-.1-.85.05-.27.19-.52.38-.69l.09.1c-.81.73-1.62 1.08-2.17 1.26-.28.09-.5.14-.65.17-.15.03-.23.03-.23.03 0-.01.07-.03.22-.06.15-.04.36-.1.63-.2.54-.2 1.32-.56 2.11-1.29l.09.1c-.35.29-.44.87-.23 1.37.11.25.28.49.52.64.24.16.54.24.85.24.62.01 1.28-.26 1.79-.74.52-.47.92-1.11 1.31-1.78l.17-.28.02.33c.06.8.11 1.67.59 2.36.24.33.59.6.99.72.4.13.84.04 1.16-.24.4-.35.6-.88.78-1.39.17-.51.3-1.03.4-1.55.19-1.04.24-2.06.3-3.03.05-.97.1-1.9.22-2.77.11-.87.31-1.66.55-2.36.48-1.41 1.25-2.4 1.88-2.93.64-.51 1.08-.66 1.08-.66zM191.09 170.37s-.03.02-.08.05c-.07.04-.15.08-.25.14-.11.06-.25.14-.42.21-.17.07-.37.16-.6.23-.91.31-2.34.55-4.06.24-1.7-.3-3.69-1.15-5.36-2.74-1.7-1.56-3.09-3.72-4.16-6.13-.54-1.21-.96-2.42-1.44-3.56-.48-1.14-1.03-2.2-1.74-3.08-.7-.88-1.56-1.56-2.49-1.94-.46-.2-.93-.29-1.39-.33-.46-.03-.91.01-1.32.1-.83.17-1.53.54-2.08.94-.55.4-.93.85-1.21 1.24-.52.8-.61 1.35-.65 1.34 0 0 0-.03.02-.1.02-.08.05-.17.08-.28.07-.24.22-.59.48-1.01a5.42 5.42 0 0 1 3.33-2.28c.43-.09.89-.14 1.37-.11.48.04.97.13 1.45.33.96.39 1.85 1.09 2.57 1.98.74.89 1.3 1.97 1.78 3.12.49 1.15.9 2.36 1.44 3.56 1.06 2.39 2.43 4.53 4.1 6.07 1.64 1.57 3.58 2.42 5.25 2.73 1.69.32 3.1.11 4.01-.17.9-.29 1.36-.58 1.37-.55z" class="st4"/><path d="M192.42 166.38c.01.01-.12.08-.36.19-.24.12-.59.25-1.05.38-.45.14-1 .25-1.62.33-.62.07-1.31.09-2.03.03-.72-.07-1.39-.2-2-.38-.6-.18-1.12-.39-1.54-.6-.42-.21-.75-.4-.97-.56-.22-.15-.33-.24-.32-.25.02-.03.5.29 1.35.67.42.19.94.38 1.53.55.59.16 1.25.29 1.96.35.7.06 1.38.04 1.99-.01.61-.06 1.15-.16 1.6-.28.92-.22 1.45-.45 1.46-.42z" class="st4"/><path d="M129.28 237.52s12.55 18.16 21.56 18.01h3.15l1.5-2.7s19.96 4.05 24.44 2.42l-24.74-9.18-4.76 2.77-21.15-11.32z" class="st10"/><path d="M144.73 245.84s44.99 13.11 50.29 11.89c5.3-1.22 38.18-27.57 38.18-27.57l-7.42-8.93L191.83 240l-40.74-12.93-6.36 18.77z" class="st11"/><path d="M133.43 212.59s-7.52 1.66-8.63 14.02c-1.32 14.75 27.81 26.29 27.81 26.29L167 228.82l-33.57-16.23z" class="st6"/><path d="M149.02 222.21c.01-.01.12.03.32.12.24.11.54.24.91.41.84.39 1.99.93 3.43 1.61 2.99 1.44 7.19 3.45 12.21 5.87l.22.1-.12.21-9.79 16.96c-1.09 1.88-2.16 3.72-3.19 5.48l-.11.18-.2-.07c-4.29-1.49-8.23-3.22-11.55-5.2a44.46 44.46 0 0 1-8.08-6.13c-4.12-4-6.01-6.92-6.01-6.92.01-.01.16.15.43.46.3.35.69.81 1.17 1.38 1.04 1.18 2.55 2.9 4.64 4.83 2.08 1.94 4.77 4.07 8.08 5.99 3.3 1.94 7.21 3.63 11.48 5.11l-.31.11c1.02-1.77 2.09-3.61 3.18-5.49 3.61-6.21 7-12.01 9.86-16.92l.1.31c-4.99-2.48-9.16-4.55-12.13-6.03-1.42-.72-2.55-1.3-3.38-1.72-.36-.19-.65-.34-.88-.47-.18-.11-.28-.17-.28-.18zM183.96 225.89c-.14.05-1.38-2.97-3.2-6.57-1.81-3.6-3.51-6.39-3.38-6.48.06-.04.56.62 1.28 1.73a52.225 52.225 0 0 1 4.68 9.25c.45 1.25.68 2.04.62 2.07z" class="st3"/><path d="M75.68 444.21c-.01-.01.06-.11.2-.31.16-.22.37-.5.63-.87.58-.78 1.41-1.89 2.47-3.3 2.18-2.88 5.31-7 9.16-12.08 7.79-10.19 18.53-24.22 30.38-39.72 1.38-1.8 2.75-3.58 4.03-5.25l-.04.08c5.67-17.08 10.72-32.27 14.36-43.24 1.83-5.44 3.31-9.83 4.34-12.89.51-1.49.91-2.65 1.2-3.47.13-.37.24-.67.32-.9.08-.2.12-.3.13-.3.01 0-.02.11-.08.32-.07.23-.16.53-.28.91-.26.83-.63 2-1.11 3.5-.99 3.07-2.42 7.47-4.19 12.94-3.6 10.98-8.59 26.19-14.2 43.29l-.01.04-.03.04-4.03 5.26c-11.9 15.46-22.68 29.46-30.5 39.63-3.91 5.04-7.08 9.12-9.29 11.97-1.09 1.39-1.95 2.47-2.55 3.24-.28.35-.5.63-.67.83-.15.19-.23.28-.24.28zM167.59 366.96c.05.14-1.92.95-4.4 1.83-2.48.87-4.53 1.47-4.58 1.34-.05-.14 1.92-.95 4.41-1.83 2.47-.87 4.52-1.47 4.57-1.34zM167.31 373.32c-.04.14-1.78-.23-3.89-.83-2.11-.6-3.79-1.2-3.75-1.33.04-.14 1.78.23 3.89.83 2.1.59 3.78 1.19 3.75 1.33z" class="st4"/><path d="M168.03 285.03c.02.03-.39.31-1.14.8-.75.49-1.87 1.15-3.29 1.9-2.83 1.51-6.91 3.31-11.63 4.66-4.72 1.34-9.14 1.96-12.34 2.17-1.6.11-2.9.14-3.8.12-.9-.01-1.39-.04-1.39-.08s.49-.08 1.39-.13c.89-.04 2.18-.13 3.77-.28 3.18-.3 7.55-.97 12.23-2.3 4.68-1.34 8.75-3.07 11.61-4.48 1.43-.71 2.58-1.31 3.36-1.74.76-.45 1.21-.67 1.23-.64z" class="st3"/><path d="m316.31 443.61 6.69 16.32s-18.63 6.96-18.83 10.4l36.04-.09-5.9-26.72-18 .09z" class="st8"/><g class="st9"><path d="M334.14 458.34c.7.19 1.18.97 1.02 1.68-.16.71-.95 1.2-1.65 1.03-.7-.18-1.31-1.1-1.07-1.78.24-.68 1.2-1.22 1.84-.88" class="st5"/></g><g class="st9"><path d="m340.21 470.24-.64-2.9-33.99 1.16s-1.6.7-1.42 1.83l36.05-.09z" class="st5"/></g><path d="M322.41 459.75c.01.18.89.25 1.75.82.88.54 1.33 1.3 1.49 1.23.16-.03-.1-1.09-1.17-1.75-1.04-.68-2.1-.46-2.07-.3zM318.64 461.32c-.04.17.72.47 1.32 1.21.62.73.77 1.53.95 1.52.17.03.28-1-.48-1.91-.75-.92-1.79-.99-1.79-.82zM316.5 465.85c.16.04.4-.84-.05-1.81-.45-.97-1.28-1.34-1.35-1.2-.1.15.44.66.8 1.46.37.79.43 1.53.6 1.55zM320.99 456.42c.07.16.88-.08 1.88-.02 1 .04 1.77.38 1.86.23.1-.13-.66-.78-1.83-.84-1.17-.07-2 .49-1.91.63zM320.62 454.27c0 .07.69.18 1.81-.01.55-.1 1.2-.28 1.89-.58.34-.15.69-.34 1.04-.55.17-.11.36-.22.54-.43.19-.18.3-.65.08-.94a.944.944 0 0 0-.77-.4c-.27-.01-.48.05-.68.1-.4.1-.78.23-1.12.39-.69.31-1.25.71-1.66 1.1-.83.78-1.12 1.43-1.06 1.47.08.06.49-.49 1.33-1.14.42-.32.96-.65 1.61-.91.32-.13.67-.24 1.04-.32.38-.1.71-.1.8.06.04.06.04.09-.04.2-.08.1-.24.2-.4.31-.32.21-.64.39-.95.55-.63.31-1.23.53-1.74.67-1.04.28-1.72.33-1.72.43z" class="st3"/><path d="M320.67 454.27c.06.03.41-.6.47-1.74a5.837 5.837 0 0 0-.71-3.07c-.21-.36-.47-.83-1.15-.91-.36-.01-.65.27-.75.51-.12.24-.14.45-.18.66a4.125 4.125 0 0 0 .78 3.08c.71.93 1.44 1.14 1.46 1.08.06-.09-.56-.43-1.1-1.32-.27-.44-.5-1.02-.58-1.69-.04-.33-.03-.69.03-1.04.06-.38.2-.69.34-.65.18 0 .48.28.63.59a6.126 6.126 0 0 1 .8 2.78c.05 1.03-.14 1.69-.04 1.72z" class="st3"/><path d="M339.9 308.31c-1.02.51-38.03 52.29-48.7 66.55-1.96 2.61-2.87 5.97-2.06 9.13 4.73 18.41 24.14 74.95 24.14 74.95l25.99-5.39-16.32-67.58 40.34-43.27-4.55-34.39H339.9z" class="st3"/><path d="M322.6 387.02c-.07.12-1.58-.61-3.37-1.64-1.79-1.03-3.18-1.96-3.11-2.09.07-.12 1.58.61 3.37 1.64 1.79 1.03 3.18 1.96 3.11 2.09z" class="st4"/><path d="M232.68 187.67c.18.1 1.69.85 3.1 1.55a9.34 9.34 0 0 1 3.95 3.7c1.07 1.85 2.37 4.09 2.49 4.17.2.15 5.35 4.15 5.35 4.15l-7.27 9.99-2-1.62s-7.27-.39-10-1.72c-2.74-1.33-5.27-3.49-4.95-4.44l.42-1.25s-1.14-1.69-.7-3.26c0 0-1.66-1.92-1.36-3.29.49-2.21 2.56-2.5 2.56-2.5s-.81-2.24 0-3.43c.81-1.2 2.45-1.54 2.45-1.54l6.8 2.93-.84-3.44z" class="st13"/><path d="m417.77 446.27 11.89 14.27s-10.51 16.88-8.57 19.73l28.5-22.07-17.62-23-14.2 11.07z" class="st8"/><g class="st9"><path d="M437.52 452.48c.67-.28 1.53.05 1.83.71.3.66-.02 1.54-.68 1.82-.66.29-1.71-.07-1.94-.76-.23-.69.21-1.7.92-1.82" class="st5"/></g><g class="st9"><path d="m449.59 458.21-1.87-2.25-26.63 22s-.84 1.53-.01 2.32l28.51-22.07z" class="st5"/></g><path d="M429.09 460.75c.11.14.86-.34 1.89-.42 1.03-.11 1.85.22 1.93.07.11-.13-.74-.8-1.99-.68-1.25.11-1.96.93-1.83 1.03zM427.05 464.3c.07.16.86-.07 1.79.15.93.2 1.55.74 1.68.63.15-.08-.39-.97-1.55-1.22-1.15-.27-2.02.31-1.92.44zM428.13 469.19c.15-.07-.2-.91-1.14-1.4-.94-.49-1.83-.28-1.8-.12.01.18.75.26 1.52.67.77.39 1.27.95 1.42.85zM426.74 457.2c.16.08.65-.6 1.47-1.16.82-.57 1.63-.78 1.61-.96 0-.16-.99-.22-1.96.45-.97.66-1.28 1.61-1.12 1.67z" class="st3"/><path d="m423.19 453.18 2.12 2.55 13.9-10.97-1.8-2.38z" class="st10"/><path d="M424.39 454.27c.04.06.66-.28 1.42-1.11.38-.41.78-.96 1.14-1.62.18-.33.34-.69.48-1.07.07-.19.16-.39.17-.67.04-.26-.16-.7-.51-.79-.32-.11-.65 0-.86.15-.22.16-.35.33-.48.49-.26.32-.47.66-.65.99-.35.67-.55 1.33-.65 1.88-.19 1.12-.01 1.82.06 1.81.1 0 .08-.69.36-1.71.14-.51.37-1.1.72-1.7.18-.3.38-.6.62-.89.24-.31.5-.51.68-.44.07.03.09.05.09.18s-.06.31-.13.49c-.12.36-.27.7-.42 1.01-.31.63-.65 1.17-.97 1.6-.62.88-1.13 1.33-1.07 1.4z" class="st3"/><path d="M424.73 454.33c.07-.02-.04-.73-.69-1.67-.32-.47-.79-.97-1.4-1.41-.31-.22-.66-.42-1.03-.59-.38-.15-.88-.37-1.47-.02-.29.21-.35.61-.29.86.05.27.16.45.26.64.21.37.46.7.74.96.56.54 1.2.85 1.75 1 1.13.31 1.84.02 1.81-.03-.01-.11-.7 0-1.68-.38-.48-.19-1.03-.5-1.49-.99-.23-.24-.45-.53-.61-.85-.19-.34-.27-.67-.13-.73.14-.11.56-.07.86.08.34.14.66.31.95.5.58.38 1.04.81 1.38 1.21.69.82.94 1.46 1.04 1.42z" class="st3"/><path d="M392.16 307.12c.56 1.56 7.17 81.48 7.17 81.48l44.57 59.06-18.94 13.21-50.37-51.72a17.93 17.93 0 0 1-4.79-8.91l-18.62-88.55 40.98-4.57z" class="st3"/><path d="m286.78 223.38 39.23.85 2.7.42-10.88 24.04-40.06-5.76-39.34-29.1 10.51-14.72z" class="st6"/><path d="m349.47 222.38 15.06 3.9c3.84 1.14 6.9 4.04 8.27 7.8l4.23 15.3 8.86 34.09 8.65 30.92c-15.4 7.04-27.61 16.64-46.94 17.24-2.7.08-5.39-.41-7.88-1.47l-12.64-5.38 4.12-19.42-15.08-57.63 11.51-22.86 3.94-.53 17.9-1.96z" class="st6"/><path d="M293.11 203.62c-.1-.59.03-1.2.33-1.72.72-1.22 2.04-1.79 3.3-2.31.17-1.81.05-3.65-.37-5.42-.6.25-1.27.3-1.91.17-.1.01-.21.03-.32.02-1.44-.09-2.27-1.87-1.92-3.28.35-1.4 1.46-2.47 2.52-3.45-.9.41-1.46 1.33-2.23 1.94-.78.62-2.14.79-2.6-.09-.14-.27-.16-.58-.18-.88-.04-.61-.07-1.22-.11-1.83-.03-.49-.04-1.04.28-1.41.23-.26.57-.38.85-.59.93-.68.98-2.14 1.9-2.82.68-.51 1.6-.43 2.44-.55.84-.11 1.79-.66 1.74-1.5-1.22-.22-2.5-.46-3.48-1.21-.99-.75-1.58-2.19-.98-3.27.47-.85 1.47-1.23 2.39-1.53 1.03-.34 2.37-.6 3.02.27 1.22-.96 3.27-.54 4.02.82.83-.42 1.67-.84 2.5-1.27-1.03-.5-2.24-.58-3.2-1.2s-1.44-2.22-.49-2.85c.35-.23.81-.27 1.12-.55.22-.2.35-.52.62-.64.2-.09.43-.04.65 0l6.88 1.47-2.82-2.88c-.87-.89-1.79-2.21-1.09-3.24.67-.99 2.37-.59 2.99.44.9-.68 2.4-.25 2.81.81.61-.57 1.62-.68 2.33-.24.72.44 1.09 1.38.86 2.18a5.48 5.48 0 0 1 2.92-.23c-.48-1.17.97-2.58 2.13-2.07-.18-.56-.37-1.16-.2-1.72.17-.56.85-1.01 1.36-.7-.45-.68-.41-1.65.09-2.29.5-.64 1.42-.92 2.2-.66.16-.48.32-.96.48-1.45.92-.39 2.09-.39 2.8.31s.54 2.17-.42 2.44c.65-.26.9.83.72 1.51-.25.94-.49 1.88-.74 2.82.42-.88 1.48-1.46 2.44-1.2.32-.86 1.47-1.3 2.28-.86.09-1.11 1.92-1.48 2.44-.5 0-.49.57-.74 1.04-.86.68-.18 1.42-.36 2.06-.08.64.28 1.01 1.23.48 1.7.44-.53 1.39-.19 1.64.44.26.63.02 1.36-.29 1.97-.31.61-.7 1.2-.78 1.88.34-.6 1.04-.87 1.69-1.1 1.16-.4 2.37-.81 3.58-.62.02-.52.64-.79 1.16-.87 1.61-.27 3.31-.05 4.8.63.7.32 1.45.92 1.35 1.68-.05.35-.27.65-.48.93-.9 1.18-1.79 2.36-2.69 3.54 2.14-.14 4.33.41 6.14 1.56.86.14 1.78-.16 2.61.1.83.26 1.31 1.63.49 1.94.66.2 1.14.88 1.1 1.57-.02.3-.14.58-.32.82-.05.2-.11.4-.22.59-.2.35-.46.63-.76.86-.18.62-.68 1.16-1.3 1.34.88.34 1.74.73 2.44 1.34.92.8 1.55 2.06 1.24 3.24-.02.06-.05.12-.07.18.06.44-.03.9-.3 1.24.23.21.4.49.46.81 1.33-.01 2.64.76 3.28 1.94.63 1.17.56 2.69-.18 3.8-.59.89-2.14 1.36-2.59.4-.07.94-.64 1.82-1.46 2.27 1.21.99 1.22 3.1.02 4.1 1.91.63 2.44 3.6.87 4.86.77.91.65 2.43-.26 3.2s-2.44.64-3.2-.27c-.1.92-.23 1.89-.82 2.6-.59.71-1.81.97-2.41.27.1 1.87-1.93 3.52-3.74 3.03.39.94-.06 2.14-.97 2.59-.91.45-2.14.07-2.64-.81-1.63.61-3.25 1.22-4.88 1.83-1.08.4-2.17.81-3.3 1.01a9.33 9.33 0 0 1-4.36-.29c-.45-.14-.92-.32-1.39-.25-.54.08-.97.47-1.4.8-2.27 1.75-5.49 2.19-8.15 1.11-.42-.17-.84-.38-1.29-.41-.52-.03-1.02.18-1.51.35-1.2.44-2.46.73-3.73.85-1.09.11-2.31.06-3.12-.67-.82-.73-.81-2.35.22-2.73-.17-.69-.6-1.36-1.25-1.64-.66-.28-1.54-.04-1.82.62-.28.65.34 1.55 1.04 1.38-.81 1.18-2.92.78-3.47-.55-.54-1.32.36-2.94 1.69-3.47a6.578 6.578 0 0 1-1.21-2.91c-.34 1.13-1.69 1.83-2.82 1.47-.23 1.07-.8 2.11-1.74 2.66-.94.55-2.3.45-2.98-.4-.69-.85-.33-2.39.73-2.66-1.16-.87-.75-3.04.64-3.44-.72-1.22-.45-2.93.6-3.87-.6.79-1.97.79-2.57 0-.24 1.21-1.84 1.56-3.06 1.36-.97-.12-1.97-.49-2.19-1.75z" class="st3"/><path d="M293.11 203.62s0 .15.1.42c.09.27.31.68.8.98.49.29 1.2.48 2.04.49.42-.01.89-.07 1.34-.27.45-.19.91-.59 1.02-1.17l-.11.03c.53.74 1.93.92 2.68.01l-.11-.1c-.96.84-1.43 2.55-.63 3.98l.05-.13c-.68.19-1.18.83-1.32 1.54-.16.7 0 1.57.65 2.06l.04-.18c-.78.2-1.22 1.06-1.16 1.85.02.84.76 1.55 1.6 1.7.83.18 1.78-.07 2.43-.69.66-.6 1.08-1.45 1.27-2.35l-.16.09c1.08.36 2.56-.26 2.98-1.55l-.25-.02c.14.97.54 2.05 1.23 2.97l.06-.21c-.65.26-1.2.75-1.55 1.37-.35.61-.51 1.39-.28 2.12.22.74.91 1.27 1.65 1.43.73.18 1.65.01 2.13-.69l.23-.33-.39.1c-.39.1-.81-.27-.89-.7-.12-.44.21-.88.66-1.03.45-.17.98-.08 1.37.25.39.31.66.8.79 1.31l.1-.19c-.37.14-.67.46-.79.82-.14.36-.14.76-.06 1.13.08.37.26.73.54 1.01.28.27.62.45.97.58.72.25 1.48.25 2.22.19.74-.07 1.48-.19 2.21-.37 1.48-.24 2.86-1.41 4.25-.49 1.45.61 3.1.78 4.7.51.8-.14 1.59-.38 2.33-.74.74-.34 1.42-.89 2.05-1.35.32-.22.67-.33 1.04-.27.37.05.75.21 1.17.32.81.23 1.66.35 2.52.36 1.73.04 3.41-.53 5.01-1.15 1.61-.6 3.24-1.21 4.9-1.83l-.24-.09c.52.9 1.75 1.37 2.81.93 1.05-.45 1.61-1.78 1.17-2.88l-.24.27c1.8.51 4.07-1.08 4-3.24l-.36.15c.33.39.89.54 1.37.46.49-.07.96-.3 1.31-.69.68-.78.81-1.82.92-2.76l-.37.11c.79.93 2.34 1.16 3.41.36 1.06-.81 1.26-2.5.38-3.57l-.03.3c.8-.63 1.12-1.76.95-2.78-.15-1.02-.81-2.09-1.89-2.45l.07.37c1.22-1.01 1.36-3.26-.02-4.43l-.03.36c.83-.44 1.5-1.38 1.58-2.44l-.41.08c.11.24.32.45.57.55.25.1.52.12.76.09.5-.07.94-.3 1.31-.64.71-.72.98-1.71.96-2.69-.02-.98-.45-1.97-1.19-2.66-.73-.69-1.72-1.11-2.74-1.1l.22.18c-.05-.34-.25-.69-.53-.94l.03.3c.3-.38.42-.91.34-1.41l-.01.11c.42-1.1-.03-2.36-.79-3.22-.78-.9-1.88-1.42-2.95-1.82l-.02.42c.66-.19 1.24-.77 1.45-1.49l-.08.11c.46-.36.92-.9 1.05-1.57l-.04.08c.32-.39.47-1.03.27-1.56-.18-.53-.61-1-1.17-1.17l.02.42c.25-.08.47-.32.53-.59.07-.26.03-.51-.04-.74-.16-.45-.49-.86-.99-1.03-.93-.28-1.84.03-2.64-.11l.08.03a10.498 10.498 0 0 0-6.27-1.59l.19.36c.39-.51.81-1.07 1.23-1.62l.93-1.23c.3-.43.64-.78.91-1.29.13-.26.18-.59.11-.9-.07-.3-.24-.56-.44-.76-.39-.41-.9-.66-1.38-.84-.97-.39-2.02-.59-3.06-.61-.52 0-1.04.03-1.56.12-.27.05-.54.13-.79.29-.24.14-.5.43-.51.79l.26-.21c-1.02-.16-2.01.08-2.93.37-.46.15-.91.3-1.37.49-.45.19-.93.48-1.2.97l.42.13c.09-.93.89-1.72 1.12-2.81.11-.52.07-1.2-.41-1.62a1.4 1.4 0 0 0-.81-.36c-.3-.04-.66.07-.87.33l.32.31c.23-.2.35-.53.32-.81-.02-.29-.12-.55-.28-.77-.16-.22-.38-.41-.64-.51-.25-.1-.51-.14-.77-.14-.51 0-.98.12-1.44.25-.24.07-.48.16-.7.31-.22.14-.45.42-.44.75l.42-.1c-.32-.61-1.06-.78-1.63-.65-.57.11-1.18.55-1.23 1.23l.32-.18c-.96-.5-2.21-.02-2.59.98l.26-.13c-1.1-.29-2.22.36-2.69 1.31l.41.15c.21-.8.42-1.6.62-2.4.11-.37.23-.85.14-1.3-.04-.22-.09-.45-.25-.67a.677.677 0 0 0-.35-.26c-.16-.05-.31-.01-.44.03l.14.41c.6-.17.95-.77 1-1.3.06-.55-.1-1.14-.52-1.53-.85-.77-2.07-.71-3-.32l-.09.04-.03.09c-.16.49-.32.97-.48 1.45l.27-.13c-.88-.29-1.89.02-2.44.75s-.58 1.77-.09 2.52l.28-.3c-.34-.21-.77-.13-1.06.05-.29.18-.52.46-.62.8-.18.66.04 1.28.21 1.82l.28-.26c-.69-.31-1.46-.01-1.92.46-.47.45-.76 1.21-.48 1.88l.23-.28c-1.03-.2-2.08-.11-3.03.24l.27.25c.25-.93-.17-1.95-.97-2.43-.81-.47-1.88-.35-2.56.28l.33.08c-.51-1.22-2.1-1.63-3.12-.89l.29.06a2.35 2.35 0 0 0-1.22-.96c-.48-.18-1.05-.21-1.55.03-.5.25-.82.78-.83 1.31-.02.54.18 1.02.43 1.44.5.85 1.23 1.47 1.86 2.13.65.66 1.29 1.31 1.92 1.96l.18-.32c-1.44-.3-2.85-.61-4.25-.9-.7-.15-1.39-.3-2.08-.44-.35-.05-.65-.19-1.09-.17-.23.02-.44.17-.56.32-.13.15-.21.29-.32.39-.2.2-.53.27-.87.42-.35.14-.67.46-.78.84-.21.77.1 1.52.57 2.05.51.56 1.19.78 1.83.99.64.19 1.28.34 1.85.62v-.31c-.89.45-1.7.86-2.5 1.27l.23.07c-.92-1.54-3.02-1.83-4.27-.87l.24.03c-.42-.57-1.17-.71-1.77-.65-.62.05-1.2.24-1.76.43-.55.2-1.12.43-1.59.82-.47.38-.8.98-.82 1.59-.04 1.23.74 2.31 1.72 2.85.98.57 2.08.75 3.11.94l-.12-.14c.03.42-.27.79-.65 1.01-.38.23-.81.34-1.27.37-.45.04-.92.06-1.38.17-.46.1-.91.37-1.19.75-.57.75-.73 1.66-1.29 2.25-.26.31-.67.41-1.02.73-.36.34-.41.84-.4 1.24.05.82.1 1.62.15 2.41.02.39.16.86.52 1.11.35.26.79.3 1.17.25.39-.05.76-.19 1.08-.4.32-.22.58-.48.83-.74.49-.52.96-1.05 1.55-1.32l-.12-.18c-.64.59-1.26 1.18-1.74 1.84-.48.66-.83 1.4-.88 2.17-.04.76.2 1.5.63 2.06.42.56 1.13.9 1.79.79h-.02c.86.15 1.45.02 1.96-.18l-.11-.05c.55 2.35.5 4.03.39 5.4l.03-.05c-.93.39-1.74.77-2.32 1.24-.59.46-.96.98-1.14 1.43-.18.45-.2.83-.19 1.06 0 .22.03.33.03.33.04.01-.16-.49.2-1.39.19-.44.56-.94 1.14-1.39.58-.45 1.38-.82 2.31-1.2l.03-.01v-.03c.12-1.38.18-3.07-.35-5.45l-.02-.09-.09.03c-.48.19-1.05.31-1.86.16h-.02c-.6.1-1.23-.21-1.63-.73-.4-.52-.62-1.22-.58-1.94.05-.71.39-1.43.85-2.06.47-.64 1.08-1.22 1.72-1.81l.51-.47-.63.29c-.66.3-1.14.86-1.63 1.36-.25.25-.5.51-.79.7-.29.19-.63.31-.99.36-.35.04-.72 0-1-.21-.28-.2-.4-.55-.42-.93-.04-.78-.09-1.58-.14-2.39-.01-.39.05-.8.33-1.05.26-.25.72-.38 1.03-.74.63-.67.78-1.6 1.31-2.26.51-.71 1.48-.74 2.39-.81.46-.03.97-.15 1.39-.41.42-.24.83-.71.8-1.28l-.01-.12-.11-.02c-1.03-.19-2.09-.38-3.01-.91-.91-.5-1.6-1.5-1.56-2.57.02-.53.29-1.02.71-1.36.42-.35.95-.57 1.49-.76.55-.19 1.1-.37 1.67-.41.56-.05 1.16.07 1.48.52l.1.14.14-.11c1.07-.85 2.99-.57 3.77.77l.08.14.15-.07c.8-.41 1.61-.82 2.5-1.26l.32-.16-.32-.15c-.62-.3-1.27-.45-1.9-.64-.61-.19-1.26-.42-1.66-.88-.41-.46-.66-1.13-.49-1.7.09-.28.29-.5.58-.61.28-.13.67-.19.98-.49.28-.3.41-.6.66-.61.26-.02.64.1.97.16.69.15 1.38.3 2.08.44 1.39.3 2.81.6 4.25.91l.62.13-.44-.45a343.5 343.5 0 0 0-1.92-1.97c-.64-.67-1.34-1.29-1.8-2.06-.22-.38-.4-.81-.37-1.22.01-.41.26-.8.61-.98.75-.35 1.8.05 2.25.78l.12.19.17-.13c.76-.59 2.13-.23 2.5.72l.11.28.22-.21c.53-.5 1.43-.6 2.07-.22.64.37.99 1.23.79 1.96l-.11.39.38-.14c.88-.32 1.85-.4 2.81-.22l.39.07-.16-.36c-.42-.96.86-2.24 1.85-1.8l.43.19-.15-.45c-.18-.54-.34-1.09-.2-1.58.11-.45.69-.83 1.05-.6l.83.52-.54-.82c-.39-.59-.36-1.46.07-2.04.43-.57 1.28-.84 1.97-.6l.2.07.07-.2.48-1.44-.12.13c.82-.35 1.89-.37 2.54.24.62.55.51 1.88-.3 2.11l.14.41c.13-.04.19-.03.29.09.09.11.14.3.17.47.07.37-.02.71-.14 1.12-.21.8-.42 1.59-.63 2.4l.41.15c.37-.78 1.34-1.32 2.18-1.08l.2.06.07-.19c.26-.73 1.29-1.12 1.98-.74l.31.17.02-.34c.04-.88 1.64-1.21 2.03-.41l.49.99-.07-1.1c-.02-.29.41-.53.82-.63.44-.12.89-.23 1.31-.23.43 0 .83.13 1.05.46.23.32.28.78.02.99l.32.31c.22-.28.74-.2 1.04.08.31.26.37.75.27 1.2-.17.93-.98 1.7-1.13 2.85l-.14 1.09.56-.96c.42-.72 1.45-.93 2.32-1.25.89-.29 1.82-.5 2.72-.36l.26.04v-.25c0-.34.48-.58.93-.65.48-.08.98-.12 1.47-.12.99.01 1.98.21 2.9.57.47.18.9.4 1.22.74.33.33.46.76.25 1.15-.2.39-.57.8-.87 1.21l-.93 1.23c-.42.56-.84 1.11-1.23 1.62l-.3.39.49-.03c2.16-.15 4.33.46 6.01 1.52l.04.03.04.01c.95.14 1.83-.15 2.57.09.32.1.59.42.7.75.12.34.05.68-.22.77l-.67.22.69.21c.41.12.75.48.88.88.14.41.05.83-.21 1.16l-.03.04-.01.05c-.11.55-.48 1-.89 1.32l-.06.04-.02.07c-.16.57-.64 1.04-1.14 1.18l-.65.18.63.24c1.05.4 2.08.9 2.78 1.7.69.78 1.06 1.89.71 2.78l-.02.05.01.06c.06.39-.04.81-.25 1.07l-.13.16.15.14c.21.19.35.44.39.68l.03.19h.19c.9-.01 1.79.37 2.43.98a3.31 3.31 0 0 1 1.05 2.35c.03.86-.25 1.79-.82 2.36-.3.27-.68.47-1.07.52-.39.06-.74-.07-.89-.39l-.35-.78-.06.85c-.06.9-.65 1.72-1.35 2.09l-.28.15.25.21c1.15.95 1.04 2.95.02 3.77l-.31.24.38.12c.89.29 1.47 1.2 1.61 2.1.15.91-.14 1.87-.8 2.39l-.17.14.14.17c.72.85.55 2.32-.31 2.96-.86.66-2.21.46-2.84-.3l-.31-.38-.05.49c-.1.93-.24 1.89-.81 2.53-.53.61-1.6.79-2.06.23l-.4-.48.04.62c.05.89-.45 1.75-1.14 2.28-.69.54-1.59.76-2.35.55l-.4-.11.16.38c.37.87-.11 2.01-.95 2.36-.84.36-1.9-.04-2.31-.76l-.08-.15-.16.06c-1.65.62-3.28 1.23-4.89 1.84-1.6.62-3.21 1.16-4.87 1.13-.82-.01-1.64-.12-2.42-.34-.39-.1-.77-.27-1.22-.33-.45-.07-.94.09-1.29.33-.69.51-1.28.99-2.01 1.33-.71.35-1.46.58-2.23.72-1.53.26-3.12.11-4.51-.47-.35-.14-.72-.32-1.13-.37-.42-.06-.83.05-1.2.17-.72.27-1.41.51-2.13.68-.72.17-1.44.3-2.16.36-.71.07-1.44.05-2.08-.17-.65-.22-1.19-.69-1.31-1.35-.16-.62.07-1.37.65-1.58l.14-.05-.04-.14c-.14-.56-.43-1.1-.9-1.47-.45-.38-1.12-.5-1.67-.29-.55.17-1.02.78-.85 1.38.12.55.64 1.07 1.26.93l-.16-.23c-.38.57-1.16.74-1.81.58-.66-.15-1.26-.61-1.45-1.24-.4-1.29.51-2.69 1.65-3.15l.17-.07-.11-.14a6.408 6.408 0 0 1-1.19-2.85l-.08-.57-.17.55c-.35 1.13-1.71 1.71-2.65 1.39l-.13-.04-.03.14c-.19.86-.58 1.67-1.19 2.23-.6.57-1.46.8-2.22.64-.76-.14-1.41-.75-1.43-1.49-.06-.72.34-1.47.99-1.64l.2-.05-.16-.13c-1.15-.91-.62-2.94.6-3.27l.11-.03-.06-.1c-.76-1.33-.33-2.97.57-3.77l-.11-.1c-.66.83-1.98.68-2.46.01l-.09-.12-.03.14c-.1.53-.52.9-.94 1.09-.44.2-.89.26-1.3.28-.83.01-1.53-.17-2.01-.45-.49-.28-.71-.67-.81-.93-.09-.22-.11-.37-.12-.37z" class="st4"/><path d="m349.83 223.41-11.9-34.34c-2.83-9.35-10.62-15.49-19.89-12.41l-.84.34c-8.45 3.37-12.9 12.67-10.21 21.37 2.49 8.09 5.35 16.99 7.08 21.17 3.58 8.66 12.82 6.54 12.82 6.54.02-.01.75 2.04 1.65 4.64 0 0 1.48 8.71 8.29 6.63s13-13.94 13-13.94z" class="st13"/><path d="M326.84 226.09s5.61-1.87 9.99-7.87c0 0-.03 7.7-9.03 10.38l-.96-2.51z" class="st14"/><path d="M311.78 204.39c.24.67 1 1.01 1.7.78.7-.24 1.07-.97.83-1.63-.24-.67-1-1.01-1.7-.78-.7.24-1.07.97-.83 1.63zM310.23 201.24c.22.1.88-.97 2.22-1.5 1.33-.55 2.59-.25 2.67-.47.04-.1-.23-.33-.78-.47-.54-.14-1.38-.16-2.21.18-.83.34-1.41.92-1.69 1.4-.29.47-.31.82-.21.86zM324.24 200.4c.24.67 1 1.01 1.7.78.7-.24 1.07-.97.83-1.63-.24-.67-1-1.01-1.7-.78-.7.24-1.07.97-.83 1.63zM323.55 196.56c.22.1.88-.97 2.22-1.5 1.33-.55 2.59-.25 2.67-.47.04-.1-.23-.33-.78-.47-.54-.14-1.38-.16-2.21.18-.83.34-1.41.92-1.69 1.4-.29.46-.31.81-.21.86zM322.85 208.75c-.02-.08-.91.11-2.33.47-.36.1-.71.16-.86-.05-.18-.21-.18-.64-.18-1.1l-.03-3c-.07-4.26-.27-7.71-.45-7.71-.17 0-.25 3.46-.18 7.72.03 1.05.05 2.05.08 3 .03.44-.02.97.36 1.41.19.22.52.3.76.28.25-.02.44-.09.61-.15 1.41-.47 2.25-.8 2.22-.87zM321.43 192.16c.28.31 1.54-.39 3.19-.83 1.64-.47 3.09-.51 3.16-.92.03-.19-.33-.45-.98-.6-.65-.15-1.59-.16-2.57.11-.98.27-1.79.76-2.27 1.22-.48.47-.66.87-.53 1.02zM308.98 196.53c.35.22 1.16-.45 2.27-.88 1.1-.47 2.14-.56 2.24-.97.04-.19-.23-.44-.75-.58-.52-.14-1.29-.12-2.04.19-.76.31-1.32.84-1.59 1.3-.28.47-.29.83-.13.94z" class="st3"/><path d="M322.89 212.7c.37.44.75.89 1.23 1.21.48.32 1.09.5 1.64.34.59-.17 1.04-.7 1.21-1.29.17-.59.08-1.23-.14-1.81-.2-.52-.65-1.07-1.19-.96-.23.05-.41.2-.59.35l-2.39 2.03" class="st14"/><path d="M324.74 214.61c-.01-.09.67-.05 1.41-.67.36-.3.7-.78.78-1.38.08-.59-.1-1.3-.56-1.81-.11-.13-.25-.24-.38-.33-.15-.08-.13-.08-.24-.02-.1.07-.26.21-.38.32l-.39.33c-.51.43-.98.82-1.37 1.14-.79.64-1.3 1-1.35.95-.05-.05.38-.52 1.11-1.22.36-.35.8-.77 1.3-1.22l.38-.35c.14-.12.24-.23.43-.37.1-.07.24-.13.41-.12.16.01.29.08.38.14.18.12.34.26.48.42.57.65.77 1.51.64 2.23-.13.74-.59 1.29-1.02 1.59-.45.32-.88.42-1.18.44-.29.01-.45-.04-.45-.07zM301.89 191.98c-.1-.46-.27-.92-.31-1.39-.06-.76.24-1.44.53-2.09 1.04-2.28 2.15-4.65 4.04-6.01 1.16-.83 2.54-1.22 3.7-2.03.72-.5 1.34-1.16 2.01-1.75 2.75-2.42 6.2-3.65 9.7-4.35 1.95-.4 3.97-.64 5.99-.33 2.22.35 4.37 1.37 6.44 2.5 3.1 1.69 6.14 3.71 8.62 6.51 1.9 2.15 3.48 4.85 3.88 7.79.41 2.94-.57 6.09-2.75 7.36-.41-.26-.83-.53-1.24-.79l-1.93-1.14c.47.57.23.61-.19 1.13-.43.52-1.25.53-1.76.02-.26.71-1.44.41-1.52-.4-.45.46-1.37-.06-1.39-.79-.56.42-1.22-.48-1.75-1.06-.29-.32-.63-.56-.94-.84-.99-.88-1.75-2.11-2.12-3.46-1.08-.69-1.71-2.06-2.26-3.33-.34-.8-.69-1.59-1.03-2.39-.21-.15-.42-.29-.63-.44.21.59-.08 1.24-.52 1.55-.43.31-.98.37-1.51.42l-1.56.15-.84.54c.5.69.48 1.64.44 2.49-.03.59-.09 1.23-.46 1.6-.37.37-1.16.13-1.2-.46-.22.47-.84.49-1.26.16-.41-.33-.64-.89-.78-1.43-.35-1.32-.3-2.73.13-3.94-.62 1.06-1.24 2.11-1.86 3.17-.14.23-.29.48-.52.57.2.41-.12.9-.5.96-.38.06-.78-.15-1.14-.36-.82-.47-1.81-1.4-1.47-2.3-.31.03-.6-.42-.49-.74-.75 1.03-1.51 2.05-2.26 3.08.24-.26.7.1.74.5.05.4-.16.74-.35 1.04.37.32.64.78.74 1.29.39-.63 1.43.02 1.49.82.05.8-.55 1.42-1.19 1.66-.53.2-1.27.14-1.55-.47-.6.32-1.48-.37-1.46-1.17-.37.45-1.02-.27-1.23-.89a9.36 9.36 0 0 1-.49-3.39c-.03.1-.12.17-.22.14a.241.241 0 0 1-.1-.1c-.15 1.4-.29 2.8-.44 4.2-.12 1.19-.24 2.42.08 3.6.13.48.27 1.15-.12 1.32-.11.04-.23.03-.34.01-1.33-.23-2.56-1.14-3.53-2.29-.32-.39-.63-.81-.82-1.29-.41-.99-.28-2.11-.5-3.16z" class="st3"/><path d="M313.87 185.95c.03-.03-.34-.11-.58-.61-.11-.24-.16-.59.01-.91.16-.32.55-.6.98-.58l.25.01-.16-.19c-.28-.33-.34-.9-.07-1.32.27-.41.91-.6 1.4-.35l.13-.23a.679.679 0 0 1-.12-.12.659.659 0 0 1-.06-.55c.05-.18.2-.32.37-.42.17-.09.37-.13.56-.14.19-.01.42.06.66-.04.25-.13.31-.36.42-.48.1-.15.23-.28.35-.39.26-.22.55-.37.83-.46.56-.19 1.06-.14 1.39-.06.33.08.49.18.5.15.01-.01-.14-.14-.47-.25-.33-.11-.86-.19-1.47-.01-.3.09-.62.24-.92.47-.14.12-.29.26-.4.42-.13.16-.2.35-.34.4-.13.06-.33.02-.56.01-.23 0-.47.05-.68.16-.21.11-.42.31-.5.56-.08.25-.06.54.09.78.05.07.12.14.19.19l.13-.23c-.62-.31-1.39-.08-1.73.45-.34.53-.24 1.2.11 1.6l.09-.18c-.55-.01-.98.34-1.16.72-.19.39-.1.8.04 1.05.14.26.34.41.47.48.16.07.25.08.25.07zM308.13 189.36c.02-.03-.34-.09-.68-.56-.16-.23-.29-.57-.22-.96.06-.38.33-.8.77-.99l.17-.08-.16-.1c-.4-.25-.8-.69-.82-1.23-.01-.27.12-.53.34-.71.22-.18.53-.26.76-.12l.93.55-.78-.75a1.31 1.31 0 0 1-.38-1.06c.03-.4.27-.78.65-.99.26-.15.57-.21.86-.16l.33.06-.21-.27c-.29-.38 0-1 .41-1.18.44-.21.96-.15 1.41-.05l.28.06-.15-.24c-.19-.29-.13-.69.04-.97.18-.29.46-.49.74-.63.58-.28 1.14-.39 1.61-.43.94-.06 1.47.13 1.48.09 0-.01-.12-.07-.38-.13a4.41 4.41 0 0 0-1.11-.11c-.48.02-1.07.11-1.69.39-.3.14-.63.35-.84.69-.21.33-.3.81-.06 1.21l.13-.18c-.47-.11-1.04-.19-1.57.06-.27.13-.49.36-.6.65-.12.28-.12.65.09.92l.12-.21c-.35-.06-.72.01-1.03.19-.44.24-.75.71-.78 1.19-.04.48.14.95.47 1.27l.15-.2c-.36-.2-.79-.08-1.04.15-.27.22-.44.57-.41.9.04.67.51 1.13.95 1.4l.01-.18c-.51.24-.79.72-.85 1.15-.06.44.1.81.28 1.05.19.24.39.37.54.43.15.08.24.09.24.08zM295.08 194.4c.03.01-.16-.32.12-.78.14-.22.38-.44.74-.54.36-.11.79-.1 1.27-.06l.15.01-.06-.14c-.19-.43.08-1.02.57-1.3.5-.29 1.17-.28 1.85-.23l.86.06-.81-.3c-.44-.16-.56-.85-.3-1.29.28-.46.86-.71 1.45-.82l.08-.01.5-.1-.49-.16c-.6-.19-.73-1.11-.33-1.53.41-.46 1.12-.52 1.64-.31l.63.26-.5-.46c-.65-.59-.82-1.5-.63-2.19.18-.71.72-1.16 1.2-1.37.49-.22.93-.22 1.22-.19.29.03.44.1.45.08 0-.01-.03-.03-.1-.06s-.18-.07-.33-.1c-.29-.06-.76-.08-1.29.13-.52.2-1.12.67-1.34 1.45-.22.75-.06 1.75.66 2.42l.13-.2c-.6-.24-1.41-.2-1.93.36-.26.28-.35.69-.28 1.07.06.37.31.76.72.88l.02-.25-.08.02c-.61.12-1.27.37-1.62.95-.16.29-.2.62-.14.93.06.31.27.61.57.72l.05-.24c-.68-.04-1.4-.06-1.98.29-.56.34-.87 1.03-.63 1.57l.09-.13c-.48-.02-.94-.02-1.32.11-.39.12-.66.38-.79.63-.14.25-.15.48-.12.62.05.15.1.21.1.2zM298.4 179.63c0 .01.13.04.36.02.24-.01.58-.1.99-.23.4-.12.91-.3 1.46-.2.27.05.53.2.67.47.15.25.17.61-.04.81l.21.07c-.04-.34.3-.66.59-.97.3-.32.63-.63 1.03-.84.4-.22.84-.29 1.24-.16.4.11.73.41.78.77l.05.32.17-.27c.36-.57.91-.95 1.44-1.15.53-.21 1.05-.24 1.46-.2.84.08 1.25.42 1.27.37.01-.01-.09-.09-.29-.21-.2-.11-.53-.25-.96-.31-.43-.06-.98-.04-1.55.16-.57.19-1.17.59-1.58 1.21l.22.05c-.07-.48-.49-.85-.95-.98-.46-.15-1.01-.07-1.44.18-.44.24-.78.57-1.09.9-.15.17-.31.32-.44.51-.13.18-.24.42-.21.67l.03.25.17-.17c.32-.32.25-.8.07-1.1-.17-.32-.52-.51-.82-.56-.63-.1-1.15.12-1.55.26-.4.15-.72.26-.95.29-.21.03-.34.02-.34.04zM309.42 171.22c.01.03.24-.12.68-.1.22.01.48.06.74.22.26.14.52.39.64.73l.05.13.12-.08c.29-.2.78-.08 1.06.25.29.34.38.85.45 1.37l.07.51.19-.49c.01-.02.02-.05.03-.08.13-.31.44-.53.76-.61.32-.09.65-.03.92.12.55.3.84.86.93 1.33.1.48.06.89.03 1.16-.03.28-.06.43-.04.44.02 0 .08-.14.14-.42.06-.28.13-.7.05-1.22-.08-.51-.37-1.14-1-1.51-.61-.39-1.66-.23-2.04.6-.01.03-.03.07-.04.1l.25.02c-.07-.52-.16-1.09-.52-1.5-.35-.39-.96-.56-1.38-.26l.17.05c-.16-.39-.47-.66-.77-.81-.3-.15-.59-.19-.83-.18-.24.01-.41.07-.53.12-.08.06-.13.1-.13.11zM322.58 175.65c.01.01.13-.03.31-.17s.42-.38.6-.75.31-.87.21-1.42c-.05-.27-.14-.52-.03-.73.09-.22.37-.42.47-.76.2-.7-.22-1.42-.81-1.6l.06.18c.43-.67.59-1.34.64-1.8.05-.47 0-.74-.02-.74-.03 0-.03.27-.12.71-.09.44-.27 1.07-.69 1.69l-.09.13.15.05c.45.14.8.75.63 1.29-.06.25-.31.43-.45.74-.15.33-.01.65.03.88.1.49.01.95-.14 1.3-.32.71-.79.96-.75 1zM326.44 176.92c0 .01.08 0 .22-.03.14-.04.34-.1.58-.22.47-.24 1.13-.73 1.55-1.59l-.16.04c.44.32 1.07.47 1.7.35.31-.06.63-.19.9-.38.26-.21.54-.45.62-.86.02-.16-.01-.29-.01-.39 0-.1.03-.19.09-.28.11-.17.31-.3.5-.42.2-.12.41-.26.57-.45.16-.18.27-.46.18-.72l-.13.16c.6.06 1.15-.13 1.54-.41.4-.27.66-.62.82-.92.16-.31.21-.58.23-.76.01-.18 0-.28-.02-.28-.04-.01 0 .41-.34.98-.17.28-.43.59-.81.83-.37.24-.87.4-1.4.34l-.19-.02.06.18c.05.15-.01.33-.14.48-.13.16-.3.27-.51.39-.2.13-.42.26-.59.5-.08.12-.13.27-.13.42 0 .14.02.26.01.36-.04.26-.28.51-.51.68-.24.17-.52.29-.8.35-.56.11-1.13-.01-1.53-.28l-.11-.08-.05.12a3.56 3.56 0 0 1-1.41 1.57c-.44.24-.74.31-.73.34zM348.48 178.89c.01 0 .01-.03 0-.09 0-.06-.01-.15-.03-.27a2.78 2.78 0 0 0-.41-.96c-.24-.38-.62-.79-1.08-1.21-.24-.2-.47-.44-.79-.63-.16-.09-.33-.18-.53-.21-.2-.04-.45.01-.61.18l.19.06c-.11-.6-.58-1.16-1.24-1.36-.66-.19-1.46.07-1.9.69l.23.04c-.1-.37-.38-.67-.74-.8-.36-.14-.8-.06-1.11.18-.17.13-.31.31-.38.52l.25.02c-.05-.24-.24-.42-.44-.51-.2-.09-.42-.12-.64-.07-.42.09-.72.36-.99.59h.17c-.37-.33-.86-.46-1.31-.44-.45.01-.87.15-1.23.36-.71.42-1.19 1-1.62 1.49l.17.07a.452.452 0 0 0-.18-.42.821.821 0 0 0-.38-.15c-.25-.03-.49 0-.7.09-.39.18-.69.4-.91.59-.22.2-.37.37-.47.5-.09.12-.13.2-.13.2.02.02.21-.26.66-.62.23-.18.53-.38.9-.53.18-.07.4-.1.61-.06.22.03.43.16.39.38l-.06.32.22-.24c.44-.48.92-1.04 1.59-1.42.33-.19.72-.31 1.12-.31.4-.01.82.11 1.13.39l.08.07.09-.07c.27-.23.55-.46.88-.53.3-.07.7.09.76.38l.09.45.16-.43c.06-.15.16-.29.3-.4.25-.19.58-.25.86-.14.28.1.51.35.58.63l.07.27.16-.23c.36-.52 1.06-.76 1.62-.6.57.15.99.65 1.09 1.16l.04.21.15-.16c.22-.24.61-.11.89.05.29.16.53.4.77.59.47.4.85.79 1.1 1.15.53.69.52 1.24.56 1.23zM349.21 186.64c.01 0 .04-.06.08-.2.04-.13.1-.33.15-.59.04-.26.08-.6-.07-.98a1.36 1.36 0 0 0-.36-.52.98.98 0 0 0-.67-.26l.09.12c.13-.4.04-.91-.31-1.26a1.26 1.26 0 0 0-1.46-.18l.17.14c.15-.4-.03-.85-.36-1.11-.35-.26-.81-.29-1.22-.19-.21.05-.39.14-.56.16-.16.02-.3-.06-.43-.2-.14-.13-.26-.33-.48-.45-.2-.13-.46-.18-.69-.15-.5.04-.93.23-1.35.36-.41.13-.84.19-1.17 0-.16-.09-.3-.25-.48-.38-.18-.14-.4-.22-.62-.24-.44-.05-.87.1-1.16.4l.19.11c.14-.47-.15-.9-.47-1.12-.34-.23-.74-.25-1.07-.19-.67.13-1.18.44-1.58.68-.4.26-.69.5-.87.68-.18.18-.27.28-.26.29.02.03.4-.38 1.2-.85.4-.22.92-.51 1.54-.61.31-.04.66-.02.93.18.27.19.48.55.37.87l-.15.47.34-.36a1.138 1.138 0 0 1 1.46-.12c.15.11.3.28.51.4.21.11.46.17.69.16.24-.01.46-.07.68-.13.44-.13.86-.31 1.29-.34.2-.02.38.02.54.12.16.08.27.25.43.4.14.16.4.32.65.27.24-.03.42-.13.6-.17.36-.09.74-.06 1.01.14.26.19.4.55.29.82l-.12.31.29-.17c.39-.23.91-.15 1.2.13.3.28.39.72.28 1.05l-.04.13.13-.01c.43-.02.75.34.89.65.14.33.13.66.1.91-.09.55-.17.83-.15.83zM355.06 199.55c.01.01.09-.03.22-.15s.31-.31.44-.62c.13-.3.22-.72.11-1.19-.11-.46-.41-.95-.92-1.25l.05.13c.14-.42.33-.89.29-1.44a1.59 1.59 0 0 0-.29-.79c-.17-.23-.45-.43-.78-.45l.09.21c.35-.39.42-.99.25-1.49-.1-.29-.27-.55-.5-.74-.22-.2-.54-.31-.8-.33-.27-.04-.41-.12-.49-.36-.08-.24-.21-.49-.38-.69-.34-.41-.83-.59-1.23-.73-.41-.15-.79-.29-1.14-.4-.71-.24-1.32-.32-1.74-.28-.21.02-.37.06-.47.1-.1.04-.16.06-.15.07.01.03.22-.06.63-.07.41-.01.99.09 1.68.35.35.13.73.28 1.13.43.4.15.83.32 1.12.68.15.18.25.38.33.62.05.12.12.28.26.37.14.1.29.12.42.15.51.03.92.41 1.09.9.15.43.09.93-.19 1.24l-.18.2.26.02c.48.03.81.55.84 1 .04.47-.12.93-.26 1.35l-.03.09.08.04c.46.26.75.69.86 1.1.11.42.05.81-.06 1.09-.23.61-.57.81-.54.84zM326.4 185.96c.02.02.29-.14.66-.51.18-.19.38-.44.5-.78.11-.34.15-.77-.07-1.16-.05-.09-.11-.16-.18-.23v.19c.3-.28.41-.67.38-1.01-.03-.34-.21-.61-.4-.77-.39-.32-.73-.27-.72-.24-.01.04.29.06.6.37.15.15.28.38.29.66.01.27-.09.59-.32.8l-.09.09.09.1c.05.05.1.11.13.18.17.3.16.66.07.96-.09.3-.26.54-.41.73-.33.37-.56.59-.53.62zM319.78 184.95c.04-.02-.36-.24-.44-.87-.03-.3.05-.7.36-.96.3-.26.83-.38 1.25-.16l.2.1-.02-.23c-.02-.27-.01-.55.07-.82.08-.26.25-.52.5-.63.38-.17.94.07.93.43l.25-.02c-.09-.54.06-1.07.33-1.45.26-.38.63-.61.96-.72.67-.22 1.1-.07 1.11-.12 0-.01-.1-.06-.29-.09-.2-.03-.5-.05-.86.06-.36.1-.78.33-1.08.75-.3.41-.49 1-.4 1.62l.25-.02c.01-.29-.21-.55-.46-.66-.25-.11-.55-.13-.82-.02-.35.16-.55.48-.64.8-.09.32-.1.63-.07.92l.18-.12a1.38 1.38 0 0 0-1.5.22c-.37.33-.44.81-.38 1.14.06.34.23.57.36.69.11.13.2.17.21.16z" class="st4"/><path d="M339.74 195.82c.12-.12 5.27-4.16 7.46 1.87 2.18 6.03-4.32 6.98-4.39 6.81-.08-.18-3.07-8.68-3.07-8.68z" class="st13"/><path d="M343.82 201.54c.02-.03.13.04.34.05.2.02.52-.04.79-.27.55-.46.72-1.67.36-2.77-.18-.55-.49-1.03-.84-1.4-.34-.37-.74-.58-1.08-.52-.35.04-.5.32-.52.51-.02.2.06.3.03.33-.01.02-.17-.05-.21-.32-.02-.13 0-.3.1-.46.1-.17.29-.31.52-.36.48-.14 1.05.14 1.44.54.41.39.77.93.97 1.55.4 1.23.19 2.59-.59 3.16-.38.26-.78.26-1.02.19-.23-.09-.31-.21-.29-.23z" class="st14"/><path d="M326.67 288s12.02 1.43 20.04-3.85c8.02-5.29 18.02-25.81 18.02-25.81s-20.05 23.15-38.98 26.13l.92 3.53z" class="st10"/><path d="M349.43 238.61c-6.84 8.89-19.7 25.68-19.7 25.68l-47.63 6.99 2.49 15.79 47.32-2.72c6.97-.63 13.44-3.88 18.11-9.1 5.79-6.48 13.67-15.46 18.59-21.69 4.44-5.62 3.08-13.83-2.92-17.73-5.31-3.46-12.39-2.25-16.26 2.78z" class="st6"/><path d="M369.8 400.24c-.14.03-3.21-14-6.85-31.32-3.64-17.33-6.48-31.4-6.34-31.43.14-.03 3.21 13.99 6.85 31.33 3.64 17.31 6.48 31.39 6.34 31.42zM398.05 388.83c.1.1-.6 1.01-1.58 2.03-.98 1.02-1.85 1.76-1.95 1.67-.1-.1.6-1.01 1.58-2.03.98-1.02 1.85-1.77 1.95-1.67z" class="st4"/><path d="M357.08 229.6s-.15.23-.47.65c-.33.44-.81 1.06-1.42 1.85-1.27 1.64-3.12 4.01-5.47 7.03-4.76 6.07-11.57 14.76-19.82 25.28l-.05.07-.08.01c-13.65 2.01-29.97 4.42-47.62 7.03l.22-.3c.47 2.9.97 5.98 1.48 9.1.38 2.32.75 4.63 1.12 6.9l-.27-.22c18.67-1.16 35.94-2.23 50.43-3.14h-.02c3.21-.68 6.14-2.04 8.68-3.61 2.55-1.6 4.7-3.5 6.44-5.53 3.52-4.05 6.58-7.58 9.1-10.48 2.51-2.88 4.49-5.14 5.85-6.7.67-.75 1.18-1.34 1.55-1.75.35-.39.55-.58.55-.58s-.16.22-.5.63c-.35.42-.85 1.02-1.5 1.79-1.34 1.58-3.29 3.86-5.76 6.78-2.5 2.92-5.54 6.47-9.03 10.55-3.48 4.1-8.73 7.82-15.31 9.33h-.03c-14.49.93-31.75 2.03-50.43 3.23l-.24.02-.04-.23c-.37-2.28-.74-4.58-1.12-6.9-.51-3.12-1.01-6.2-1.48-9.1l-.04-.26.26-.04c17.66-2.57 33.99-4.95 47.63-6.94l-.14.08c8.31-10.48 15.17-19.12 19.97-25.17 2.39-2.99 4.27-5.34 5.56-6.96.63-.78 1.13-1.39 1.47-1.82.35-.4.53-.6.53-.6zM362.97 283.39c.03.02-.18.39-.59 1.05-.4.66-1.04 1.58-1.88 2.67-1.67 2.2-4.26 5.05-7.55 7.7-3.3 2.65-6.63 4.57-9.13 5.73-1.25.59-2.28 1.01-3.01 1.27s-1.13.39-1.15.35c-.03-.09 1.55-.7 4-1.95 2.44-1.24 5.71-3.19 8.97-5.81 3.25-2.63 5.85-5.4 7.58-7.52 1.74-2.12 2.68-3.54 2.76-3.49zM367.34 290.47c.07.12-4.17 2.67-9.46 5.68-5.3 3.01-9.65 5.35-9.72 5.22-.07-.12 4.16-2.67 9.46-5.68 5.3-3.01 9.65-5.35 9.72-5.22z" class="st3"/><path d="M319.8 262.42c-.04-.01-.13-.35-.33-1.01-.22-.77-.49-1.69-.81-2.77-.69-2.47-1.59-5.66-2.58-9.18-.99-3.59-1.86-6.85-2.47-9.21-.27-1.1-.5-2.03-.69-2.81-.15-.67-.22-1.04-.19-1.05.03-.01.17.34.38.99.21.65.5 1.59.85 2.76.7 2.34 1.63 5.58 2.61 9.17.99 3.59 1.85 6.85 2.43 9.22.6 2.38.89 3.88.8 3.89z" class="st3"/><path d="M344.37 305.29c4.69-.49 9.47-.62 13.85-2.38 4.37-1.77 8.4-4.88 10.27-9.21-7.69 4.55-15.77 8.44-24.12 11.59z" class="st10"/><path d="M261.42 291.86c-.1.11-.98.96-1.8 1.76-.96.93-1.65 2.08-1.98 3.3-.39 1.41-.64 2.51-.7 2.6l-1.95 6.19 7.2 5.28 1.15-5.21s2.99-1.19 4.59-2.72c1.59-1.53 2.31-2.22 2.72-3.54.26-.86-.2-1.48-.2-1.48s-.09-2.84-1.12-2.93c0 0 .57-1.49.2-2.28-.66-1.43-2.66-1.32-2.66-1.32s.69-.6-.07-1.12c-.75-.52-1.31.23-1.31.23l-4.02 3.58-.05-2.34z" class="st15"/><path d="M203.77 309.86a11.139 11.139 0 0 0 2.07 14.36c9.49 8.28 35.2 22.68 39.06 22.04 5.57-.93 20.15-33.38 20.15-33.38l-10.84-8.94-13.57 21.99s-11.19-10.57-19.95-17.5c-5.31-4.21-13.27-4.3-16.92 1.43z" class="st6"/><path d="M220.17 307.98c.01-.01.14.09.38.3.26.22.63.53 1.09.91.97.83 2.36 2.02 4.13 3.55 3.58 3.11 8.72 7.57 15.01 13.04l-.3.04c3.88-6.31 8.48-13.8 13.52-22.01l.15-.24.22.18c3.48 2.86 7.11 5.85 10.85 8.93l.15.13-.08.18c-1.15 2.55-2.41 5.21-3.72 7.91-2.3 4.71-4.63 9.27-7.07 13.57a96.89 96.89 0 0 1-3.81 6.21c-.68.98-1.35 1.95-2.1 2.86-.75.9-1.51 1.79-2.5 2.46-.49.32-1.11.59-1.73.51-.6-.05-1.14-.21-1.68-.37-1.07-.33-2.09-.74-3.08-1.16-1.98-.85-3.86-1.77-5.66-2.69-3.6-1.84-6.87-3.69-9.83-5.44-5.91-3.5-10.53-6.6-13.62-8.88a73.376 73.376 0 0 1-3.49-2.72c-.39-.32-.67-.59-.87-.76-.19-.17-.29-.27-.28-.27.01-.01.11.07.32.23.22.18.52.41.9.72.79.63 1.98 1.53 3.54 2.64 3.12 2.22 7.76 5.28 13.69 8.72 2.96 1.72 6.25 3.55 9.84 5.37 1.8.91 3.68 1.81 5.65 2.65.99.41 2 .81 3.04 1.13.52.15 1.05.3 1.58.34.51.06.97-.15 1.43-.44.9-.61 1.65-1.48 2.38-2.37.73-.89 1.4-1.85 2.07-2.82 1.32-1.97 2.56-4.04 3.78-6.19 2.43-4.29 4.76-8.84 7.05-13.54 1.31-2.69 2.57-5.35 3.72-7.89l.07.31c-3.73-3.08-7.36-6.08-10.84-8.94l.37-.06c-5.07 8.19-9.71 15.67-13.61 21.96l-.12.2-.18-.16-14.89-13.17c-1.74-1.56-3.11-2.78-4.06-3.63-.44-.41-.79-.72-1.05-.96-.25-.21-.36-.33-.36-.34z" class="st3"/><path d="M207.59 131.92c.01.1-.19.47-.47.95a6.328 6.328 0 0 0 .17 6.64l2.27 3.48.28 5.36 11.62 2.79-.55-9.44s1.92-3.98 1.94-6.68c.02-2.69-.69-5.56-1.58-5.68-.88-.12-1.15-.16-1.15-.16s-.89-1.57-2.31-1.84c0 0-.7-3.48-1.9-3.79-1.2-.3-2.27.93-2.27.93s-1.48-2.84-2.75-2.66c-2.58.38-2.58 2.97-2.58 2.97l-.77 7.36.05-.23z" class="st11"/><path d="M180.48 21.82a2.945 2.945 0 0 0-5.62 1.76l140.13 446.44 6.14.25L180.48 21.82z" class="st1"/><path d="M184.1 27.73s-37.24 25.39-66.05 27.68c-28.81 2.29-61.4 4.49-78.54 23.73 0 0 63.31 9.94 66.87 18.35 0 0-37.84 30.06-43.58 47.32 0 0 27.23-9.65 32.84-12.03 18.66-7.91 54.94-4.38 68.76-9.37 15.31-5.52 29.79-21.05 42.39-23.47L184.1 27.73z" class="st6"/><path d="m141 60.12 11.77 11.83 16.42-2.98-7.62 14.85 7.91 14.69-16.47-2.65-11.53 12.06-2.57-16.49-15.04-7.24 14.89-7.53z" style="opacity:.3;fill:#fff"/><path d="M172.66 53.67c.02.01-.06.24-.22.68-.18.49-.43 1.12-.73 1.92-.31.83-.71 1.85-1.24 3-.52 1.15-1.07 2.49-1.8 3.9-.7 1.43-1.47 3-2.4 4.63-.87 1.66-1.93 3.36-3.01 5.17-2.25 3.56-4.9 7.37-7.96 11.15-3.08 3.77-6.27 7.14-9.3 10.07-1.55 1.43-3 2.81-4.44 4.01-1.41 1.24-2.78 2.32-4.04 3.29-1.24 1-2.43 1.81-3.46 2.56-1.02.75-1.93 1.35-2.68 1.83-.72.46-1.29.82-1.73 1.1-.4.25-.61.37-.62.35-.01-.02.18-.17.56-.44.42-.3.98-.69 1.67-1.18.73-.5 1.62-1.12 2.62-1.89 1-.76 2.18-1.59 3.4-2.61 1.24-.99 2.6-2.08 3.99-3.33 1.43-1.2 2.86-2.59 4.39-4.02 3-2.94 6.16-6.31 9.23-10.05 3.04-3.77 5.69-7.55 7.96-11.08 1.09-1.79 2.16-3.48 3.04-5.12.94-1.62 1.73-3.16 2.45-4.58.75-1.4 1.32-2.72 1.86-3.86.55-1.14.98-2.14 1.32-2.96l.82-1.88c.19-.44.3-.66.32-.66zM193.75 92.36c-.02.01-.09-.18-.22-.54-.14-.42-.32-.94-.53-1.59-.46-1.45-1.1-3.44-1.87-5.87-1.55-4.97-3.66-11.84-5.94-19.44-2.28-7.61-4.29-14.51-5.69-19.52-.7-2.51-1.24-4.54-1.59-5.96-.17-.71-.29-1.26-.36-1.64-.03-.19-.05-.34-.05-.44 0-.03 0-.13.06-.1.02.02.02.04.02.04-.07-.1-.01.1.08.48.12.42.27.96.45 1.61.43 1.46 1.02 3.46 1.74 5.91 1.51 5.04 3.57 11.9 5.84 19.48 2.25 7.58 4.29 14.44 5.8 19.49.71 2.45 1.29 4.45 1.71 5.92.18.66.33 1.19.44 1.62.08.34.12.54.11.55z" class="st3"/><path d="M180.71 47.19c.42 9.15.85 18.35 2.89 27.27 2.04 8.92 5.82 17.65 12.14 24.26a653.99 653.99 0 0 1-15.06-51.56" class="st10"/><path d="M257.34 266.74c.27.02 4.76.01 7.43.01 1.26 0 2.48.46 3.42 1.3 2.09 1.87 5.66 5.09 5.66 5.09l8.26-.95 2.29 13.65-11.43-.43s-4.9 1.41-7.94 1.37c-3.04-.04-6.25-.92-6.37-1.92-.11-1-.15-1.31-.15-1.31s-1.75-1.05-2.01-2.65c0 0-3.91-.88-4.22-2.24-.31-1.37 1.11-2.54 1.11-2.54s-3.16-1.74-2.93-3.17c.23-1.43 1.6-2.21 1.6-2.21l6.19-.83-.91-3.17z" class="st13"/><path d="M239.05 261.24c2.7 3.64 3.45 8.65 1.93 12.92-.74 2.07-1.98 4.33-1.04 6.33.93 1.97 3.62 2.65 4.48 4.66 1.01 2.36-1.06 4.9-1.16 7.46-.1 2.41 1.84 4.73 4.23 5.06-3.3 1.47-7.02 2.01-10.6 1.54-.58-1.38-1.15-2.75-1.73-4.13.68 1.47-.1 3.3-1.41 4.25-1.31.95-2.99 1.21-4.61 1.28-7.72.33-15.51-3.21-20.34-9.23" class="st3"/><path d="M194.13 269.16c.97-1.48 2.27-2.74 3.08-4.32 1.74-3.38 1.09-7.9 3.71-10.66 1.87-1.97 4.81-2.37 7.52-2.47 2.71-.09 5.57-.02 7.93-1.34 1.73-.97 3.01-2.62 4.74-3.6 2.46-1.4 5.51-1.27 8.28-.7 2.85.59 5.67 1.64 7.85 3.56 2.18 1.92 3.65 4.81 3.34 7.7-.15 1.41-.7 2.78-.62 4.2.08 1.56.9 2.97 1.23 4.5.7 3.22-1.13 6.81-4.14 8.14l-25.97 19.62c-4.45.43-13.74-4.07-16.05-7.9-2.32-3.84-3.36-12.99-.9-16.73z" class="st3"/><path d="M237.4 270.87c.74-5.85-1.74-13.68-7.62-14.17l-18.87 1.12a3.445 3.445 0 0 0-3.69 2.86l-6.34 43.77h-.13s1.74 13.03 14.35 11.58c2.5-.29 3.33.77 4.31-1.79.07-.31 0-.01.07-.31.77-3.23 2.2-9.93 2.2-9.93.71-3.5.98-4.93.98-4.9 0 0 7.62.18 10.99-9.17 1.67-4.64 2.93-12.55 3.75-19.06z" class="st15"/><path d="M221.34 276.68c-.1.66-.74 1.11-1.43 1.02-.69-.09-1.16-.7-1.06-1.36.1-.66.74-1.11 1.43-1.02.69.09 1.16.7 1.06 1.36zM234.03 278.57c-.1.66-.74 1.11-1.43 1.02-.69-.09-1.16-.7-1.06-1.36.1-.66.74-1.11 1.43-1.02.68.09 1.16.7 1.06 1.36zM235.39 274.9c-.19.19-1.13-.83-2.59-1.01-1.46-.2-2.64.54-2.77.32-.07-.1.15-.46.66-.79.5-.34 1.33-.63 2.25-.51.91.12 1.64.61 2.03 1.06.4.45.51.85.42.93zM221.88 272.86c-.22.16-1.11-.95-2.65-1.29-1.53-.37-2.84.22-2.97-.02-.06-.11.2-.43.77-.7.57-.27 1.47-.45 2.43-.23.95.22 1.67.79 2.05 1.28.4.49.48.89.37.96zM224.73 283.18c.01-.08.86-.06 2.24.02.35.03.68.02.78-.2.13-.23.05-.62-.03-1.05-.16-.88-.33-1.81-.51-2.78-.69-3.95-1.13-7.17-.97-7.2.16-.03.85 3.15 1.54 7.1.16.97.32 1.9.47 2.79.06.41.19.89-.08 1.37-.14.24-.42.37-.65.39-.23.02-.42-.01-.59-.03-1.37-.18-2.2-.33-2.2-.41z" class="st3"/><path d="M222.65 299.11s-6.57-.82-12.26-5.91c0 0 1.87 7.22 11.69 8.16l.57-2.25z" class="st17"/><path d="M223.56 286.28c-.36-.72-1.13-1.23-1.98-1.3-.59-.05-1.23.12-1.67.52-.44.4-.64 1.06-.41 1.57.26.57.99.83 1.66.77.67-.06 1.3-.37 1.89-.69.17-.09.34-.18.46-.32s.18-.34.09-.5" class="st7"/><path d="M220.64 283.36c.22.03-.05 1.47.99 2.73s2.61 1.4 2.58 1.6c0 .09-.4.22-1.05.11-.64-.1-1.53-.48-2.17-1.25-.63-.77-.8-1.67-.74-2.28.07-.61.3-.94.39-.91zM222.96 268.38c-.2.34-1.5-.09-3.09-.2-1.6-.14-2.94.08-3.09-.29-.06-.17.22-.47.8-.72.57-.25 1.44-.43 2.4-.36.96.08 1.79.39 2.31.73.53.34.76.68.67.84zM235.15 270.69c-.33.25-1.31-.26-2.57-.52-1.25-.29-2.37-.24-2.55-.6-.08-.17.15-.44.67-.64.51-.2 1.33-.28 2.19-.1.86.19 1.56.61 1.94 1 .38.4.47.74.32.86z" class="st3"/><path d="M206.72 258.14c1.24-1.11 2.99-1.37 4.64-1.54 7.12-.74 14.32-.63 21.41.33.47 1.64-.84 3.34-2.4 4.01-1.56.67-3.33.63-5.02.79-1.7.16-3.51.62-4.56 1.96-1.11 1.43-1.06 3.49-2.1 4.98-1.79 2.55-5.98 2.39-7.76 4.96-1.34 1.94-.72 4.56-1.02 6.9-.34 2.65-2.02 5.09-4.37 6.36-1.85 1-4.08 1.24-6.12.73 1.73-8.25 3.47-16.49 5.2-24.74.36-1.73.79-3.57 2.1-4.74z" class="st3"/><path d="M184.79 274.21c1.59-.8 3.47-1.36 4.43-2.86 1.39-2.19.23-5.53 2.07-7.38 1.67-1.68 4.97-.68 6.57-2.43 1.25-1.36.69-3.02 1.38-4.33s3-1.99 4.37-1.44l6.73 19.08c-.43 5.67-.18 8.82-2.19 11.66-1.1 1.56-2.39 3.02-3.13 4.78-.74 1.76-.84 3.95.36 5.44-6.77-1.28-12.04-6.44-16.87-11.35l-5.11-5.2c-.53-.54-1.08-1.11-1.29-1.84-.5-1.72 1.09-3.32 2.68-4.13z" class="st3"/><path d="M188.78 283.71s.21.15.67.33c.46.17 1.16.39 2.1.41.93.02 2.11-.13 3.3-.77 1.19-.62 2.32-1.78 2.95-3.36.31-.79.49-1.67.47-2.6-.02-.93-.28-1.87-.56-2.8-.27-.93-.58-1.9-.58-2.9.01-.99.3-2.08 1.12-2.71.82-.64 2-.54 3.15-.68.58-.07 1.21-.25 1.7-.66.49-.42.78-1.02.93-1.61.32-1.22.1-2.47.18-3.66.04-.6.16-1.19.45-1.7.29-.5.76-.89 1.32-1.08 1.14-.42 2.39-.2 3.6.01 1.21.24 2.51.3 3.69-.08a6.672 6.672 0 0 0 3.03-1.9c.79-.89 1.28-1.94 1.73-2.94.44-1 .86-1.98 1.46-2.8.59-.82 1.37-1.46 2.2-1.93 1.68-.91 3.56-1.13 5.15-.83 1.61.29 2.92 1.1 3.87 1.97.96.88 1.6 1.82 2.03 2.64.84 1.65.91 2.71.96 2.69.01 0 0-.06-.02-.19-.02-.12-.04-.31-.1-.55-.1-.48-.31-1.18-.71-2.02a9.365 9.365 0 0 0-2.01-2.73c-.96-.91-2.3-1.76-3.97-2.08-1.65-.32-3.6-.12-5.36.82a7.15 7.15 0 0 0-2.32 2.01c-.63.86-1.06 1.86-1.51 2.86-.45.99-.93 2.01-1.67 2.84a6.32 6.32 0 0 1-2.85 1.78c-1.12.36-2.31.29-3.51.06-1.19-.21-2.53-.47-3.8 0-.63.22-1.2.67-1.53 1.26-.34.58-.46 1.24-.5 1.87-.08 1.26.13 2.47-.17 3.59-.14.55-.39 1.07-.8 1.42-.41.35-.94.51-1.5.58-.55.07-1.12.07-1.7.15-.57.07-1.16.24-1.63.61-.95.75-1.24 1.96-1.25 3.01 0 1.08.33 2.07.61 3 .29.93.54 1.83.57 2.71a6.4 6.4 0 0 1-.43 2.49c-.59 1.52-1.66 2.65-2.79 3.27-1.14.63-2.28.81-3.19.81-1.85-.05-2.77-.68-2.78-.61z" class="st4"/><path d="M183.04 269.88s-.18.13-.37.48-.34.97-.16 1.72c.1.37.28.77.61 1.12.32.34.78.63 1.31.76 1.05.3 2.47 0 3.4-1.06.47-.51.82-1.17 1.02-1.89.2-.73.21-1.53.13-2.32-.14-1.58-.71-3.23-.28-4.92.2-.82.63-1.65 1.39-2.07.75-.44 1.71-.34 2.61-.1.92.22 1.88.6 2.95.48.53-.06 1.06-.3 1.45-.67.4-.37.68-.84.88-1.33.4-1 .43-2.04.56-3.01.11-.98.42-1.88.89-2.69.96-1.61 2.53-2.76 4.18-3.21 1.67-.48 3.36-.12 4.88.2 1.53.33 3.01.63 4.38.48 1.36-.13 2.53-.55 3.48-1.06.95-.51 1.67-1.11 2.19-1.65 1.05-1.09 1.36-1.89 1.36-1.89-.04-.03-.4.74-1.47 1.78-.54.51-1.25 1.09-2.19 1.56-.93.48-2.08.88-3.4.98-1.32.13-2.75-.17-4.28-.52-1.52-.33-3.26-.72-5.05-.23-1.76.47-3.4 1.67-4.43 3.37a7.03 7.03 0 0 0-.95 2.84c-.14.99-.17 2.01-.54 2.92-.35.91-1.07 1.67-2.01 1.76-.93.11-1.87-.24-2.81-.47-.92-.24-2.01-.37-2.9.15-.89.51-1.34 1.44-1.56 2.31-.22.89-.19 1.8-.06 2.63.12.84.29 1.63.37 2.4.09.77.08 1.52-.1 2.2-.18.68-.5 1.3-.93 1.78-.85.99-2.15 1.28-3.14 1.03-.5-.12-.92-.37-1.23-.68-.31-.31-.49-.69-.59-1.03-.2-.71-.07-1.3.08-1.65.19-.33.34-.48.33-.5zM251.84 292.81c-.06-.02.19.73-.49 1.73-.33.46-.93.98-1.76 1.02-.8.05-1.77-.42-2.25-1.33a2.24 2.24 0 0 1-.19-1.54c.11-.55.37-1.09.71-1.61.66-1.03 1.71-2.05 1.99-3.55.31-1.44-.02-3.09-.98-4.38a6.485 6.485 0 0 0-1.77-1.65c-.69-.45-1.49-.73-2.27-.98-.78-.26-1.55-.49-2.23-.86-.67-.37-1.22-.91-1.48-1.59s-.25-1.43-.11-2.14c.14-.71.41-1.37.73-2 .63-1.25 1.38-2.43 1.65-3.72.28-1.28.1-2.53-.31-3.54-.41-1.03-1.09-1.79-1.67-2.41-.58-.63-1.07-1.17-1.4-1.66-.68-.99-.65-1.71-.71-1.69-.01 0-.01.04 0 .12.01.08 0 .21.04.36.05.32.21.77.54 1.29.32.52.8 1.09 1.37 1.73.56.64 1.2 1.38 1.57 2.37.38.98.52 2.17.25 3.37-.27 1.21-1 2.35-1.65 3.62-.33.64-.62 1.34-.77 2.09-.15.75-.17 1.58.12 2.35.29.78.93 1.4 1.66 1.8.73.4 1.52.64 2.3.89.78.25 1.53.51 2.18.94a6.3 6.3 0 0 1 1.67 1.54c.9 1.2 1.21 2.73.93 4.07-.25 1.37-1.23 2.36-1.91 3.44-.34.54-.62 1.12-.73 1.73-.12.6-.04 1.24.25 1.73.56 1 1.63 1.49 2.52 1.42.91-.08 1.54-.66 1.87-1.16.34-.52.42-1.01.43-1.33-.04-.31-.1-.47-.1-.47z" class="st3"/><path d="m121.8 440.41 19.46-4.13 3.24 15.96-14.31.32.14 12.9c6.42 1.81 7.32 5.06 7.32 5.06l-13.42-.31-11.68-23.75 9.25-6.05z" class="st8"/><g class="st9"><path d="m112.56 446.46 11.68 23.75 13.42.31-1.46-2.05-10.91-.85-10.77-22.45z" class="st5"/></g><path d="M130.39 459.55c-.1.13-.87-.32-1.91-.32-1.04-.02-1.81.42-1.91.28-.12-.1.65-.89 1.92-.87 1.26.01 2.02.81 1.9.91zM130.24 456.35c-.14.09-.72-.71-1.78-.95s-1.93.24-2.02.1c-.04-.06.12-.28.5-.48.37-.2.99-.34 1.65-.19.66.15 1.15.54 1.41.88.26.33.31.6.24.64zM130.42 452.24c-.15.07-.59-.72-1.52-1.06-.92-.36-1.77-.06-1.84-.21-.03-.07.14-.25.51-.38s.95-.18 1.53.04c.58.22.99.64 1.18.98.2.35.21.61.14.63zM131.41 452.24c-.16-.04-.06-.89-.47-1.79-.38-.92-1.06-1.43-.97-1.58.05-.15 1.04.22 1.52 1.35.48 1.11.06 2.09-.08 2.02zM133 450.72c-.08 0-.2-.68-.32-1.8-.06-.65-.12-1.3-.18-1.97-.01-.37-.11-.74 0-1.25.06-.25.22-.51.48-.67.26-.18.68-.15.91.04.47.37.6.79.76 1.19.14.41.22.82.24 1.21.04.79-.12 1.49-.35 2.03-.48 1.09-1.15 1.49-1.18 1.44-.08-.07.45-.56.79-1.59.16-.51.27-1.15.2-1.84-.04-.35-.11-.7-.24-1.06-.13-.34-.33-.74-.55-.9-.11-.07-.19-.07-.28-.02-.1.06-.18.17-.22.31-.08.28-.02.7-.02 1.07.02.67.04 1.32.05 1.97.02 1.14-.01 1.84-.09 1.84z" class="st3"/><path d="M133.22 451.31c-.05-.04.34-.62 1.38-.96.99-.31 2.75-.24 3.81 1.36.05.15.04.37-.06.52-.1.16-.24.24-.35.29-.24.1-.45.1-.63.13-.38.03-.75.03-1.09 0-.69-.06-1.3-.24-1.78-.45-.96-.42-1.41-.91-1.36-.96.05-.08.58.28 1.51.57.46.15 1.03.27 1.67.3.32.02.65.01 1-.03.18-.02.35-.04.45-.09.12-.07.08-.05.08-.09-.01-.07-.14-.2-.27-.32a3.422 3.422 0 0 0-1.25-.73c-.59-.19-1.16-.18-1.62-.09-.95.19-1.43.63-1.49.55z" class="st3"/><g class="st9"><path d="M123.28 446.29a1.597 1.597 0 0 1-3.19-.07 1.597 1.597 0 0 1 3.19.07z" class="st5"/></g><path d="m269.49 442.16-.18 17.58s18.72 6.96 19 10.21H253.3l-.84-27.4 17.03-.39z" class="st8"/><g class="st9"><path d="M258.72 458.53c-.66.2-1.09.95-.92 1.61.17.66.93 1.11 1.59.93.66-.19 1.21-1.07.97-1.71-.24-.64-1.17-1.12-1.76-.78" class="st5"/></g><g class="st9"><path d="m253.3 469.95.02-2.76 32.68.2s2.45 1.49 2.3 2.57l-35-.01z" class="st5"/></g><path d="M269.85 459.55c0 .17-.83.26-1.64.82-.82.54-1.22 1.27-1.38 1.21-.15-.03.07-1.03 1.06-1.69.98-.67 1.99-.49 1.96-.34zM273.47 460.94c.04.16-.67.46-1.22 1.18-.57.7-.69 1.47-.86 1.46-.16.03-.3-.94.4-1.82.69-.89 1.67-.98 1.68-.82zM275.61 465.17c-.15.04-.4-.79 0-1.71.4-.93 1.17-1.31 1.25-1.17.1.13-.4.64-.72 1.4-.34.75-.37 1.46-.53 1.48zM269.45 455.54c-.07.15-.84-.06-1.77.03-.94.07-1.67.4-1.76.26-.1-.12.6-.75 1.71-.84 1.1-.09 1.9.42 1.82.55z" class="st3"/><path d="m269.45 445.64-.03 3.13-16.76.28-.1-2.82z" class="st10"/><path d="M269.42 451.99c0 .07-.65.19-1.71.03a7.7 7.7 0 0 1-1.8-.5c-.33-.14-.66-.3-.99-.5-.16-.1-.35-.19-.53-.39-.19-.17-.31-.61-.1-.88.17-.27.47-.39.72-.4.25-.01.46.03.64.07.38.08.74.2 1.07.34.66.28 1.2.64 1.6.99.81.71 1.1 1.33 1.04 1.36-.07.06-.47-.45-1.29-1.04-.41-.29-.93-.59-1.54-.82-.31-.11-.64-.21-.99-.28-.36-.09-.67-.08-.76.08-.03.06-.04.09.04.19s.23.19.39.28c.31.19.61.35.92.49.6.28 1.18.47 1.67.59.98.27 1.62.3 1.62.39z" class="st3"/><path d="M269.21 452.24c-.06.03-.4-.56-.49-1.64-.04-.53 0-1.18.19-1.88.1-.34.23-.7.41-1.05.19-.34.42-.8 1.07-.89.34-.02.62.23.73.46.12.23.15.43.19.62a3.953 3.953 0 0 1-.65 2.93c-.64.9-1.33 1.12-1.35 1.06-.06-.08.51-.42 1-1.28.24-.42.45-.98.5-1.62.03-.32.01-.65-.06-.99-.06-.36-.21-.65-.34-.61-.17 0-.45.28-.58.57-.17.31-.3.63-.4.94-.2.62-.28 1.21-.29 1.71-.03 1.02.16 1.64.07 1.67zM176.63 404.97c1.2 0 6.94 23.41 6.94 23.41l-53.08 7.91 3.37 21.17s62.67-4.19 66.96-5.17c7.64-1.74 13.42-9.13 13.17-18.83-.29-11.16-6.82-37.47-6.82-37.47l-30.54 8.98z" class="st3"/><path d="m210.01 408.82-30.8 2.23s2.56 5.33 11.23 5.94c8.67.62 21.32 0 21.32 0l-1.75-8.17z" class="st10"/><path d="M275.71 387.09c-.69-9.59-8.94-16.9-18.55-16.91l-9.44-.01-51.01 2.64-27.69-8.43s-9.62 17.21-4.09 31.6c3.48 9.04 11.16 15.11 20.34 16.67 11.52 1.96 64.33-9.15 64.33-9.15v47.04l23.96-.62 2.19-61.92c0-.3-.02-.6-.04-.91z" class="st3"/><path d="M249.61 403.51c0 .01-.1.04-.31.08l-.93.19c-.85.16-2.05.38-3.58.67-3.14.57-7.64 1.38-13.17 2.37-5.57.99-12.2 2.16-19.54 3.45-3.68.64-7.54 1.32-11.54 2.02-4.01.72-8.27 1.04-12.59.72-2.16-.16-4.29-.49-6.34-1.01-2.04-.53-4.05-1.17-5.86-2.16-3.66-1.93-6.45-4.94-8.45-8.11a29.034 29.034 0 0 1-3.9-9.89c-.65-3.29-.66-6.44-.34-9.26.81-5.63 2.32-9.99 3.47-12.93.59-1.47 1.12-2.58 1.5-3.32.19-.37.35-.65.46-.83.11-.18.17-.27.18-.27.01 0-.04.1-.13.29-.1.22-.24.5-.41.85-.35.75-.85 1.87-1.41 3.35-1.09 2.94-2.54 7.32-3.3 12.9-.3 2.79-.26 5.9.4 9.13.64 3.23 1.89 6.59 3.88 9.72 1.98 3.12 4.72 6.04 8.28 7.92 1.76.95 3.74 1.58 5.75 2.1 2.02.51 4.12.83 6.26.99 4.28.32 8.48.01 12.47-.7 4-.69 7.87-1.36 11.55-1.99 7.36-1.26 13.98-2.39 19.56-3.34 5.55-.93 10.05-1.68 13.2-2.21 1.53-.25 2.74-.44 3.59-.58.39-.06.7-.1.94-.14.2-.01.31-.02.31-.01zM186.69 453.83c0 .01-.09.02-.26.04-.2.02-.45.04-.76.07-.7.06-1.69.14-2.95.24-2.61.2-6.35.48-11.03.83l-37.82 2.69-.23.02-.04-.23c-.87-5.45-1.8-11.26-2.75-17.26-.21-1.32-.42-2.64-.62-3.91l-.04-.26.26-.04c21.99-3.23 41.23-6.06 53.1-7.8l.05-.01.04.02c3.66 1.8 6.24 3.76 7.9 5.19.83.72 1.43 1.32 1.82 1.73.18.2.32.35.43.48l.14.17s-.06-.04-.17-.14c-.12-.12-.27-.26-.46-.45-.41-.39-1.02-.97-1.86-1.66-1.68-1.38-4.28-3.3-7.93-5.04l.09.01c-11.86 1.79-31.08 4.7-53.06 8.02l.22-.3c.2 1.27.41 2.58.62 3.91.95 5.99 1.87 11.81 2.74 17.26l-.27-.21c15.19-1.01 28.39-1.88 37.83-2.51 4.68-.29 8.43-.52 11.04-.68 1.27-.07 2.25-.12 2.96-.16.32-.01.57-.02.76-.03.16 0 .24 0 .25.01z" class="st4"/><path d="M254.93 397.76c.06.15-1.73.72-3.24 2.36-1.54 1.61-2 3.43-2.15 3.38-.06-.01-.04-.49.21-1.21s.76-1.67 1.56-2.53c.81-.85 1.72-1.42 2.43-1.71.7-.29 1.17-.35 1.19-.29zM212.06 372.18c0 .04-.5.11-1.42.21-.92.1-2.25.21-3.91.3-3.3.19-7.87.28-12.91.33-5.04.06-9.6.13-12.89.31-1.65.08-2.98.19-3.9.26-.92.08-1.43.11-1.43.08-.01-.04.5-.13 1.41-.28.91-.14 2.25-.3 3.9-.43 3.3-.28 7.87-.41 12.91-.47 5.04-.05 9.6-.09 12.9-.18 1.57-.05 2.89-.1 3.91-.13.91-.03 1.42-.03 1.43 0z" class="st4"/><path d="m201.85 297.75-.53.64c-7.05 1.32-12.77 6.92-14.72 13.82-1.94 6.85-2.53 19.54-6.51 36.73 0 0-9.75 8.83-11.57 15.46l28.16 8.5 15.37-.86 5.93-18.44c5.76 0 8.21-2.88 10.27-7.6 2.75-6.28-6.32-35.09-6.32-35.09l.65 4.92-20.73-18.08z" class="st6"/><path d="m226.03 322.05 6.84 13.92-4.2.64c-.01 0-2.61-13.52-2.64-14.56z" class="st10"/><path d="M220.77 353.58c-.01-.05.49-.16 1.33-.53.83-.37 1.98-1.06 3.1-2.24 1.11-1.17 2.18-2.84 2.83-4.89.65-2.04.83-4.44.65-6.93-.19-2.49-.68-4.83-1.15-6.96-.47-2.13-.9-4.05-1.17-5.69-.27-1.63-.39-2.97-.41-3.9-.02-.93.03-1.44.05-1.44.04 0 .06.51.15 1.43.08.92.25 2.23.57 3.85.31 1.61.78 3.52 1.27 5.64.5 2.13 1.01 4.49 1.2 7.03.19 2.53-.01 5-.71 7.11-.7 2.11-1.84 3.82-3.02 5-1.2 1.18-2.41 1.85-3.29 2.17-.44.15-.79.26-1.03.29-.24.06-.37.08-.37.06z" class="st3"/><path d="M188.11 324.35s9.52 32.81 15.73 37.81c6.28 5.05 11.55-.08 11.55-.08l1.15-5.65-28.43-32.08z" class="st10"/><path d="M277.99 321.73c-1.09-.97-1.72-.62-1.72-.62s.58-2.65-.8-3.59c-.42-.29-.66-.44-.78-.51-.15-.35-1-2.26-2.43-2.58 0 0-.19-2.49-1.25-2.73-2-.44-2.83 1.69-2.83 1.69l-3.59 6.86-1.72 6.97-29.39 13.69 3.15 13.48 32.99-17.04 5.89-5.64c0-.01 3.57-9.01 2.48-9.98z" class="st15"/><path d="M190.29 314.46c-.04 1.05 16.59 44.35 24.44 47.37 2.99 1.15 48.25-15.82 48.25-15.82l-5.51-16.68s-31.66 10.64-32.72 10.6c-1.05-.04-10.95-27.44-10.95-27.44s-6.21-13-15.54-8.95c-5.96 2.6-7.97 10.92-7.97 10.92z" class="st6"/><path d="M224.76 339.93s.2-.09.58-.22c.42-.14.99-.34 1.72-.59 1.54-.52 3.77-1.26 6.59-2.2 5.73-1.88 13.89-4.56 23.75-7.79l.2-.07.07.21c1.68 5.06 3.55 10.69 5.53 16.67l.07.22-.22.08c-7.1 2.74-14.89 5.67-23.04 8.56-4.98 1.77-9.86 3.45-14.63 4.93-2.39.72-4.73 1.44-7.09 1.96-.59.14-1.17.28-1.78.34l-.9.12c-.3.05-.65 0-.96-.08-1.22-.4-2.08-1.28-2.88-2.11-1.56-1.72-2.78-3.62-3.92-5.47a94.012 94.012 0 0 1-3.07-5.53c-1.88-3.62-3.47-7.07-4.89-10.23-2.82-6.33-4.89-11.54-6.29-15.15-.7-1.81-1.22-3.22-1.57-4.17-.16-.46-.29-.82-.39-1.09-.08-.25-.12-.38-.11-.38.01 0 .06.12.16.36.11.27.25.62.44 1.07.39.97.95 2.36 1.66 4.14 1.46 3.59 3.58 8.77 6.44 15.08 1.43 3.15 3.05 6.58 4.93 10.18.94 1.8 1.96 3.64 3.08 5.49 1.14 1.83 2.35 3.71 3.88 5.38.77.8 1.62 1.64 2.66 1.97.49.17 1.07 0 1.65-.06.58-.06 1.15-.2 1.73-.33 2.33-.51 4.67-1.24 7.04-1.96 4.75-1.48 9.63-3.17 14.6-4.93 8.14-2.89 15.93-5.81 23.03-8.53l-.14.31c-1.97-5.99-3.82-11.63-5.48-16.69l.27.14c-9.89 3.16-18.07 5.78-23.81 7.62-2.84.89-5.07 1.6-6.63 2.08-.74.23-1.32.4-1.74.53-.33.1-.54.14-.54.14z" class="st3"/><path d="M200.89 303.17c0-.02.16-.04.46-.06.3-.02.75-.04 1.33-.01 1.14.07 2.88.28 4.69 1.36.91.53 1.77 1.31 2.58 2.22.82.9 1.61 1.94 2.36 3.08 1.53 2.28 2.74 5.04 4.03 7.89 2.5 5.76 4.32 11.15 5.6 15.05.64 1.95 1.13 3.54 1.46 4.64.33 1.1.5 1.71.46 1.72-.03.01-.27-.58-.65-1.66-.41-1.16-.96-2.71-1.62-4.58-1.37-3.87-3.24-9.22-5.73-14.96-1.28-2.85-2.47-5.59-3.95-7.84-.73-1.13-1.49-2.16-2.28-3.06-.78-.91-1.59-1.66-2.45-2.19-1.71-1.08-3.4-1.34-4.51-1.47-1.14-.11-1.78-.08-1.78-.13z" class="st3"/><path d="M272.25 314.52c.12.07-.25.96-.83 1.98s-1.16 1.79-1.28 1.72c-.12-.07.25-.96.83-1.98.59-1.02 1.16-1.79 1.28-1.72zM274.29 316.92c.12.09-.31.88-.87 1.83-.56.95-1.04 1.71-1.17 1.65-.13-.06.15-.94.72-1.91.57-.98 1.21-1.66 1.32-1.57zM276.28 321.09c.13.06-.04.68-.38 1.39-.34.7-.72 1.22-.85 1.16-.13-.06.04-.68.38-1.39.34-.7.73-1.22.85-1.16z" class="st17"/><path d="M224.83 339.5c.13.09-.85 1.6-1.58 3.67-.74 2.06-.93 3.85-1.09 3.84-.13 0-.17-1.87.6-4.02.76-2.15 1.97-3.58 2.07-3.49z" class="st3"/><path d="m233.96 188.62-7.88-3.19s-1.33 1.95.8 3.89c2.14 1.95 4.68 3.07 4.68 3.07s.9 4 2.92 6.04 6.59-1.18 6.59-1.18 0-5.98-7.11-8.63z" class="st13"/><path d="M245.79 214.25c-.94-1.32-1.88-.53-1.88-.53s1.11-2.8-.24-4.07c-.41-.39-.64-.6-.76-.7-.1-.41-.69-2.65-2.19-3.26 0 0-.01-2.64-1.13-3.06-1.77-.67-3.75 1.34-3.75 1.34l-4.55 6.71-6.78 11.25 3.78 12.01 10.76-6.7 2.14-2.08c0 .01 5.7-9.37 4.6-10.91z" class="st11"/><path d="M240.81 205.57c.12.08-.21.84-.74 1.7s-1.06 1.5-1.19 1.43c-.12-.08.21-.84.74-1.7.54-.87 1.07-1.51 1.19-1.43zM242.9 208.66c.13.02-.08 1.31-.99 2.61-.9 1.3-2.03 1.95-2.1 1.84-.09-.12.84-.92 1.67-2.13.86-1.22 1.28-2.37 1.42-2.32zM243.86 213.28c.13.05-.09.84-.7 1.61-.6.78-1.31 1.19-1.39 1.08-.09-.12.42-.67.98-1.4.56-.71.97-1.35 1.11-1.29z" class="st12"/><path d="M223.27 199.07a12.8 12.8 0 0 0 4.78 3.55c.75.32 1.57.57 2.37.4.8-.17 1.52-.9 1.43-1.71-.06-.6-.52-1.07-.96-1.48-1.19-1.15-2.38-2.29-3.57-3.44.42.62.84 1.25 1.42 1.73.58.47 1.35.77 2.08.62.73-.15 1.37-.85 1.28-1.59-.05-.46-.35-.85-.64-1.22-1.55-1.96-3.1-3.93-4.65-5.89" class="st13"/><path d="M231.82 201.7c.03 0 .05.17-.06.45-.12.28-.41.62-.87.89-.46.26-1.06.48-1.77.49-.72 0-1.47-.25-2.15-.65-2.72-1.63-3.93-3.98-3.8-4.01.13-.11 1.49 2.03 4.06 3.56.63.37 1.29.6 1.9.62.6.02 1.17-.14 1.59-.33.89-.39 1.03-1.04 1.1-1.02zM232.02 197.74c.03.01 0 .17-.16.42-.15.26-.53.55-1.05.67-1.05.23-2.53-.12-3.81-1.07-1.24-1.01-1.92-2.27-2.36-3.16-.43-.9-.63-1.48-.57-1.51.07-.03.39.49.9 1.34.51.83 1.23 2.01 2.36 2.92 1.15.86 2.52 1.23 3.42 1.11.94-.11 1.19-.79 1.27-.72z" class="st14"/><path d="M230.67 202.99c.01-.03.2.02.44.24s.55.63.61 1.25c.06.61-.24 1.4-.95 1.86-.73.48-1.72.37-2.53.06a8.768 8.768 0 0 1-3.61-2.55c-.73-.88-.99-1.54-.94-1.57.07-.04.44.54 1.21 1.32.76.78 1.97 1.73 3.52 2.31.76.29 1.55.36 2.1.02.56-.33.84-.94.83-1.43 0-.51-.22-.9-.39-1.13-.17-.24-.31-.34-.29-.38zM236.04 199.06c.02.05-1.16-.01-2.4-1.25-.61-.61-1.15-1.51-1.5-2.59-.17-.54-.3-1.12-.38-1.72-.04-.29-.09-.57-.22-.77-.11-.19-.35-.31-.64-.44-1.15-.53-2.27-1.05-3.16-1.77-.9-.71-1.46-1.62-1.77-2.42-.31-.8-.33-1.54-.22-2.01.12-.47.3-.68.32-.67.04.02-.08.25-.12.7-.05.44.02 1.1.36 1.83.33.73.87 1.54 1.72 2.18.84.65 1.93 1.14 3.08 1.67.27.13.65.29.86.64.2.33.24.68.29.97.08.58.19 1.13.34 1.65.3 1.03.78 1.88 1.31 2.48 1.08 1.24 2.17 1.43 2.13 1.52z" class="st14"/><path d="m260.91 292.08 6.13-4.75s1.65 1.38.26 3.62c-1.4 2.24-3.35 3.85-3.35 3.85s.2 3.74-1.07 6.03-6.08.59-6.08.59-1.48-5.26 4.11-9.34z" class="st15"/><path d="M270.33 298.26c-.84 1.18-1.74 2.41-3.02 3.08-.52.27-1.31.24-1.89.16-.58-.08-1.14-.56-1.13-1.14.01-.43.32-.8.6-1.12.79-.89 1.58-1.78 2.37-2.68-.26.47-.53.95-.92 1.32-.39.37-.92.63-1.46.57s-1.03-.53-1.01-1.07c.01-.34.2-.63.39-.91 1-1.5 2-3 3.01-4.5" class="st15"/><path d="M270.33 300.37a6.673 6.673 0 0 1-2.95 2.97c-.5.25-1.08.44-1.61.28a1.35 1.35 0 0 1-.93-1.05c-.08-.48.13-1.01.52-1.3" class="st15"/><path d="M265.35 301.28c.07.05-.4.4-.36 1.12.03.34.26.73.66.92.39.19.93.11 1.45-.14 1.07-.5 1.88-1.24 2.39-1.83.51-.59.76-1.02.84-.99.06.03-.08.53-.54 1.21a6.24 6.24 0 0 1-2.46 2.08c-.57.27-1.31.41-1.88.09-.56-.3-.82-.88-.81-1.34.01-.47.23-.79.39-.96.17-.15.31-.19.32-.16z" class="st17"/><path d="M264.45 300.41c.07-.02.22.41.87.62.31.11.72.18 1.14.13.42-.05.87-.25 1.3-.55 1.74-1.23 2.63-2.82 2.76-2.73.12.03-.58 1.82-2.47 3.16-.47.33-1.01.56-1.54.59-.53.03-.98-.1-1.33-.27-.35-.17-.58-.42-.68-.62-.1-.19-.08-.32-.05-.33zM264.08 297.86c.07-.06.3.39.96.4.64.02 1.58-.33 2.34-1 .74-.7 1.2-1.59 1.53-2.2.33-.63.55-1.02.61-.99.06.03-.03.46-.28 1.14-.26.67-.66 1.63-1.51 2.44-.88.77-1.94 1.1-2.73.98-.39-.07-.69-.27-.81-.45-.11-.19-.13-.31-.11-.32z" class="st17"/><path d="M261.66 301.76c-.06-.07.84-.52 1.48-1.86.32-.66.52-1.52.53-2.49.01-.49-.03-1-.11-1.53-.04-.27-.09-.58.01-.93.1-.37.39-.61.6-.79.88-.75 1.72-1.45 2.29-2.23.59-.76.87-1.61.98-2.33.11-.72.02-1.32-.13-1.69-.15-.38-.31-.56-.27-.59.02-.02.23.11.46.5.22.38.39 1.04.32 1.82s-.34 1.72-.95 2.57c-.6.86-1.47 1.59-2.34 2.34-.23.19-.39.35-.44.54-.06.2-.04.45 0 .72.07.55.11 1.09.09 1.61-.04 1.03-.3 1.96-.68 2.65-.81 1.4-1.84 1.74-1.84 1.69z" class="st17"/><path d="M217.3 128.17c.06 0 .27 1 .34 2.68.02.84-.02 1.86-.36 2.95-.18.53-.4 1.11-.86 1.6-.23.24-.54.44-.89.53-.35.09-.78.05-1.1-.17-.65-.46-.83-1.15-.99-1.73-.14-.59-.25-1.16-.34-1.71-.17-1.1-.22-2.1-.21-2.93.02-1.68.25-2.69.31-2.68.08.01-.01 1.03.06 2.67.04.82.13 1.8.31 2.86.09.53.21 1.09.36 1.66.14.54.36 1.14.78 1.42.41.28.99.1 1.35-.28.37-.38.59-.9.77-1.39.34-1 .42-1.98.45-2.79.02-1.66-.07-2.69.02-2.69zM220.9 130.67c.07 0 .13.56.12 1.46-.03.89-.11 2.2-.83 3.47-.18.31-.38.6-.64.85s-.62.44-1 .43c-.77-.04-1.19-.62-1.35-1.07-.28-.94-.11-1.49-.07-1.49.1-.02.09.59.41 1.35.16.35.56.74 1.01.73.45-.01.88-.5 1.19-1.06.65-1.13.8-2.36.92-3.23.1-.88.16-1.44.24-1.44z" class="st12"/><path d="M210.04 146.78c3.18-2.01.52-12.81-1.46-15.35 2.17-2.2 3.17-4.67 1.62-7.35-2.01 2-5.41 4.49-6.03 10l.62 4.2 5.25 8.5z" class="st11"/><path d="M210.8 142.29c-.09-.02.3-1.09.33-2.87.04-1.75-.49-4.27-2.19-6.39-.33-.42-.7-.81-1.07-1.15l-.24-.22.26-.18a6.198 6.198 0 0 0 2.61-4.89c.03-1.47-.36-2.32-.28-2.34.03-.01.15.18.29.58.14.39.3.99.32 1.76.02.76-.1 1.71-.52 2.66a6.55 6.55 0 0 1-2.14 2.64l.02-.4c.39.36.78.76 1.13 1.21 1.79 2.22 2.28 4.91 2.15 6.72a9.35 9.35 0 0 1-.38 2.13c-.13.5-.26.75-.29.74z" class="st12"/></g></svg>